/* XPM */
static char *a4fde0a7707a4d77d8c223f8d9ea88b1asRMdYuEsuqh1nSA[] = {
/* columns rows colors chars-per-pixel */
"64 64 157 2 ",
"   c #003FAF",
".  c #0045B5",
"X  c #004AB7",
"o  c #0447B8",
"O  c #024CBA",
"+  c #0A4DBE",
"@  c #0153BE",
"#  c #0059BE",
"$  c #0255C2",
"%  c #0B56C4",
"&  c #015BC5",
"*  c #0A5AC6",
"=  c #025ECA",
"-  c #0A5DC9",
";  c #1056C6",
":  c #0061C6",
">  c #0164CC",
",  c #0A62CC",
"<  c #0E60CC",
"1  c #0D62CD",
"2  c #0C63CD",
"3  c #0865CD",
"4  c #0C64CE",
"5  c #0F64CF",
"6  c #0B62CC",
"7  c #0268CD",
"8  c #0269CE",
"9  c #0369CE",
"0  c #016BCF",
"q  c #036ACF",
"w  c #0568CE",
"e  c #0768CF",
"r  c #0669CF",
"t  c #046ACF",
"y  c #006ACE",
"u  c #0868CF",
"i  c #0072CF",
"p  c #0763D0",
"a  c #0365D0",
"s  c #0166D0",
"d  c #0067D0",
"f  c #0564D0",
"g  c #0665D1",
"h  c #0466D1",
"j  c #0566D1",
"k  c #0567D2",
"l  c #0667D2",
"z  c #0366D1",
"x  c #0A66D3",
"c  c #0B65D2",
"v  c #0068D1",
"b  c #0168D1",
"n  c #0069D2",
"m  c #0368D2",
"M  c #0269D2",
"N  c #016AD3",
"B  c #036AD3",
"V  c #046BD0",
"C  c #076AD0",
"Z  c #0469D3",
"A  c #0668D3",
"S  c #056CD1",
"D  c #066CD1",
"F  c #066DD2",
"G  c #046ED2",
"H  c #026BD4",
"J  c #0769D4",
"K  c #056AD4",
"L  c #046BD4",
"P  c #066BD5",
"I  c #036CD5",
"U  c #026DD5",
"Y  c #036ED6",
"T  c #056CD5",
"R  c #046DD6",
"E  c #076CD6",
"W  c #066DD6",
"Q  c #056ED7",
"!  c #046FD7",
"~  c #076ED7",
"^  c #026DD3",
"/  c #0869D0",
"(  c #0968D4",
")  c #096AD5",
"_  c #086FD4",
"`  c #096FD4",
"'  c #086DD7",
"]  c #0B6CD7",
"[  c #0B6CD5",
"{  c #066FD8",
"}  c #066FD8",
"|  c #086FD8",
" . c #0A6FD9",
".. c #0C6ED9",
"X. c #0E6FDA",
"o. c #0F6EDA",
"O. c #0B6ED8",
"+. c #1066D2",
"@. c #116BD4",
"#. c #116DDA",
"$. c #0270D2",
"%. c #0571D4",
"&. c #0670D4",
"*. c #0472D4",
"=. c #0573D5",
"-. c #0474D6",
";. c #0674D6",
":. c #0775D7",
">. c #0273D5",
",. c #0A71D6",
"<. c #0973D7",
"1. c #0A72D7",
"2. c #0079D6",
"3. c #0770D9",
"4. c #0671D9",
"5. c #0774DB",
"6. c #0574DA",
"7. c #0970D9",
"8. c #0A71DA",
"9. c #0B70DA",
"0. c #0B72DB",
"q. c #0A73DC",
"w. c #0B74DD",
"e. c #0A75DD",
"r. c #0D74DD",
"t. c #0C75DE",
"y. c #0D76DF",
"u. c #0F76DF",
"i. c #0A75DB",
"p. c #037BDB",
"a. c #0A7BDD",
"s. c #1272DB",
"d. c #107BDF",
"f. c #047EE1",
"g. c #0B7CE2",
"h. c #1077E0",
"j. c #1377E1",
"k. c #117CE3",
"l. c #0381DE",
"z. c #0880DF",
"x. c #0584E2",
"c. c #0A84E4",
"v. c #038BE5",
"b. c #0B89E6",
"n. c #0D84E8",
"m. c #038CE9",
"M. c #0D8CE9",
"N. c #1183E5",
"B. c #1088E7",
"V. c #1084E9",
"C. c #128CEA",
"Z. c #0493EA",
"A. c #0A93ED",
"S. c #1191EE",
"D. c #1594F1",
"F. c #1991F0",
"G. c #1798F4",
/* pixels */
"- - - - - , - < & & * : > 3 3 3 = = & & = > s = s J J J J J s f m J K K J s = & - = - - = ; = % + o $ o O X X . O O + % + + + o ",
"- - * - - - , > : , > 3 3 w u w f > = = = s = & s s f f J m s s K K ] | | ] c c = = = p = = % $ $ $ $ $ @ @ O X . o o O o o o   ",
"* - : > > > 3 3 u / / F F t F F K K K K I s = & = s s s s = > > s s J E  .o.o.o.= = p - * $ $ $ $ $ $ $ @ + @ + . . o o . .     ",
"> : > > 7 3 9 V ` ` ,.&.&.&.&.&.| ' } | | E s = > = > > s s = > > > s s m J J J p p p = = = $ $ $ $ $ $ & % * * O @ O O o . . . ",
": > > > 9 t V F *.*.&.*.-.-.-.-.I K } 9.h.r.} s > s s s s s > > 7 s > 7 s s s s s J f f = = & & $ $ @ @ $ & - < - - % % % $ + O ",
"& : : : > 9 V V w 9 i $.*.*.:.:.I I ~ 8.h.h.0.} s m I I I B I s } R I I m m m m I I J J g a = = $ $ @ $ $ & , 1 1 < , - * * ; - ",
"# # # & & & : : : > 7 9 t ,.1.1.} R Y } 9.h.g.9.R } } 5.} } R I 9.5.4.Y R R } | R R E } R m m s = f = & & & : : 4 , > - - - 1 1 ",
"X X X # # # & & & & : 3 u ,.@.1.9.} I R 5.q.9.5.} 5. .9.9.9.5.5.5.6.4.R R R 5.5.R 4.R ! | R R R #.( s = & & & : 3 : * & & = , 1 ",
". . . . O O O O X @ O $ & - 1 3 } } 5.5.} } 4.Y R ' q.R I m } g.f.5.5.5.4.f.! ! g.q.! ! Q } } ! -.1.&.F 0 w 9 9 : w [ u : # & : ",
"o o O O O O O O X X O @ % - < 4 K Y R 5.5.R Y Y q.f.h.' I I I 4.f.5.f.6.q.f.f.f.f.f.f.f.f.f.f.4.p.-.-.1.$.$.i t 9 F F F 3 > > > ",
"+ + + + + O O O X X @ $ % * - 1 > B Y 4.Y 4.$.4.f.w.g.f.4.R Q } f.5.f.6.f.f.f.g.f.f.f.f.f.f.f.m.p.a.p.2.2.-.i *.-.N 0 $.,.;.&.t ",
"; ; % % % % % @ O @ @ @ $ & - & 7 9 B Y Y 4.4.R | w.h.h.w.f.4.} | f.f.f.f.n.n.n.n.x.f.f.m.g.A.V.x.z.z.z.p.a.z.l.a.2.i $.:.a.i.;.",
"< < < - - = * & @ # # # & & : : 7 9 N $.4.4.4.4.R Y 4.5.g.g.g.5.6.f.f.g.n.n.x.x.m.x.m.m.m.n.A.S.x.x.x.z.z.z.z.z.p.>.i i a.z.d.:.",
"c u 3 u 3 3 3 9 & : : > : 7 : 7 B N N $.$.4.$.$.I I Y 6.g.g.g.g.6.f.f.n.n.x.f.f.x.m.f.m.m.m.m.A.x.x.x.v.z.c.v.z.z.a.2.2.a.z.N.z.",
"t F F F *.*.F *.$.$.>.>.$.$.2.2.$.4.4.6.6.4.4.4.$.B B Y 5.g.g.g.6.6.f.x.f.x.f.f.x.x.m.m.m.m.m.m.v.v.c.z.l.v.b.z.b.c.z.z.a.z.N.C.",
"$.$.&.*.*.-.5.p.p.p.p.p.p.p.p.p.4.4.6.6.>.4.$.Y 5.Y 7 B Q w.w.9.f.f.f.x.x.f.f.f.x.m.f.x.f.m.m.m.v.l.z.v.z.v.c.c.B.C.C.N.z.z.B.F.",
"8.5.9.5.8.5.q.5.g.y.f.f.a.6.p.6.6.R I ~ } K s = = = = a p #.j.j.f.f.f.x.f.m.m.x.f.f.f.f.f.x.x.x.l.l.l.v.z.z.M.z.z.M.l.z.C.C.C.C.",
"~ ~ | 9.5.9.q.y.g.g.5.5.p.6.6.>.R R B I x k > & & $ $ $ = < +...6.f.f.x.f.x.f.x.f.f.f.f.x.x.f.x.x.z.l.l.l.l.l.l.l.l.l.l.z.b.b.z.",
"7 s I } 8.q.g.y.6.5.6.6.6.4.4.4.R I B B m s = & $ O $ $ $ = = = 6.6.f.f.f.x.x.f.f.x.x.x.x.f.f.x.z.l.p.2.2.i i i i i l.l.l.l.l.b.",
"> > s s B ~ ~ 5.$.4.4.>.R 4.$.4.4.R I Y R m > = = $ & & = $ $ = 4.p.f.f.f.f.f.f.x.x.x.x.x.x.x.x.x.z.l.l.2.l.2.l.i i i l.l.l.l.z.",
"= > > > 7 s 7 7 N Y N $.$.Y Y $.5.5.} } 9.q.R s s s s I k f s s 4.p.p.f.f.f.f.f.f.f.f.x.x.n.n.n.x.x.z.c.z.b.z.z.l.z.z.z.z.z.b.l.",
"= = = = = : = = B B Y N R 4.$.4.f.6.5.g.g.g.5.5.5.| 9.9.0.| | R 6.p.p.f.f.x.x.f.f.f.f.f.g.x.m.n.x.x.z.b.M.M.M.S.S.M.M.M.M.M.b.b.",
"= = = = = > s 7 B B N Y 4.4.R 4.6.6.f.g.n.k.g.g.f.5.h.g.g.h.g.5.6.f.f.f.f.f.x.f.f.f.f.f.f.f.f.x.x.x.c.b.b.M.M.M.M.M.b.C.M.C.M.M.",
"& = = s s k K I B B Y Y Y 4.4.4.6.6.6.g.n.n.n.g.6.5.f.g.g.g.f.5.6.f.f.f.n.n.f.g.f.f.f.f.f.f.f.f.x.c.z.b.z.b.b.b.z.b.b.b.b.M.C.S.",
"s x ....g g ( ( q.3.R R R 5.9.g.R R 4.p.g.g.n.n.g.f.g.g.g.n.g.f.6.p.f.f.g.g.n.f.g.n.g.f.f.f.f.p.l.l.l.l.l.l.l.l.l.l.z.b.b.l.l.l.",
"x ] #.#.] ( ' O.r.O.q.' } 5.g.9.f.g.g.g.g.g.g.g.n.g.f.g.f.f.f.f.f.f.f.n.g.n.g.n.n.n.n.n.n.g.g.f.l.l.i l.l.l.i i i l.i l.l.l.i l.",
"c #.#.s...] ] O...' ' I K R Y 4.g.g.g.g.g.g.g.g.n.g.n.n.g.g.f.f.f.f.f.g.g.g.g.f.n.n.g.n.g.g.n.c.l.l.l.i l.l.l.l.i l.i i i i l.l.",
"p c ] ] x g g J f a a a > > : = s m I R h.g.g.g.g.f.f.f.f.g.f.f.4.4.6.f.f.f.f.f.g.g.f.g.f.g.g.f.l.l.l.l.l.z.b.l.b.z.l.l.l.l.l.l.",
"= = p p = = = f = a = = = = = & & & = > s B R R s s B N $.>.4.>.Y 4.R 4.g.f.h.f.f.g.g.g.g.g.z.N.l.l.l.l.b.b.C.b.D.S.M.b.l.l.l.z.",
"$ = - p = = = = a a J m B s 7 > = = = = > : > > I Y 4.4.6.f.5.f.$.4.6.h.g.g.g.g.5.f.5.g.k.N.N.N.l.l.l.z.b.b.b.b.C.M.z.z.l.l.l.l.",
"= p p p p = = f g ( ]  .| 8.~ K = s f J J m I I g.h.g.g.f.f.g.f.6.f.f.f.f.6.| ! R 4.$.4.a.f.a.z.z.l.l.l.b.b.z.l.l.z.z.l.l.l.l.i ",
"p +.#.+.x p ( ( g J .. .9.r.8.| s J x  . .h.j.k.h.g.5.5.4.$.Y Y q.5.9.5.} I m m : > 7 B s I &.i z.;.l.i z.z.z.l.z.b.b.b.C.b.z.l.",
"@.+.[ @.@.[ @.,.t t ,.;.r.r.y.d.5.9.5.9.5.h.9.g.Y I Y 5.5.q.q.g.} ' f s = = & & O O X O & > s s I N 0 >.a.-.>.2.2.2.2.p.b.C.C.M.",
"* & , : 3 > 3 : t t t &.*.;.2.*.5.R 5.5.5.9.g.h.q.g.q.5.4.Y I I k f p s = a = = & & $ $ & = = = : : : 7 0 0 7 : $.$.2.2.z.B.B.n.",
"# & & & & : : : ,.F ,.*.*.*.i t s B B Y R 5.5.5.g.h.q.5.R Y s s > s p s g J J J f = & & & & $ O & # & & : : & & 7 7 7 i 1.N.d.d.",
"# & & # & : : : F F ;.,.:.:.;.;.s 7 s B s s s I 5.5.4.4.4.4.} } s J J x .. .o.o.] m = = = = & $ & # & : 3 : & # & & & : u 1.s.@.",
": & : & : : : : 7 7 0 &.,.;.;.;.Y I I B R m m s Y ~ R 5.5.9.g.g.h.h.w.h.h.h.h.h.| E I I s 7 > & & & * : 3 > & # $ # # & 1 +.+.+.",
": : : : > : > 7 : : 7 7 i ;.;.;.q.g.9.5.! R R R r.g.q.q.9.5.9.5.g.h.h.h.h.h.f.h.5.| R R 5.5.Y B > : : : 3 , * # & & $ & < 1 < < ",
"t i t F u t F i 9 9 0 i ` i ;.;.5.5.5.5.w.h.g.h.k.k.k.g.h.g.9.5.h.f.f.g.f.h.g.g.g.g.g.g.g.5.6.$.~ N t ,.[ u u : * & & & - < * * ",
"i.i.r.r.d.d.d.d.:.i.a.r.d.a.i.i.s B Y R ' f.h.h.k.k.k.k.h.g.g.g.6.! 6.! h.f.h.f.g.g.g.g.g.g.6.$.g.a.a.a.N.d.1.,.7 : * : : 3 : # ",
"` ;.-.1.:.:.1.1.a.:.a.a.d.1.i.1.B B B B Y Y 5.q.g.g.h.q.5.Y I B 6.4.Y Y $.$.>.>.f.f.f.f.g.f.g.g.b.b.b.b.B.c.z.p.5.-.F t 7 > > > ",
"9 i N $.2.t $.i 9 9 9 i 0 t 0 0 > : > s B Y 5.5.B B s s 7 7 7 : I I $.$.4.4.Y Y 6.6.6.5.f.f.g.x.l.l.z.l.l.z.p.l.p.p.2.2.*.$.$.i ",
"i 9 i i i 0 0 0 9 9 9 i i ,.&.*.7 > > 7 s 7 s B 7 > 7 s m I I I : 7 R >.>.$.9 > B B Y 4.>.a.a.p.l.l.l.2.l.2.2.p.p.l.z.c.z.z.p.p.",
"i 2.2.$.2.2.$.$.&.i i i 1.1.1.r.Y Y Y I B B s : B B I Y R 4.5.5.7 7 Y Y N 9 7 > > : 7 9 0 N N N 2.l.2.2.i i 2.2.2.l.z.b.C.b.b.z.",
"2.2.2.2.2.2.0 0 9 y 7 y 7 N F *.5.5.q.q.5.5.Y I Y Y Y I Y I 5.$.B B 9 9 9 9 B 9 9 B B B 9 9 9 7 2.2.i 9 i 2.$.2.2.p.z.N.B.N.N.z.",
"$.$.2.2.N i i 0 9 9 : 7 7 9 F &.I 4.q.g.g.h.g.q.5.q.5.5.5.5.5.i.Y Y B B B B Y Y 5.$.R Y N N B 0 &.N 0 i $.*.&.-.i *.2.z.z.z.z.z.",
"2.2.2.2.2.$.i 0 -.*.i 0 9 t ,.1.Y 5.8.r.y.5.} Y 5.q.y.q.9.q.i.q.Y R 5.4.Y 5.Y Y Y Y I Y Y Y B N / @.@.,.,.@.,.,.F ,.*.:.a.a.a.z.",
"z.p.a.a.p.p.$.2.5.*.i 9 0 0 F ,.i.q.g.q.*.9 = & 7 9 9 0 N N N $.Y $.9.y.y.i.*.Y 7 7 s 9 B 9 B 9 u @.@.s.s.s.@.,.,.F *.*.*.:.a.d.",
"0 0 0 i 2.&.;.:.1.*.,.*.1.1.1.1.i.:.,.i : : # # & : : : : 7 7 7 0 0 0 0 $.$.$.$.-.-.-.*.*.i i =.9 : 0 d.s.t 9 i 0 i $.-.p.2.2.2.",
"0 0 0 0 9 i t t t i 0 i &.&.&.&.` &.&.u t 7 > : 0 9 7 7 t &.t 0 7 0 i $.$.$.>.-.p.1.2.:.a.:.a.:.1.F ,.d.d.i y i i 0 $.i 0 9 7 7 ",
"9 9 0 9 9 7 7 7 7 7 7 7 9 9 0 9 y 7 9 9 t t &.$.:.1.1.;.` i &.&.9 i $.$.$.>.>.2.-.-.*.2.2.a.z.:.a.:.i.d.d.,.i *.N $.2.i y y y y ",
"7 7 7 7 : 7 7 7 > 7 : 7 9 9 9 9 : : 7 7 9 i &.&.1.1.1.1.,.,.,.` $.2.>.2.>.>.>.>.0 i 2.*.*.2.:.z.:.i.r.z.N.z.N.N.2.:.2.a.z.z.z.l.",
": 7 7 7 y y 0 t 9 9 9 0 i 0 $.i 7 7 7 0 i $.&.i 1.-.:.i.a.d.d.d.a.a.a.2.2.-.$.i $.$.2.$.i l.:.:.i.d.d.a.a.N.N.N.N.N.B.C.C.C.C.S.",
"y : 9 0 9 i i ,.i 0 2.&.i &.*.,.-.-.*.*.1.:.1.:.:.a.a.d.d.N.N.N.z.z.p.a.2.-.2.$.2.p.p.p.:.z.z.z.z.N.z.:.:.z.z.z.C.C.C.S.C.C.b.z.",
"i i i *.*.;.;.;.*.*.*.1.:.1.i.:.1.1.:.a.a.a.a.a.a.a.a.a.a.d.z.z.z.a.a.p.p.2.p.p.a.p.a.p.z.z.z.z.a.N.a.i i z.z.z.N.z.b.b.v.l.l.l.",
":.:.1.:.*.2.;.;.*.-.1.2.:.:.-.a.2.2.-.-.p.2.a.a.2.:.2.:.2.;.;.2.2.2.2.l.z.a.a.z.2.p.2.2.:.2.i i i 2.2.y i z.C.N.l.l.l.l.l.v.l.l.",
"-.-.-.-.-.-.-.-.a.*.-.i 0 9 7 9 0 i 2.>.p.p.p.2.$.2.2.2.2.2.2.2.2.p.2.2.p.p.a.l.i i l.l.i l.i l.i i i i i i i l.z.v.z.Z.b.v.z.v.",
"-.-.-.-.-.-.-.-.a.2.-.*.$.2.i 2.2.2.>.2.p.p.p.2.a.p.a.z.a.z.a.z.2.p.l.p.l.l.l.l.l.l.l.z.z.l.l.l.l.l.l.l.l.l.l.l.v.l.v.v.v.v.v.v.",
"2.2.-.-.-.2.1.2.:.a.2.-.a.2.-.p.2.2.l.l.a.l.p.p.p.p.p.l.p.z.2.p.p.p.l.l.l.l.z.l.l.l.z.l.z.l.l.l.l.l.v.l.l.v.v.v.l.l.v.v.v.v.v.v.",
"-.p.2.p.-.p.2.p.2.2.a.p.a.p.a.p.l.2.l.l.l.p.2.p.2.2.2.2.2.p.p.l.l.l.l.2.p.l.l.l.l.l.l.l.l.l.i l.l.l.l.l.l.l.l.v.l.l.v.v.v.v.v.v.",
"p.2.2.a.2.-.2.-.*.2.2.a.a.a.p.p.l.l.l.l.l.l.2.l.l.l.2.l.l.l.b.b.l.l.2.l.l.l.2.l.l.l.l.l.l.l.l.i l.l.l.l.l.l.l.v.l.v.v.Z.Z.v.Z.Z.",
"2.i.p.-.a.2.a.2.2.2.a.z.a.z.a.p.l.l.l.l.l.l.l.l.p.2.2.l.l.v.b.S.l.l.l.l.l.2.2.l.l.v.l.l.l.l.l.l.l.l.l.l.l.v.v.v.v.v.Z.Z.Z.Z.Z.Z.",
"2.a.p.2.a.2.a.p.2.a.z.z.N.z.z.l.z.z.c.b.M.M.b.M.v.l.l.l.l.l.v.c.v.x.c.v.x.x.l.l.v.z.l.b.l.b.b.v.b.b.v.v.b.Z.A.Z.v.Z.Z.Z.Z.Z.Z.Z.",
"p.p.2.a.p.p.2.2.a.z.N.B.B.N.z.p.v.M.M.A.S.A.S.A.G.D.M.b.b.b.b.A.C.b.b.b.b.b.v.b.l.z.v.b.b.b.b.b.M.M.Z.Z.Z.A.A.A.Z.Z.A.Z.Z.Z.Z.Z."
};
