/* XPM */
static char *_6b7f59fc06e4f8bcfd3c46ecfbed39dOirqWP9pPg5JN2qQ[] = {
/* columns rows colors chars-per-pixel */
"64 64 256 2 ",
"   c #020204",
".  c #090204",
"X  c #020A06",
"o  c #02040B",
"O  c #01090C",
"+  c #080909",
"@  c #020513",
"#  c #080614",
"$  c #020A14",
"%  c #01061B",
"&  c #020B1B",
"*  c #0A0B1B",
"=  c #090915",
"-  c #021116",
";  c #03121D",
":  c #0A121D",
">  c #091719",
",  c #0D1312",
"<  c #020623",
"1  c #020C23",
"2  c #0A0D23",
"3  c #020D2A",
"4  c #090D2B",
"5  c #080625",
"6  c #021223",
"7  c #091223",
"8  c #011A25",
"9  c #02122C",
"0  c #09142C",
"q  c #031B2C",
"w  c #0B1A2C",
"e  c #0B1926",
"r  c #020E33",
"t  c #020D39",
"y  c #021433",
"u  c #0A1632",
"i  c #021A34",
"p  c #0B1B34",
"a  c #01153A",
"s  c #021B3C",
"d  c #0A1D3B",
"f  c #0A173C",
"g  c #121937",
"h  c #101929",
"j  c #04202A",
"k  c #032134",
"l  c #03223D",
"z  c #0C223D",
"x  c #092539",
"c  c #13233C",
"v  c #011643",
"b  c #021C42",
"n  c #0B1C43",
"m  c #001D4A",
"M  c #0F1640",
"N  c #001D54",
"B  c #071246",
"V  c #022244",
"C  c #0B2343",
"Z  c #02244B",
"A  c #0B254B",
"S  c #02294C",
"D  c #0C294C",
"F  c #072B46",
"G  c #112A4D",
"H  c #132745",
"J  c #012453",
"K  c #012C54",
"L  c #0C2C54",
"P  c #01245B",
"I  c #022C5B",
"U  c #0A2957",
"Y  c #122D53",
"T  c #152859",
"R  c #02325C",
"E  c #0C335C",
"W  c #073457",
"Q  c #123258",
"!  c #0E304D",
"~  c #032D63",
"^  c #002C6C",
"/  c #052C63",
"(  c #023464",
")  c #0C3463",
"_  c #013A65",
"`  c #01346C",
"'  c #033A6B",
"]  c #0B3B6C",
"[  c #0D3766",
"{  c #133C68",
"}  c #002D73",
"|  c #002E7B",
" . c #023274",
".. c #013C73",
"X. c #0B3D72",
"o. c #02347B",
"O. c #023D7A",
"+. c #0B3575",
"@. c #193268",
"#. c #203353",
"$. c #01426C",
"%. c #08456B",
"&. c #15436A",
"*. c #024374",
"=. c #0B4274",
"-. c #01437B",
";. c #024B7C",
":. c #0C4B7B",
">. c #064976",
",. c #144779",
"<. c #03527D",
"1. c #08527B",
"2. c #18537C",
"3. c #234F72",
"4. c #023582",
"5. c #033B84",
"6. c #023C8B",
"7. c #093A8A",
"8. c #003F92",
"9. c #014483",
"0. c #024B84",
"q. c #0B4B82",
"w. c #03438B",
"e. c #004D8A",
"r. c #0A4A87",
"t. c #154C85",
"y. c #025384",
"u. c #01548C",
"i. c #0C538B",
"p. c #015B8C",
"a. c #0A5786",
"s. c #145284",
"d. c #16578A",
"f. c #034295",
"g. c #024B93",
"h. c #014A9B",
"j. c #054698",
"k. c #015495",
"l. c #015B93",
"z. c #01549B",
"x. c #095898",
"c. c #145B95",
"v. c #124D9B",
"b. c #235991",
"n. c #05638C",
"m. c #006594",
"M. c #02649C",
"N. c #086898",
"B. c #17679A",
"V. c #01749D",
"C. c #027699",
"Z. c #16759D",
"A. c #07708D",
"S. c #25669A",
"D. c #246D96",
"F. c #004EA2",
"G. c #0254A4",
"H. c #025BAC",
"J. c #0758A6",
"K. c #085BB2",
"L. c #145BAB",
"P. c #026CA3",
"I. c #0D6AA3",
"U. c #0064AB",
"Y. c #0765A7",
"T. c #156BA6",
"R. c #0275A3",
"E. c #017BAC",
"W. c #0776A8",
"Q. c #1676A9",
"!. c #0366B6",
"~. c #1769B4",
"^. c #0778B6",
"/. c #147DB4",
"(. c #1879B7",
"). c #266CA5",
"_. c #2577AA",
"`. c #2679B7",
"'. c #286DB1",
"]. c #137BC3",
"[. c #2A7AC3",
"{. c #008D99",
"}. c #0385A9",
"|. c #0098A8",
" X c #0285B3",
".X c #0888B7",
"XX c #138CBB",
"oX c #1988B8",
"OX c #0795BA",
"+X c #1796BC",
"@X c #1D84AF",
"#X c #2988BA",
"$X c #2898BE",
"%X c #338BB5",
"&X c #08A7B8",
"*X c #08AEB3",
"=X c #2BA2BA",
"-X c #0C89C4",
";X c #178AC4",
":X c #0B97C6",
">X c #139CCC",
",X c #1896C6",
"<X c #1B98D4",
"1X c #0F8FD0",
"2X c #3589C4",
"3X c #2697C8",
"4X c #3298C6",
"5X c #2991CE",
"6X c #08A5C8",
"7X c #13A3C5",
"8X c #18A8CB",
"9X c #18B3CC",
"0X c #19A8D5",
"qX c #0EBAD8",
"wX c #17B7D7",
"eX c #0BACCE",
"rX c #27A8CB",
"tX c #28A9D8",
"yX c #22BDDD",
"uX c #29B5D9",
"iX c #38B7DC",
"pX c #2FACCC",
"aX c #2ABAE5",
"sX c #36B8E6",
"dX c #27AFE1",
"fX c #49ADD4",
"gX c #48BAE7",
"hX c #419FD5",
"jX c #17C3DA",
"kX c #13C7D7",
"lX c #26C8D7",
"zX c #27D4DB",
"xX c #33CBD5",
"cX c #16CBE1",
"vX c #1DD5E3",
"bX c #29C9E4",
"nX c #31CCEB",
"mX c #27D7E7",
"MX c #38D6EB",
"NX c #38DAF9",
"BX c #30D5F1",
"VX c #3AE6F9",
"CX c #33E7EE",
"ZX c #39E0D9",
"AX c #45D6EA",
"SX c #55D7E9",
"DX c #48D8FA",
"FX c #52CFF4",
"GX c #58E8F9",
"HX c #5CF7FA",
"JX c #4AEBF6",
"KX c #64FAFF",
"LX c #75FEFF",
"PX c #70E3F5",
"IX c #4ACDDA",
"UX c #9EFFFF",
/* pixels */
"        . . . .   . # * % < 5 1 O > > > > j j 8 k j j j q 8 6 ; - - - : * ; & % & @ @ @ o O X   @ O o o o o o o X o     . .     ",
"            . .     # # % < < 1 $ > j j j k x l F F F l k k j q ; > ; ; 6 * 2 1 1 & @ @ $ O O o o @ o @ o o o @ o o o .         ",
"        . . . .   . = * 1 < 3 9 q z z x k F ! W { Q W W S V F l k j j 8 9 0 u u 4 < % & & $ @ o @ o @ o o @ O + o o o       .   ",
"        o . . . = * 2 7 4 u d C H ! ! Z Z K R I %.%.$.$.R R W K F l l l s d d C f 4 3 5 * & $ o o @ @ o o @ = $ . o . o .     . ",
"o     o o o . # * : 7 0 i n G Q ) { &.` ` O.-.o.0.0.9.0.;.-.=.$.W W S Z Z V Z m n d y r 4 5 % @ @ @ @ o @ @ $ , O o X .         ",
"o o o o . o # @ * 1 9 y a C Y { :.s.d.i.i.c.T.Y.J.N.I.I.I.B.N.n.<.*.$._ R ~ I I I J m f g u 4 5 % $ $ @ @ O @ @ # o @ + . o .   ",
"@ o @ o @ @ $ $ * 6 9 y s L { 2.d.B.T.Q.Q.oX-X-X.XXX;X,X,XXX.XR.C.C.N.m.p.e.0.-.' ( I A A g p 9 1 & & $ @ @ @ @ $ O # o o o o o ",
"@ @ @ @ @ $ % % 0 9 y b Z E 3.b.Z./.oX.XXX-X:X-X:X:X0X0X8X>XOX}.,X+XXX.X/.W.N.N.0.*._ ) U D C p 6 ; & $ @ @ O o = @ O o # . o o ",
"% & % & * * 7 6 p y s S R ( X.q.y.}.OX+X8X0X6XeXqXqXqXkXcXjXkXkXwX0X>X>X1X:X-XoXQ.Z.i.:.%.W S C 8 e 7 & & : : @ $ O o o X o     ",
"* & * 1 6 0 0 u i s V R ( ( :.n.m.C.}.&XyXqXeXqXqXkXcXcXvXvXvXCXNXaX0X0X>XeX>X<X,X@XZ.1.>.R S s 9 6 1 $ & 6 7 @ @ @ $ o @ o o o ",
"6 6 2 7 0 0 p x i Z E ] ` ` 9.N.A.A.C.8XnXwX6XkXqXcXvXvXvXCXVXJXHXNXqX1X:X0X0XtXtX$XQ.n.1.$.K l 8 1 & % $ ; 6 $ $ $ $ @ @ o o o ",
"4 4 0 0 0 p d C Z E &.:.*.O.9.u.C.C.C.:XbXwX6X6XqXcXvXvXvXCXJXHXLXDXwX:X:X:X0XuXrX+XQ.n.a.1._ V 9 1 & $ & & ; & ; $ $ $ @ o o o ",
"4 1 9 4 u u d C L [ ,.s.i.x.g.0.p.R.R.}.tXdX6X XeXqXqXjXjXCXJXHXLXFXtX.XV.}.:XiX5XoXN.N.d.s.=.W i 6 % $ % & & & ; * $ $ @ @ @ o ",
"< 1 3 3 9 i s V K ] ,.d.c.T.Y.x.0.I.I.P.;XtX,XE.-X:X6X8X9XlXMXGXFXgX$XC.m.m./.rX3X#XZ.c.d.2.=.E k 6 % & & & & & ; ; : $ $ $ @ $ ",
"1 < 3 3 y p b Z L &.s.s.c.T.~.~.v.~.T.L.[.;X^.P.W.E. X:X,XrXuXiXhX%XB.p.<.y.m./.Q.I.N.i.:.=.] E C 8 & & & $ $ 6 ; * * ; ; $ @ $ ",
"1 1 1 9 y d C Z [ 2.d.i.e.J.(.;X[.[.~.~.[.!.z.z.H.U.^./.3X3X3X3X%XB.<.$.' *.;.a.a.2.,.] ' [ ) Q H 0 1 1 1 % % 6 6 6 ; ; * $ $ @ ",
"h ; & p c C Q { X.s.i.i.Q./.^.(.U.[.5X[.!.z.z.z.J.L.c.v.~.T.Y.oX#XB.;.' _ ( U U T H A C s s s i u w 0 9 3 3 3 1 9 9 1 1 * % # @ ",
"> ; : w z C T { X.t.9.u.(.;XXX;X!.1X<X].U.z.z.z.g.v.f.f.v.h.g.~.`.p.` P P N n M g g g 4 4 9 9 9 w 0 9 9 3 3 9 y y 9 0 2 & & # # ",
"e > e x c A E [ ,.t.r.x.#X5X3X3X].<X<X^.P.l.k.k.6.f.4.4.w.4.w.Y.Q.0.I m v v t r 5 5 5 1 < 1 1 1 9 9 4 9 3 y i i i y 0 3 ; % # # ",
"> e e c C G U / t.d.i.N.`.#XoX;X-XtXtX1XR.M.l.e.9.w.4.| o. .5.T._.q.I m v t t 4 5 5 < < & 1 1 6 1 1 3 9 y i f d f y 0 6 2 * % # ",
"> e w x C G U / X.t.i.c.Q.N.P.XX>X0XnXdX>X XM.0.9.w.5.| o.| 6.).).,.I m v a r 4 5 5 % % & 1 6 ; 1 1 1 9 y d n z d p y 0 7 * & $ ",
"8 e w i d Y Q / +.t.c.'.`.I.Y.,X0XbXnXBXnX0XE.u.9.9.o.}  .} 5.b.S.,.N v v t r 5 5 5 @ % $ $ & & 1 1 3 9 y d C C n d u 0 7 5 * % ",
"6 q i i s L @.[ +.s.S.`.2XQ.Q.3X9XjXcXNXJXnX:Xm.0.w.| }  .}  .t.b.+.N v s a 5 < < # % @ @ $ $ & 1 1 3 9 a d C C C d p u 0 * * % ",
"8 j q y b L @.] +.r.c._.2X(.N.XX*XeXkXmXVXNX7Xm.p.e.o.} o.^ / 7.t.[ m v B t 3 5 5 5 % @ $ $ $ & 1 < 3 y a s C C C z d q 0 2 % * ",
"i q q y s J R +.d.c.T.`.hXQ.y.C.*X|.*XvXVXNXeXR.k.e.5.o.+.+.} ` ,.@.N v a t 3 3 % % % @ @ $ & ; 3 3 3 y d C G G b C z p 0 1 * 2 ",
"q i i s b J ) X.t.S.'.%X4X/.m.}.|.{.*XkXCXNXbX;Xl.g.w.5.o.+.} ^ +.I N v a a r 4 1 % % $ $ & & 6 6 3 r y C A G G C z d u u 0 3 * ",
"i i s b m J ( X.;.).#X#X3XXXXX&X*X|.*XzXmXnXaX<XM.h.w.7.o.+.^ ^ +.I P m m v i 4 1 1 & % $ % & 1 3 9 y s C G Y Y A b s y u 0 1 % ",
"i s V V Z I ] :.q.Q.#XoX,XrX8X8X9X*XzXZXbXlX0X1XY.z.w.5.o.o. .^ ` ` / J m b s 3 9 < & % % % & 1 9 r y s A Y Y G D d y 9 u 0 5 @ ",
"i l F D K I =.q.B.Q.oXXXOXuXaX9XxXpXAXJXlXwX0X1XU.z.j.7.7.o.O. .^ ` ( J b Z s y 9 3 1 % < % < 3 3 y y b A G Y L Z s r y i 0 1 % ",
"s l D L I ( =.a._.Q.XX+XOXwXmX9XxXIXGXSXyX8X:X^.U.G.j.8.6.5.o. .~ ..` P m Z Z y y 9 1 1 < < < 5 y y a b D D A Z b a r 3 0 0 3 % ",
"i C Y Q I ) >.i._.I.+XrX6XjXmXlXSXSXPXAX7X-X XU.H.G.F.8.6.5.5.o.9.i.t.` J K Z s a y 9 < < < 5 3 y y s b A Z Z b y y r y 9 9 0 1 ",
"y C ! E I ( :.i./.W.,XuX6X9XBXmXxXIXSXxX+X.X-X!.H.H.j.8.8.w.9.-.).`.).;.( ( J b s y 3 < 1 < < 1 y y s d A n s a 3 r 9 9 1 & 7 7 ",
"8 q l ! [ ( *.0.N.R..X7X9XjXmXJXxXSXSX=X#X(.~.~.L.J.F.h.z.z.k.k.FXgXl.-.` / @.N v r 3 1 & % $ % 1 9 y s i y 4 0 % @ @ @ o @ , , ",
"j j x W { ] ;.i.I.Q.XX9XlXjXmXCXxXPXSX$XoX(.~.~.K.K.F.G.z.G.M.P.;X5Xu.-. .N / B v a y 9 & & @ & 9 9 i y u 9 3 3 % @ o o X X + + ",
"j k l ! W %.q.c.I.W.XX0XwXlXmXmXxXHXSX+X/.(.~.J.K.K.H.H.U.E.^.W.oX@Xy.*.^ N T B v i y 6 ; & $ & 9 y s p p u 3 % % @ o o X X + , ",
"8 8 i V K _ :.x.N.Y.}.:X9XqXkXjXxXJXAXOXR.^.!.H.K.K.!.!.].-X1X1X4X@X>._ / T T B f s 9 6 1 & * * 9 y s s d y 1 % % @ o o X X X X ",
"9 i l V I ] t.c.T.Y.E.OX6XqXkXmXlXAXlX}.R.^.!.!.K.].!.].-X1X0XdX@Xy.( J U @.H M f s y 9 1 1 1 < 3 a l C l y < % % @ o   X X X X ",
"p z H S T X.s.c._.W.E..X7XwXlXmXzXlX7XC.R.^.!.!.K.K.K.].].1X0XdX<.K Z m U T B B n b i i y y 9 9 r V Q ! l 9 1 & % @ o   X X X X ",
"y d C A U { t.i.B.M.R..X7XqXjXbXMXuX}.R.E.Y.G.K.F.K.K.K.!.^.1X5Xu.( ` P N U t N J Z Z V V b v m b R ,.3.C 3 & % $ @ o     X X X ",
"< y v s m E X...e.y.p.E.XX7X9XwXDXrXV.V.^.G.h.K.F.F.F.K.H.U.^.(.2Xc.S. .N N B @.R R K K K J N J K %.3.3.F 3 % & $ o         X X ",
"u u d b m U ] ,.-.u.p.m.R.V. XuXiX#XW.l.g.g.L.G.j.j.j.F.F.F.H.H.~.`.2X2Xb.7.^ ..*.' _ $.-.-.0.c.D.D.b.&.Z y 1 & @ o o           ",
"3 9 y y v m J ( *.q.y.n.R.W.,XgX#XN.x.c.k.g.v.6.8.8.f.j.F.F.J.K.U.U.L.'.B.r.O.-.>.;.y.V.oX5X5X2X%X%XD.%.V 9 1 @ @ o             ",
"< 3 y f a v b m ' ,.;.y.N.Z.oXfXI.0.w.g.w.5.7.4.7.7.4.4.4.4.8.j.F.F.F.L.L.x.u.y.p.}.:XrXtXsXtX;X%X).a.W s 9 3 & @ o           X ",
"1 9 p c d s s b E { %.*.s.a.n._.T.9.-.r.o. .4.o.4.4.4.4.4.4.4.7.F.j.F.F.J.l.p.A.}.uXDXnX0X0X1XE.(.Z.y.R b i 8 ; @               ",
"6 0 c c p p y a A E E ( =.*...;.S.9.r.b.r. . .} | } o.+.5.5.5.6.8.j.F.J.x.y.n.C.pXAXJXMXlXbXuX>X#XQ.B.$.S i 6 @ o             X ",
"; 7 w w 0 9 y y f Y U J ] X.( ` r.O.i.).c.O.` ^ ^ ^ ^ } o.o.o.5.8.8.h.J.u.y.Z.=XGXAXzXzXCXJXzX+XR.Q.n.$.S y & o @           o X ",
"6 6 6 6 6 6 y p H Y A m ) { / ~ O.^ i.'.S.r... .O.+. .^ ^  .o.5.8.f.v.i.c._.fXPXLXHXZXZXZXlX|.{.V.W.Z.*.S q 6 ; o o         o o ",
"6 8 6 ; 1 0 g c H Q n s J T I I _ P *.).b.q.:.t.).B.i.-.....-.0.G.k.l.l.Z.%XPXUXLXLXHXJXlX|.{.<.oX4X%Xd.K 9 6 ; O .         o o ",
"; 7 e h w w 0 8 u 3 < i H ! H i J I ( =.t.d.c.B.2X2XoXM.0.;.y.n.{.OXrXpXAXPXLXKXGXGXHXGX9XC.A..XpX2X`.d.W k 8 - O X         X o ",
": ; 7 e e 6 ; & 8 & & 1 i x i 1 r a Z [ ,.=.-.0.2X4X3XE.m.V.}.OX8XMXJXMXlXMXHXLXDXGXDXpX}.A.OXiX4X#XZ.%.S q - - X X X X . X   o ",
"; * * ; & & & % & % & 1 3 6 1 < 3 r m E [ ` ` ..I./.oX^.^.>XnXDXxXNXBX9X|.}.9XAXDXiX+X{.}.rXpXrX#X_.1.W V q 6 - O   X .   o o o ",
"; ; & & % $ $ $ % & 1 1 1 1 9 8 s v Z ) X.X.*.9.u.Y.^.XX<XsXNXDXDXjX&X}.{.}.}.OXiX+X}.@XpXhX#XB._.B.%.K l i 8 : O o .   o   o   ",
": : & $ $ $ & & & 6 8 0 8 e p z H C S E { =.q.i.T.Q./.;X<XdXdX0XNXwXOXOX7XrXuXpX$X@X=XfX%Xn.<.A.d.2._ S b i 6 $ o +       o o o ",
": : & $ @ & & & 6 6 0 w u z c c H l b S I ( -.i.I.T./.;X<X0X1X.X6XOXOXOX7XuXiXgX4X@XZ.%XB.R K 2.' E J b a 8 & @ O o . o X o o o ",
": = @ o o $ & 7 e 6 6 8 w w x c p i a Z W ( ..q.e.Y.Q.^./.-X-X.X}. X}.}. X3XpX$X@X<.W %.%.K m J J U Z b y 1 % # @ # o   o o o o ",
": $ O o o @ & 7 e ; & & 6 e 8 e p 0 s G E ) X.q.9.c.Q.Y.P.P.E..X>X:X XR.oXpX%XZ.W K K W Z s a s G T H M 4 1 & : @ . o o o   o o ",
"o o   o o $ : : $ & & $ & & 6 6 & 3 i C Q [ { =.:.s.B.T.Q.Q.Q.}.R.E.oX+X@XQ.n.1.R K Z s s a y y r t u u g h 2 2 # # o o o o @ @ ",
"o o o o o $ $ : $ & & & & & & 6 1 6 i x D Q [ ] ,.t.B.B.T.Z.Q.Q.p.V.@X@XZ.a.>._ W Z b a y y u 0 3 3 4 0 5 2 * # # # @ o @ o @ @ ",
"o o o o o $ - : * $ & & & ; 6 6 6 6 q i l D Y E ( ] =.1.,.1.1.<.y.n.B.D.D.1.R W S V y y y 0 5 5 < < 5 1 2 * % $ @ @ @ @ o @ $ $ ",
"o o X o o @ = = $ ; * - & & 6 7 6 6 9 9 a s Z K m Z K W K K K W $.>.d.b.,.%.K l V s y 9 4 3 3 & % % & 5 2 % % $ $ @ @ o @ o O $ ",
"o o o   O O $ $ $ - $ & & & ; ; 6 6 8 3 y y s b m Z S D Z F V S Z K W { W S l y p y 9 1 3 * 2 % % & & ; * & & $ % @ @ @ @ @ @ @ ",
"o   o o o + # $ $ $ $ $ $ ; & ; 6 6 1 6 3 y y y f z C C z k k x i V F D H x i i i 0 1 1 7 2 * $ $ & ; ; ; ; ; $ % % @ @ o @ # # ",
"o   . + # o @ @ $ @ @ @ $ $ & & & 6 6 9 9 9 r r i p p p w e e u y s n C d d p p 0 6 7 7 7 * ; $ $ $ - - ; ; & $ & $ @ @ o @ # # ",
". . # @ = O O o O @ O @ @ @ $ & & 6 6 9 9 9 3 3 u p g p w e e w 9 y i 9 9 9 9 q 0 7 2 7 7 7 ; $ $ - - - ; ; & $ & % @ @ @ # o # "
};
