/* XPM */
static char *bdb5004a29d94ccddc8d21ee2b726b10ZrB1crr6dFTF7bGe[] = {
/* columns rows colors chars-per-pixel */
"64 64 256 2 ",
"   c #170809",
".  c #060619",
"X  c #140919",
"o  c #151310",
"O  c #290509",
"+  c #260B17",
"@  c #241618",
"#  c #370F11",
"$  c #35270F",
"%  c #010424",
"&  c #030924",
"*  c #020A2B",
"=  c #070628",
"-  c #180A28",
";  c #08122A",
":  c #181324",
">  c #020B34",
",  c #070A37",
"<  c #150B37",
"1  c #081639",
"2  c #161539",
"3  c #270A27",
"4  c #291728",
"5  c #361529",
"6  c #261839",
"7  c #310E36",
"8  c #172836",
"9  c #322B32",
"0  c #580808",
"q  c #470918",
"w  c #571916",
"e  c #4D0F0F",
"r  c #680709",
"t  c #780603",
"y  c #671607",
"u  c #771504",
"i  c #660818",
"p  c #6F1216",
"a  c #512E12",
"s  c #6D300A",
"d  c #4A1629",
"f  c #551827",
"g  c #4E0F2F",
"h  c #6C132F",
"j  c #502F2F",
"k  c #6B2F2E",
"l  c #5B480E",
"z  c #764805",
"x  c #724F11",
"c  c #71690E",
"v  c #534D2F",
"b  c #6C5130",
"n  c #756B30",
"m  c #5D6A34",
"M  c #030C48",
"N  c #170D44",
"B  c #031343",
"V  c #081647",
"C  c #181947",
"Z  c #010A56",
"A  c #041757",
"S  c #171A57",
"D  c #1A0C57",
"F  c #261847",
"G  c #271755",
"H  c #341550",
"J  c #162648",
"K  c #0A2658",
"L  c #172657",
"P  c #0F2E52",
"I  c #27264A",
"U  c #382647",
"Y  c #262757",
"T  c #352956",
"R  c #323753",
"E  c #010B66",
"W  c #041A67",
"Q  c #051876",
"!  c #141669",
"~  c #341A70",
"^  c #072569",
"/  c #172868",
"(  c #083569",
")  c #163668",
"_  c #052776",
"`  c #162975",
"'  c #083578",
"]  c #163879",
"[  c #272866",
"{  c #273778",
"}  c #31336B",
"|  c #4E1749",
" . c #6E1750",
".. c #4D304C",
"X. c #6D2E4B",
"o. c #4A346D",
"O. c #6D3877",
"+. c #314653",
"@. c #174978",
"#. c #32486F",
"$. c #264C51",
"%. c #504B52",
"&. c #6E5052",
"*. c #756B51",
"=. c #514E6E",
"-. c #6F516C",
";. c #767069",
":. c #596C5E",
">. c #3A4131",
",. c #8A0703",
"<. c #981907",
"1. c #8E120B",
"2. c #AA1407",
"3. c #962508",
"4. c #8F2E10",
"5. c #AE2F0F",
"6. c #89182D",
"7. c #8F2F2E",
"8. c #AE322F",
"9. c #AE1427",
"0. c #C81809",
"q. c #CE3011",
"w. c #CC3628",
"e. c #E43C0F",
"r. c #8D500C",
"t. c #AE4E11",
"y. c #8E6D0E",
"u. c #AB7312",
"i. c #8E502E",
"p. c #B24E2C",
"a. c #906E2F",
"s. c #B27031",
"d. c #D04C11",
"f. c #CA6C1B",
"g. c #CE4D2B",
"h. c #E94D30",
"j. c #D17033",
"k. c #EE6F2E",
"l. c #ED5F1D",
"z. c #923551",
"x. c #A4305E",
"c. c #C33857",
"v. c #8D5151",
"b. c #B14F4D",
"n. c #8F734E",
"m. c #B0714E",
"M. c #8C506E",
"N. c #91716F",
"B. c #AD7171",
"V. c #B2506C",
"C. c #CE5050",
"Z. c #D07250",
"A. c #F07050",
"S. c #D46F6C",
"D. c #F2706B",
"F. c #DB5962",
"G. c #6C8B6B",
"H. c #B29110",
"J. c #AAA408",
"K. c #96882F",
"L. c #A9902F",
"P. c #B6AB37",
"I. c #958A12",
"U. c #CD8E2A",
"Y. c #F88B36",
"T. c #CEAE2C",
"R. c #C6AB18",
"E. c #D6C729",
"W. c #908C4D",
"Q. c #B4914E",
"!. c #B38E6B",
"~. c #BEA471",
"^. c #9E9E62",
"/. c #CC8953",
"(. c #EE8A4D",
"). c #C8AA52",
"_. c #CE936A",
"`. c #F0896E",
"'. c #CEAE73",
"]. c #E5A079",
"[. c #D4C46F",
"{. c #021787",
"}. c #00168F",
"|. c #042885",
" X c #073788",
".X c #163588",
"XX c #052797",
"oX c #053995",
"OX c #162E94",
"+X c #2C308F",
"@X c #0438A7",
"#X c #1735A8",
"$X c #0F30AA",
"%X c #2C38A8",
"&X c #25188C",
"*X c #4D3594",
"=X c #703C8A",
"-X c #6D279C",
";X c #084499",
":X c #13478E",
">X c #2F4F90",
",X c #0547A8",
"<X c #064BB6",
"1X c #0455BA",
"2X c #1758B8",
"3X c #154EAA",
"4X c #2E52AF",
"5X c #1465B7",
"6X c #2E67B7",
"7X c #27698A",
"8X c #4E508D",
"9X c #6B5691",
"0X c #51688F",
"qX c #716E90",
"wX c #4A56B1",
"eX c #496AB0",
"rX c #6D5FAE",
"tX c #0657C5",
"yX c #1053CA",
"uX c #0865C8",
"iX c #1766C8",
"pX c #1070D7",
"aX c #2D72CF",
"sX c #1379E8",
"dX c #2A5FD2",
"fX c #5168D1",
"gX c #5D66D2",
"hX c #AF3793",
"jX c #8B4D92",
"kX c #8E7190",
"lX c #AA7288",
"zX c #926EAB",
"xX c #A65A93",
"cX c #CF718A",
"vX c #E36F98",
"bX c #B35DCC",
"nX c #6B98A4",
"mX c #198AEE",
"MX c #2990F4",
"NX c #2C83CE",
"BX c #5A95E7",
"VX c #948790",
"CX c #B1928B",
"ZX c #8F8AAC",
"AX c #AF96AB",
"SX c #B2A7B1",
"DX c #B5A783",
"FX c #CC8B8B",
"GX c #CBB192",
"HX c #CDAFAD",
"JX c #E19FA4",
"KX c #DECAAB",
"LX c #99A1E6",
"PX c #D798CA",
"IX c #E3D6D6",
"UX c #BFC5C1",
/* pixels */
"uXuXpXmX5X;X;XK $.P ^  X;X;X' K B * * % & & o $ r.y.y.y.n     & * > 1 > M { 8XR j e r 1.4.8.C.c.8.w.w.8.,.C.8.g.8.1.<.5.t t t 3.",
"sXmXmXBXuX,X:X@.nXG.@.@.;X;X:XK V > * * ; . X a s r.u.L.W.$ . . & > , B B K #.+.j a y 3.Z.j.F.8.F.D.C.h.c.6.S.FX8.1.<.3.t 1.,.g.",
"mXpXpXmXmX5X$.nXn :.@.5X5X;X^ K B * * = = = - o i.s.r.r.i.$ . % & > Z W K J J %.n s s t.(.(.1.p.c.1.2.2.vXc.V.D.p.t ,.8.5.g.5.5.",
"pXmXmX5XNX7XG.^.l l #.@.@.( K V > * > * * = . q m.j.p.u N.%.. * * , _ _ W P 8 G.n z r.s.U.t.u y t t t c.JXvXF.JXZ.4.3.(.A.d.d.d.",
"uXuX5XnXnXG.m n.K.l m 8 $.8 P 1 * * > V 1 6 ..j 4.Z.p.e } >XB > > M 3XXXXX@.$.^.K.l z U.T.u.s u r r r F.vX6.,.A.(.u.d.w.g.5.5.k.",
";X:X7XG.G.G.n l c l n ^.^.:.1 * % > K ) [ T N.i.y 3.r.d >X4XA B M W 3X@X@X:XG.).y.z z H.T.y.s w 0 0 i z.6.8.p.j.Y.k.3.,.,.<.5.l.",
"/ K %.v m n.v $ s y.a.K.K.G.; & % 1 $.) P +.&.v.y r i.X.] 4X_ M A  XoX@X,X:XG.K.r.s z u.U.y.b q 0 w i p i 8.D.h.(.t.t t t ,.5.d.",
"I 8 9 v l l l $ a n L.x $ @ ; 1 * 1 P P B I &.N.a.s s ..] 3X.XA W .X XoXuX7XG.n c r.y.L.L.a.a 5 q 0 y p 1.t ,.2.j.t.t r t t <.t.",
"8 8 m G.W.c l o $ a m n X J 7X( * ; & R ) R &.n.m.r.k ..) W A A Z  X3XoXyX X+.v n u.y.y.a.b 4 5 q y y y i r t ,.8.7.i i i t r 6.",
"I R >.m ^.W.v a v *.>.>.1 ( :X] K 1 . * P R ..b i.x j T A M M W ' ,X5XyX@XoX:XR b c x l v 9 @ # # e w 0 r 0 t p h 6.h i i i 0 0 ",
"8XT 8 $ c l a &.*.>.$.P ) ( '  XP 1 % . & 8 v b n a 9 S W W M W 3XiXiXaXyX#X) nXKXb a %.qXY $ $ n x y 0 0 0 r p p  . . .i i e q ",
"*X8X=.>.$ o $   9 %.$.K ( :X:X( > 1 2 . & 8 j %.v j J A  X4X_ E yXaXaXaXMXaX:XqXKX'.@ U :.+.m K.).^.a w w w i i h h  .X.h h g g ",
"[ } 9Xo.4 $ + @ o 9 $.P P @.( K * & ; & * J * C V ) ] E 1XaX2X|.,X2X4XoXdXfXNX0X*.n.5 9 j K.P.J.P.I.c $ e q q h g | X.z.M.X.| [ ",
"/ / rX} 4 5 @ : 8 : & P @.P ( B & . & & > / #.] _ 4X3X|.,XpX1X@X<X<X|..X4X2X6XnX;.VX%.4 l P.E.J.J.E.K.l # g i | g k B.B.v.X.T +X",
"A ] 9XG X X o . o . . ; 1 P V 1 & & . % > A .X X X3X2XuX1XuX1X1XuX1X X.X:X4XeXeX>X0X9X6 l P.E.E.J.J.K.a e w i 7.| k /./.m.&.{ +X",
"A +X9XN = . o o o . . . & 8 1 1 & & . & 1 A _ _ _  X<XpXuXsXpXuXsXyXoXW / [ @.>X>XeXqX4 j L.R.H.R.E.I.x s p p V.v.k A.f.m.CXeX#X",
"M } qXT ; - X . . . . . . . % ; ; & . * V B K ` ^ _ <X1X1XpXuX1X<XyX3X_ / S Y #.0X0X=.# $ z H.R.E.R.H.L.4.k m.t 8.A.l.l.j.CXwX1X",
"H 9XqXzX%.- : : . . . . . .   ; & ; ; & > > I qXzX8X;X1XNXpXuX;XtXiX2X.XS I T R =.=.j w s z y.H.R.H.H.u.z _.m.8.2.l.5.g.(.CXeXiX",
"7 -.kXkX=.3 3 4 . . .     o @ X . . & & V < B.lXAXZX6XNXpXNXMXpX1X<X;X] V < T T T ..k p.r.H.H.R.H.H.U.U./.m.i.4.<.h.5.8.V.9XaXpX",
"| ..M.9 + : 3 : . . . .   v b     . * , , ..B.cXFXSXZXaXpXuX5X5XsXpXoX^ V - F ....g r ,.r.T.R.R.y.y.H.U.u.4.i.5.1.q.1.h ..>X<XyX",
"N U ..4 + - - X . . ; . # a a.l   X > L H O.M.xXS.JXSX0X5X5XoXoXaXMX3X^ V ; 7 5 5 3 0 r s.H.y.y.u.U.U.U.t.4./.s.,.,.i h [  XiXpX",
"V Y 9 : X X : 3 . . * . # k a.a.O = > C G jX .cXFXB.PX0X_ 3X6X|.1XaX:XA B , 3 d d # q w y.x z s z u.H.f.t.f.Y.j.q.9.p g G ' oXyX",
"L J $.2 X : 4 : . & C < # 0 i.k 9 J > C M .. .cXZ.v.lX=.] 5XNXiX;X5X] V L I 7 5 d g 7 + a a.z s z z t.u.U.Y.U.d.k.t.t | N S ! / ",
"J J P J ; X : X . . 1 6 # e e O kXkXC V V T j b.`./.M.-.` :X2XBX2X XA K L F U 5 5 5 F 3   b n x r.r.4.t.U.k.d.l.k.d.7.i 7 N N N ",
"1 1 J J . . & * & % > 6 # q f k M.kX-.1 V R &.b b.p.;.=.8XgXwXaX2X_ M V V V 8 I U I N < - 4 $ k a a y u t.d.2.q.h.e.h.c.g F N N ",
". . ; 1 ; +.$.P B 1 J 2 5 X.B.M.w v.qX2 8 R &.a.4.i.M.o.9XrXrX+XoX^ M > V V M C / S S , , %   # $ O e 0 r 2.2.0.e.e.h.w.h | D Z ",
"& & * R %.%.0X7X:X@.@.N H CX!.B.w j 9 2 J R &.a.u.m.*.-.=.} } ! W A M M V V B L >XW Z A B , X X - + O q 0 t ,.w.h.e.2.9.6.O.4X<X",
"1 J B 8 . . $.@.( ' ) V F N.FXB.a @ = ; %.SXHXQ.Q.!.CXVXVXSXqXJ ` ( Z A A B < } wX.X_ ! S V > = - - 3 g g 0 ,.2.2.2.,.9.9.z.wXyX",
"V 1 1 J ; . J P 1 B K C I U k j 4 . +.VXCXDXKXKXGXIXIXIXCXKXIXnX) :XW E ^ V %.%.+XwX4XQ ^ S N C N - F ..| q t <.2.,.,.9.w.c.-XdX",
"1 V 1 R 9 @ : 1 1 > B 1 T 9 9 j - 8 AXSXW.b GXGXFX!.FX~.KXKXGXUX)  X_ .XA =.CXAXSXwX3XOX_ ^ ! S Y N C N - g 1.w.9.2.w.9.9.c.jX*X",
"; ; 8 j a k 4 2 ; 1 * < 2 6 U U = 9 n.a.i.r.z y.a.r.i.GXKXHXDX*.>X( 0XZX} VXGXHXVXLX%XdXOXW W L S N < < X q 5.w.h.p.2.2.w.9.=X&X",
"& . + k i.i.j X ; & ; ; 6 2 2 C ; o n P.a.Q.a.).).a.a.[.GX'.'.;.7X8XLXPXSX-.B.n.PXZX#X2X|.` ^ ! } N = = X 5 1.3.g.<.,.2.w.c.x.*X",
".   q 7.4.i.j o >.8 1 ; 2 : 1 J & 9 K.).'.^.[.).[.[.Q.a.a.b ~.CX=.#.SXKXAX-.&.&.O.o.4X<X}.! ` S } Y = % X 7 z.7.3.5.3.5.C.b.=X*X",
"  O e 4.8.p.j j ;.:.J P 2 < 1 1 . 4 L.y.P.).K.l l P.).K.i.l W.v +.=.*.B.&.-.-.....~ %XyXQ W Z A G T = % F H 5 p 4.g.8.g.b.V.jXzX",
"  O r u 5.b.X.9XnXqX8X#.J > 1 > 8 v L.z y.I.I.c I.I.I.~.W.'.N.>.#.R j X.&.=.9XrXLXrXyXyXXXQ W [ G F = 2 F . O h 7.5.8.4.8.8.x.xX",
"O q r u t z.JXzXzXZXzX0XL B V V $.G.Q.T.R.T.J.I.I.c I.P.!.W.^.;.R R VX&...=.0XBXLXLXdXyX,XW / [ [ N = , , = 3 f k p u 4.8.4.b.V.",
"O e 0 r r z.x.jXhXjXzX*XL K A V +.m x ).y.I.H.c c l c I.).W.*.%.9 VXIXHXv :.=.=.IXIXaX3X#X` A S Y C % N I N 7 7 q h k k 7.t c.S.",
"# 0 0 p i f h x.x. . .-.} L ( P +.9 l a.y.a.a.l l l l x z l &.%.I qXN.~.'.GXN.$ VXZXwX4X>X` B , , V * < < 2 - 7 3 g g q | g 7.C.",
"O e 0 p q e k b.7.p h M.:.#.P K @.+.R j n b $ @ # a a s z x &.%.#.=.w i.r.m.n.a -.-.SXLX>XD N = % , * % % = N ~ 3 | | G ~ H  .z.",
"# O e w # n.Q.Q.m.k f lXVX+.( @.] ) I : 9 @ 6 6 4 # a a a k %.R >X} j 7.s.s.n.a ..-.HXSX9XC M = % , 1 , % 2 G T G } rX*X+XG | M.",
"O O e # v W.m.m.S.s k B.VX>.@.( ) / C 2 F < F 2 6 5 # a k j %.{ ` [ ..k m.'.b w f X.v.-.o.M C , > Y C , % % , , W eXBXgX4XQ ~ O.",
"O # d O v !.n._./.m.X.X.&.%.P ( >XK C G G C Y F H 3 # B.Q.v.U ) ^ A - j n.s a w f g j X.T V V , N S , > S N = , >X4XBXLXLXOXG *X",
"  X + O b !.).Q.s.(.M.| M.%.>X>X@.A L S V S V C C + s /.j.Z.%.L ^ S : N.i.a w f g | H F S V , > > , % < Y [ V { >X.XfXLXBXfX+X+X",
"- = - + @ *.!.s r.S.cXjXv.%.) ( K A ^ K A M 1 N N 3 i.j.f.L.X.1 A A 2 ;.k a f g | H M S A Z , = < < < < , C S [ ` OX%X+XgXLX%XOX",
"N F - X o @ j e p z.xXvXkX%.V B V ^ .X X^ A , , 1 ..v.p.j./.j N _ Q S j X.w d 7 U F K .XA , , < F ~ H , % M M Z #XgXgX%X&XyX$X$X",
"D o.- ..-.4 5 e q i z.hXlX=.2 1 V ^ OX.X^ V 1 : 2 7 h 4.(._...` OXOX/ 6 j f g g 7 F [ .X^ S N N H | G , , > M A 4XgX%XdXgXfX$X$X",
"1 2 U AXxXk f q q g g z.kX=.J A A ' ' _ B 2 9 $ : 4 w y x &.[ OX3XoXW G d q d # 7 N Y A >X4X} D H G D M V M D .X&X4X%X%XgXdX}.$X",
"A , J N.X.k d d 7 g g  .kXqX/ (  X;XA M 1 4 $ j . 4 w w w ...X@X$XXX` 6 f v.b.v.3 N < S ^ +X[ ~ D D D ! Z Z M E &XwXgX%X%XyX}.}.",
" X X) I g h d d 7 3 7 7 =.nX>X.X4XoXA > 4 v c v o @ e d 6 [ oXyXyXOXG f i.Z.Z.Z.g < < < Z D D D D D &XQ |.Q Z Z E &X%X%X$X#X$X{.",
"iX6X>XY j q g 5 < < F = P eX@.' ;XQ Z > : m G.$   9 b 5 I ] 4X#XOX} kX_.A.h.l.A.X.3 < N N D Z D D D ` wXfX|.Z M Z |.+X%X}.$X$X}.",
"3X:X( #...5 5 3 ; < C B A :X_ _ W E Z B > 8 9 @ o %.b d R .X+X8X-.S.S.`.D.h.k.A.j < N N N S ! N N N D 4X4X|.E Z Z E &X|.$XyX$X}.",
"/ 0X=.j 9 7 6 6 , , B M ^ ;XoX|.W ^ A M M 1 > : 6 %.j ..{ { qXHXFXj.A.D.q.0.l.p.g 7 7 < 3 < G 7 7 7 F G Q OX.XE Z E Z Q $X$X}.}.",
"n.~.'.n.9 < F C V M A _ oX<X|.|.3XoXW A V B 1 B 1 8 6 I .X#.!./.(.d.q.h.h.e.d.1.# 7 g g 6.z.q q i g 7 ..D Z Q >X{.E E E {.$XXX{.",
"a._._.Q.j 6 C V V M M |.iXiX<XyXyX@X XA A B B B 1 2 C L ] #.m.f.Y.f.2.h.A.d.k.Z.g H g x.vXF.F.7.p h g | H N ! wX%XE E Q {.#X$X{.",
"e v.!.&.j ..2 , M A W W |.<XaXsXpXtXoX_ A B B , V V V ^ ^ #.a.j.k.d.`.FXh.e.k.(.V.| | vXF.F.F.1.1.7.i g X.F D 4X4XQ E Q {.OXOX}.",
"9 &.X.a ;.VX=.B A W ' oX|.@XtXpXtXtX;X X( A B M M M W ^ ^ =.!.(.p.2.D.D.k.k.Y.(.vXjX .z.F.c.1.1.<.3.8.1.X.g D +X%X{.Q Q {.%X}.Q ",
"..kX..&.GXAXVXY A _  X3XoX1XpXpXyXyX<X@XoX_ K @.:X( ^ ^ ( #.B.s.4.8.c.2.q.k.Y.l.`.cX8Xo. . .h h <.p.5.4.6.h  .~ 4X#X}.&X{.+XQ E ",
"..9X&.jXB.AXzX#.` _ ;X,X_ ;XMXsXyXyX$X<X<XoX,XaXiX;X:X' @.#.a y r t 2.5.5.d.d.d.A._.o.*X*X-X .h w.h.w.w.4.6.M.kXwX%X}.}.{.&XW E ",
"U ....-.zX9X*X{ .XoX,X3XoX|.uXtXsXyX@XtXtX1XmXpXuX1X2X;X:X( v s 0 y t.Y.Y.d.2.l.f.Z.-.+X8X*XPXvX8.h.k.d.<.C.V.9XrX%X}.%X&XE E E ",
"7 F H 9XzX-X` .X|.3X1X5X3X|.tXtXyXtXtXyXpXsXpXuX1X,X,X;X7XP 5 a e y k.f.d.l.5.d.f.`.kX>X4X9XPXD.h.q.e.q.5.g.S.lXzX*X$X$X{.~ rX~ ",
"- < } 8XrX+XOX,XoXaXaX;X X|.uXsXpX<XyXsXMXsXtX1XtX1X' _ ] B : 5 e 4.U.t.1.g.5.t.Y.Z.%.o.H 9XV.vXA.h.0.0.e.h.D.V.jX-X&X$X-XbXbXvX",
"N M Q 4XwX%X4X<XoX5X5X1X' _ dXMXyXsXtXMXMXuXoX,XuX3X^ B B 1 1 X O 7.j.d.<.d.d.,.4.Z.CXj H | h 9.F.e.2.0.q.w.g.F.jX&X$X%XbXbXx.x.",
"rX+X3XiX_ Q 6XeXoXiXuXaX XQ @XtXuXtXpXmXmXpX1X2X<X XA B 1 1 J . O 4.t.t.A.f.3.t 1.m.JXFX7 |  .h w.e.0.0.q.q.g.F.jX&X&X%XhXhXhX9.",
"gXgXiXiX_ ^ 6XBXBX2XtX1X XQ @XpXsXmXmXmXmXuX@X1X;X_ A K B 1 1 - O b 4.u 4.u u r 7.7.m.JXH T ~  .8.0.h.0.w.q.h.C.jX&X$X&X-XhXhX9."
};
