/* XPM */
static char *a4b1b8ea3db74a05e94bc88ba37f31f1ZnH09pzKCiaUZXE9[] = {
/* columns rows colors chars-per-pixel */
"64 64 242 2 ",
"   c #9C6729",
".  c #A2692D",
"X  c #A46D33",
"o  c #AA6F31",
"O  c #A57235",
"+  c #AB7235",
"@  c #AB743B",
"#  c #AC7A3C",
"$  c #A47439",
"%  c #B47A3D",
"&  c #B4783A",
"*  c #A2712F",
"=  c #935F25",
"-  c #AC7B42",
";  c #A77B4B",
":  c #B37C43",
">  c #B87F43",
",  c #A37B51",
"<  c #A97E53",
"1  c #B2813F",
"2  c #AD834D",
"3  c #AF8146",
"4  c #B48245",
"5  c #BC8245",
"6  c #B5834B",
"7  c #BA844B",
"8  c #BC8A4C",
"9  c #B8894A",
"0  c #AD8155",
"q  c #AB845B",
"w  c #A8855C",
"e  c #B48554",
"r  c #BA8652",
"t  c #B48A54",
"y  c #BC8B53",
"u  c #B3865A",
"i  c #B58B5C",
"p  c #BB8C5B",
"a  c #BC915D",
"s  c #BD9156",
"d  c #9B876B",
"f  c #998D77",
"g  c #9A917B",
"h  c #AB8760",
"j  c #AD8A63",
"k  c #AB8E6A",
"l  c #A48A68",
"z  c #B38C63",
"x  c #BA8E63",
"c  c #B28F69",
"v  c #AC926D",
"b  c #A7906E",
"n  c #B69065",
"m  c #BC9264",
"M  c #B4936C",
"N  c #BB946B",
"B  c #BD986F",
"V  c #A28E76",
"C  c #A98F71",
"Z  c #AC9373",
"A  c #A5927A",
"S  c #AB957C",
"D  c #AC9A7E",
"F  c #AC9574",
"G  c #B29574",
"H  c #BA9771",
"J  c #B49975",
"K  c #BC9A74",
"L  c #B1977A",
"P  c #B49B7B",
"I  c #BC9E7A",
"U  c #BCA17D",
"Y  c #C3884B",
"T  c #C2914F",
"R  c #C38D53",
"E  c #C18D5A",
"W  c #C98E54",
"Q  c #C49254",
"!  c #CC9355",
"~  c #C4935B",
"^  c #CA945A",
"/  c #CD9B5D",
"(  c #C3995F",
")  c #D39B5D",
"_  c #D19557",
"`  c #C39463",
"'  c #CA9563",
"]  c #C59A64",
"[  c #CB9A64",
"{  c #C2966A",
"}  c #C49A6C",
"|  c #CB9B6A",
" . c #D29C63",
".. c #D39C68",
"X. c #C39C73",
"o. c #CA9E72",
"O. c #C29F7A",
"+. c #CCA16B",
"@. c #CDA166",
"#. c #D6A365",
"$. c #D4A36D",
"%. c #DBA46B",
"&. c #DCAA6C",
"*. c #DBA566",
"=. c #C4A077",
"-. c #CCA274",
";. c #C4A27C",
":. c #CAA47C",
">. c #CDA87E",
",. c #D3A373",
"<. c #DAA673",
"1. c #DCAB74",
"2. c #D2A67A",
"3. c #D5A97C",
"4. c #DCAB7B",
"5. c #D6A875",
"6. c #DDB27B",
"7. c #E1AB72",
"8. c #E3AD7B",
"9. c #E0A674",
"0. c #E3B37C",
"q. c #E9B47C",
"w. c #E7B779",
"e. c #E2AA6B",
"r. c #D1A05E",
"t. c #9C9A86",
"y. c #9D9F92",
"u. c #A39A86",
"i. c #AD9B84",
"p. c #A39E8A",
"a. c #AB9E89",
"s. c #A49580",
"d. c #B39C84",
"f. c #B99E82",
"g. c #B39C86",
"h. c #A4A28E",
"j. c #ACA28D",
"k. c #B3A184",
"l. c #BCA383",
"z. c #B4A38C",
"x. c #BCA48C",
"c. c #BBAA8E",
"v. c #B7A88B",
"b. c #A4A493",
"n. c #ACA693",
"m. c #ABAA95",
"M. c #ADAC9B",
"N. c #A5A79A",
"B. c #B3A691",
"V. c #B4A994",
"C. c #BCAB93",
"Z. c #B3AE9B",
"A. c #BCAF9A",
"S. c #BCA791",
"D. c #AFB19D",
"F. c #B3B29E",
"G. c #BAB29D",
"H. c #ACAEA1",
"J. c #AFB0A2",
"K. c #B4B4A3",
"L. c #BBB5A2",
"P. c #BBBAA6",
"I. c #BCBCAA",
"U. c #B6B8A6",
"Y. c #B1AFA2",
"T. c #9EA18C",
"R. c #C4A582",
"E. c #CAA782",
"W. c #C4AA86",
"Q. c #CCAA84",
"!. c #C5AC8B",
"~. c #CBAD8A",
"^. c #C1A78B",
"/. c #D2AC84",
"(. c #DBAE82",
"). c #D3AF89",
"_. c #CCB18E",
"`. c #D4B18C",
"'. c #DAB48C",
"]. c #DAB288",
"[. c #C3AC95",
"{. c #C6AD95",
"}. c #C3B196",
"|. c #CCB493",
" X c #C5B49C",
".X c #CBB39C",
"XX c #CEB89A",
"oX c #D3B593",
"OX c #DCB791",
"+X c #D5B995",
"@X c #DDBA93",
"#X c #D4BB9B",
"$X c #DABC9A",
"%X c #D0B69E",
"&X c #E4B484",
"*X c #EABB83",
"=X c #E1B68B",
"-X c #EBBB8B",
";X c #E6B887",
":X c #F1BD86",
">X c #E2BC94",
",X c #E7BE95",
"<X c #F0BD90",
"1X c #C2B9A5",
"2X c #C3BDAA",
"3X c #C8BAA4",
"4X c #D3BBA3",
"5X c #D7BEA6",
"6X c #BDC0AB",
"7X c #DEC19E",
"8X c #EEC289",
"9X c #F3C38C",
"0X c #F9C488",
"qX c #E5C29B",
"wX c #EAC39B",
"eX c #E9C096",
"rX c #F3C494",
"tX c #FCCD95",
"yX c #FBCD99",
"uX c #F6C898",
"iX c #FFD39E",
"pX c #C4C1AD",
"aX c #CCC2AC",
"sX c #DCC3A3",
"dX c #D8C3AA",
"fX c #CAC6B4",
"gX c #D5C9B5",
"hX c #DBD1BD",
"jX c #E2C5A3",
"kX c #E3CBAD",
"lX c #EACDAB",
"zX c #EAC9A3",
"xX c #F2CCA5",
"cX c #FACFA4",
"vX c #EDD1AD",
"bX c #FFD8A6",
"nX c #E4CCB4",
"mX c #EBD4B8",
"MX c #F3D7B5",
"NX c #FEE4BF",
"BX c #D9D6C3",
"VX c #E2DFCC",
/* pixels */
"t.b.D.I.pX6XK.M.T.h.m.D.U.U.K.D.I.I.I.K.M.N.N.J.U.J.H.H.H.H.N.y.M.m.h.h.m.Z.F.K.pXP.F.M.m.M.K.P.m.M.Z.F.F.F.F.F.Z.F.F.P.I.I.P.P.",
"m.F.I.I.U.D.D.D.D.M.M.D.U.U.K.D.N.N.N.b.y.b.N.K.U.J.H.H.H.H.N.b.b.h.b.M.P.pXgXhXfXpXP.F.M.F.K.P.m.M.K.P.I.I.P.L.m.Z.K.F.M.m.M.F.",
"h.m.F.M.h.h.m.U.pXP.D.M.K.P.U.D.J.H.N.N.b.N.K.I.K.J.H.K.K.U.U.K.m.m.M.L.fXBXBXVXBXgXpXP.Z.M.m.m.b.M.L.2XpXpX2XI.Z.P.I.K.n.h.M.L.",
"t.t.t.t.t.b.K.pXfXU.m.b.M.U.K.D.I.U.K.J.M.M.K.U.H.M.Y.U.I.pXfXfXI.P.L.P.pXfXgXgXBXhXfXP.Z.b.p.t.p.b.Z.K.1X2XpXpXL.L.L.Z.m.m.F.P.",
"F.m.p.t.m.F.I.pXF.h.t.t.p.m.Z.M.K.Z.M.M.M.M.M.N.Z.Z.Y.K.P.I.pXfXfXpXL.F.F.G.L.G.aXpX2XL.Z.n.p.t.u.u.p.j.V.L.2XpXG.m.h.h.n.Z.L.L.",
"2XF.h.h.m.F.m.h.t.g g g t.h.n.m.Z.m.n.n.M.Z.Z.Z.Z.F.Z.Z.Z.M.K.P.fX1XZ.n.n.n.V.Z.G.G.L.L.G.Z.n.j.u.t.t.u.j.Z.2XfX2XG.n.n.G.1X1XG.",
"V.j.j.j.m.m.j.u.g t.u.p.h.n.Z.L.1XF.n.j.n.Z.L.L.Z.Z.Z.Z.n.m.F.L.fX1XB.p.a.V.A.L.1X1X2X2X1XG.B.j.a.p.a.j.V.L.aXgXhXfX1XL.1X1XG.G.",
"g u.j.Z.G.G.G.G.u.n.G.G.G.G.1XaXgX1Xn.u.u.j.Z.G.V.V.Z.Z.Z.G.2XfXdX1XB.a.a.V.1X3XdXgXgXdX3XA.j.u.j.B.V.A.1X2XgXgXhXhXdX1XA.B.j.j.",
"g a.j.a.j.1XaXaXG.C.V.V.V.j.a.u.j.j.u.f g j.j.i.j.B.V.V.j.j.V.A.B.B.B.B.B.V.G.3XaXaXdXaX3XA.z.a.a.j.z.a.s.i.z.C.gXhXgX Xz.a.a.a.",
"V.G.A.z.a.z.V.z.C.j.s.g A u.z.V.V.C.C.j.v.C.A.z.v.z.v.j.i.i.a.z. X X X}.V.C.V.A.V.A. X X XA.S.v.z.z.z.i.i.i.z.C.C.3XgX3X XC.z.i.",
"3XaX3XC.i.i.i.A v.i.f d f A z.v.C.A.}.A.}. XC.k.c.v.z.v.C.}.}.}. X X.X[.S.z.z.v.z.v.C.[.{.[.C.C.g.i.i.i.i.i.g.i.A x.3X X{.[.S.z.",
" X X}.v.g.i.i.i.i.D A f A A S D c.c.c.v.c.v.k.D }.c.c.C. X3X3X X[.C.x.z.g.z.x.[..X.X.X.X.X[.[.C.g.i.S S d.i.S V S z.C.x.x.[.{.[.",
"g.i.g.i.i.S g.z.i.A V V A i.g.k.XXc.z.k.g.D D D }.C.C.[. X}.C.z..X{.S.g.g.x.{.4X5X5X4X4X.X{.[.[.[.S.x.x.^.x.g.S g.C.{.[.[..X4X.X",
"A V V A A V A g.i.A d d A x..XdXdXXXc.x.k.D D k.D k.c.XXsXdX4XXXdX5X.X^.x.[..X5X.X.X.X{.{.{.{.{.4X4X4X4X4X.X[.x.g.{.4X5XdXdXdX.X",
"S A V S A V V g.g.i.A i.x.4XnXmXnX#X!.c.k.F F D d F !.sXkXkXkXkX5X4X.X[.x.x.[.{.x.x.x.x.^.{..X%X4X4X5X5X%X{.x.x.d.x..X4XdXnXnXdX",
"k.D D d.d.A D x.x.x.[.XXdXnXmXmXkXXX^.l.P b d b l P |.sXsX#X|.|.x.x.x.f.d.L d.g.f.f.f.l.x.{..X%X^.{.%X.X^.d.F S L f.l.x..XnXmXmX",
"kXkXsXsX|.l.L F P l.x.^.!.|.sXkX|.^.P L F C Z L Z l.#XkXkXsX!.f.P L L P l.l.f.P P Z C P _.4XsX4X|.!.l.f.f.P F C l.f.P l.|.sXkXmX",
"7X#X#X|.l.P L L b Z F L P l.!.|.oXl.L L L L P f.^._.#X$X#X_.l.L Z Z Z L f.l.l.l.Z L P R._.oX#X#X^.f.L Z Z Z Z C P L L P l._.oX#X",
"XX|.!.l.F Z Z F d d l Z L l.W.!.~.P Z Z J P I R.|.|.|.~.W.R.l.U L L L P l.W.!.W.l.!.#XsXjXsXjXkX|.W.I F Z Z F F k k b L l.^.!.!.",
"|.|.!.l.F b b Z Z b Z P W._.|.|.I P L P L F P ^.|._.!.W.!._.oX#X_.!.W.!.|.|.|.|.|.#XsXlXMXMXMXMXlXjX#X~.R.l.P P l k L l.|.#X#X#X",
"W.!.!.W.U P J J U P P l.|.+X|.!.J U ~.~.I G P ~.oXoXoX+X$XjXlXvXjXjX$X+XoXoX_.~.W.R.R._.7XlXlXjXvXlXjX7XoX~.R.U J I W.+XjXlXlXlX",
"U l.!.!.W.l.l.l.l.U P W.oX#X_.l.U ~.$X$X~.I R.+XjXjXjXjXjXlXvXMXlXjX$XoX~.~.R.l.I G k G W.+X$X+X$X$X7X$XoX~.R.l.~._.+XsXlXlXlXjX",
"R.W.W.W.U U U U J v G W.7XlX7X_.~.~.`.`.~.R.~.+XjXjX>X$X$X7XjXjXjX$X`.Q.R.R.O.I K G M H ;.~.oXoX`.oXoX`.Q.R.R.R.~.~.`.oX$X$XoX_.",
"oX_.~.U J v M J k l v ~.vXNXMXvXoXE.I ;.E.Q.`.+X$X+X`.~.~.).+X$X+X`.Q.R.;.;.;.O.H K I O.;.R.~.oX+X$X+X`.R.;.R.E.I O.;.R.Q.Q.R.;.",
"U U ;.K M v M H k K ~.+X@X+X+X+X;.=.I I O.;.E.Q.).E.O.K ;.E.E.;.E.;.K H M c k k H M H R.`.OXQ.O.`.`.`.Q.=.K H K H H H O.E.Q.E.E.",
"K K H M v v v M U ;.E.E.U K J K ;.;.R.R.R.R.R.R.R.R.O.K M H I ;.~.E.O.H c j h h M M H K O.;.;.;.`.`.`.E.K M M H H H O.Q.`.OXoX`.",
"H M M M M M M M M M M v j j M H O.=.;.=.O.K M n H O.;.H j j H ;.Q.:.K M j h w w j c M M n H :.).@XOX`.Q.;.K O.O.O.;.Q.OX@X@X`.Q.",
"M M M H I K M j h h h j v M K ;.;.;.O.K M c j j c H ;.=.H M K ;.X.H n j h h j j h j c M K Q.@XqXqXqX@XOX`.].`.'.OX@XqXzXzXqX`.E.",
"h j M K ;.=.M w j c M K ;.E.E.E.'.).:.X.N n n N j N ;././.Q.:.;.H N z q q q z z q q j K ].wXxXxXxXxXwXqX>X>X>X>X>X,XwXxXxXxXwX>X",
"w j M K =.H j w w n =.`.qXqX@XOX'./.X.n z z c n z H Q.'.OX'./.>.X.K c j q j c n N z n ;.>XxXxXzXxXzXwX,X>XOX'./.;.:./.'.>XwXwXwX",
"M H K K K H M M n H E.@XzXxXqX@X:.X.N z q q q h c O.].OX]./././.;.X.N z z N X.;.'.)./.].OX,XqX>X>XOX'.OX>XOX).Q.X.K N K O.E././.",
";.:.:.=.K H =.E.Q.).OXqXzXqX`.;.O.X.H n c j h h N >.OX'.:.X.:.'.X.K N N N ;./.'.xXxXzX>X'.].'.OX:.:.Q.'.>X>XOX).>X).;.H N N K K ",
":.:.>.:.;.;.:.>.'.)./.Q./.:.X.N w w q q c n z q z :./.X.N X.>.>./.O.X.>.].'.OX>XqX'.E.X.H O./.OXOX`./.).'.'./.:.Q.:.O.O.;.X.M j ",
"/./.>.=.X.B X.X.'.).>.=.X.n q , z q , , w c N X.:.'.>X).>.'.OX'.Q.:.E.'.OXOX'.>XOX).;.N z N X.>.'.'.'.'./.E.:.;.;.X.X.K X.N c h ",
":.;.X.N z z N X.X.X.N N z u q , z q , , q n X.:.'.wXwX'.'.eXeX'././.'.>XOX/.>.>./.>.;.N N N X.>.:./.'./.=.N N N N N N N N N z q ",
"z z z q q z N X.N n z z z q q 0 , , , q n X.X.X.>XwX>X'.'.eX>X/.).).'.'./.N N N B X.X.N N B ;./.o.:.>.:.} n z i n n n n n n z i ",
"< < , , , 0 x { } { N z q , , , , , 0 z N o.:.:.,XeX>X(.].,X=X:.(././.3.o.x x { u z n x z x { -.-.-.+.+.+.| m i i a a a i i a m ",
"0 0 < , , , 0 u n n n z q q u u n z u z { :.(.].eXuXeX].'.eX>X3.3.-.o.o.} N } -.x N } N z i N o.+.] a a m m i 2 i a a a i i a m ",
"z i u 0 , , < 0 z x N N N { o.2.o.X.} o.2.(.=X=X;XeX,X].(.;X=X2.-.{ m m { m m } { o.-.} x x } 2.-.+.] a i t t t i s s i t t i a ",
"x x x u 0 < 0 0 -.-.2.-.o.o.-.3.o.-.3.=X,X,X=X].3.=X=X2.:.(./.o.-.` i a m i e e i m { m i i } 5.6.6.6.+.( s a ] t y s t 2 2 t s ",
"{ m i u u i m { (.eXuX;X3.2.-.} o.2.=XuXcXuX,X=X{ { { { } } o.-.} ` a a a m m m p ` | | ` ] 3.-X;X8X8X6.+.] ( s a ] @.] s y s ( ",
"p i i i x } 2.3.=XrXuX-X].4.3.-.o.2.(.=X-X;X].5.m m i i i x { } ] a p t 0 2 2 2 a ] | ] ` ] 5.;X&X8XrX8X0.6.6.$.$.6.0.6.@.] [ $.",
"u e u p { ,.(.;X-XrXrX-X;X;X(.2.3.5.3.4.(.4.5.,.p i 0 ; < e p ` [ ] a t ; - - $ p s a ~ ` ] ,.1.0.9XyXyXtXyXrX8X9X9X8X6.@.| 1.*X",
"p p p p ` | 5.4.-X-X-X-X-X;X(.5.2.,.,.,.,.2.+.| r e 0 < 2 e p a 5.$.@.( t 3 - - t r y y ( [ $.5.0.9XyXyXiXbXbXiXbXtX0.@.] $.;XtX",
"p p p p p ` | ,.;X&X&X;X;X;X4.4.| | | | ,.| | ` e e p p p p ` ` 4.0.1.&.[ ~ ~ ~ ' ' [ @.$.1.0.0.-XrXtXuXyXbXbXbXbXuX4.$.4.;XrXrX",
"e e e e p ` ` | 4.4.4.&X&X4.4.4.,.,.,.,.4.4.,.,.e p p ` | | | [ 0.w.*X0.1.$.$.&.0.w.*X*Xw.*X8X9XrXrXrX9XrXcXbXcXyX9X;X*XrXrX-X&X",
"p p p p p E ` ` [ ' | ,...' | <.&X4.<.,.<.4.4.4.r p p ` [ | ,.,.q.:X0X0Xw.0.0.w.0XtXtX0Xw.0.w.*X-X-X-X;X<XuXuX<X;X;X;X;X&X8.4.<.",
"' ' ` E E p E E e r E ' E e p ..0.<.| ` ` | $.,.r r p p ` | ,.<.-X9XtXtX0X*X8X9X0XtXtX9X1.@.$.1.<.8.8.8.;X<X;X4.5.4.4.| p p ` ,.",
" .^ R y y R y y 8 y y R R Q Q ^ <.$.[ ' $.<.' 6 r 6 e ~ <.0.&X0.rXuXyXuXyXuX-X3.,.=X&X| | 3.4.,.,.,.| ' ..4.$.E ' [ [ ` y 6 r E ",
"8 R W W W R R R : > 7 R Q ^  . .q.8.<...$.<.' 6 r y ~ ` [ $.8.*XcXbXcXuXrX-X3.{ x o.o.x x o.,.| $.~ p [ $.[ ~ ~ y y ~ ~ p r y E ",
"8 W /  . .^ W R 7 8 W  .%.7.q.q.:X*X1.$.[ [ ~ - 6 ~ ' ( y ~ $.&XrXuXrX-X&X3.| u < x ` u e ` { p [ : : [ #.y 6 ^ 4 7 r r y y y y ",
"%.#.%.%.&.#.^ 8 W ^  .%.q.:X:X0Xq.0.$.( ~ ~ 6 - 4 y ( R 6 6 Q $.| ,.5.,.| | a e < p a i r a ` p ~ 4 6 Q ( 7 7 ^ r r 7 6 4 r r 6 ",
"q.%. . .7.7. .R R W ^  .%.7.7.7.$.$.[ E 7 7 4 - 7 r y y y y y y 6 y ~ ~ p ~ p e - 6 r r y ~ ( ( ~ Q ~ y r y E E r y 7 - - 6 y r ",
"%. .W ^  .%. .R R W ^ ^ ^ ^ ^ ^ Q [ ' y 7 7 6 : y 6 : 4 y R r 4 4 y ~ s y s y 9 $ # 3 6 9 y ^ / R ..#.Q r R E 7 : y y - @ 7 ~ ^ ",
"^ ^ Q Q ^ W W R R W ^ ^ ^ R 8 4 4 R ^ R 7 4 4 4 y : O O - 4 7 4 6 Q ^ Q y y y 7 # # - 4 4 4 y Q ^  .1.&.[ 8 6 4 @ Q ' 8 - 8 Q Q ",
"W ^  . .R > > 7 8 R W W 8 7 : @ - 8 W 8 > : > - 4 @   =   O : 4 4 s ^ Q 8 8 8 9 8 9 4 4 # # - 9 ^ ^ &.8X7.4 O : @ / &.^ 4 6 8 8 ",
"8 W ^ W 7 - - > R 8 7 > : # # # . 7 ) ^ 4 @ X   = X @ O X + @ @ 8 1 8 #. .4 9 #.Q / ! 1 4 Q 8 O Q 6 Q 0.&.4 O # # # / &.8 Q #.! ",
": 7 R R 7 > 7 R 8 7 > : # @ @ @ X 4 R 4 + . .   @ 4 5 % + + @ + 8 Q #.7.#.4 1 T ) w.w./ % # 1 4 # 7 / #.^ 4 # # : # ^ #.Q ! #.^ ",
"@ : 7 7 7 4 8 R 7 > : @ O X X X + 4 Y & .   . o Y W W > + + + + 5 #.0X0X&.R 5 8 &.q.0Xw.R + + 4 # ^ *.! 4 # +   : # 8 / ! r.&./ ",
": 7 7 7 : # : > > : # @ X X X X % Y Y % . . + & Y ! W > o o + + > 7.tX0X7. .) ^ &.&.7.w.&.R : # 4 ^  .R # O O   # # 4 ! #.&.w.&.",
"7 7 7 > # @ @ @ : : # @ @ X X X % Y W 5 + + & 5 _ ) ! > o o + + > 7.0Xq.%.%.%. .&.#. .%. .^ W ^ Q 8 8 T 9 # O # + # 1 T &.w.w.w.",
"4 > : # @ @ @ @ # : : : # @ X X % Y ! Y & & 5 Y *.e.) Y & & % % R %.8.%. . .' W 8.q.7.^ 7 8 ..:X*.! T T 9 O     O 1 4 8 e.w.&.w.",
"7 > # @ @ X X X @ @ : > : @ X   > Y W Y & % Y _ )  .) Y % Y W ! ^  . .......E 7 8.*X8.^ R ' 9.q. .#.r.8 # *       9 4 8 &.*./ *.",
"8 4 : @ X X X   X O : > > @ .   5 ! ! Y % 5 _ *.Y W W 5 5 W *.e...^ E ..<.<.^ R %.9...' %.:X8.R O ! r.1 * 1 4 +   8 9 9 *./ 9 / "
};
