/* XPM */
static char *_0ef0bfdc32d455cc03b887ad238b8968ozSDrr0S2Pa2Yy5[] = {
/* columns rows colors chars-per-pixel */
"64 64 256 2 ",
"   c #010D03",
".  c #06070A",
"X  c #02140B",
"o  c #011B0C",
"O  c #061509",
"+  c #040918",
"@  c #170717",
"#  c #021C12",
"$  c #051516",
"%  c #141215",
"&  c #290C19",
"*  c #05270A",
"=  c #052817",
"-  c #053719",
";  c #18371B",
":  c #0F3012",
">  c #060A23",
",  c #0B1725",
"<  c #171827",
"1  c #15122B",
"2  c #380D29",
"3  c #261728",
"4  c #381529",
"5  c #281937",
"6  c #371A38",
"7  c #2E0A2C",
"8  c #072826",
"9  c #063825",
"0  c #163726",
"q  c #172D34",
"w  c #272838",
"e  c #382737",
"r  c #26302D",
"t  c #213B16",
"y  c #46172A",
"u  c #481B37",
"i  c #561A38",
"p  c #51152C",
"a  c #4C233B",
"s  c #59263A",
"d  c #4F2E37",
"f  c #692B3A",
"g  c #59172D",
"h  c #0D461D",
"j  c #2C431D",
"k  c #094626",
"l  c #194728",
"z  c #1A552A",
"x  c #184736",
"c  c #195635",
"v  c #084F32",
"b  c #264727",
"n  c #28572C",
"m  c #254936",
"M  c #265936",
"N  c #375938",
"B  c #34502E",
"V  c #1B6638",
"C  c #256638",
"Z  c #37643A",
"A  c #2F6B34",
"S  c #485B2E",
"D  c #466938",
"F  c #567638",
"G  c #4E6F32",
"H  c #637A39",
"J  c #311A47",
"K  c #182C45",
"L  c #242A45",
"P  c #382845",
"I  c #283547",
"U  c #383849",
"Y  c #343555",
"T  c #2D2952",
"R  c #4F1B46",
"E  c #472747",
"W  c #572747",
"Q  c #483749",
"!  c #5A334A",
"~  c #582B56",
"^  c #473556",
"/  c #583658",
"(  c #4C2B56",
")  c #652A48",
"_  c #66334A",
"`  c #783648",
"'  c #662A55",
"]  c #673758",
"[  c #773658",
"{  c #752A4F",
"}  c #583B66",
"|  c #4C3567",
" . c #6A3965",
".. c #773867",
"X. c #753772",
"o. c #155249",
"O. c #265C43",
"+. c #394756",
"@. c #31554F",
"#. c #176D4E",
"$. c #266747",
"%. c #366847",
"&. c #267448",
"*. c #377647",
"=. c #387756",
"-. c #2D7055",
";. c #32546A",
":. c #327066",
">. c #4C4959",
",. c #764559",
"<. c #6D4457",
"1. c #477946",
"2. c #4D724E",
"3. c #48466A",
"4. c #53506F",
"5. c #66476A",
"6. c #784668",
"7. c #684977",
"8. c #784875",
"9. c #785779",
"0. c #6F5571",
"q. c #4D716F",
"w. c #6C6C72",
"e. c #666F4E",
"r. c #873859",
"t. c #8B3749",
"y. c #853965",
"u. c #853A76",
"i. c #923A6D",
"p. c #884559",
"a. c #874668",
"s. c #964769",
"d. c #874878",
"f. c #964A76",
"g. c #865678",
"h. c #965678",
"j. c #92526E",
"k. c #A85173",
"l. c #AE617D",
"z. c #A15567",
"x. c #CB6378",
"c. c #6B823A",
"v. c #5E8D3F",
"b. c #348556",
"n. c #338C6F",
"m. c #1B8867",
"M. c #558858",
"N. c #4F8950",
"B. c #6A8A49",
"V. c #709451",
"C. c #6EA559",
"Z. c #469769",
"A. c #52906C",
"S. c #69976E",
"D. c #52A673",
"F. c #77A975",
"G. c #71AB6F",
"H. c #72C074",
"J. c #869A50",
"K. c #85A75C",
"L. c #89A866",
"P. c #8DB370",
"I. c #A1BC6F",
"U. c #97C27C",
"Y. c #A4C47D",
"T. c #595B89",
"R. c #685985",
"E. c #785786",
"W. c #704D8D",
"Q. c #546F91",
"!. c #736993",
"~. c #756FA9",
"^. c #7754A4",
"/. c #584B83",
"(. c #884C88",
"). c #885687",
"_. c #975687",
"`. c #865696",
"'. c #975994",
"]. c #944B8C",
"[. c #A75B88",
"{. c #A45B95",
"}. c #B2558D",
"|. c #9A6389",
" X c #87669A",
".X c #976597",
"XX c #8D6D91",
"oX c #A66697",
"OX c #B16B94",
"+X c #8F5EA7",
"@X c #B15CA6",
"#X c #9767A8",
"$X c #9576B9",
"%X c #8D6FB0",
"&X c #A868A6",
"*X c #AA75AB",
"=X c #A97AB8",
"-X c #B778B3",
";X c #B46FAC",
":X c #CF7390",
">X c #C974B1",
",X c #DB7696",
"<X c #9679C7",
"1X c #AB7AC9",
"2X c #CC78C5",
"3X c #933B89",
"4X c #39978D",
"5X c #3CA890",
"6X c #3CB3A7",
"7X c #50948B",
"8X c #59B897",
"9X c #4FAC8F",
"0X c #6EB390",
"qX c #50B6A9",
"wX c #73BDAA",
"eX c #6190A4",
"rX c #73C697",
"tX c #57C6AF",
"yX c #6DCBAB",
"uX c #7CE1B5",
"iX c #68A4C8",
"pX c #60C7C4",
"aX c #8BBC89",
"sX c #B583B6",
"dX c #908EA6",
"fX c #DA85AA",
"gX c #9AC794",
"hX c #95C98F",
"jX c #AAD59A",
"kX c #ABCF94",
"lX c #90D1AD",
"zX c #ADD8AB",
"xX c #A9E5B9",
"cX c #B7E5B5",
"vX c #B4E5AD",
"bX c #96E7B4",
"nX c #C4E9B5",
"mX c #C0DE9E",
"MX c #9587D0",
"NX c #A986D8",
"BX c #B58AD1",
"VX c #B895E8",
"CX c #AD8FE8",
"ZX c #9D8DE6",
"AX c #CB8CD0",
"SX c #D797DD",
"DX c #96D6CD",
"FX c #A9DBCE",
"GX c #A8E6D9",
"HX c #B5ECCF",
"JX c #B7E9E5",
"KX c #B4EFED",
"LX c #91E0DF",
"PX c #C7F5CD",
"IX c #C8F7F8",
"UX c #C8F4F0",
/* pixels */
"F.0XF.B.c.v.v.K.H.C.C.H.H.Z.m.b.%.b B r B b &.N.C b.D.G.C.V.M.F.P.b.z &.b.&.z V V k h * h - 9 - ; o # o c -.9 c %.v z l l n O.k ",
"G.F.V.F G G v.C.C.C.C.D.Z.Z.Z.b.O.B : = l %.D.0XD.D.D.Z.*.V.D N.N.N.N.A.b.A V h &.k h * - h l - = o = = O.9 = x = : * l * 0 O.9 ",
"S.M.1.S G D N.M.C.C.D.N.A.D.Z.b.N B l * -.8XqXeX9XrX0Xb.n A A v.F N.N.N.A &.V V &.h h - h - - * = * % * o : O       = m * * $.o.",
"N.%.2.2.j 1.M.1.v.N.Z.b.N.A.M.*.2.2.q.:.9XqXqXpX8X8XrXn.b.D.G.A.N.M.N.z z A A z V h C - h z * l 0 = X % O     . O O 0 b = = = o.",
"b.Z m N @.A.q.*.1.1.=.=.D.Z.2.q.Q.Q.!.Q.Q.6XiXiXrX9X8XtXtXyXrXrXZ.*.n h A A z z M z n - z l l 0   O O % O . O % %   = x o 0 8 8 ",
"b.N.O.-.*.q.:.-.Z Z =.=.M.@.@.@.Q.iX!.~.Q.Q.iX6X8X8XyXtXyX8XrXuX8X#.&.C A z A A n l l V c l l O O O   % %     % O   = k c 9 = 8 ",
"b.D.4X:.=.%.:.:.%.%.2.x q.I Y T.<X~.~.~.~.iXeXiX9X8XrXrXrXrXrXrXyXD.#.V n l z h h M &.c k v - = = % O = O O O   X = * o.m.m.k #.",
"m.b.:.:.$.m :.+.r @.>.Y 3.| } ~.<X<X<X<X^.<XiXeX7X9X8X8XrXrXrXyXyX5Xn.#.k C h * k $.$.k $.M 9 o O = 0 0 o 0 m = 0 - $.#.m.8X&.0X",
"&.#.@.;.w m >.U < ^ R.%X XW.W.<XZXMX<X%X~.~.~.~.q.Z.D.0XrX0XrXtX8X9X5XD.m.#.n.8Xb.v v $.v 9 0 X = - q 8 o.v n.m.-.-.D.m.uXyXuXbX",
"%.x +.;.w r w 1 U XX~ W.VX1X<XCXZXZXZXMX<X~.~.Q.q.b.n.9X8XyXwXqX6XtX6X5X5X5XLXGXGXn.- v = , = # = = 8 v n.o.m.8Xb.m.Z.D.uXbXbXbX",
"U U 6 5.a 4 W ~  .5.u  .+X1X<XVXCXCXZXMX<X<X!.4.q.-.-.A.9X9X6X6X6X5XD.n.4XyXDXGXGXJX7Xo.:.#.= o.= o.8 o.n.#.#.n.rXD.rXH.bXHXvXvX",
"4 E XX/ E a X.;X .X.6.W (.X.W.1XCXCXCXZX<X~.T.q.-.$.V -.4XqXpX6X6X6XD.n.tXLXGXGXKXJXKXKXGXLX7X7X:.:.#.9 5Xm.m.rXrXrXbXhXbXxXxXvX",
"W ).`. .R ( W >X@XX.d.X.+X`.<X+X<X$X%X%X~.^.;.;.o.o.#.4X4X6XpX6X6XtX4X9XDXLXGXJXJXKXJXIXKXJXGXKXLX7XpXo.m.m.b.H.lXbXHXlXbXcXvXvX",
"~ d.+X`.].u.R 3XAX@XX.{.2X#X1X^.W.+X+X7.^.!.q.q.@.-.o.7X7X4X6X6XtXpX4X9XuXbXDXGXJXKXIXIXIXKXKXKXKXyX4XqX8X9XZ.Z.aXaXzXHXvXPXcXvX",
"..u.;X].u.X.u.@Xu._.].f.AXBX(.(.#X`. X| T.+.q.;.;.;.T.~.Q.;.7XqX6X4Xn.Z.tXlXDXGXJXKXIXIXIXIXIXJXGXlXqXyXbXrXrXrXP.F.gXzXzXcXnXvX",
"..X.}.2X>X{.2X@Xu.{ u.{.].].(.d.#X*X).E | T.T.;.Q.~.~.iX~.+.:.eX9Xn.n.b.n.8XpXFXJXKXIXIXIXIXUXUXGXDXHXKXyXhXrXjXP.hXaXjXkXgXgXzX",
"].@Xi.u.>X2X2X@X@X(.u.2X(.X. .] W W / E 0.R.T.~.~.MXMXMXMX%X3.q.>.@.7X7X9X4X8XuXLXJXKXIXIXJXUXIXIXUXUXHXFXFXlXcXhXY.U.nXjXhXkXvX",
"@X>Xy.i.u.3X2X@X].u...>X&XX.d.] u a E >.4.| R.MXNXVXNXMXVXBX%X*X0.>.w.7XwX7XA.7XlXGXJXUXIXUXUXIXUXPXHXFXlXaXjXcXvXU.kXmXnXnXY.K.",
"@X>X3X>Xy.i.@X@X[ { y.[.;X`.(.(./ 7.( 9.5.E 7.dX<XVXVXVXVXBXsXdXsX0.S B M.S.2.=.7XlXFXJXUXJXUXPXJXFXFXHXzXF.F.P.kXmXY.I.I.kXK.L.",
"3X2X@X].r.r.f.].h.s.{ ) X.X.W.W.7.5.}  X<.7 7.VX1XCXVXVXVXBXMXsXsXOXj.0.M.q.e.2.2.q.0XlXDXFXJXUXFXFXgXPXzXaXgXY.K.C.K.K.K.V.I.K.",
"u.>X@Xr.{ r.{ ..[ p.) W W  . .5.9.E ( ).5.~ E BXVXVXVXSXBX1XBXAXsXdXsXh.e.S.A.A.A.0XA.lXDXlXFXIXPXFXFXPXHXcXgXP.U.K.U.L.I.I.K.I.",
"].i.@XOXi.f.f.h.6.6.u _ W 6.~  .6.( u ] u 5.J W.1X1XVXVXBX=X*XsXAXsXsXdXdX0Xq.S.0Xq.m A.0XlXFXPXFXzXzXzXPXzXgXgXvXjXkXK.I.K.Y.G.",
"{ u.s.f.i.[._.[ ) [ 6./ ] ] W g.R W y R W.X.+X^.<X1X1XBX;Xh.a.*X;XsXsXdXw.S.Q.0XF.B t B %.%.S.aXaXaXaXaXcXnXzXzXvXjXjXkXkXB.P.C.",
"}.OXy.r.s.a.f.' ) s 9.8./ '  .g./ u J #XAXAXCXNX1X1X1X-X].h.g.|.;XsXOX` 9.4.A.7XS j S >.B l $.S.gXL.aXP.jXPXPXnXzXjXmXmXI.V.B.v.",
"}.>Xi.f f ) y.a.p.s u <._ u i 8.'. X#XBX1XVXVX1X1X1X1X1X(.*X.XX.sXsX#XXXw.>.7X0Xe.B j S N 2.S.S.rXS.F.zXPXcXkXzXkXK.J.I.H J.J.H ",
"}.r.{ i.p._ ) [ ) a s ] ! [ u ' W.^.1XNX<X1XVXVXVX1X2X1X#XSX-X8.;XsXdXsX4.q.0X0XA.D S e.>.2.l c F.xXPXPXPXHXzXkXjXP.c.J.J.c.c.V.",
"t.s.f g [ i _ ..) p i 6.' 6.s u d.W.+X<X1XW.1XVX1X`.+X2X;X&X'.*X*XsX XE.!.eX0XwXA.M.1.D N ; z lXFXxXzXPXUXPXPXgXY.L.J.B.K.J.J.K.",
"t.g ` s.h.] ..a.a.] _ _.' [ ) y ' ).MXNXVX+X1XVX1X(.} u.&X&X*X`.8.#X XR.q.0XlX7X2.M.Z b j b 2.lXhXrXkXnXPXPXPXcXjXI.K.V.v.L.V.v.",
"t.i.r.i.'. .X. .f.{ p a.'..X..) ' ].+X+X+X%X1X1X1X~ E ~ ~ 6.} 6 3 w >.>.r %.2.%.Z B B j t : %.gXrXlXjXvXnXPXnXHXnXjXaXG.I.L.Y.K.",
"k.i.]...8.~  . .a.) p W g.(...) (.(.~ | W.#X&X+X~ R / ] <.8.^ ^ Q e w + o * N N A j N S N N 0 aXF.hXkXkXzXnXcXkXP.vXkXI.L.H H c.",
">Xi.t.{ 6.g.8.(.d.y.i a.' d.d.u.'.(.8. .R ' '. .( W.E E 5.8.7.!.3.3.U $ 8 =.A.%.z A *.N.Z M.; j gXgXgXkXjXzXgXL.F.hXaXL.H H S G ",
"}.k.r.) ' ' ( ] h.[ [ r.i ' f.{.'.&X .R W ' d.8.} `.} 5./ ^ Y T.Y K 1 + $ c %.$.*.*.1.A.S.M.b * n S.L.G.L.aX2.C.hXN.c.c.G H G H ",
"[ r.' u i _ ~ W a.f.].d.{ ) i ..8. .d.d.d.X.u }  X!.R.5.5 L 1 > > > > + + # x =.C z M.F.2.B n b - : b l V.2.N 1.F D 1.V.F G B.F ",
"a.oXoX6.! a W W ~ g.'.d.[ i W ' a 2 X.a. .6 u 6 ( | 4.5 1 I Y I L > > + , q = - c C C Z b ; Z M n O.: N Z Z Z F G F.B.G B.B.N.A ",
"a.|.).6.8.a y <.8.6.W W ] h.).).W y u.d.W 2 / J 5 Y 5 1 L L L 1 > > > > > , $   = - z C z C =.&.-.O.l M l j A D h L.L.G F G G.C.",
") W 6.)./ ! 4 W u y _ a y ' 8.] a 2 .._.] R 3.T ^ 1 , < , , L K + > + > > > 8 8 9 - 2.Z.b.=.&.m.#.v ; : l b z M.G j P.e.N F P.rX",
"i { *X)._./ y y W a s _ f a ! E u u 6 X.8.5.4.| > < > , + + K K + + > + > > 8 8 #.-.=.S.C - - &.&.h * * O : Z Z Z n A.e.2.G F G.",
"{._._.~ 6.E W a 6.] W ! a 2 3 4 e e 5 5 J L L 3.Y > , L , + T , > L q + + $ 8 9 -.v = - * - l c c k r : = n *.*.N.F.%.1.2.S M.B.",
">Xy.' a.).s 2 ! ] 7 0.0./ 3 3 @ e w 3 3 @ 1 L L U 1 8 Y q + I , K L , . + $ 8 q o.  o   - b.h k - k : O o x A.Z.F.V.M.2.2.B.H G ",
"[.s.{ ,.{ h.' a.W E 7.5 } P . @ . + @ 1 w < , +.> q K I + > I K 1 K , + $ $ , @.#   + # v O.c h c v =   - A.k k h : S.S.Z B.F S ",
"[.[.t.g i.i.f.oX).( E 5.5.e @ & 5 3 r . @ < % w +.q U , , , I w q +., q # q +.q q = . q q 9 c 9 &.9 :   %.o.M c *.%.A G.N.G.B.G ",
"r.k.l.k.>Xi.....|...7 a 6 e @ @ P e e Q 3 w . w U , w 3 < % L < Y w w I < +.q +.# $ < ;.$ X # o 9 0 X # 9 - - = k C b.A b.A G.v.",
"k.x.}.>X>X..'.8.h.h.2 u a W  .8.7 E e Q r 3 . w +.w 3 r % r + >.r 3 r e 3 w >.w $ X >.+.+       X # X # X 0 0 - V v V V V * F.P.",
"x.}.}.2X>X'..X' [ y._ y / 8.OX{.E ( e e @ @ @ e e d @ . & 3 >.4.3 . 3 < r 4.U r 3 % 4.I % . % % . . + $ X = = 9 m.b.V V C * N.S.",
"z.k.}.2X2X3Xa.i y.s.s.2 ] d.].oX(.g.6.& & & 3 w.a e & & & & d >.d e e 3 5.e 3 e & Q Q U r % . . . . + .   = v #.n.&.* c C v A z ",
"t.k.}.>XSX@X{ [ r.:Xh.{ d.u { }.;X .R _ f 4 5.! & 4 4 e d & @ e P E.Q y >.3 Q g.4 d d e e a d 0.U . L $ q -.#.-.- * 9 v &.C h h ",
"[.f.r.OX-Xd.) _ { OX}.) W _ ` y.d.[.a.|.6.<.<.& ! ,.! y W ] 4 E ^ !.! 4 y _ g.h.h.s f ! <.5.g.|. XK K ;., - 8 =   = O.#.=.- h C ",
"h.i r.p._.[ [ p g i.:X[ i ,.[ a.[ d.' h.r.] ] y ,.a.! s ) _ a ! XX/ ,.y 4 w.<.6.h.s.s ,.h.<.9.XX%X| ;.;.o.= o # X = = k k * = = ",
"g f p f f.(.) s g f s.a.p ` a.[ ..6.y p.z.g p g f f <.y r.[.i ,.a ! <.d 9.5.a.{ _ j.l.OX<.6.).dX.X!.Q.K o.K 9 = X   = = 0 0 # X ",
"f & p p _._.) y s f i p s s h.i.] 6.y f k.p.f f y d f ,.k.>Xa.) f ,.f ,.! d z.f ,.h.OX[.a.g.h.oX*XXXQ.;.o.o.8 = : X : o X # 9 0 ",
"s ) [ ) X.(.' i y s i ) _ & d.].W i g f t.f p.p.f ,.<.d i.;X;X[ d _ ,.,.y f l.` ,.p.l.:Xp.,.p.h.OX X;.;.o.9 - k - = = < # = @.9 ",
"u ,.] W 7.X.! u 2 4 _ s y 4 ' _.6._ f f f g f z.,.,.d f d.{.>X>Xs s f f <.<.[.z.f p.z.x.f f ,.j.|.).;.K k k O.c l l 0 = # q 9 :.",
"a 4 @ 6 6 & 7 & 7 P / W 2 2 2 E ~ ( W _ s _ W g.j.s _ _ ..(.-X).a g ,.z.g p ` :Xl.s.t.t.` f d <.0.0.>.8 o.C c k l M * O r = :.JX",
"& @ 3 Q @ 3 P 1 Y 5.E W 2 e E 5 } | R 5.! ] E.9.6.a.[ ] 9..X&X).6.<.a.OX) _ ` p.s.z.` ` <.y S 6 w U r $ 9 z l k M 0 ; % = = eXFX",
". @ @ @ @ 5 T.L ~.e @ 6 6 5 P 3.T.T.J 5./ ( %XXX! _ 5._.;X*X-X_.<.g...h.W g._ s r.OXj.a.0.4 P w I +.8 # 0 l B n b ; r :   @.DXGX",
"@ . . & > | MX%X%XT 5 6 3 @ 3.T.;.T.5 5./ ~ W..X5.! 6..X-X-X|.*XoX).g..X9.9.6.] 6 5.g.! E 1 w +.I 8 0 ; b ; b t j b : * O w.JXUX",
"P + @ > 5 W.<X~.Y 7.Y + 1 ^ 4.4.T !.4./ R (.8.' ' a.g.|.OX:XfXSXSXsXsX*X%X!.<./ 5.7.4.P % > % + X 0 0 O 0 t B ; 0 t >.; o @.UXUX",
"~.W.1 1 <X<X<X^.| !.7.| J P ^ ^ J 7.9.( ~ *X'.h.[.{.y.j.j.x.fXfXSXSXsXdX%XT.3.P U Y L 5 w r q $ # m B : b b D : ; l t ; o O 3.lX",
"%XBX^.| 1XVX1X<X<X%XW.R.!.7.J ~ ).] ~ 7 7 8.'..X'.[.r.f.l.z.x.fXfXfXfXOX%X^ ^ w 1 , I , < r $ . = r : ; B l b * n M : = $ # $ 8 ",
" X| | J W.VX1X+X+X<X^.J W.^.7.E  . .2 ).(.X.X.'..X{.,Xr.z.z.x.,XfXfXOXsXXX9.^ > , $ I I , , I x l ; * ; b M b : l M = X = $ $ # ",
"7.^ dXXXP W.#X+X$X#XX.} | $X!.7.R 6 +XBX1X'.' d.).{.;X,Xx.x.x.fX,X,X:XOX|.0.I w + . $ w o.q $ 0 b : O : ; ; l l k l - = = o.o.q ",
"^ E.dXdX5.( E.`.@XX.8. . . X^.7.} R 1X1XAX;X8.' 8.{.f.k.x.x.x.fXfX:X,XfXsXh.Y I , X $ 8 q q x l M N j t l M 9 v -.= o 8 7XDXDXLX",
">.R.*XXXE } W.%X#X].' R R '.8.E.} R @X1X2X@X[ { [.h.r.t.t.z.l.x.x.,Xx.OXXX/ 3.4.w + % $ X * C C n n B n 0 k 9 :.@.= = = iXLXLXLX",
" X9.0.>./ 0.W.`.X.@X[.[ R oXW.8.X.~ `.1X;XoXr.r.f.s.r.f z.p.z.z.x.x.l.) y >.;.K , . $   = l V z n : - l - = v :.= x o.K eXLXLXpX"
};
