/* XPM */
static char *_86a164c705c4b4cfc82e0b5756d25fcdnXTbYzb5NzvSCnd[] = {
/* columns rows colors chars-per-pixel */
"64 64 256 2 ",
"   c #160C0E",
".  c #290206",
"X  c #370306",
"o  c #2A0415",
"O  c #370415",
"+  c #2F1509",
"@  c #372811",
"#  c #121135",
"$  c #2E0D2F",
"%  c #082D39",
"&  c #303034",
"*  c #470305",
"=  c #570505",
"-  c #4E0F10",
";  c #660606",
":  c #71120D",
">  c #51290D",
",  c #702909",
"<  c #4F0D2C",
"1  c #6D1130",
"2  c #4B2F31",
"3  c #682F31",
"4  c #705031",
"5  c #716B35",
"6  c #62541B",
"7  c #021957",
"8  c #0C114D",
"9  c #2C0B4F",
"0  c #042758",
"q  c #0B2C4E",
"w  c #2D2F53",
"e  c #0E0F70",
"r  c #2E1071",
"t  c #072667",
"y  c #0F3571",
"u  c #322F71",
"i  c #520A4C",
"p  c #70104D",
"a  c #4D2D51",
"s  c #6B3349",
"d  c #4A156D",
"f  c #740869",
"g  c #4D2C6F",
"h  c #73327A",
"j  c #124A72",
"k  c #2F4C74",
"l  c #225765",
"z  c #4D4E54",
"x  c #695153",
"c  c #6E6753",
"v  c #4E4F70",
"b  c #6C4F6E",
"n  c #6F6F73",
"m  c #536973",
"M  c #8A1512",
"N  c #903208",
"B  c #B13305",
"V  c #8C162C",
"C  c #902E2D",
"Z  c #AC2F36",
"A  c #A91A09",
"S  c #C43804",
"D  c #954C03",
"F  c #B64A00",
"G  c #B85601",
"H  c #AA5306",
"J  c #B96701",
"K  c #B37309",
"L  c #944B2A",
"P  c #B14C2D",
"I  c #9E6D2D",
"U  c #C74702",
"Y  c #C75602",
"T  c #D55804",
"R  c #D15312",
"E  c #CA6602",
"W  c #D76905",
"Q  c #C97601",
"!  c #D77706",
"~  c #D17316",
"^  c #E87C16",
"/  c #E87409",
"(  c #D26F2B",
")  c #ED7626",
"_  c #D25526",
"`  c #902F54",
"'  c #8E0F77",
"]  c #913073",
"[  c #A42957",
"{  c #8C5254",
"}  c #AD4B4B",
"|  c #946E4E",
" . c #905071",
".. c #B04B73",
"X. c #8B6E72",
"o. c #A57271",
"O. c #AF7A54",
"+. c #C55450",
"@. c #D0704C",
"#. c #D86A66",
"$. c #C23E64",
"%. c #768774",
"&. c #72845C",
"*. c #1E8071",
"=. c #B48D32",
"-. c #AD8C1D",
";. c #D88608",
":. c #DB8918",
">. c #D2930E",
",. c #E78709",
"<. c #E68918",
"1. c #FA9719",
"2. c #EC8F11",
"3. c #D6AB18",
"4. c #F1AE17",
"5. c #D48E2D",
"6. c #F99926",
"7. c #EF8E2D",
"8. c #D2AB31",
"9. c #FAA727",
"0. c #FBB827",
"q. c #FEA835",
"w. c #FDB937",
"e. c #E8AF2E",
"r. c #FCC637",
"t. c #FDD739",
"y. c #F6CA29",
"u. c #FFE236",
"i. c #EBCA26",
"p. c #898E4E",
"a. c #B58C54",
"s. c #909073",
"d. c #AD896F",
"f. c #99AA72",
"g. c #ABB374",
"h. c #99A35C",
"j. c #CE914A",
"k. c #EC914E",
"l. c #D7AC50",
"z. c #FDB748",
"x. c #F5B14F",
"c. c #F48E70",
"v. c #D1AB6D",
"b. c #F1B66B",
"n. c #D2926C",
"m. c #FEC847",
"M. c #FED748",
"N. c #FED759",
"B. c #F5C852",
"V. c #FDE953",
"C. c #FBC767",
"Z. c #FDD769",
"A. c #F4CE71",
"S. c #FFE96F",
"D. c #DAC051",
"F. c #B3C87B",
"G. c #0E0B91",
"H. c #30148C",
"J. c #123390",
"K. c #333289",
"L. c #2414A6",
"P. c #1231AC",
"I. c #1C1FA7",
"U. c #4B308E",
"Y. c #6F338C",
"T. c #4A34AE",
"R. c #571A8D",
"E. c #1A4D88",
"W. c #32528E",
"Q. c #306B8C",
"!. c #3253AE",
"~. c #3B68B3",
"^. c #1945B4",
"/. c #4D508E",
"(. c #6E548E",
"). c #566E91",
"_. c #6E708E",
"`. c #5350A8",
"'. c #6C52AC",
"]. c #516FAE",
"[. c #716FAE",
"{. c #2237C2",
"}. c #3967CC",
"|. c #3155C9",
" X c #4A71CA",
".X c #7773C4",
"XX c #6155D2",
"oX c #503FCC",
"OX c #930B8D",
"+X c #933187",
"@X c #AC3294",
"#X c #B42BB1",
"$X c #A820A9",
"%X c #CD31B6",
"&X c #E438BE",
"*X c #8D568D",
"=X c #AF5292",
"-X c #90738D",
";X c #AE6E94",
":X c #8C74B0",
">X c #AD73AF",
",X c #9E55AC",
"<X c #CD568B",
"1X c #D26F90",
"2X c #D355B6",
"3X c #D26FB5",
"4X c #E56C9E",
"5X c #B235C4",
"6X c #9770CA",
"7X c #CF6EC8",
"8X c #E668D8",
"9X c #C73AC5",
"0X c #3A9894",
"qX c #528B92",
"wX c #768A90",
"eX c #49AC94",
"rX c #5292AB",
"tX c #738EAF",
"yX c #62B1B0",
"uX c #5CC9AD",
"iX c #76ACCD",
"pX c #6098D5",
"aX c #67C4CC",
"sX c #908E8E",
"dX c #AA9093",
"fX c #96AA8B",
"gX c #ABB490",
"hX c #908FB0",
"jX c #AB92AE",
"kX c #8FADB5",
"lX c #ADA9AE",
"zX c #EF8B8B",
"xX c #CBAB91",
"cX c #F9B68E",
"vX c #CD8CB3",
"bX c #EF8BAF",
"nX c #CDAFB1",
"mX c #E49BA4",
"MX c #B6C88F",
"NX c #B0C5AE",
"BX c #F3CF92",
"VX c #FFEA8D",
"CX c #DACCA3",
"ZX c #9190C8",
"AX c #AC92CD",
"SX c #AFABCF",
"DX c #A39CE8",
"FX c #D190CC",
"GX c #F093CE",
"HX c #D0B4D0",
"JX c #F4ABD6",
"KX c #FAAEEF",
"LX c #E1A4EC",
"PX c #A0CFE1",
"IX c #F2CCEC",
"UX c #E6D0DC",
/* pixels */
"{.|.}.}. X}. X}.}.!. X X~.~. X[.hXAXAX[.hX[./.`.:XtX).[.].u ].U.[.[.u [.PX(.tX/.tXZX].e e /.[.hXAXZXd g o.mXmX{ 3 L d.o.| o.4 4 ",
"P.^.}.}.}.^.!.~.~.Q.}. X X~.!.[.DXAXSX[.:X/.).'.tX(.)._.(._././.[.v y UXAXhXhXhXhXZXDXU.K.[.:X:X(.(.r g  .dX{ x ` o.| | o.3 | O.",
"{.{.|.}.~.!.!.~.].Q.Q.rX]. X)./.Y.:X_.[.:Xn v _.-Xa jXUXUXgXn lXHXsXjXUXSXUXHXkXZXZX6XK.`.'.U.U.r r r i i h ;Xo.o.{ o.o.{ | | a.",
"{.{.|.}.}. X~.].iXtXtX).~.].].).[.SX[.'.tX(.hXjX_.-XxXgXd.xXUXUXCXnXHXHXHXSXSXZXSXZX`.y DX[.U.H.r R.,X5XY.=Xp =X .2 o.a.v.xX=.A.",
"{.{.^.}.!.!.).kXNXfXwX%.k qXtX].hXSXhX_./._.jX-XdXgXd.d.x o.nXX.d.X.;XjX(.g '.[.ZXZX[.`..X`.H.H.OX5X9X9X#X$X@XFX,Xz d.cXd.I N.V.",
"P.P.|.}.~.E.tXPXMXMXfXfX%.m v _.kXhX(.[./.u _.sXnX-XdXlXo.dX{ X.dXjXsXa g U.g `.[.'.pX6XK.T.,X5X$X5X#X#X#X#X@X2X>X*Xo.CX5 I V.i.",
"P.{.|.!.}.W.wXNXgXMXMXf.%.NXwXwXwXhXtX)./.9 9 :XUXX.a X.lXX.x sXlXUXSX/.H.H.r R.K.U.DX`.(.6X8X5X$X$XOXOXOX@X8X2X7X1Xg.l.D.D.8.V.",
"P.{.^.P.].].tXgXMXf.f.F.F.MXMXwXwXhX[.tX/.K.u b jXX.X.dXjXdXSXdXlXSX'.g H.r H.H.r '..Xg LX5XOX&X$XOX#X&X' $X8X&X2X1Xv.S.V.u.D.-.",
"J.P.J.y E.k wX%.fXp.6 %.F.fX%.eXwXwXlXsXW.w (.:Xb b nXnXnXnX(.b hX:Xu r H.G.H.r r r r Y.8X$XR.%XOXOX$X@X#X@X8XOX1XzXA.V.V.V.=.@ ",
"P.P.W.tXW.m wXs.f.f.6 6 f.F.%.&.%.sXnXHX-Xw _.:Xb a -XnX-Xn a -XUXSX:XH.r H.r r r H.d R.7X%X#X$X%X' ' $X] 2X@Xp =XcXZ.V.V.V.-.@ ",
"!.K.qXtXwXfXfXlXg.p.&.5 h.MXF.%.fXnXdXxXX.nXdXdXlXb b s & a & jXHXZX:Xd r r r K.9 r R.$X$X#X%X%XOXOXf f f 7Xi i ;XBXVXD.=.-.+   ",
"K.W.qXwXkXNXMXMXg.| 5 h.h.f.f.F.gX%.X.xXb dXnX-XHXUXjXx dXHXHX;Xb b jX'.:X(.AXKX6Xd r ,X8X&X&X&X' ' f +X7XY.9 h -Xo.cX=.@ +   . ",
"y ).%.fXwXf.gXCXF.CXp.p.F.f.F.&.n v b X.lX;X .b { nXHXUXxXo.nXnXHXb *XLXFXHXHX-XvXUX-X+X2X2X&X&X@X@X8X8XY.9 f >Xg $ @ 2 2 2 o o ",
"rXk m wXfX&.f.MXMXF.g.h.f.F.NXqX-X/.w g dXX.z -Xb x x | x -X .dXvXb a *X .b a i b FX>X>XJX8X2X2X8X4X@Xf i d R.r 9 9 $ o s.jXi $ ",
"qXm m %.%.%.&.n g.gXMXs.%.%.m k /.W.v U.r a b hXHXJXnXdXdX .x h d 9 d *X'.Y.R.d 9 9 g *X>XFXFXKXGX2X@X+Xd d 9 8 8 9 $ $ _.-X(.9 ",
"qXtXyXqX%.c & z n c n z m _.u k /.e r `.U.u Y.w n dXX.b a i -X(.d d Y.'.'.R.H.G.G.r r '.HXHX7XY.+X,X*X+XR.9 9 9 9 9 # n jXdX:Xd ",
"qXZXpX_.m m z v v k v v /.).`.W.`.U.r e u u K./.:X9 9 w a jX:Xd Y.U.U.R.R.H.G.L.L.G.H..XDXHX(.9 AX,Xi KXFXY.d 9 8 9   jXIXIXSX*X",
"rXiXiXrX).m a u v /./.u u E. X!.XX]./.XXW./.K.ZXDXw 9 # jXHX:Xd H.T.R.R.T.L.L.L.G.L.L.K.[.SX(.>XIXFXKXFX7XKXAX,X9 9 o dXIXIXjX>X",
"].pX.XrX_.m w w u u u u e y `.!.!.W./.PXPXPXtXtX)./.(.g IXHX'.H.T.T.T.H.T.T.L.G.L.G.T.'.hXIXHXLXFX3XbX3XKX*X>X,Xi $ $ ;XHXJXJX*X",
"].].]./.m _.k w u y u u w 9 e W.`.E.W.tXPXZXyX].k ).jXhXjX(.u T.L.H.'.H.r G.oXoXXXXXDXg :X>XUXGX .7X] ;X3X>XIXJXh  .>XIXIXIXJXKX",
"].[.tX_.m _.v w g w 8 _.dXn w /.W.y ].E.J.0 0 j rXtXv -XSXv !.|.T.H.6XH.e G.6XoXT.6X.X:X;XLXGX;XbXJX=X3X] 3XFX3XJX;X} UXJX1XmXJX",
".X.X].k z (.v v u 8 8 -X-XdXv hX[.t Q.Q.E.~.E.j ~.j w m (.W.].|.T.T.'.U.e G.oXT.'.6X6XLXLXFX=XbXJX] ] GXKX3X3X] ` ] zXJXbX..4X<X",
".X].u u _.v w z w # 9 _.x x n tXtXy t E.E.!.!.E.j y j j l rXpXpXP.e I.K.e G.oXoX6XZXLXFXGX2XGXKX=X] ] i ] ] <X` ` <XbXbXJX<X<X<X",
".X`.r u v w v n v wXw ).lXsXlX)./.y E.E.7 t j E.y j Q.iXPXaXpXpXP.G.e G.e L.oXG.`.LXLXGX=X=X=X=XKX=Xi ] 3X@X+X] GX` V ..<X[ <X$.",
"H.e 8 u [.z c nXUXwXw hXhXfXwX).W.y E.W.7 t y ~.E.Q.aXaXyXE.}.^.G.e G.e G.G.L.oXT.LXLX3X+X3X3X+X=Xi 1 ....GXGX3X<XV bX$.1X@X$.[ ",
"e r K.u hXn fXs.&.%._.m wXkX_.k t t 7 7 0 0 j rXE.j 0XuXj t P.^.}. X!.P.G.G.L.L.XXIXKX8X] @X' 3X=X1 bX1XV V ' p 1 <X4X4X$.V V 4X",
"e K.K.u m sXsXc c _.).v wXtXyX/.E.W.y 7 j j pX0XQ.j q 8 j J.J.P.}.pXP.G.I.L.L.G.,X7X3X] ' +Xf 1 bXzXc.+.#.bX] < ` 4X1 1 V 1 1 [ ",
"U.u r r v _.n x z m l )./.tXk W.j y iXiXrXrXyXQ.0X0Xl ).W.E.P.^.pX^.G.G.G.G.L.G.DXLX' ' OX] ] ..#.c.+.#.+.} - < 1 ;X] p 1X3X` < ",
"`.r r 8 9 m v z q w k E.u W.y t y 0 t W.iXrX0X0Xj j k j t `.J.P.!.P.e e G.I.P.I.6X>X+X' f ] 4XzXcXzX#.c.C ; O O o ;X` < < < s o ",
"/.r r u r v z l qX0X0XE.y K.K.y u t 7 7 q 0 l l rX0 0 7 8 7 G.e e e 9 [.G.P.P.K.ZX;X@X' f h bX+.@.@.@.P : = O o . O O s a X o O ",
"8 u '.U./.v m kXaXaX0XQ.y t E.y t t t 7 0 q 0XrX0 7 0 8 7 8 e e e 8 a SXk u ]./.*XGX@X<Xf ] zX+.c.#.M A : = O X X O i < O X o . ",
"v (.'.U.9 _.SXkXeXuXaX0Xt t K.y t e t t 7 y yXqX% # 8 8 u u 8 8 8 9 { o._.wXSX_.vXbX$.<Xf < $.+._ @.M Z M 1 * X O < bX3 o $ o o ",
"gXn -Xh a UXhXw q 0X0X0X0 0 t y y y 7 0 E.qXeX%   z & w & w w q k x O.O.a # b vX#.4XbX4X` p ` V +.Z Z M ; = - * * - 1X .- .     ",
"p.s.z w FX;Xn # q q j l Q.y E.y t ].tX0 j Q.qXm wXdXz   & lXw % # 2 n.( 3 @ s dX1XzX} Z 1X} p 1 1 M ; : = * * 1 ` C V = O 3 . o ",
"5 F.f.xXx  .>X_.q % % *.uXyXeXj 7 8 k W.q 8 l z c h.5 + 4 d.n & @ 5 @.I , > xXmXzX4XC c.cX} p < = C #.: = = X C zX#.$.} p s O < ",
"6 p.CX| 3  .;X(.# q eXuXeXeXl q % 8 q q 8 q w & > a.v.L 6 a.5 z 5 d.5.( D v.UX#.#.+._ cXn.= - * C cXP : = = * = } ; : 1X..* - x ",
"6 F.6 @ 4 ;X;Xa # qXuXuXeXeX*.*.Q.).qXw # % & 2 6 k.j.H , a.6 6 6 I 5.^ I A.cXzX} A @.b., * = ; zX_ Z Z Z V * ; M M C 1 * o . < ",
"F.5   @ ;XjX` < w wXwXeXeXeXeXeXuXyXm w w z c a.x.5.7.G H ( > | A.I ^ ! e.Z.j.k.c.( ( H : = = L @.B A Z Z M = * : C ; = * - X . ",
"5   6 %.X.p ] ` s 9 & q q % % l PXqXq v & o.CXj.B.:.7.G 7.( > I S.w.Q ,.N.B.5.x.H b.( N : ; = @._ P A Z Z : ; = C C ; ; 1 { * X ",
"+ c fX%.a < ] =X=Xi $ w 0 q m ).eXl w m 2 xXBXK m.e.6.Y W ~ > l.N.8.Q <.N.x.K k.~ A.) D , = N k.G B Z #.Z V M ; ; V = ; ; : : { ",
"g.c & n z $ i =X=Xi 9 9 9 9 % w % & w x 2 v.a.5.Z.>.9.<.W ! D Z.M.r.2.>.Z.8.7.k.>.x.7.P L = H k._ ) Z #.Z A V M ; M * = : = : V ",
"s.c n z $ w i < ] < < 9 # 9 9 jXc @ a & > CXb.D.S.3.m.6.W W e.m.w.K >.5.S.5.H 7.E ~ J ( , ; k.~ _ S #.$.[ V M Z C ; * X * 1 ; 1 ",
"c sXs.c   o x x 1 < $ $ $ $ $ X.CXa.2 - > MXVXS.N.r.1.W / T w.r.r.;.H 5.A.l.5.x.Y Y ( ( = N b.G R B zX#.$.$.V : : * X . X * = = ",
"| h.g.a.| I 4 | O.I { 4 x 2 . > a.b.O.> > v.VXS.V.0.! / / / 1.w.e.K H x.S.K K z.Y Y ) B ; k.<.~ 7.P zX+.$.Z V : = * - - X X X O ",
"h.8.D.8.l.l.D.D.8.l.D.v.BXBX> L b.-.C.j.=.A.S.S.M.>.,.2./ / / 1.r.;.H 7.N.-.8.m.E T ~ : ~ C.J z.6.R n.: ` M V : ; X - X - X O + ",
"3.3.3.3.3.3.-.>.>.>.8.8.D h.D.a.5.z.>.z.N.Z.S.V.t.>.,.W T ^ / 1.q.Q G ~ M.-.t.w.W W ( N z.:.! B.W R ( = M P } C - X . X . O o . ",
"i.i.i.4.3.i.3.>.>.-.e.8.D.S.Z.N.r.3.e.Q 8.V.S.u.t.>.,.E B ) / ,.6.W E <.r.3.V.4.! E 7.C.q.! q.q.B 7., : L L } L > X X . X + O . ",
"u.3.i.3.i.i.u.i.e.3.e.5.N.Z.M.e.M.r.>.;.i.V.u.i.t.4.;.W B ) / 1.1.^ Y E 0.t.t.4.<.Y <.m.W Y q.G 7.~ D C.k.= > P j.> X + X - X . ",
"3.i.8.K 3.e.e.i.e.t.z.G ~ :.:.M.S.S.e.;.3.M.y.u.u.4.;.! G ^ <.2./ 1.T Y e.M.r.4.<.G ! 7.W G G q.z.J x.x.H K -.x.x.x.A.v.* X - I ",
"=.=.8.l.l.8.8.B.N.B.e.Q E E Q 6.N.S.M.>.>.t.3.t.u.4.>.2.G <./ / T ^ <.G Q M.r.3.! H E 6.W W 6.9.;.w.9.H :.m.N.e.J q.m.Z., , @.x.",
"p.l.l.D.l.8.=.b.B.C.z.:.Q 9.! ;.>.w.m.4.>.y.D 0.u.4.,.0.H J 9.2.W 1.q.Q J r.M.6.( G Q :.Q m.m.Q 6.9.K >.r.0.r.2.! ! H K e.Z.x.D ",
"5 | a.p.v.| 5 4 6 j.l.~ ! q.9.,.:.Q Q w.2.4.K 3.y.y.;.9.5.5.z.q./ 1.w.;.Q w.w.! 7.N G 6.m.w.2.;.>.Q t.r.4.2.;.! E W 6.z.N.M.C.D ",
"s.s.n s.c x z 2 X I BX, ~ 6.m.9.! G H ;.r.>.y.3.y.4.>.0.m.x.! ^ 1.,.0.,.;.0.q.Q 5.D 7.0.q.;.E 1.;.4.V.M.0.;.E ^ 6.q.6.6.z.5.~ D ",
"_._.n wXn n & o O 3 b.I D 6.9.9.^ F Y E 1.4.4.4.4.4.,.4.q.:.T T 1.2.4.4.2.9.1.Q 5.D m.;.Y W E 1.0.t.r.4.;.W Y ) 6.E W 7.7.H M : ",
"_.).wXhX_._.&   X > @.5.G 5.>.2.^ ^ Y G ;.y.4.4.4.4.y.r.z.<.U U 1.4.4.4.;.1.,.:.l.K B.! E <.1.1.w.r.9.! Y W / / W T Y Y N M M : ",
"8 g v hXkXlXgXd.X * P ( D 7.6.w.6.,.<.W 0.r.y.y.y.y.4.;.~ ) B U 1.4.4.1.,.6.2.9.k.( B.<.^ ^ 2.6.! ! W Y T ^ 6.) ) ) R A N : : , ",
"# # 9 # w z CXBXa.* , ( N G <.z.w.:.<.z.Q w.u.u.u.y.2.Y T ) S T 4.4.4.,.,.,./ <.-.k.q.~ W / T T / T B S T ) 7.~ B B N N C , 1 * ",
"$ # $ # o   A.C.l., * j.( F W <.w.G H q.! Q t.u.u.y.;.Y S T T T 1.4.4./ / 1./ <.D x.~ Y T U S S S S U ) R R F B N L C : > X X X ",
"2 dX2 o . . 6 b.x.5.= L k.Y W ^ w.:.D <.7.G 2.r.t.y.q.E U q./ W 4.r.0./ W ^ <.:.K m.5.Q U B A A S R R R R B L L , * * X . + X . ",
"JXBX| v.d.v.l.J z.e.N N ) F U ~ 6.6.q.<.W F Q >.y.t.w.<.Y x.z.W 6.w.6.2.T W <.e.r.M.N.q.) A U S S T R U G P N - O . $ $ . . * | ",
"VXVXA.A.VXVXA.6 5.z.:.~ E W N T 6.! ! 7./ F W E ,.0.2.1./ ) z./ W ) W T U Y :.B.Z.w.:.6.~ T 7.x.z.q.B.5.D , 3 < O 3 < . . > BXA.",
"5.b.l.D.B.A.VXI K e.6.;.Q q.E E q.! ! ^ q.W W 1.;.1.2./ T S T T S B S T W H e.V.3.D ! :.^ R F <.q.Q 9.5.- * - - - 3 . . * l.7.~ ",
"x.l.A.Z.A.S.A.C.K :.2.2.1.9.z.<.:.W W Y 6.6.G z.1.2.6.T S A U k.S A B ) D J r.M.K ;.z.G 7.U N U 7.Q >.:.K 5.> ; - - * X 5.x.E Q ",
"A.j.VX=.x.l.5.x.B.:.2.9.4.9.9.E / W G W ^ 6.W <.6.6.6.U S A S k.S M B ) x.m.0.i.<.z.J N G R N 7.6.;.K >.N.Z.l.BXcXn.o.j.x.<.6.6."
};
