/* XPM */
static char *_1d4c65e77e040e08d9c6c4a5b96d49cds9QTBOLWYvUbU6A[] = {
/* columns rows colors chars-per-pixel */
"64 64 256 2 ",
"   c #18070C",
".  c #280005",
"X  c #360406",
"o  c #280216",
"O  c #360416",
"+  c #311510",
"@  c #111331",
"#  c #2E0B2F",
"$  c #312F33",
"%  c #232A1E",
"&  c #470203",
"*  c #580604",
"=  c #500E11",
"-  c #700D0B",
";  c #532709",
":  c #6D2C0C",
">  c #4D0D2E",
",  c #6E0F30",
"<  c #4D2E2F",
"1  c #6A2C36",
"2  c #6D5036",
"3  c #625C24",
"4  c #021557",
"5  c #0F0D4D",
"6  c #2D0B51",
"7  c #092952",
"8  c #2C3154",
"9  c #0D0F71",
"0  c #2B1071",
"q  c #052767",
"w  c #0E3272",
"e  c #312D72",
"r  c #510B4D",
"t  c #6D0E4F",
"y  c #4D2D50",
"u  c #692D4D",
"i  c #4B1171",
"p  c #6F086D",
"a  c #4D2D6F",
"s  c #6C2E7B",
"d  c #114971",
"f  c #2F4D74",
"g  c #316C77",
"h  c #145764",
"j  c #505054",
"k  c #6D524D",
"l  c #6D664F",
"z  c #4E4F6D",
"x  c #6E4F6C",
"c  c #536C76",
"v  c #6F6E72",
"b  c #23403E",
"n  c #8D140D",
"m  c #913206",
"M  c #B23005",
"N  c #8D152D",
"B  c #92302B",
"V  c #AE2B34",
"C  c #B01413",
"Z  c #C93B01",
"A  c #C93003",
"S  c #914B06",
"D  c #B84800",
"F  c #B85500",
"G  c #AB5108",
"H  c #B46F03",
"J  c #8F4933",
"K  c #AD7531",
"L  c #97602B",
"P  c #C84B01",
"I  c #C85502",
"U  c #D65703",
"Y  c #D44C0A",
"T  c #E4560C",
"R  c #CA6602",
"E  c #D76803",
"W  c #C87701",
"Q  c #D87704",
"!  c #D36D17",
"~  c #E46704",
"^  c #E67705",
"/  c #E77C16",
"(  c #F57512",
")  c #CF6E30",
"_  c #EE7529",
"`  c #CB502B",
"'  c #932F54",
"]  c #B13047",
"[  c #8B0E70",
"{  c #903070",
"}  c #AF3473",
"|  c #981756",
" . c #C53A64",
".. c #8F5453",
"X. c #926C4F",
"o. c #925272",
"O. c #AF4E6F",
"+. c #8E6F71",
"@. c #A87570",
"#. c #AB5F4D",
"$. c #CD5071",
"%. c #D4675A",
"&. c #2B8E7B",
"*. c #728573",
"=. c #778458",
"-. c #49A644",
";. c #B58D33",
":. c #A18E22",
">. c #D78704",
",. c #D58F0F",
"<. c #E78906",
"1. c #E89507",
"2. c #E78816",
"3. c #FB9818",
"4. c #F28D13",
"5. c #D6AB11",
"6. c #F9A819",
"7. c #F0B112",
"8. c #D1902F",
"9. c #FB9726",
"0. c #EF8E2E",
"q. c #D4AC33",
"w. c #FBA827",
"e. c #FDBB29",
"r. c #FEB836",
"t. c #EFAF30",
"y. c #F1C718",
"u. c #FCC929",
"i. c #FEC737",
"p. c #FDD936",
"a. c #F2CF2B",
"s. c #FDE738",
"d. c #FDEB2C",
"f. c #DBCA22",
"g. c #8E9071",
"h. c #AE8D6E",
"j. c #97AA70",
"k. c #ADB16F",
"l. c #A09352",
"z. c #CF914D",
"x. c #F08E4F",
"c. c #D4AA4F",
"v. c #F2B44E",
"b. c #F18C6D",
"n. c #CFAA6E",
"m. c #F5B66C",
"M. c #C69879",
"N. c #B0C572",
"B. c #FDCA48",
"V. c #FDD647",
"C. c #F8CE57",
"Z. c #FEE94F",
"A. c #F8CD6C",
"S. c #FFEC6D",
"D. c #D8C24B",
"F. c #0D0B8F",
"G. c #30108B",
"H. c #11348D",
"J. c #32328B",
"K. c #100CAA",
"L. c #2A15A9",
"P. c #1231AF",
"I. c #2C30B1",
"U. c #4C3090",
"Y. c #70338C",
"T. c #4C31AF",
"R. c #591A8E",
"E. c #174D8A",
"W. c #315393",
"Q. c #2D6D8F",
"!. c #3153B1",
"~. c #3A6AAD",
"^. c #1A55A7",
"/. c #4E508E",
"(. c #6E5490",
"). c #576E91",
"_. c #6D718F",
"`. c #4F4EA8",
"'. c #6E52AF",
"]. c #4F6EB0",
"[. c #6F6EAE",
"{. c #1A32C5",
"}. c #493BD1",
"|. c #3053C6",
" X c #3968CA",
".X c #2854D3",
"XX c #4A74C9",
"oX c #7070C7",
"OX c #5C55D6",
"+X c #940D8C",
"@X c #943189",
"#X c #AF3091",
"$X c #B52BB1",
"%X c #A91BA5",
"&X c #CC28B1",
"*X c #8F518C",
"=X c #B45292",
"-X c #8E718E",
";X c #B07396",
":X c #8B74B2",
">X c #A25EAD",
",X c #D16D91",
"<X c #E6728D",
"1X c #CD53B2",
"2X c #CD6FAF",
"3X c #DC5AA2",
"4X c #A339C1",
"5X c #D631C7",
"6X c #9A68C8",
"7X c #CE6EC6",
"8X c #EA67D7",
"9X c #388E94",
"0X c #37B28C",
"qX c #35B4A1",
"wX c #468F93",
"eX c #728A92",
"rX c #4F91AE",
"tX c #728EAE",
"yX c #5FACA4",
"uX c #36CE98",
"iX c #54CDAF",
"pX c #669FD1",
"aX c #68CECD",
"sX c #3B9FE2",
"dX c #908E91",
"fX c #AE9192",
"gX c #AAB18D",
"hX c #9290AF",
"jX c #AA8FAF",
"kX c #B0A8AD",
"lX c #92ADA4",
"zX c #EF8C93",
"xX c #CDAB92",
"cX c #CD90B1",
"vX c #F28DB0",
"bX c #CFB3B1",
"nX c #E7A399",
"mX c #B0C89A",
"MX c #CDCD8A",
"NX c #F7CD90",
"BX c #FFF290",
"VX c #DAC9B4",
"CX c #F4CFAC",
"ZX c #9190CA",
"AX c #AF92CC",
"SX c #A4A8D6",
"DX c #D290CC",
"FX c #EF93D1",
"GX c #D2B3CF",
"HX c #F3B0D6",
"JX c #FEAEF3",
"KX c #DE9DEA",
"LX c #ADCFDE",
"PX c #F1CED0",
"IX c #F6C9F4",
"UX c #E7D7E3",
/* pixels */
"2 X.M.D.s.f.d.:.+     . o # 6 i *X6X>XHXHX$.3X .| 3X} > o o .     . > ' >   X B N N * & o o o . L v.m G S - n n X + . L S.W E 3.",
"k X.X.;.C.Z.f.s.:.:.;   o y (.:XjXGXFXHXvX<X$.=X] N , ' u . O #     O & . + & 1 - - & X o . + X * 8.v.C.H n n - = O . = NX8.U 3.",
"@.2 X.nXX.L f.s.Z.Z.:.+ < fX-XhXUXUXPXIX=X$.3X}  .N N ,X> o O #   1 u o o = ..- * , & . X O X + & ; Z.p.2.F n n 1 & O   ; v.w.1.",
"..X...xXh.X.D.Z.d.d.q.% < -X_.hXUXPXGXJXHXFXHX,X3XO.N ,X> , O X > X ' O.O X , - - & . X = O X X X : t.p.e.2.m n B ; o o   X 8.r.",
"@.X.h.@.nXMXv.S.d.d.d.:.< # # v jXdX;XPXHXCXzX}  .3X, t r u > 1 O.- V <X- * * * = . . = O X . X c.S.H i.3.4.Y m m - o #     . 8.",
"h.X.@.@.h.h.M.n.C.V.Z.A.+ 6 # @   o O fX..zXvXN vX3X, o.{ O 1 cX$.N #.N B - - * & X X = = X . X C.i.D 9.9.E I T m J O # > . . z.",
"J #...< a *X2X2XzXCXCX#.# 0 0 6 6 6 6 *X,X' ,X| | $.3X,Xo.O O > = N %.- n C V N - - = & X . X ; t.r.^ E w.R U _ M B = o u 1 * n.",
"B u @.o.:X:X8X1X3X=X=X;Xi 5 6 5 6 6 6 s JX' ' vX,X, N u O . o X X ..zX] - - B - - N - * = = ; M.t.R ^ U 9.9.~ / D M = O > = * m.",
"....@.*XDX7X3X5X+Xt r s >X6 6 6 6 '.>XHXDX{ | { 7Xt > # o o o O & , B & - X & - n N n - - B B L t.6.1.^ ( 4.~ 2.! m B = r > ; m.",
"nX..o.u #X&X8X8X8X$Xi 6 i Y.6 9 i AX;XIXcX8X=X@XFX[ o.> O o . X = * X & & & * - C n N N n #.#.; ,.Z.i.<.R D ( 9.9.D G : 1 < ; c.",
"nXfX{ =X%X&X%X%X#X1X7XY.6 i 0 6 Y.JX*X1X2X=X@X=XFXN vX] = * * , * & = * N , - C C C  .V N ] J * G V.e.1.^ E ~ ( _ Y M ` : X 8.V.",
"+.o.6 @X$X&XR.+X#X{ p 7XY.r i R.7XcXJX2X=XJX#X3X} N %.` B - n n * = & * ] ] ] ] ] ]  .$.V B m x.G ,.i.7.e.>.I U U T U P m X ,.V.",
"a a i 4X5X$X+X5X&X#Xp @X8Xp @X@XJXDX2X=X2XFXr { =X<X` b.zX` N V N n - : M ] ] $.3X .@...- & - A.t.G ,.p.p.7.Q P A _ T D 8.,.,.,.",
"e 0 0 4X5X%X+X$X%X[ p p 8X#X#X@Xr HXDX{ =Xs @Xr , 2Xb.` _ ` n C V - %.J M C C V ` $.zXnXz.K m S r.w.H p.Z.p.6.~ C Y T U V.7.,.H ",
":X(.0 R.4X5X%X%X[ [ +X| #X3X7X>X-XcX2XFXHX{ @X#X> t zX%.b.%.%.) V N B nX` M A M %.A M Y ` U _ E H r.w.W 7.s.u.^ U Z T P w.W >.>.",
"AX(.0 0 %X%X&X%X+X5X%X| &X8XKX@XjXIXFXO.2XHX=XJX=X2XnX%.CX_ x.`  .- = J m._ ` P T T U _ 9.~ D 0.B.<.3.<.>.6.u.Q T Y A P v.e.,.9.",
"hX:XU.R.R.4X4X8X5X%X&X5X&X5XJXY.6 6XHXDX,XvXJX=X@X7Xt O.b.) ` ` N t > O * J 0.x.0.W P Q i.V.w.F w.9.Q <.3.3.6.3.U A C A r.2.F _ ",
"_.:XJ.U.G.4X7XR.+X%X5X5X5X8XFXjX[.(.GXHXHX=XDX=X2X[ [ { vXvXzX} { p , = * & * : G 0.m.,.H Q w.w.F 3.B.1.R I 3.<.Y Z C Z 9.D n M ",
"U.'.[.[.`.`.7X4X%X5X&X5X3X8XcXGXLXSXIX;XHXFX=X1X2X#X@X{ @Xp R.p t } #.* & * * * & * m x.C.2.^ U P E B.e.>.U 4.^ ~ Y A C R U F ! ",
"9 J.`.SX[.J./.KX7X8X&X8X3XFX;XGXSX_.:X:X-XKXFX=X#X+X[ +Xp i Y.p t <XNXz.: - : - J : * * ! v.9.^ U E Q p.r.I R / ~ Y P _ E / 0.D ",
"F.!.J.0 ].tX/.e Y.R.4X4X*X2X(.*XoX`.'.U.:XGXFXFX7XDX+X%X[ [ 3X$.zXV x.NXm.M m m I ! ! G - m C.v.3.0.2.w.e.>.>.<.^ I E r.9.Q R - ",
"`.SXoX].].ZXSXoX0 i R.6 -X;Xa 9 F.L.}.6X:X6XGXDXDXJX7X[ #X}  .$.vX] V Y _ ! ! 0.0.R T _ ! ! t.,.Q R W F 2.B.B.B.t.! 1.Z.<.Q v.R ",
"SXhXZXZXZX'.U.'.0 G.0 0 HXbX5 G.K.L.K.OX6XoXjXKXKXIX7XKX2X=XvXvX<X<X%.%.M ) m.A.C.E P Y T T E U D D F : S G K K n.m.i.V.r.G >.r.",
"_.hXhXSXhXoXU.0 G.0 0 jXfXx 0 G.K.K.L.OX}.`.ZX`.R.oX:XSX6X:X_.fX,X<XzX<X .b.G ! Q E P U U E ^ <.2.^ / 0.8.) c.c.K S H i.Z.5.H 1.",
"(.hXhXhX[.'.R.0 G.0 i KX;X< 0 G.L.K.K.}.}.T.OXK.}.L.K.K.P.P.).eXcX2XvXM.b.b.x.0.0.x.m.m.i.e.7.5.7.6.6.>.E E ^ 9.2.2.,.t.B.S.s.y.",
"tXZXLXSX'.U.G.G.F.G.0 SXGXr i L.G.L.L.}.oX}.}.}.K.L.K.K.{.P.~.SXz u xXPXNXz.8.! 8.G 8.H 5.p.Z.Z.u.u.p.r.e.3.4.4.^ ^ 2.2.,.t.e.y.",
").eXUXkXa U.R.G.F.G.0 (.GXx Y.T.G.L.L.G.F.G.F.L.K.K.K.K.K.H.d tX@ $ $ M.A.Z.C.t.v.8.q.H :.,.5.a.V.V.i.r.r.6.6.6.4.4.( ~ I G H i.",
"LXSXbXbX(.R.G.G.G.G.0 :XcXo.*X'.U.T.T.9 9 9 9 9 F.K.K.K.F.F.z v < 2 < S H t.V.Z.A.S.S.S.V.V.V.e.t.>.H R Q <.<.<.<.~ ~ U P E M v.",
"6XKXPXbXjXa /.e G.G.U.(.KXo.*X'.R.U.G.0 a U.J.9 9 K.K.F.9 [.kX#.) ) ! T / ^ ^ 4.2.8.t.c.0.! 2.R F I Q <.1.1.7.1.<.<.^ 4.U Y _ / ",
"H.e kXVX-XdXSX).e :X:X6X*Xy i R.R.L.T.'.:X'.G.9 9 |.P.9 9 9 u #.%.z._ 0./ / Q E 2.>.G G G F U U U ( w.e.e.e.7.7.6.6.e.3.T Z D M ",
"oX/.fXxX+.fXUXSX-XGXhXx x x 6 R.U.R.T.R.G.T.F.F.F.sXpXH.I.9 5 @ j < 3 l.K :.e.7.i.H H W >.W E ( 9.( 4.3.1.1.7.7.7.7.p.e.( A n C ",
"].[.kXVXh.fXkXkXhXUXGXz bXcXa i '.G.T.L.}.I.P.P.F..X|.pX!.9 F.9 f @ b j 3 n.S.V.p.a.i.e.i.e.3.3.~ ~ ~ ^ 4.3.1.3.6.3.6.6.T A M Z ",
"T./.kXVXX.+.dXjXx _.AXfXbXh.u (.a i L.T.}. XsXsX^.{.P..XP.F.9 9 q 7 b j 3 =.l c.A.f.i.u.3.3.4.4.( ^ 1.e.( ~ Z Z T ~ ~ E ~ ~ 0.x.",
"oX).v CXbXX.x AX(.y 8 GXnX..x :X:X:X[.G.`.XXsXsX.XF.P.P.P.9 9 4 7 j v l < ; ; ; S t.r.w.^ ^ ^ <.( ^ 6.v.! Y Z A A T ( v.v.~ P Z ",
"H.(.fXxXX.fX-XdXbX+.y HX@.@.x y jXbXGXx x z ).aX^.d w E.].4 4 8 8 lXh.l.) K ! 2.( ~ ~ ~ ~ ( ( _ / ,.H 8.v.8.0.( ( T 9.v.( Z A C ",
"].).CXh.2 ;XkXjXbX+.$ -XcXk ;Xu a ;XPXkXGXx f aXrXh w W.4 5 4 e % < 3 S S P 0.~ ~ ~ ~ ( ~ T D m F F G 0.C.q.v.>.T A P P ~ Y A A ",
"].[.PXn.h.bX-XfXbXxXa x UXX.fXx 0 5 z fX-Xv f aXaXqX@ ].d 4 4 5 8   ; 3 G D P U <.6.U ( ( U I R Q 2.w.w.6.6.i.Q P Y R 4.3.~ U P ",
"]._.gXxXg.fX< _.bX+.x jXVX2 bX+.6 0 (.jXj 8 w Q.aXqX@ g Q.7 8 5 7 j 2 n.z.0.4.3.6.V.3.Q <.<.^ <.^ <.1.<.<.1.7.7.4.<.6.u.4.4.9.9.",
"hX).y -XfXh.+.+.(.y x PXcXk CXfX8 e /.).rXw d d h Q.h Q.7 q q @ j gXh.z.c.2.2.6.,.,.e.u.1.>.5.7.7.7.y.y.7.7.7.d.u.y.p.p.e.3.<.6.",
"[.[.-X_.fXbXGXjX/.x kXVXo.x bXv [.SX/.f pXQ.w E.^.d g 9XQ.~.w @   g.2 ; S v.B.B.S.S.Z.Z.Z.p.d.d.d.a.d.u.y.7.7.y.d.d.d.u.1.^ 3.6.",
"].[._.jX+.fX-X(.:XdXfX+.x -XjX6 /.ZXtX).E.d E.^.~.rX9XQ.qXQ.wXwX7 &.j $ < h.8.H 8.D.S.S.S.S.d.f.d.a.t.5.5.7.7.u.d.d.i.1.E 9.v./ ",
"/.`.z dXjX(.0 e /._.fXbX+.u /.U.U.J.pXtXq E.^.w w d iXyXh h 9XyX9X9Xd 8 8 l NXA.;.C.BXBXBXS.S.a.a.7.3 H u.7.7.u.p.p.1.E E E P E ",
"[./.(.v [.e q J.0 e bXh.fXx e J.J./.SXyXq ~.Q.q 9 4 d qXqXd q d wXQ.7 7 5 j +.xXM.VXxXn.A.A.V.Z.Z.p.e.6.1.7.e.i.e.W I D P E 3.3.",
"hXtX:X:X/./.`.W./.[.+...xX;Xy U.J.W.LXLXd E.E.4 4 4 d yXpX7 4 4 W.h 7 4 @ 8 8 < < < < ; ;.Z.q.e.5.1.>.1.e.6.>.r.Q Q 9.U ^ w.9.<.",
"_.:X[.[._.[.].tXdXbXxXgX+.a a `.0 ].LXtXE.Q.E.H.W.4 4 pXW.4 9 q 7 7 W.7 7 8 z v j y < = c.t.W >.>.1.7.r.2.R D Q r.9.<.0.0.<.I E ",
"AXAX[.:XhX(.tX_.lXVXh.+.x e /.e 9 J.].f rXQ.q E.E.4 w pXq 4 w q 4 rXd 4 ].c b 8 8 y > h.A.>.w.1.e.B.p.H D P P 2.2.G S w.>.E E D ",
"AXAX>XAXAXdXZXtXeXdXVX+.z /.U.9 `.oX/.J.H.q w w H.q W.d q q 9 4 w tX5 5 g lX0Xh 8 % X.v.,.r.6.t.S.BXr.W D D ( <.>.G ,.w.W Q E E ",
"hXAX/.[.jXlXdXtX_.eXj.gXv dXW.T./.OX!.!./.].tX/.W.q E.d w e w q q q 4 4 &.iXLX0Xb l NX8.v.8.a.V.S.C.,.1.<.^ ^ 3.r.i.r.3.9.w.2./ ",
"[.oX`.).)._._.eXeX*.=.k.=.*.z W.W.!.!.W.`.ZXdXv ).f g W.7 e w H.w d d 7 &.0Xh ).8 kX+.= J ;.Z.y.Z.9.>.<.6.e.<.B.r.4.^ ~ U I 2.W ",
"XXW.`.].tXg eXmXeX*.k.N.j.mXz W.`.XX|.9 8 j v hXdX).tXg w H.J.J.q E.rXb &.&.h c @ 6 6 # < n.S.i.2.Q ^ w.V.6.1.3.2.E ~ I m ! r.w.",
"].~.rX].].c mXmXN.N.mXN.j.k.v )./.W.9 6 X.h.k dXdXlXtXrX/.J.w 9 q w iX0XuX&.7 6 5 6 6 $ VX;.S.C.2.~ w.w.9.2.2.0.F F P D E w.w.6.",
" X XXX~.g *.j.N.N.j.-.N.N.j.=.c /.W.9 e fXh.2 kXlXeX_.c H.w w H.4 Q.uXuXuX0X7 0 8 6 # j BXS D.v.Q U Q Q E S G G m ) x._ R R 6.6.",
"XX XrX].c gXj.k.=.3 =.l.l.j.l.j z E.J.0 x dX_.).tX).z /.f d 9X9XQ.h &.uXuX0Xb 6 6 6 # 1 D.q.q.8.D E ,.W : H 0.) ) %.L m ! Q 4.6.",
"XX X~.tXlXj.N.k.3 j :.3 :.j.mX=.z /.e H.8 5 6 e 8 _._.f f rXqXiXqX7 b uXiX0X$ 6 6 r # ..D.5.t.t.v.w.B.v.NXnX) G : & * : 8.3.1.4.",
"^.~.Q.tXj.k.MXl.*.j.l.l MXN.j.l j W.w J.9 5 5 eX*.=.eXc 8 Q.iXuX9X7 @ 7 wXeXr > t r = #.q.5.>.5.i.B.A.z.L 1 ; & X S 8.w.B.3.2.2.",
" X~.].lXmXMXN.mXlXj.k.n.MXmXj.*.z /.e e /.e 8 j VXg.k j 8 rXaXqX7 7 7 5 @ 8 t =X=X' , @.q.:.,.f.f.V.C.: X # # + #.q.t.i.,.H H A.",
" X X~.].lXLXmXgX=.*.MXMXMXmXv j e f 8 8 e z a v bXl.l l j f yXLXb 7 -X(.u > | 3X=Xr u X.D.,.,.a.t.a.m.2 y @   h.S.C.r.H : ;.A.v.",
" X!.!. XQ.tXtXeXeXeXgXmXgXdX*.$ j f 8 a z z 8 c l j.g.v j j c kXhXx ;X;X2X' } { r r x 2 q.5.5.u.f.q.;.l z 6 $ gXMXA.3 n.A.BXA.8.",
"XX!.!.XX!.E./.].Q.g dXmX*.=.g.l j v v v v x j 8 j j dXv z /./.(.PX;Xo.O.;XcXt r 6 8 % l q.5.5.y.5.q.8.l.j _.eXlX8   . M.BXC.A.v.",
"XX|.|. X!.XX X].H.).eXlXj.j.*.*.c _._.z c j ).z tXhX_.j 5 0 /.0 y cXo.> 1 g.+.6 z # @ X.q.f.y.f.5.t.c.z.v v *.SX8 5 # h.S.V.A.c.",
" X X X X X X|.^.H.].eXlXlX*.*.yXrXrXrX/.tX8 e e e e a 0 5 0 U.Y./.y gX:.< % j.*.v j j h.q.5.y.5.:.v.c.;.g._.tXtX5 # + xXA.i.A.;.",
" X X.X.X!..X|.P.H.W.wX).*.&.g tXpXpXpXXX[.).J.0 9 J.J.0 0 e '.'.:Xj j.S.3   < g.$ *.g.k.D.5.y.f.5.c.c.l.+.c tXz 5 6 < X.A.c.A.BX",
".X{..X{.{.P.P..XP.I.J.W.).h j yXpXpXpXXX[.oX].`.4 G.J.J.9 0 e (.l l.D.-.N.3   l l l dXj.q.5.y.7.q.8.c.X.g.eX_.e 6 # fXCXBXv.c.8.",
"{.P.{.{.P.K.P.P.H.P.!.J.H.tX_.eXeXtX].].[.oXoXoXG.9 0 U.`.U.5 v gX=.3 3 3 N.l + k.l.c =.l.5.y.p.5.;.K l dX_.).5 5 o < CXNXz.m.A."
};
