/* XPM */
static char *_7fafecf158143b1b22b153d3515dc2dx9AWaIIP1Mgzjkg0[] = {
/* columns rows colors chars-per-pixel */
"64 64 185 2 ",
"   c #7FBCCC",
".  c #73B5D1",
"X  c #76BAD5",
"o  c #7ABCD6",
"O  c #7CBEDA",
"+  c #7DC1DC",
"@  c #7EC2E0",
"#  c #89B5C4",
"$  c #83B8C6",
"%  c #84B5CB",
"&  c #82B9CE",
"*  c #8CB9CC",
"=  c #92B7C7",
"-  c #92BBCD",
";  c #84BCD4",
":  c #8BBED3",
">  c #81BEDA",
",  c #94BED3",
"<  c #82C1D6",
"1  c #8FC2D3",
"2  c #81C2DD",
"3  c #8DC1D9",
"4  c #96C2D3",
"5  c #9DC2D5",
"6  c #9CCBD5",
"7  c #90C4DA",
"8  c #9AC6D9",
"9  c #93CADF",
"0  c #9EC9DB",
"q  c #A2C6D2",
"w  c #A9C5D1",
"e  c #A4CBDD",
"r  c #A9CADB",
"t  c #B2CFD7",
"y  c #BFCED3",
"u  c #B4CFD8",
"i  c #B4D1D9",
"p  c #83C5E1",
"a  c #8AC7E1",
"s  c #87CBE6",
"d  c #8ACBE3",
"f  c #8BCDE9",
"g  c #96CDE4",
"h  c #9CCCE3",
"j  c #94CDE8",
"k  c #8FD0EC",
"l  c #92D0E7",
"z  c #9AD1E6",
"x  c #94D3ED",
"c  c #9AD5ED",
"v  c #9AD8ED",
"b  c #8FD1F1",
"n  c #95D6F1",
"m  c #99D5F1",
"M  c #96D8F3",
"N  c #9BD9F3",
"B  c #ADD3E3",
"V  c #A2D2E8",
"C  c #ACD7E8",
"Z  c #B2D8EB",
"A  c #B8D9EA",
"S  c #BFE4F4",
"D  c #C2D1D6",
"F  c #CBD5D7",
"G  c #C5D4DC",
"H  c #C9D4DA",
"J  c #CBD9DE",
"K  c #C4DBE5",
"L  c #CDDCE3",
"P  c #D2DEE3",
"I  c #C7E2ED",
"U  c #CBE1EC",
"Y  c #D4E1E6",
"T  c #DBE4E5",
"R  c #D5E4EA",
"E  c #DBE6EC",
"W  c #D5E8EF",
"Q  c #DDE9ED",
"!  c #C5E3F2",
"~  c #CBE5F1",
"^  c #C6E8F4",
"/  c #CBE8F6",
"(  c #CDEBF5",
")  c #CDE9F6",
"_  c #C3E8F8",
"`  c #C6EBFB",
"'  c #C4EBFC",
"]  c #CDEFFB",
"[  c #CFEFFF",
"{  c #C8E9F8",
"}  c #D1E7F4",
"|  c #D0EBF6",
" . c #D6EBF4",
".. c #D8EAF4",
"X. c #DAEEF5",
"o. c #DDEBF2",
"O. c #D3EFFA",
"+. c #CFF1FF",
"@. c #D5F2FF",
"#. c #D4F5FE",
"$. c #D3F4FE",
"%. c #DAF3FA",
"&. c #D9F1FD",
"*. c #D5F8FF",
"=. c #DEF9FF",
"-. c #E1E7E7",
";. c #E1E6EA",
":. c #E4EBED",
">. c #E8ECEF",
",. c #EBF1EF",
"<. c #E4EDF2",
"1. c #E9EEF2",
"2. c #E4F1F5",
"3. c #EBF3F5",
"4. c #E4F4FB",
"5. c #EBF5FA",
"6. c #E2FDFF",
"7. c #E7FDFF",
"8. c #E5FDFF",
"9. c #EDFBFF",
"0. c #ECFEFF",
"q. c #EFFFFF",
"w. c #EDFCFF",
"e. c #F3F4F7",
"r. c #F2F5F9",
"t. c #F1FFFF",
"y. c azure",
"u. c #F3FFFF",
"i. c #F6FFFC",
"p. c #F7FDFF",
"a. c #F4FFFF",
"s. c #F5FFFF",
"d. c #F6FFFF",
"f. c #F7FFFF",
"g. c #F7FEFF",
"h. c #F4FDFE",
"j. c #F9FFFB",
"k. c #FDFFF9",
"l. c #FCFEF9",
"z. c #FDFDFB",
"x. c #FDFFFA",
"c. c #FCFFFB",
"v. c #FEFFFA",
"b. c #FFFFFA",
"n. c #FEFFFB",
"m. c #FFFFFB",
"M. c #FBFBFD",
"N. c #FBFFFC",
"B. c #FBFFFD",
"V. c #FBFCFE",
"C. c #FBFCFF",
"Z. c #FAFDFF",
"A. c #F9FEFF",
"S. c #F8FFFF",
"D. c #F9FFFF",
"F. c #FBFFFE",
"G. c #FBFEFF",
"H. c #FAFFFF",
"J. c #FBFFFF",
"K. c #FFFDFC",
"L. c #FEFCFD",
"P. c #FFFDFD",
"I. c #FDFFFC",
"U. c #FCFFFD",
"Y. c #FEFEFC",
"T. c #FFFEFC",
"R. c #FFFEFD",
"E. c #FEFFFD",
"W. c #FFFFFD",
"Q. c #FCFDFF",
"!. c #FDFDFF",
"~. c #FFFDFE",
"^. c #FEFCFF",
"/. c #FFFCFF",
"(. c #FEFDFF",
"). c #FFFDFF",
"_. c #FDFFFE",
"`. c #FDFEFF",
"'. c #FCFFFF",
"]. c #FEFEFE",
"[. c #FEFEFF",
"{. c #FFFEFF",
"}. c #FEFFFF",
"|. c white",
" X c #FFFFFF",
/* pixels */
"|.|.|.|.|.|.|.|.|.|.|.|.|.|.|.|.|.|.|.|.|.|.|.|.|.|.|.|.|.z.|.z.|.|.|.|.|.|.|.|.|.|.|.|.|.|.|.|.|.|.|.|.|.|.|.|.|.|.|.|.|.|.|.|.",
"|.|.|.|.|.|.|.|.|.|.|.|.|.|.|.|.|.|.|.|.|.L.|.|.|.|.|.|.|.|.z.|.|.|.|.|.|.|.|.|.|.|.|.|.|.|.|.|.|.|.|.|.|.|.|.|.|.|.|.|.|.|.|.|.",
"|.|.|.|.|.|.|.|.|.|.|.|.|.|.|.|.|.|.|.|.|.|.z.|.|.|.|.|.|.|.|.|.|.|.|.|.|.|.|.|.|.|.|.|.|.|.|.|.|.|.|.|.|.|.|.|.|.|.|.|.|.|.|.|.",
"|.|.|.|.|.|.|.|.|.|.|.|.|.|.|.|.|.|.z.|.|.z.|.z.F.l.|.|.|.|.|.|.|.|.|.|.|.|.|.|.|.|.|.|.|.|.|.|.|.|.|.|.|.|.|.|.|.|.|.|.|.|.|.|.",
"|.|.|.|.|.|.|.|.|.|.|.|.|.|.|.|.|.|.|.|.F.|.|.F.|.|.|.|.|.|.|.|.|.|.|.|.|.|.|.|.|.|.|.|.|.|.|.|.|.|.|.|.|.|.|.|.|.|.|.|.|.|.|.|.",
"|.|.|.|.|.|.|.|.|.|.|.|.|.|.|.|.z.|.F.|.|.|.|.|.|.|.|.|.|.|.|.|.|.|.|.|.|.|.|.|.|.|.|.|.|.|.|.|.|.|.|.|.|.|.|.|.|.|.|.|.|.|.|.|.",
"|.|.|.|.|.|.|.|.|.|.|.|.|.|.|.|.z.z.|.|.|.L.|.|.|.|.z.|.z.z.|.|.|.|.|.|.|.|.|.|.|.|.|.|.|.|.|.|.|.|.|.|.|.|.|.|.|.|.|.|.|.|.|.|.",
"|.|.|.|.|.|.|.|.|.|.|.|.|.|.|.|.z.z.|.L.|.|.|.|.|.z.z.z.z.|.|.|.|.|.|.|.|.|.|.|.|.|.|.|.|.|.|.|.|.|.|.|.|.|.|.|.|.|.|.|.|.|.|.|.",
"|.|.|.|.|.|.|.|.|.|.|.|.|.|.|.|.L.|.L.|.L.|.|.|.|.|.|.|.|.|.|.|.|.|.|.|.|.|.|.|.|.|.|.|.|.|.|.|.|.|.|.|.|.|.|.|.|.|.|.|.|.|.|.|.",
"|.|.|.|.|.|.|.|.|.|.|.|.|.|.|.|.L.|.L.|.|.L.|.|.z.z.z.|.|.F.|.|.|.|.|.|.|.|.|.|.|.|.|.|.|.|.|.|.|.|.|.|.|.|.|.|.|.|.|.|.|.|.|.|.",
"|.|.|.|.|.|.|.|.|.|.|.|.|.|.|.|.L.|.|.|.F.F.|.z.z.|.L.L.|.|.F.F.|.|.|.|.|.|.|.|.|.|.|.|.|.|.|.|.|.|.|.|.|.|.|.|.|.|.|.|.|.|.|.|.",
"|.|.|.|.|.|.|.|.|.|.|.|.|.|.|.|.|.|.|.F.F.z.z.z.z.z.L.|.L.F.F.F.|.|.|.|.|.|.|.|.|.|.|.|.|.|.|.|.|.|.|.|.|.|.|.|.|.|.|.|.|.|.|.|.",
"|.|.|.|.|.|.|.|.|.|.|.|.|.|.|.|.|.F.l.z.z.l.z.|.|.|.F.|.|.|.|.|.|.|.|.|.|.|.|.|.|.|.|.|.|.|.|.|.|.|.|.|.|.|.|.|.|.|.|.|.|.|.|.|.",
"|.|.|.|.|.|.|.|.|.|.|.|.|.|.|.|.|.l.z.z.z.l.F.h.h.h.h.h.h.h.|.F.|.|.|.|.|.|.|.|.|.|.|.|.|.|.|.|.|.|.|.|.|.|.|.|.|.|.|.|.|.|.|.|.",
"|.|.|.|.|.|.|.|.|.|.|.|.|.|.|.|.|.|.|.|.F.h.h.6.+.' _ ] =.h.h.|.|.|.|.|.|.|.|.|.|.|.|.|.|.|.|.|.|.|.|.|.|.|.|.|.|.|.|.|.|.|.|.|.",
"|.|.|.|.|.|.|.|.|.|.|.|.|.|.|.|.|.M.F.F.h.~ r * * % ; 1 , q I q.h.F.|.|.|.|.|.|.|.z.|.|.|.|.|.|.|.|.|.|.|.|.|.|.|.|.|.|.|.|.|.|.",
"z.|.|.|.|.|.|.L.|.z.|.|.|.z.|.L.|.F.h.@.0 % ; ; ; < d d l z : 8 [ h.h.|.|.F.|.|.z.z.|.|.|.|.|.|.|.|.|.|.|.|.|.|.|.|.|.|.|.|.|.|.",
"|.z.|.|.|.|.|.|.|.|.z.z.|.|.|.|.F.h.{ * ; 2 2 2 2 O + + + f M j : ! h.|.F.|.|.|.z.z.|.F.|.z.|.|.|.|.|.|.|.|.|.|.|.|.|.|.|.|.|.|.",
"|.|.|.|.|.|.|.|.|.|.|.|.|.|.|.F.h.( * 1 O O + O + 2 X O + o 2 v z # ) h.p.|.L.L.z.z.|.|.|.z.z.|.|.|.|.|.|.|.|.|.|.|.|.|.|.|.|.|.",
"|.|.|.|.|.|.|.|.|.|.|.|.|.|.F.h.$.# * < 2 + @ 2 > O X O + + + > v 9 = 8.p.|.L.|.z.|.|.|.|.|.|.z.|.|.|.|.|.|.|.|.|.|.|.|.|.|.|.|.",
"|.|.|.|.|.|.|.|.|.z.|.|.|.|.F.q.6   o O + @ O O 2 O 2 p X + + + 2 x 1 A h.F.|.|.|.|.|.|.|.z.|.|.|.|.|.|.|.|.|.|.|.|.|.|.|.|.|.|.",
"L.|.|.|.|.|.|.|.z.|.|.|.F.h.F.%.$ + + O + @ X O O 2 2 > + + + + + x 9 1 q.F.L.|.|.|.F.|.|.|.z.z.|.|.|.|.|.|.|.|.|.|.|.|.|.|.|.|.",
"|.|.|.|.|.F.|.z.|.z.|.|.F.h.F.K   + @ @ @ @ @ O + O . + + + + + + s k & &.F.F.|.|.|.|.|.|.z.z.z.|.|.|.|.|.|.|.|.|.|.|.|.|.|.|.|.",
"|.L.|.|.|.F.z.|.z.|.|.|.F.F.h.i   @ @ O @ p O O + o . + + + + + X X n ; ~ h.h.F.|.|.|.|.|.|.|.|.|.|.|.|.|.|.|.|.|.|.|.|.|.|.|.|.",
"|.|.L.|.F.F.|.|.z.|.|.|.F.h.F.t o + @ p O 2 2 O > + O O @ + + + . + b ; I h.F.F.|.F.|.|.|.|.|.z.|.|.|.|.|.|.|.|.|.|.|.|.|.|.|.|.",
"L.|.|.|.|.F.|.z.|.z.|.|.|.h.h.i & 2 + + O O 2 O p p s s @ O O + + X k ; U F.l.F.|.|.|.|.|.L.|.|.|.|.|.|.|.|.|.|.|.|.|.|.|.|.|.|.",
"L.|.|.|.|.|.|.|.z.|.|.|.F.F.h.K % 2 2 > > p a x x n M M n j p O + + d : ..F.F.z.|.F.F.|.|.|.|.|.|.|.|.|.|.|.|.|.|.|.|.|.|.|.|.|.",
"|.|.|.|.|.|.|.|.|.z.|.z.|.F.F.X.* 2 > O s x M x M n n n n M x a + + 9 4 9.|.z.|.|.|.|.|.|.|.|.|.|.|.|.|.|.|.|.|.|.|.|.|.|.|.|.|.",
"|.|.|.|.|.|.|.|.|.|.|.|.|.F.F.q.4 ; a x M n m n x x n n n m m m d 2 ; Z h.|.z.z.|.|.|.|.|.|.|.|.|.|.|.|.|.|.|.|.|.|.|.|.|.|.|.|.",
"|.|.|.|.|.|.|.|.|.|.|.|.|.|.|.h._ g l x M b n x m c x M n j m x M x 3 #.h.|.|.|.|.|.|.|.|.|.F.F.|.|.|.|.|.|.|.|.|.|.|.|.|.|.|.|.",
"|.|.|.|.|.L.|.|.|.|.l.|.|.|.L.h.S g N M n M M M x m M n n n M M v v h $.h.r.|.L.|.|.|.z.z.|.F.|.|.|.|.|.|.|.|.|.|.|.|.|.|.|.|.|.",
"|.z.|.|.|.|.|.|.|.|.|.l.F.|.|.F.! 4 h z g g g m c h g c m m z j g V 5 | h.F.|.|.|.|.|.|.z.|.F.F.|.|.|.|.|.|.|.|.|.|.|.|.|.|.|.|.",
"|.|.|.|.|.|.|.|.|.|.|.|.|.|.|.F.h.K r e $.6.e 8 0 0 C 8 8 8 0 C +.w K h.|.|.M.|.|.|.|.|.|.|.|.|.|.|.|.|.|.|.|.|.|.|.|.|.|.|.|.|.",
"|.|.|.|.|.|.|.|.|.|.|.|.|.|.|.|.F.h.h.} 5.h./ ` 6.+.*.^ O./ I 7.q.y 9.F.F.|.|.|.|.|.|.|.|.|.|.z.|.|.|.|.|.|.|.|.|.|.|.|.|.|.|.|.",
"|.|.|.|.|.|.|.|.|.|.|.|.|.|.|.|.|.F.F.o.:.h.4.K q. .| X.q.q. .h.q.L 4.F.|.|.z.z.|.|.|.|.|.|.z.|.|.|.|.|.|.|.|.|.|.|.|.|.|.|.|.|.",
"|.|.|.|.|.|.|.|.|.|.|.|.|.|.|.|.|.|.h.<.:.F.h.G h.Y o.} F.3.Y h.q.L r.h.|.|.z.|.|.|.|.|.|.|.|.z.|.|.|.|.|.|.|.|.|.|.|.|.|.|.|.|.",
"|.|.|.|.|.|.|.|.|.|.|.|.|.|.|.|.|.|.F.:.<.h.h.L h.Y %.E F.3.Y h.h.J h.F.|.z.z.|.z.|.|.|.|.|.F.|.|.|.|.|.|.|.|.|.|.|.|.|.|.|.|.|.",
"|.|.|.|.|.|.|.|.|.|.|.|.|.|.|.|.|.F.h.Q :.F.h.Y q.Q 4.R F.;.;.F.4.P F.F.|.|.z.z.|.z.|.|.|.|.|.|.|.|.|.|.|.|.|.|.|.|.|.|.|.|.|.|.",
"|.|.|.|.|.|.|.|.|.|.|.|.|.|.|.|.|.F.h.;.<.F.h.P 9.E 7.R h.F h.F.P h.F.|.|.z.|.z.z.|.|.L.L.|.F.|.|.|.|.|.|.|.|.|.|.|.|.|.|.|.|.|.",
"|.|.|.|.|.|.|.|.|.|.|.|.|.|.|.|.|.F.F.R h.F.h.U h...r.Q <.R h.r.T h.|.|.|.z.|.z.|.|.|.|.|.|.|.|.|.|.|.|.|.|.|.|.|.|.|.|.|.|.|.|.",
"|.|.|.|.|.|.|.|.|.|.|.|.M.|.|.|.|.F.h.P |.F.4.R h.R F.o.G r.h.E r.h.|.|.|.z.|.z.|.|.|.|.|.|.|.|.|.|.|.|.|.|.|.|.|.|.|.|.|.|.|.|.",
"|.|.|.|.|.|.|.|.|.|.|.|.|.|.|.|.F.F.<.2.|.F.W 4.h.P h.5.G h.h.T F.|.|.|.z.|.z.|.|.|.|.|.|.|.|.|.|.|.|.|.|.|.|.|.|.|.|.|.|.|.|.|.",
"|.|.|.|.|.|.|.|.|.|.|.|.|.|.|.l.F.F.T h.h.F.L r.8.Y h.2.G h.o.5.F.|.|.|.L.|.|.|.|.|.|.L.L.|.|.|.|.|.|.|.|.|.|.|.|.|.|.|.|.|.|.|.",
"|.|.|.|.|.|.|.|.|.|.|.|.|.|.|.|.F.:.3.F.h.2.W h.4.L h.4. .X.o.F.F.|.|.|.|.|.|.|.|.|.|.|.|.|.|.F.|.|.|.|.|.|.|.|.|.|.|.|.|.|.|.|.",
"|.|.|.|.|.|.|.|.|.|.|.|.|.|.|.|.r.:.F.F.F.<.E h.H 9.r.<.q.P E F.|.L.L.|.|.|.|.|.|.|.|.L.|.|.|.|.|.|.|.|.|.|.|.|.|.|.|.|.|.|.|.|.",
"|.|.|.|.|.|.|.|.|.|.|.|.|.|.|.|.:.F.F.M.|.E 5.R E h.<.h.h.L <.|.|.|.|.|.|.L.F.|.F.|.|.L.|.|.|.|.|.|.|.|.|.|.|.|.|.|.|.|.|.|.|.|.",
"|.|.|.|.|.|.|.|.|.|.|.|.|.|.|.r.>.F.h.F.|.2.L <.F.3.5.h.2.E 2.F.|.|.|.L.|.|.|.|.|.|.L.|.L.|.|.|.|.|.|.|.|.|.|.|.|.|.|.|.|.|.|.|.",
"|.|.|.|.|.|.|.|.|.|.|.|.|.|.L.e.1.F.F.F.F.5.P h.h.3.h.5.<.q.<.F.F.|.|.L.|.|.|.M.|.|.|.|.|.|.|.|.|.|.|.|.|.|.|.|.|.|.|.|.|.|.|.|.",
"|.|.|.|.|.|.|.|.|.|.|.|.|.|.|.|.:.:.h.h.h.3.<.<.F.3.2.E F.r.2.|.|.|.|.|.|.|.|.|.|.|.|.|.|.|.|.|.|.|.|.|.|.|.|.|.|.|.|.|.|.|.|.|.",
"|.|.|.|.|.|.|.|.|.|.|.|.|.|.|.F.|.2.G 4.F.<.h.:.F.F.y 4.h.F.;.h.|.|.|.|.|.|.|.|.|.|.|.|.|.|.|.|.|.|.|.|.|.|.|.|.|.|.|.|.|.|.|.|.",
"|.|.|.|.|.|.|.|.|.|.|.|.|.|.|.|.F.F.h.D h.5.h.p.i.h.J %.h.F.:.p.|.|.|.|.|.|.|.|.|.|.|.|.|.|.|.|.|.|.|.|.|.|.|.|.|.|.|.|.|.|.|.|.",
"|.|.|.|.|.|.|.|.|.|.|.|.|.|.|.|.|.h.h.P 3.F.p.r.r.r.E 9.o.F.1.p.F.|.|.|.|.|.|.|.|.|.|.|.|.|.|.|.|.|.|.|.|.|.|.|.|.|.|.|.|.|.|.|.",
"|.|.|.|.|.|.|.|.|.|.|.|.|.|.|.|.L.M.h.J r.F.r.e.F.h.R h.<.5.r.2.|.|.|.|.|.|.|.|.|.|.|.|.|.|.|.|.|.|.|.|.|.|.|.|.|.|.|.|.|.|.|.|.",
"|.|.|.|.|.|.|.|.|.|.|.|.|.|.|.|.|.|.5.R F.M.p.1.|.F.L q.9.<.F.;.|.|.|.|.|.|.|.|.|.|.|.|.|.|.|.|.|.|.|.|.|.|.|.|.|.|.|.|.|.|.|.|.",
"|.|.|.|.|.|.|.|.|.|.|.|.|.|.|.|.L.F.2.T F.F.p.1.F.F.E 4.h.E F.-.|.|.|.|.|.|.|.|.|.|.|.|.|.|.|.|.|.|.|.|.|.|.|.|.|.|.|.|.|.|.|.|.",
"|.|.|.|.|.|.|.|.|.|.|.|.|.|.|.|.|.|.F.P h.F.e.M.F.h...o.h.o.F.:.F.|.|.|.|.|.|.|.|.|.|.|.|.|.|.|.|.|.|.|.|.|.|.|.|.|.|.|.|.|.|.|.",
"|.|.|.|.|.|.|.|.|.|.|.|.|.|.|.|.|.|.h.2.T r.e.F.|.F.R 4.h.E F.-.|.|.|.|.|.|.|.|.|.|.|.|.|.|.|.|.|.|.|.|.|.|.|.|.|.|.|.|.|.|.|.|.",
"|.|.|.|.|.|.|.|.|.|.|.|.|.|.|.|.z.|.|.F.r.l.r.F.F.h.J h.R 5.r.3.|.|.|.|.|.|.|.|.|.|.|.|.|.|.|.|.|.|.|.|.|.|.|.|.|.|.|.|.|.|.|.|.",
"|.|.|.|.|.|.|.|.|.|.|.|.|.|.|.|.|.|.|.F.F.F.|.|.F.Q R h.E h.<.r.|.|.|.|.|.|.|.|.|.|.|.|.|.|.|.|.|.|.|.|.|.|.|.|.|.|.|.|.|.|.|.|.",
"|.|.|.|.|.|.|.|.|.|.|.|.|.|.|.|.z.|.|.F.|.|.|.h.F.T 3.F.<.|.p.r.F.|.|.|.|.|.|.|.|.|.|.|.|.|.|.|.|.|.|.|.|.|.|.|.|.|.|.|.|.|.|.|.",
"|.|.|.|.|.|.|.|.|.|.|.|.|.|.|.|.|.z.|.|.|.|.|.F.h.>.h.h.p.L.F.F.|.|.|.|.|.|.|.|.|.|.|.|.|.|.|.|.|.|.|.|.|.|.|.|.|.|.|.|.|.|.|.|.",
"|.|.|.|.|.|.|.|.|.|.|.|.|.|.|.|.z.|.|.|.L.|.l.F.i.:.|.|.L.L.|.|.|.|.|.|.|.|.|.|.|.|.|.|.|.|.|.|.|.|.|.|.|.|.|.|.|.|.|.|.|.|.|.|.",
"|.|.|.|.|.|.|.|.|.|.|.|.|.|.|.|.z.z.L.|.L.|.z.l.1.F.M.|.|.|.|.l.|.|.|.|.|.|.|.|.|.|.|.|.|.|.|.|.|.|.|.|.|.|.|.|.|.|.|.|.|.|.|.|.",
"|.|.|.|.|.|.|.|.|.|.|.|.|.|.|.|.|.|.|.|.L.|.|.z.F.F.|.|.L.|.|.z.|.|.|.|.|.|.|.|.|.|.|.|.|.|.|.|.|.|.|.|.|.|.|.|.|.|.|.|.|.|.|.|."
};
