/* XPM */
static char *a672fb6274414792a47e80936632b55b0bphn9ASB3ZJSQ1v[] = {
/* columns rows colors chars-per-pixel */
"64 64 187 2 ",
"   c #7FBCCC",
".  c #73B5D1",
"X  c #76BAD5",
"o  c #7ABCD6",
"O  c #7CBEDA",
"+  c #7DC1DC",
"@  c #7EC2E0",
"#  c #89B5C4",
"$  c #83B8C6",
"%  c #84B5CB",
"&  c #82B9CE",
"*  c #8CB9CC",
"=  c #92B7C7",
"-  c #92BBCD",
";  c #84BCD4",
":  c #8BBED3",
">  c #81BEDA",
",  c #94BED3",
"<  c #82C1D6",
"1  c #8FC2D3",
"2  c #81C2DD",
"3  c #8DC1D9",
"4  c #96C2D3",
"5  c #9CC2D5",
"6  c #9CCBD5",
"7  c #90C4DA",
"8  c #9AC6D9",
"9  c #9DCADC",
"0  c #A4C6D3",
"q  c #A2C7D9",
"w  c #A3CCDE",
"e  c #AACBDC",
"r  c #B2CFD7",
"t  c #B4CFD8",
"y  c #BFD0D7",
"u  c #B4D1D9",
"i  c #BCD2DA",
"p  c #83C5E1",
"a  c #8AC7E1",
"s  c #87CBE6",
"d  c #8ACBE3",
"f  c #8BCDE9",
"g  c #95CDE3",
"h  c #9CCCE3",
"j  c #94CDE8",
"k  c #8FD0EC",
"l  c #92D0E7",
"z  c #9BD1E6",
"x  c #94D3ED",
"c  c #9AD4ED",
"v  c #9AD8ED",
"b  c #8FD1F1",
"n  c #95D5F1",
"m  c #99D6F1",
"M  c #96D8F3",
"N  c #9BD9F3",
"B  c #ABD6E7",
"V  c #A2D2E8",
"C  c #ADD8E9",
"Z  c #B2D8EB",
"A  c #B8D9EA",
"S  c #BEE0EC",
"D  c #BFE4F4",
"F  c #C4CFD5",
"G  c #C3D2D7",
"H  c #C4D5DC",
"J  c #CAD7DC",
"K  c #C5D8DE",
"L  c #CBDADE",
"P  c #D1DCDD",
"I  c #C4DCE5",
"U  c #CDDCE3",
"Y  c #D1DEE4",
"T  c #D1DFE8",
"R  c #C7E2ED",
"E  c #CDE2EB",
"W  c #D4E2E4",
"Q  c #D9E2E5",
"!  c #D5E5EC",
"~  c #DCE5EA",
"^  c #D5E9EF",
"/  c #DCE9EE",
"(  c #C3E4F3",
")  c #CBE5F1",
"_  c #CBE8F6",
"`  c #CDEBF5",
"'  c #CFEAF7",
"]  c #C3E8F8",
"[  c #C6EBFB",
"{  c #C4EBFC",
"}  c #CDEFFB",
"|  c #CFEFFF",
" . c #CEECFA",
".. c #D6E7F1",
"X. c #D0EBF6",
"o. c #D2E8F5",
"O. c #D8EAF4",
"+. c #DAEEF5",
"@. c #DCECF2",
"#. c #D1EEFC",
"$. c #DAEDFB",
"%. c #CCF0FF",
"&. c #DCF0F7",
"*. c #D5F2FF",
"=. c #D4F5FE",
"-. c #D3F1FC",
";. c #DAF3FA",
":. c #D9F1FD",
">. c #D5F8FF",
",. c #DEF9FF",
"<. c #D8F8FF",
"1. c #E2EBED",
"2. c #E9EAEE",
"3. c #E4EEF2",
"4. c #E9EEF2",
"5. c #EBEFF8",
"6. c #E4F1F5",
"7. c #ECF3F6",
"8. c #E4F4FB",
"9. c #ECF6FA",
"0. c #E2FDFF",
"q. c #E7FDFF",
"w. c #E5FDFF",
"e. c #EDFBFF",
"r. c #ECFEFF",
"t. c #EFFFFF",
"y. c #EDFCFE",
"u. c #F0F4F5",
"i. c #F6FBF7",
"p. c #F2F5FA",
"a. c #F1FFFF",
"s. c azure",
"d. c #F3FFFF",
"f. c #F6FFFC",
"g. c #F7FDFF",
"h. c #F4FFFF",
"j. c #F5FFFF",
"k. c #F6FFFF",
"l. c #F7FFFF",
"z. c #F7FEFF",
"x. c #F4FEFE",
"c. c #F9FFFB",
"v. c #FDFFF9",
"b. c #FDFDFB",
"n. c #FDFFFA",
"m. c #FCFFFB",
"M. c #FEFFFA",
"N. c #FFFFFA",
"B. c #FEFFFB",
"V. c #FFFFFB",
"C. c #FBFBFD",
"Z. c #FBFFFC",
"A. c #FBFFFD",
"S. c #FBFCFF",
"D. c #F9FEFF",
"F. c #F8FFFF",
"G. c #F9FFFF",
"H. c #FBFFFE",
"J. c #FBFEFF",
"K. c #FAFFFF",
"L. c #FBFFFF",
"P. c #FFFDFC",
"I. c #FEFCFD",
"U. c #FFFDFD",
"Y. c #FDFFFC",
"T. c #FCFFFD",
"R. c #FEFEFC",
"E. c #FFFEFC",
"W. c #FFFEFD",
"Q. c #FEFFFD",
"!. c #FFFFFD",
"~. c #FCFDFF",
"^. c #FDFDFF",
"/. c #FFFDFE",
"(. c #FEFCFF",
"). c #FFFCFF",
"_. c #FEFDFF",
"`. c #FFFDFF",
"'. c #FDFFFE",
"]. c #FDFEFF",
"[. c #FCFFFF",
"{. c #FEFEFE",
"}. c #FEFEFF",
"|. c #FFFEFF",
" X c #FEFFFF",
".X c white",
"XX c #FFFFFF",
/* pixels */
".X.X.X.X.X.X.X.X.X.X.X.X.X.X.X.X.X.X.X.X.X.X.X.X.X.X.X.X.X.Xb.b..X.X.X.X.X.X.X.X.X.X.X.X.X.X.X.X.X.X.X.X.X.X.X.X.X.X.X.X.X.X.X.X",
".X.X.X.X.X.X.X.X.X.X.X.X.X.X.X.X.X.X.X.X.XI..X.X.X.X.X.X.X.X.Xb..X.X.X.X.X.X.X.X.X.X.X.X.X.X.X.X.X.X.X.X.X.X.X.X.X.X.X.X.X.X.X.X",
".X.X.X.X.X.X.X.X.X.X.X.X.X.X.X.X.X.X.X.X.X.Xb..X.X.X.X.X.X.X.X.X.X.X.X.X.X.X.X.X.X.X.X.X.X.X.X.X.X.X.X.X.X.X.X.X.X.X.X.X.X.X.X.X",
".X.X.X.X.X.X.X.X.X.X.X.X.X.X.X.X.X.Xb..X.Xb..Xb.b.c..X.X.X.X.X.X.X.X.X.X.X.X.X.X.X.X.X.X.X.X.X.X.X.X.X.X.X.X.X.X.X.X.X.X.X.X.X.X",
".X.X.X.X.X.X.X.X.X.X.X.X.X.X.X.X.X.X.X.XH..X.XH..X.X.X.X.X.X.X.X.X.X.X.X.X.X.X.X.X.X.X.X.X.X.X.X.X.X.X.X.X.X.X.X.X.X.X.X.X.X.X.X",
".X.X.X.X.X.X.X.X.X.X.X.X.X.X.X.Xb..XH..X.X.X.X.X.X.X.X.X.X.X.X.X.X.X.X.X.X.X.X.X.X.X.X.X.X.X.X.X.X.X.X.X.X.X.X.X.X.X.X.X.X.X.X.X",
".X.X.X.X.X.X.X.X.X.X.X.X.X.X.X.Xb.b..X.X.XI..X.X.Xb..Xb..X.X.X.X.X.X.X.X.X.X.X.X.X.X.X.X.X.X.X.X.X.X.X.X.X.X.X.X.X.X.X.X.X.X.X.X",
".X.X.X.X.X.X.X.X.X.X.X.X.X.X.X.Xb.b..XI..X.X.X.X.X.Xb.b.b.b.b..X.X.X.X.X.X.X.X.X.X.X.X.X.X.X.X.X.X.X.X.X.X.X.X.X.X.X.X.X.X.X.X.X",
".X.X.X.X.X.X.X.X.X.X.X.X.X.X.X.XI..XI..XI..X.X.X.X.X.X.X.X.X.X.X.X.X.X.X.X.X.X.X.X.X.X.X.X.X.X.X.X.X.X.X.X.X.X.X.X.X.X.X.X.X.X.X",
".X.X.X.X.X.X.X.X.X.X.X.X.X.X.X.XI..XI..X.XI..X.Xb.b.b..X.XH..X.X.X.X.X.X.X.X.X.X.X.X.X.X.X.X.X.X.X.X.X.X.X.X.X.X.X.X.X.X.X.X.X.X",
".X.X.X.X.X.X.X.X.X.X.X.X.X.X.X.XI..X.X.XH.H..Xb.b..XI.I..X.XH.H..X.X.X.X.X.X.X.X.X.X.X.X.X.X.X.X.X.X.X.X.X.X.X.X.X.X.X.X.X.X.X.X",
".X.X.X.X.X.X.X.X.X.X.X.X.X.X.X.X.X.X.XH.H.b.b.b.b.b.I..XI.H.H.H..X.X.X.X.X.X.X.X.X.X.X.X.X.X.X.X.X.X.X.X.X.X.X.X.X.X.X.X.X.X.X.X",
".X.X.X.X.X.X.X.X.X.X.X.X.X.X.X.X.Xb.b.b.b.b.b.b..XH.C..X.X.X.X.X.X.X.X.X.X.X.X.X.X.X.X.X.X.X.X.X.X.X.X.X.X.X.X.X.X.X.X.X.X.X.X.X",
".X.X.X.X.X.X.X.X.X.X.X.X.X.X.X.X.Xc.b.b.b.c.H.z.z.z.x.x.z.H.H.H..X.X.X.X.X.X.X.X.X.X.X.X.X.X.X.X.X.X.X.X.X.X.X.X.X.X.X.X.X.X.X.X",
".X.X.X.X.X.X.X.X.X.X.X.X.X.X.X.X.X.X.X.X.XH.r.0.%.[ ] %.,.r.z..X.X.X.X.X.X.X.X.X.X.X.X.X.X.X.X.X.X.X.X.X.X.X.X.X.X.X.X.X.X.X.X.X",
".X.X.X.X.X.X.X.X.X.X.X.X.X.X.X.X.XC.H.H.r.E e - * & & 1 , 0 R r.z.H..X.X.X.X.X.X.Xb..X.X.X.X.X.X.X.X.X.X.X.X.X.X.X.X.X.X.X.X.X.X",
"b..X.X.X.X.X.XI..Xb..X.X.Xb..XI..XH.x.*.8 * ; ; < < a d l z 3 8 #.r.z..X.XH..X.Xb.b..X.X.X.X.X.X.X.X.X.X.X.X.X.X.X.X.X.X.X.X.X.X",
".Xb..X.X.X.X.X.X.X.Xb.b..X.X.X.XH.x._ * ; 2 + + + O + + + k n g * ( x.H.H..X.X.Xb.b..XH..Xb..X.X.X.X.X.X.X.X.X.X.X.X.X.X.X.X.X.X",
".X.X.X.X.X.X.X.X.X.X.X.X.X.X.XH.r.` * 1 ; O 2 O + 2 X O + o 2 N c # ' z.g..XI.I.b.b..X.X.Xb.b..X.X.X.X.X.X.X.X.X.X.X.X.X.X.X.X.X",
".X.X.X.X.X.X.X.X.X.X.X.X.X.XH.z.*.# * < 2 + @ @ > + X O + + O > c g = w.z..XI..Xb..X.X.X.X.X.Xb..X.X.X.X.X.X.X.X.X.X.X.X.X.X.X.X",
".X.X.X.X.X.X.X.X.Xb..X.X.XH.H.r.6 + o O + @ X @ 2 O 2 > X + + + 2 v < A z.H..X.X.X.X.X.X.Xb..X.X.X.X.X.X.X.X.X.X.X.X.X.X.X.X.X.X",
"I..X.X.X.X.X.X.Xb..X.X.XH.H.H.;.$ + + O @ @ X O > 2 2 2 + + + + + x 7 - r.H.I..X.X.XH..X.X.Xb.b..X.X.X.X.X.X.X.X.X.X.X.X.X.X.X.X",
".X.X.X.X.XH..Xb..Xb..X.XH.z.z.I   + @ @ @ p @ O + O . + + + + + + s n & :.z.H..X.X.X.X.X.Xb.b.b..X.X.X.X.X.X.X.X.X.X.X.X.X.X.X.X",
".XI..X.X.XH.b..Xb..X.X.XH.z.z.u   + @ O @ @ O O + o . + + + + + X X n < ) z.z.H..X.X.X.X.X.X.X.X.X.X.X.X.X.X.X.X.X.X.X.X.X.X.X.X",
".X.XI..XH.H..X.Xb..X.X.XH.z.z.r   + + p O 2 2 O + O O O @ @ + + . o b ; R z.z.H..XH..X.X.X.X.Xb..X.X.X.X.X.X.X.X.X.X.X.X.X.X.X.X",
"I..X.X.X.XH..Xb..Xb..X.XH.H.z.t & + @ + O O 2 > 2 p s s @ O O + + + k : R H.c.b..X.X.X.X.XI..X.X.X.X.X.X.X.X.X.X.X.X.X.X.X.X.X.X",
"I..X.X.X.X.X.X.Xb..X.X.XH.H.z.I % 2 > 2 2 2 a x n n M M n j p O + + d 3 O.H.b.b..XH.H..X.X.X.X.X.X.X.X.X.X.X.X.X.X.X.X.X.X.X.X.X",
".X.X.X.X.X.X.X.X.Xb..Xb.H.H.H.+.* > > O s x M x n M n n M n j a + + 3 4 y..X.X.X.X.X.X.X.X.X.X.X.X.X.X.X.X.X.X.X.X.X.X.X.X.X.X.X",
".X.X.X.X.X.X.X.X.X.X.X.X.X.XH.r.4 ; a x M n n n c x n n n n m m d 2 ; Z z.c.b.b..X.X.X.X.X.X.X.X.X.X.X.X.X.X.X.X.X.X.X.X.X.X.X.X",
".X.X.X.X.X.X.X.X.X.X.X.X.X.X.Xz.{ g l x M b n n x x n n n x n x M x 3 =.z..XI..X.X.X.XI..X.XH.H..X.X.X.X.X.X.X.X.X.X.X.X.X.X.X.X",
".X.X.X.X.XI..X.X.X.Xc.b..X.Xb.z.D g N v n M M m m m m n n n n n v v h | x.i..X.X.X.X.X.Xb..XH.H..X.X.X.X.X.X.X.X.X.X.X.X.X.X.X.X",
".Xb..X.X.X.X.X.X.X.Xb..XH..XI.H.( , V g g g j c z g g c c c c g g V 5 ' z.H..X.X.X.X.Xb..X.XH.H..X.X.X.X.X.X.X.X.X.X.X.X.X.X.X.X",
".X.X.X.X.X.X.X.X.X.X.X.X.X.X.XH.x.I e q -.0.w 8 8 9 B 8 8 8 8 B { 0 I x.H..X.X.X.X.XI..XI..X.XH..X.X.X.X.X.X.X.X.X.X.X.X.X.X.X.X",
".X.X.X.X.X.X.X.X.X.X.X.X.X.X.X.XH.z.x.o.8.x. .( q.#.>.( %.} S q.r.i x.H..X.Xb.H.H..X.XI.I..X.XH..X.X.X.X.X.X.X.X.X.X.X.X.X.X.X.X",
".X.X.X.X.X.X.X.X.X.X.X.X.X.X.X.X.XH.z./ W r.w.i x...$.$.x.x.I 0.r.i z.H..X.X.Xb..X.X.X.X.X.X.XH..X.X.X.X.X.X.X.X.X.X.X.X.X.X.X.X",
".X.X.X.X.X.X.X.X.X.X.X.X.X.X.X.X.XH.H.9.L x.x.K z.@...! H.H.W 8.r.H z.H..X.Xb..XH..X.X.XI..X.X.X.X.X.X.X.X.X.X.X.X.X.X.X.X.X.X.X",
".X.X.X.X.X.X.X.X.X.X.X.X.X.X.X.X.XH.H.9.L x.x.Y 9.3.! O.H..XW r.&.U z..XI.I..X.X.X.X.X.X.X.X.X.X.X.X.X.X.X.X.X.X.X.X.X.X.X.X.X.X",
".X.X.X.X.X.X.X.X.X.X.X.X.X.X.X.XH.H..X9.W z.x./ x./ ^ ..H.i.P z.W 7.H..X.X.X.Xb..XH..X.XI..X.X.X.X.X.X.X.X.X.X.X.X.X.X.X.X.X.X.X",
".X.X.X.X.X.X.X.X.X.X.X.X.X.X.X.X.XC.H.3.~ H.z.E e./ ^ ^ z.P 9.x.Y H.g..X.X.Xb.b.b.H..X.X.X.X.X.X.X.X.X.X.X.X.X.X.X.X.X.X.X.X.X.X",
".X.X.X.X.X.X.X.X.X.X.X.X.X.X.X.X.XC..X/ 7.H.x.U x./ &.^ 8.W z.6.7.H..X.Xb.b.b..X.X.X.X.X.XI..X.X.X.X.X.X.X.X.X.X.X.X.X.X.X.X.X.X",
".X.X.X.X.X.X.X.X.X.X.Xb..X.X.X.X.XC.z.W H.H.6.E x.W e.4.H e.x.~ z.H..X.Xb..Xb..Xb..X.X.X.X.X.X.X.X.X.X.X.X.X.X.X.X.X.X.X.X.X.X.X",
".X.X.X.X.X.X.X.X.X.X.X.X.X.XC..XI..X3.6.H.z.@.$.x.L z.@.H r.6.3.H..X.X.X.X.X.Xb..Xb..X.X.X.X.X.X.X.X.X.X.X.X.X.X.X.X.X.X.X.X.X.X",
".X.X.X.X.X.X.X.X.X.X.X.X.X.X.X.X.XH.W x.H.z.L r.r.U z.O.K r./ x.H..X.X.XI..X.X.XH..X.X.X.X.X.X.X.X.X.X.X.X.X.X.X.X.X.X.X.X.X.X.X",
".X.X.X.X.X.X.X.X.XC..X.X.X.X.X.XH.1.9.z.H.x.U x.q.W z.3.! ;.3..X.X.X.X.X.X.X.X.X.X.X.X.X.X.X.X.X.X.X.X.X.X.X.X.X.X.X.X.X.X.X.X.X",
".X.X.X.X.X.X.X.X.X.X.X.X.X.X.X.Xp./ z.H.H.3.Y g.W &.7.6.8.U 5..X.X.X.X.X.X.XI..X.X.X.X.X.X.X.XI..X.X.X.X.X.X.X.X.X.X.X.X.X.X.X.X",
".X.X.X.X.X.X.X.X.X.X.X.X.X.X.XI.1.z.H.z.H.1.3.! ! x.3.x.8.U p..X.X.X.X.X.X.X.X.X.X.X.X.X.X.X.XI..X.X.X.X.X.X.X.X.X.X.X.X.X.X.X.X",
".X.X.X.X.X.X.X.X.XC..X.XI..X.Xi.2.H.z.H..X9.F 3.z./ z.x.^ 3.p.H..X.X.XH..X.X.XI..X.X.X.X.X.X.X.X.X.X.X.X.X.X.X.X.X.X.X.X.X.X.X.X",
".X.X.X.X.X.X.X.X.X.X.X.X.X.Xb.u.4.H.H.z.H.7.U z.H./ z.Q z.3.9.H..Xb..X.X.X.X.X.X.X.X.X.X.X.XI..X.X.X.X.X.X.X.X.X.X.X.X.X.X.X.X.X",
".X.X.X.X.X.X.X.X.X.X.X.X.X.X.X.X2.~ 6.x.z.6.p./ H.4.! 6.z.3.x.H..X.X.X.X.X.X.X.X.X.X.X.X.X.X.X.X.X.X.X.X.X.X.X.X.X.X.X.X.X.X.X.X",
".X.X.X.X.X.X.X.X.X.X.X.X.X.X.XH..X9.U U H.7.z.4.c.H.G r.H./ 7..X.X.X.X.X.X.X.X.X.X.X.X.X.X.X.X.X.X.X.X.X.X.X.X.X.X.X.X.X.X.X.X.X",
".X.X.X.X.X.X.X.X.X.X.X.X.X.X.X.XH.H.z.H y.9.z.p.i.9.L 8.g.7.7.H..X.X.X.X.X.X.X.X.X.X.X.X.X.X.X.X.X.X.X.X.X.X.X.X.X.X.X.X.X.X.X.X",
".X.X.X.X.X.X.X.X.X.X.X.X.X.X.X.X.XH.z.Y 7.H.z.7.H.4.8.8.9.x.1.H.H..X.X.X.X.X.X.X.X.X.X.X.X.X.X.X.X.X.X.X.X.X.X.X.X.X.X.X.X.X.X.X",
".X.X.X.X.X.X.X.X.X.X.X.X.X.X.X.XI.H.z.L 7.H.p.p.H.x.! z.@.y.~ .X.X.X.X.X.X.X.X.X.X.X.X.X.X.X.X.X.X.X.X.X.X.X.X.X.X.X.X.X.X.X.X.X",
".X.X.X.X.X.X.X.X.X.X.X.X.X.X.X.X.XH.z.U H.H.p.4.H.z.T 8.8.9./ g..X.X.X.X.X.X.X.X.X.X.X.X.X.X.X.X.X.X.X.X.X.X.X.X.X.X.X.X.X.X.X.X",
".X.X.X.X.X.X.X.X.X.X.X.X.X.X.X.X.XH./ / H.H.p.7.H.H.8.! e.3.5.7..X.X.X.X.X.X.X.X.X.X.X.X.X.X.X.X.X.X.X.X.X.X.X.X.X.X.X.X.X.X.X.X",
".X.X.X.X.X.X.X.X.X.X.X.X.X.X.X.X.XH.4.Q H.H.7.x.z.z.&.! g.1.9.3.H..X.X.X.X.X.X.X.X.X.X.X.X.X.X.X.X.X.X.X.X.X.X.X.X.X.X.X.X.X.X.X",
".X.X.X.X.X.X.X.X.X.X.X.X.X.X.X.X.X.Xz.W 2.H.p.x.z.z.K 8.z.~ z.1.H..X.X.X.X.X.X.X.X.X.X.X.X.X.X.X.X.X.X.X.X.X.X.X.X.X.X.X.X.X.X.X",
".X.X.X.X.X.X.X.X.X.X.X.X.X.X.X.XC..XH.z.7..X7.H.H.1.G x./ 6.z./ H..X.X.X.X.X.X.X.X.X.X.X.X.X.X.X.X.X.X.X.X.X.X.X.X.X.X.X.X.X.X.X",
".X.X.X.X.X.X.X.X.X.X.X.X.X.X.X.X.XH.H..X.XH..XH.z.J 6.H.~ z.9.4..X.X.X.X.X.X.X.X.X.X.X.X.X.X.X.X.X.X.X.X.X.X.X.X.X.X.X.X.X.X.X.X",
".X.X.X.X.X.X.X.X.X.X.X.X.X.X.X.X.X.X.Xc.H..X.XC.H.Q x.H.1.H.g.p..X.X.X.X.X.X.X.X.X.X.X.X.X.X.X.X.X.X.X.X.X.X.X.X.X.X.X.X.X.X.X.X",
".X.X.X.X.X.X.X.X.X.X.X.X.X.X.X.X.X.X.X.X.X.XC..XH.1.p.H.p.H.H.H..X.X.X.X.X.X.X.X.X.X.X.X.X.X.X.X.X.X.X.X.X.X.X.X.X.X.X.X.X.X.X.X",
".X.X.X.X.X.X.X.X.X.X.X.X.X.X.X.X.XI..Xb..X.XI..Xx.2.H..X.X.XH..X.X.X.X.X.X.X.X.X.X.X.X.X.X.X.X.X.X.X.X.X.X.X.X.X.X.X.X.X.X.X.X.X",
".X.X.X.X.X.X.X.X.X.X.X.X.X.X.X.X.X.X.Xb..X.X.X.Xp.g..XH.I..X.X.X.X.X.X.X.X.X.X.X.X.X.X.X.X.X.X.X.X.X.X.X.X.X.X.X.X.X.X.X.X.X.X.X",
".X.X.X.X.X.X.X.X.X.X.X.X.X.X.X.X.X.Xb.b.b.b.I..X.X.X.X.X.XI..XC..X.X.X.X.X.X.X.X.X.X.X.X.X.X.X.X.X.X.X.X.X.X.X.X.X.X.X.X.X.X.X.X"
};
