/* XPM */
static char *aa78f602f3084c9c8cd5dc705b834e38Br6WTVFH8EVCz1Cy[] = {
/* columns rows colors chars-per-pixel */
"64 64 183 2 ",
"   c #71B6D5",
".  c #74B9D2",
"X  c #7BBCD5",
"o  c #7CBEDB",
"O  c #7DBFE1",
"+  c #7FC0D6",
"@  c #7DC1DC",
"#  c #7EC2E1",
"$  c #83B6C7",
"%  c #88B7C7",
"&  c #82B7CA",
"*  c #82BACD",
"=  c #8DBBCB",
"-  c #92BCCD",
";  c #84BCD3",
":  c #8ABDD2",
">  c #82BED8",
",  c #95BFD5",
"<  c #9EBFD0",
"1  c #90BFD9",
"2  c #A5B9C0",
"3  c #81C3DD",
"4  c #81C9DF",
"5  c #8FC9DD",
"6  c #95C2D4",
"7  c #9DC3D0",
"8  c #96C5DA",
"9  c #94C9DE",
"0  c #9BCADB",
"q  c #ADC8CF",
"w  c #A4C5D4",
"e  c #A1C8D7",
"r  c #AFCAD5",
"t  c #A8CDDD",
"y  c #B9D4DD",
"u  c #82C4E1",
"i  c #8ACAE4",
"p  c #87C9E9",
"a  c #8BCDEA",
"s  c #95CAE5",
"d  c #9CCEE3",
"f  c #99CCE9",
"g  c #8DD0EA",
"h  c #97D1E5",
"j  c #9CD0E6",
"k  c #94D3ED",
"l  c #9AD5EC",
"z  c #95D8EB",
"x  c #95D5F2",
"c  c #99D6F1",
"v  c #97D8F4",
"b  c #9BD9F2",
"n  c #9CD9F8",
"m  c #A3CDE3",
"M  c #ACCFE3",
"N  c #AFD7E3",
"B  c #BDDEE7",
"V  c #BBDCEA",
"C  c #A1DBF3",
"Z  c #BDE2F3",
"A  c #C1D0D7",
"S  c #C4D5DB",
"D  c #CAD7DC",
"F  c #C9D8DF",
"G  c #D4DBDE",
"H  c #C3DBE3",
"J  c #CCDBE2",
"K  c #C2DDEB",
"L  c #D2DEE2",
"P  c #DADEE7",
"I  c #CEE0E4",
"U  c #C7E2ED",
"Y  c #CBE4EC",
"T  c #D4E2E4",
"R  c #DAE2E5",
"E  c #D5E5EB",
"W  c #DCE6EA",
"Q  c #D3E8EB",
"!  c #DCE9ED",
"~  c #C1E5F5",
"^  c #C8E5F5",
"/  c #CBE5F1",
"(  c #C8E8F3",
")  c #CAEAF5",
"_  c #CDE9F4",
"`  c #C1E6F9",
"'  c #C3EDFD",
"]  c #CCE9F9",
"[  c #D5E7F1",
"{  c #D7EBF2",
"}  c #D3EBF2",
"|  c #DBECF3",
" . c #C6F0FE",
".. c #CFF0F9",
"X. c #CEF0FA",
"o. c #CEF2FE",
"O. c #DEF0F7",
"+. c #D7F2FB",
"@. c #D8F0FA",
"#. c #DCF3FB",
"$. c #DDF1FC",
"%. c #DCF7FF",
"&. c #DDF7FF",
"*. c #D7FBFF",
"=. c #D6FAFF",
"-. c #DCFAFF",
";. c #DCFCFF",
":. c #DFFFFF",
">. c #E1E5E9",
",. c #E3EBEE",
"<. c #E9ECEE",
"1. c #E3EDF2",
"2. c #EAEEF1",
"3. c #E5EFF8",
"4. c #E5F1F5",
"5. c #EBF3F5",
"6. c #E2F5FC",
"7. c #E3F3FB",
"8. c #ECF6FB",
"9. c #E1FCFF",
"0. c #E4FCFF",
"q. c #E4FFFF",
"w. c #EBFCFF",
"e. c #EDFFFF",
"r. c #EFFFFF",
"t. c #ECFCFF",
"y. c #F1F4F6",
"u. c #F3F6FA",
"i. c azure",
"p. c #F1FFFF",
"a. c #F2FFFF",
"s. c #F2FEFF",
"d. c #F7FFFD",
"f. c #F4FFFF",
"g. c #F5FFFF",
"h. c #F7FFFF",
"j. c #F4FDFE",
"k. c #FBFDFA",
"l. c #FAFFFB",
"z. c #FCFEF9",
"x. c #FEFFF9",
"c. c #FDFDFB",
"v. c #FDFFFB",
"b. c #FEFFFA",
"n. c #FFFFFA",
"m. c #FEFFFB",
"M. c #FFFFFB",
"N. c #FDFBFE",
"B. c #FFFBFF",
"V. c #FBFFFD",
"C. c #FBFFFC",
"Z. c #F9FEFF",
"A. c #F8FFFF",
"S. c #F9FFFF",
"D. c #FBFFFE",
"F. c #FAFEFF",
"G. c #FBFEFF",
"H. c #FAFFFF",
"J. c #FBFFFF",
"K. c #FDFDFD",
"L. c #FEFCFD",
"P. c #FDFFFC",
"I. c #FCFFFD",
"U. c #FCFEFD",
"Y. c #FEFEFC",
"T. c #FFFEFC",
"R. c #FFFEFD",
"E. c #FEFFFD",
"W. c #FFFFFD",
"Q. c #FCFCFE",
"!. c #FDFDFF",
"~. c #FFFDFE",
"^. c #FFFCFF",
"/. c #FFFDFF",
"(. c #FDFFFE",
"). c #FDFEFF",
"_. c #FCFFFF",
"`. c #FEFEFE",
"'. c #FEFEFF",
"]. c #FFFEFF",
"[. c #FEFFFF",
"{. c white",
"}. c #FEFFFF",
/* pixels */
"{.{.{.{.{.{.{.{.{.{.{.{.{.{.{.{.{.{.{.{.{.{.{.{.{.{.{.{.{.{.{.{.{.{.{.{.{.{.{.{.{.{.{.{.{.{.{.{.{.{.{.{.{.{.{.{.{.{.{.{.{.{.{.{.",
"{.{.{.{.{.{.{.{.{.{.{.{.{.{.{.{.{.{.{.{.{.{.{.{.{.{.{.{.{.{.{.{.{.{.{.{.{.{.{.{.{.{.{.{.{.{.{.{.{.{.{.{.{.{.{.{.{.{.{.{.{.{.{.{.",
"{.{.{.{.{.{.{.{.{.{.{.{.{.{.{.{.{.{.{.{.{.{.{.{.{.{.{.{.{.{.{.{.{.{.{.{.{.{.{.{.{.{.{.{.{.{.{.{.{.{.{.{.{.{.{.{.{.{.{.{.{.{.{.{.",
"{.{.{.{.{.{.{.{.{.{.{.{.{.{.{.{.{.{.{.{.{.{.{.{.{.{.{.{.{.{.{.{.{.{.{.{.{.{.{.{.{.{.{.{.{.{.{.{.{.{.{.{.{.{.{.{.{.{.{.{.{.{.{.{.",
"{.{.{.{.{.{.{.{.{.{.{.{.{.{.{.{.{.{.{.{.{.{.{.{.{.{.{.{.{.{.{.{.{.{.{.{.{.{.{.{.{.{.{.{.{.{.{.{.{.{.{.{.{.{.{.{.{.{.{.{.{.{.{.{.",
"{.{.{.{.{.{.{.{.{.{.{.{.{.{.{.{.{.V.{.{.{.{.{.{.{.{.{.{.{.{.{.{.{.{.{.{.{.{.{.{.{.{.{.{.{.{.{.{.{.{.{.{.{.{.{.{.{.{.{.{.{.{.{.{.",
"{.{.{.{.{.{.{.{.{.{.{.{.{.{.{.{.{.m.{.{.{.{.{.{.{.{.{.{.{.{.m.m.{.{.{.{.{.{.{.{.{.{.{.{.{.{.{.{.{.{.{.{.{.{.{.{.{.{.{.{.{.{.{.{.",
"{.{.{.{.{.{.{.{.{.{.{.{.{.{.{.{.{.{.{.{.{.{.{.{.{.{.{.{.{.m.m.m.{.{.{.{.{.{.{.{.{.{.{.{.{.{.{.{.{.{.{.{.{.{.{.{.{.{.{.{.{.{.{.{.",
"{.{.{.{.{.{.{.{.{.{.{.{.{.{.{.{.{.{.{.{.{.{.{.{.{.{.{.{.{.{.m.m.{.{.{.{.{.{.{.{.{.{.{.{.{.{.{.{.{.{.{.{.{.{.{.{.{.{.{.{.{.{.{.{.",
"{.{.{.{.{.{.{.{.{.{.{.{.{.{.{.{.N.{.{.{.{.{.{.{.{.{.{.{.{.{.V.l.{.{.{.{.{.{.{.{.{.{.{.{.{.{.{.{.{.{.{.{.{.{.{.{.{.{.{.{.{.{.{.{.",
"{.{.{.{.{.{.{.{.{.{.{.{.{.{.{.{.{.{.{.{.{.{.l.{.{.{.N.{.{.{.{.{.{.{.{.{.{.{.{.{.{.{.{.{.{.{.{.{.{.{.{.{.{.{.{.{.{.{.{.{.{.{.{.{.",
"{.{.{.{.{.{.{.{.{.{.{.{.{.{.{.{.{.{.{.{.l.m.m.m.{.{.{.{.{.{.{.{.{.{.{.{.{.{.{.{.{.{.{.{.{.{.{.{.{.{.{.{.{.{.{.{.{.{.{.{.{.{.{.{.",
"{.{.{.{.{.{.{.{.{.{.{.{.{.{.{.{.{.m.m.m.m.m.m.{.{.{.V.V.{.{.{.{.{.{.{.{.{.{.{.{.{.{.{.{.{.{.{.{.{.{.{.{.{.{.{.{.{.{.{.{.{.{.{.{.",
"{.{.{.{.{.{.{.{.{.{.{.{.{.{.{.{.{.m.m.m.{.{.V.h.h.h.h.h.h.V.{.{.{.{.{.{.{.{.{.{.{.{.{.{.{.{.{.{.{.{.{.{.{.{.{.{.{.{.{.{.{.{.{.{.",
"{.{.{.{.{.{.{.{.{.{.{.{.{.{.{.{.m.{.{.{.V.h.e.0.;.*.o.) @.e.h.V.{.{.{.{.{.{.{.{.{.{.{.{.{.{.{.{.{.{.{.{.{.{.{.{.{.{.{.{.{.{.{.{.",
"{.{.{.{.{.{.{.{.{.{.{.{.{.{.{.{.{.{.V.h.p.K < - : : : = - w / p.h.V.{.{.{.{.{.{.{.{.{.{.{.{.{.{.{.{.{.{.{.{.{.{.{.{.{.{.{.{.{.{.",
"{.{.{.{.{.{.{.{.{.{.{.{.{.{.{.{.{.V.p.-.0 & > 3 X 3 i i h f 1 m %.p.V.{.m.m.{.{.{.{.{.{.{.{.{.{.{.{.{.{.{.{.{.{.{.{.{.{.{.{.{.{.",
"{.{.{.{.{.{.{.{.{.{.{.{.{.{.{.{.V.p...= ; 3 @ @ 3 @ @ @ @ i n s , ^ p.{.m.m.m.{.{.{.{.{.{.{.{.{.{.{.{.{.{.{.{.{.{.{.{.{.{.{.{.{.",
"{.{.{.{.{.{.{.{.{.{.{.{.{.{.{.V.e.( = : > o @ @ o @ @ 3 @ o k b h % / h.h.m.{.{.{.{.{.{.{.{.{.{.{.{.{.{.{.{.{.{.{.{.{.{.{.{.{.{.",
"{.{.{.{.{.{.{.{.{.{.{.{.{.{.{.h...% : > 3 u 3 @ 3 X . @ @ o X 3 z h = 9.h.l.{.{.{.{.{.{.{.{.{.{.{.{.{.{.{.{.{.{.{.{.{.{.{.{.{.{.",
"{.{.{.{.{.{.{.{.{.{.{.{.{.{.{.e.6 ; 3 @ o @ o 3 3 3 @ @ @ @ . @ 4 b ; Z p.{.{.{.{.{.{.{.{.{.{.{.{.{.{.{.{.{.{.{.{.{.{.{.{.{.{.{.",
"{.{.{.{.{.{.{.{.{.{.{.{.{.V.V.@.& @ @ @ u X . 3 3 X @ @ @ @ @ @ @ g i , p.V.{.{.{.{.{.{.{.{.{.{.{.{.{.{.{.{.{.{.{.{.{.{.{.{.{.{.",
"{.{.{.{.{.{.{.{.{.{.{.{.{.V.V.Y * @ # o o @ @ o @ 3 @ o # @ @ @ @ i x : $.V.{.{.{.{.{.{.{.{.{.{.{.{.{.{.{.{.{.{.{.{.{.{.{.{.{.{.",
"{.{.{.{.{.{.{.{.{.{.{.V.{.h.V.H & @ @ u @ @ o 3 @ .   # # # @ @ o u x ; / V.V.{.{.{.{.{.{.{.{.{.{.{.{.{.{.{.{.{.{.{.{.{.{.{.{.{.",
"{.{.{.{.{.{.{.{.{.{.{.{.V.V.V.B * @ o @ @ 3 @ @ @ o o O # @ @ @ X X a ; Y V.h.V.{.{.{.{.{.{.{.{.{.{.{.{.{.{.{.{.{.{.{.{.{.{.{.{.",
"{.{.{.{.{.{.{.{.{.{.{.{.{.V.V.H & u o @ @ o o @ 3 u p p u o @ 3 @ o a : Y V.V.V.{.{.{.{.{.{.{.{.{.{.{.{.{.{.{.{.{.{.{.{.{.{.{.{.",
"{.{.{.{.{.{.{.{.{.{.{.{.{.V.V.Q $ 3 o @ o @ i k x x x v x h 3 X @ @ a : } V.{.{.{.{.{.{.{.{.{.{.{.{.{.{.{.{.{.{.{.{.{.{.{.{.{.{.",
"{.{.{.{.{.{.{.{.{.{.{.{.{.V.{.6.= + o 3 p x x k c x x x x k h i @ X 3 6 w.{.{.{.{.{.{.{.{.{.{.{.{.{.{.{.{.{.{.{.{.{.{.{.{.{.{.{.",
"{.{.{.{.{.{.{.{.{.{.{.{.{.{.{.p.0 X i k x v x c c c x x x k l k i @ * N h.{.{.{.{.{.{.{.{.{.{.{.{.{.{.{.{.{.{.{.{.{.{.{.{.{.{.{.",
"{.{.{.{.{.{.{.{.{.{.{.{.{.{.{.h.' 5 k v x x k k k l x x x k k k x h 8 *.h.{.{.{.{.{.{.{.{.{.{.{.{.{.{.{.{.{.{.{.{.{.{.{.{.{.{.{.",
"{.{.{.{.{.{.{.{.{.{.{.{.{.{.{.h.~ 9 C k k x b c k k x x x x x b v b 0 ;.h.V.{.{.{.{.{.{.{.{.{.{.{.{.{.{.{.{.{.{.{.{.{.{.{.{.{.{.",
"{.{.{.{.{.{.{.{.{.{.{.{.{.{.{.V.U 6 j h j 9 h l l h h k b c l f s m 7 } h.V.{.{.{.{.{.{.{.{.{.{.{.{.{.{.{.{.{.{.{.{.{.{.{.{.{.{.",
"{.{.{.{.{.{.{.{.{.{.{.{.{.{.{.{.h.H t e %.] 6 d 8 0 d 8 0 0 6 M ] r H p.V.{.{.{.{.{.{.{.{.{.{.{.{.{.{.{.{.{.{.{.{.{.{.{.{.{.{.{.",
"{.{.{.{.{.{.{.{.{.{.{.{.{.{.{.{.V.h.w.H t.p.V  .0.V ` Z *.B K e.p.4.L V.V.{.{.{.{.{.{.{.{.{.{.{.{.{.{.{.{.{.{.{.{.{.{.{.{.{.{.{.",
"{.{.{.{.{.{.{.{.{.{.{.{.{.{.{.{.{.h.h.E ,.V.} U w.Y / _ e.Q 6.h.h.e.D V.V.V.{.{.{.{.{.{.{.{.{.{.{.{.{.{.{.{.{.{.{.{.{.{.{.{.{.{.",
"{.{.{.{.{.{.{.{.{.{.{.{.{.{.{.{.{.V.V.,.,.V.w.A p.{ Q | h.T 4.h.p.w.G V.{.{.{.{.{.{.{.{.{.{.{.{.{.{.{.{.{.{.{.{.{.{.{.{.{.{.{.{.",
"{.{.{.{.{.{.{.{.{.{.{.{.{.{.{.{.V.{.V.,.5.V.h.S w.7.E | p.L u.V.h.8.E V.V.{.{.{.{.{.{.{.{.{.{.{.{.{.{.{.{.{.{.{.{.{.{.{.{.{.{.{.",
"{.{.{.{.{.{.{.{.{.{.{.{.{.{.{.{.{.V.V.1.u.h.h.J 8.1.E w.s.T V.h.V.1.W V.V.{.{.{.{.{.{.{.{.{.{.{.{.{.{.{.{.{.{.{.{.{.{.{.{.{.{.{.",
"{.{.{.{.{.{.{.{.{.{.{.{.{.{.{.{.V.V.V.W V.V.h.E s.! 3.8.,.8.V.V.V.R 5.V.{.{.{.{.{.{.{.{.{.{.{.{.{.{.{.{.{.{.{.{.{.{.{.{.{.{.{.{.",
"{.{.{.{.{.{.{.{.{.{.{.{.{.{.{.{.{.V.j.,.{.V.h.E s.1.8.4.1.h.V.{.h.G V.V.{.{.{.{.{.{.{.{.{.{.{.{.{.{.{.{.{.{.{.{.{.{.{.{.{.{.{.{.",
"{.{.{.{.{.{.{.{.{.{.{.{.{.{.{.{.{.{.5.5.{.{.p.E s.,.{.P ! h.V.{.G 5.V.{.{.{.{.{.{.{.{.{.{.{.{.{.{.{.{.{.{.{.{.{.{.{.{.{.{.{.{.{.",
"{.{.{.{.{.{.{.{.{.{.{.{.{.{.{.{.{.V.<.Q.{.{.1.3.s.2.{.1.L p.V.R <.j.{.{.{.{.{.{.{.{.{.{.{.{.{.{.{.{.{.{.{.{.{.{.{.{.{.{.{.{.{.{.",
"{.{.{.{.{.{.{.{.{.{.{.{.{.{.{.{.{.V.<.{.V.h.R h.8.8.V.p.A e.5.2.j.{.{.{.{.{.{.{.{.{.{.{.{.{.{.{.{.{.{.{.{.{.{.{.{.{.{.{.{.{.{.{.",
"{.{.{.{.{.{.{.{.{.{.{.{.{.{.{.{.V.,.k.{.h.,.,.h.3.8.V.4.| ! ,.V.{.{.{.{.{.{.{.{.{.{.{.{.{.{.{.{.{.{.{.{.{.{.{.{.{.{.{.{.{.{.{.{.",
"{.{.{.{.{.{.{.{.{.{.{.{.{.{.{.{.5.1.{.V.V.W s.h.P h.V.,.t.| 5.V.V.{.{.{.{.{.{.{.{.{.{.{.{.{.{.{.{.{.{.{.{.{.{.{.{.{.{.{.{.{.{.{.",
"{.{.{.{.{.{.{.{.{.{.{.{.{.{.{.{.<.V.Q.V.V.T t.4.W V.p.,.h.1.5.{.{.{.{.{.{.{.{.{.{.{.{.{.{.{.{.{.{.{.{.{.{.{.{.{.{.{.{.{.{.{.{.{.",
"{.{.{.{.{.{.{.{.{.{.{.{.{.{.{.u.5.V.V.{.V.L T E V.V.R e.h.1.5.V.{.{.{.{.{.{.{.{.{.{.{.{.{.{.{.{.{.{.{.{.{.{.{.{.{.{.{.{.{.{.{.{.",
"{.{.{.{.{.{.{.{.{.{.{.{.{.{.{.y.5.V.V.V.V.4.2 e.V.j.! h.E s.8.V.{.{.{.{.{.{.{.{.{.{.{.{.{.{.{.{.{.{.{.{.{.{.{.{.{.{.{.{.{.{.{.{.",
"{.{.{.{.{.{.{.{.{.{.{.{.{.{.{.V.W 8.h.V.V.8.q H h.8.4.4.W V.5.h.{.{.{.{.{.{.{.{.{.{.{.{.{.{.{.{.{.{.{.{.{.{.{.{.{.{.{.{.{.{.{.{.",
"{.{.{.{.{.{.{.{.{.{.{.{.{.{.{.{.j.5.T s.V.W +.y t.V.J E V.{.1.8.{.{.{.{.{.{.{.{.{.{.{.{.{.{.{.{.{.{.{.{.{.{.{.{.{.{.{.{.{.{.{.{.",
"{.{.{.{.{.{.{.{.{.{.{.{.{.{.{.{.{.V.p.L V.8.{ } ! V.I E V.V.8.,.V.{.{.{.{.{.{.{.{.{.{.{.{.{.{.{.{.{.{.{.{.{.{.{.{.{.{.{.{.{.{.{.",
"{.{.{.{.{.{.{.{.{.{.{.{.{.{.{.{.{.V.h.! u.h.[ O.1.V.I p.,.{.h.E V.{.{.{.{.{.{.{.{.{.{.{.{.{.{.{.{.{.{.{.{.{.{.{.{.{.{.{.{.{.{.{.",
"{.{.{.{.{.{.{.{.{.{.{.{.{.{.{.{.{.{.h.W j.V.7.S s.h.J p.5.5.h.W j.{.{.{.{.{.{.{.{.{.{.{.{.{.{.{.{.{.{.{.{.{.{.{.{.{.{.{.{.{.{.{.",
"{.{.{.{.{.{.{.{.{.{.{.{.{.{.{.{.{.{.8.1.{.V.e.D V.V.F p.V.1.V.5.2.{.{.{.{.{.{.{.{.{.{.{.{.{.{.{.{.{.{.{.{.{.{.{.{.{.{.{.{.{.{.{.",
"{.{.{.{.{.{.{.{.{.{.{.{.{.{.{.{.{.{.j.W {.h.1.L V.V.F O.h.,.h.8.>.V.V.{.{.{.{.{.{.{.{.{.{.{.{.{.{.{.{.{.{.{.{.{.{.{.{.{.{.{.{.{.",
"{.{.{.{.{.{.{.{.{.{.{.{.{.{.{.{.{.{.V.,.u.V.E 1.V.V.| T h.T p.s.R {.V.V.{.{.{.{.{.{.{.{.{.{.{.{.{.{.{.{.{.{.{.{.{.{.{.{.{.{.{.{.",
"{.{.{.{.{.{.{.{.{.{.{.{.{.{.{.{.{.{.{.{.2.5.5.8.j.V.1.| p.L V.G y.V.{.{.{.{.{.{.{.{.{.{.{.{.{.{.{.{.{.{.{.{.{.{.{.{.{.{.{.{.{.{.",
"{.{.{.{.{.{.{.{.{.{.{.{.{.{.{.{.{.m.{.V.V.2.4.5.V.V.E e.1.5.4.5.V.{.{.{.{.{.{.{.{.{.{.{.{.{.{.{.{.{.{.{.{.{.{.{.{.{.{.{.{.{.{.{.",
"{.{.{.{.{.{.{.{.{.{.{.{.{.{.{.{.{.{.V.{.V.V.5.h.h.V.E p.E h.s.V.{.{.{.{.{.{.{.{.{.{.{.{.{.{.{.{.{.{.{.{.{.{.{.{.{.{.{.{.{.{.{.{.",
"{.{.{.{.{.{.{.{.{.{.{.{.{.{.{.{.{.{.V.{.{.{.{.{.V.4.1.8.5.V.1.u.{.{.{.{.{.{.{.{.{.{.{.{.{.{.{.{.{.{.{.{.{.{.{.{.{.{.{.{.{.{.{.{.",
"{.{.{.{.{.{.{.{.{.{.{.{.{.{.{.{.{.{.{.m.{.{.{.V.V.R s.u.y.{.V.u.{.{.{.{.{.{.{.{.{.{.{.{.{.{.{.{.{.{.{.{.{.{.{.{.{.{.{.{.{.{.{.{.",
"{.{.{.{.{.{.{.{.{.{.{.{.{.{.{.{.V.{.{.{.{.{.{.{.h.R V.{.2.Q.{.V.{.{.{.{.{.{.{.{.{.{.{.{.{.{.{.{.{.{.{.{.{.{.{.{.{.{.{.{.{.{.{.{.",
"{.{.{.{.{.{.{.{.{.{.{.{.{.{.{.{.V.{.{.m.m.{.{.{.>.j.{.{.V.V.{.{.{.{.{.{.{.{.{.{.{.{.{.{.{.{.{.{.{.{.{.{.{.{.{.{.{.{.{.{.{.{.{.{.",
"{.{.{.{.{.{.{.{.{.{.{.{.{.{.{.{.V.{.{.m.m.{.{.u.u.V.{.{.{.{.{.{.{.{.{.{.{.{.{.{.{.{.{.{.{.{.{.{.{.{.{.{.{.{.{.{.{.{.{.{.{.{.{.{."
};
