/* XPM */
static char *da9da3ff1ffe44d5bbc96cd08cbdf9a7rCZYUpXx7BfuidYZ[] = {
/* columns rows colors chars-per-pixel */
"64 45 233 2 ",
"   c #010101",
".  c #060B0A",
"X  c #0A0B0B",
"o  c #0E0F10",
"O  c #051514",
"+  c #151718",
"@  c #171F20",
"#  c #032F2B",
"$  c #1C2324",
"%  c #043935",
"&  c #222A2B",
"*  c #222E31",
"=  c #2A3537",
"-  c #1D4435",
";  c #2F4C3A",
":  c #48593E",
">  c #323F41",
",  c #114946",
"<  c #19574B",
"1  c #144F52",
"2  c #175A56",
"3  c #274C43",
"4  c #394748",
"5  c #295747",
"6  c #2C5D4B",
"7  c #365844",
"8  c #255B59",
"9  c #395D54",
"0  c #17624A",
"q  c #0A6759",
"w  c #196758",
"e  c #2B634B",
"r  c #37634B",
"t  c #2B6955",
"y  c #366955",
"u  c #27785C",
"i  c #347458",
"p  c #195C60",
"a  c #0B6863",
"s  c #176965",
"d  c #177868",
"f  c #0A7A74",
"g  c #107871",
"h  c #2A6968",
"j  c #3A6B66",
"k  c #2A7966",
"l  c #367B68",
"z  c #2F6F72",
"x  c #3A6F72",
"c  c #277A7A",
"v  c #367978",
"b  c #424B4D",
"n  c #455C43",
"m  c #475B46",
"M  c #535947",
"N  c #404F52",
"B  c #495A57",
"V  c #555C51",
"C  c #5C5D54",
"Z  c #496649",
"A  c #596748",
"S  c #556D49",
"D  c #5C704E",
"F  c #496959",
"G  c #586656",
"H  c #5B6D5C",
"J  c #4A7857",
"K  c #567458",
"L  c #61704B",
"P  c #65695B",
"I  c #667756",
"U  c #62715E",
"Y  c #4F5D60",
"T  c #535F62",
"R  c #416769",
"E  c #54696A",
"W  c #447665",
"Q  c #427B64",
"!  c #4C7A64",
"~  c #547B65",
"^  c #597866",
"/  c #506D70",
"(  c #487676",
")  c #597778",
"_  c #646B63",
"`  c #6A6C63",
"'  c #657463",
"]  c #6B7364",
"[  c #6C7A65",
"{  c #667969",
"}  c #727465",
"|  c #73796C",
" . c #687A79",
".. c #777A73",
"X. c #17866C",
"o. c #108F79",
"O. c #199577",
"+. c #35836B",
"@. c #3B8269",
"#. c #27926E",
"$. c #268479",
"%. c #398974",
"&. c #379477",
"*. c #2CA47B",
"=. c #4A845D",
"-. c #56825D",
";. c #65845B",
":. c #46846B",
">. c #57856A",
",. c #5B996B",
"<. c #488876",
"1. c #548B76",
"2. c #469475",
"3. c #4C9474",
"4. c #688577",
"5. c #698F73",
"6. c #78847A",
"7. c #47A579",
"8. c #67A874",
"9. c #80847D",
"0. c #3B7F81",
"q. c #0C8A88",
"w. c #198585",
"e. c #12928A",
"r. c #2D8789",
"t. c #319388",
"y. c #259899",
"u. c #36989B",
"i. c #1DA089",
"p. c #32A891",
"a. c #2D98A2",
"s. c #2DA1A5",
"d. c #4D8C8F",
"f. c #449681",
"g. c #6B8E8A",
"h. c #798B8A",
"j. c #779799",
"k. c #409FA4",
"l. c #5A9CA4",
"z. c #6D9EA6",
"x. c #769EA4",
"c. c #48A6A8",
"v. c #5BABAE",
"b. c #51AFB2",
"n. c #67A5A9",
"m. c #76A5A9",
"M. c #7DA4AA",
"N. c #7CA9AE",
"B. c #7CAEB2",
"V. c #67B6B8",
"C. c #7AB7BA",
"Z. c #7CC2C4",
"A. c #878C87",
"S. c #89988E",
"D. c #879998",
"F. c #919796",
"G. c #82A299",
"H. c #879FA1",
"J. c #81A6AD",
"K. c #8CA6A8",
"L. c #82A9AE",
"P. c #97A4A3",
"I. c #95ABAC",
"U. c #85ABB2",
"Y. c #8BAEB4",
"T. c #92AFB3",
"R. c #85B2B5",
"E. c #8EB1B6",
"W. c #83B6BA",
"Q. c #8DB3B8",
"!. c #91B1B7",
"~. c #9CB4B7",
"^. c #93B4BA",
"/. c #99B6BC",
"(. c #97BABE",
"). c #9BBABE",
"_. c #A4ACAB",
"`. c #A7B1AE",
"'. c #A3B4B4",
"]. c #A8B7B8",
"[. c #A3BABE",
"{. c #ABBBBC",
"}. c #B1BBBD",
"|. c #B8C0BE",
" X c #94BDC2",
".X c #9DBCC1",
"XX c #A1BEC3",
"oX c #A9BBC0",
"OX c #B2BEC1",
"+X c #8BC8C9",
"@X c #9CC3C5",
"#X c #99C6C9",
"$X c #A4C1C6",
"%X c #AAC2C6",
"&X c #A5C4C9",
"*X c #ABC6CA",
"=X c #A3CBCC",
"-X c #ADC9CD",
";X c #B2C2C4",
":X c #BBC5C5",
">X c #B1C7CB",
",X c #B3CACD",
"<X c #BBCBCD",
"1X c #ADC8D0",
"2X c #B5CDD1",
"3X c #BACED2",
"4X c #A8D1D3",
"5X c #BCD1D5",
"6X c #BDD4D9",
"7X c #C2CBCC",
"8X c #C2CED1",
"9X c #C3D3D5",
"0X c #CBD3D4",
"qX c #C3D6DA",
"wX c #CFD6D8",
"eX c #C5D9DC",
"rX c #CBDADD",
"tX c #D1D7D7",
"yX c #D2DCDD",
"uX c #C4DBE1",
"iX c #CCDDE1",
"pX c #D2DFE1",
"aX c #D9DFE1",
"sX c #CDE1E4",
"dX c #D3E2E4",
"fX c #DAE3E5",
"gX c #D3E7EB",
"hX c #D9E6E9",
"jX c #DEE9EB",
"kX c #E1E7EB",
"lX c #E2EAEB",
"zX c #E4EEF1",
"xX c #E7F2F4",
/* pixels */
"7.2.&.#.#.#.O.X.e i k u l u h s f o.#                                         O s $.$.k z l v %.%.$.r.o.i.p.2.:.3.t.&.+.%.+.@.@.",
"*.2.Z i u X.O.#.e e J J 4.G.j 0 X.e.#                                         O h <.1.x j W <.<.<.%.+.+.t.p.f.! ~ 3.%.l l l @.@.",
"#.#.e r i u #.X.u 0 i ^ S.D.J y X.o.%                                         O 9 E ^ ^ ^ ~ W 1.<.:.Q Q @.&.&.@.Q Q Q Q l l l k ",
"*.X.; r r e u X.0 u e r m B 9 t g o.%                                         . 7 4. .^ ^ H G ^ ! ! ! ! i l &.&.2.<.^ K J :.%.+.",
"7.=.=.S Z n i e 7 6 y Z 5 3 t d q a %                                         . B ).;Xh.B H { { H ~ :.! ! :.+.%.&.8.1.^ ^ ~ >.2.",
"8.8.,.-.S Z =.J Z 7 ; 3 e < w g q a #                                           E ^.~.P.6.| ' [ H ^ >.>.>.>.>.:.1.g.5.>.' ' ^ >.",
",.,.,.-.J Z r Z n ; - - < 0 q f f f %                                           h.%XD...| ] | | ] ] { { { { >.~ >.>.5.5.>.' K ^ ",
",.=.-.-.S Z : S r 7 5 t t q s o.e.e.,                                           h.gX8X`.A.` G ` } } [ U _ H I ' ] E H 5.4.{ { ' ",
"=.J K ;.K A A : 7 e 6 2 w a g w.w.u.1                                           B ,XgXgXuX|.S...P P } ..| ' { { ] U H H H _ U { ",
"=.S S ;.;.A A n 7 5 < < s g f o.y.s.1                                           4 K.sXgXsX6X2X].F...} ` ] P ' { ' ' _ ' H ' P G ",
"S S L ;.D I | F 3 , 1 2 a f q.q.s.s.1                                           N H.$XsXsXuX4X|.}.P.A...} ` } | | ] ' ] } P } P ",
"S S A D A 6.4.Z 5 8 2 s g q.s.y.a.a.p                                           4 U.I.>XgXsXuXeX<X`.P.....| C ` _ _ ` } P C C G ",
"L ;.S S m A G 9 y p a 0.w.u.b.s.a.u.h                                           4 R.K.'.rXjXxXxXhXpX}.F.A.A.9.A.6.| ` _ P C ` ` ",
"I D S : m ; V h.( h c w.y.c.Z.V.k.l.R .                                         ;  X.X'.|.<XfXzXxXxXzXfXyX7X7X}._.A.| ` C V V C ",
"L A : : Z { ~.*X( h c t.u.V.#XC.l.n./                                           = $X-X,X-X|.9XhXaXaXkXkXhXhXjXhXiXqX:X_.F.9._ V ",
"A M D S | I.=XU.z z c u.c.C.4X+Xn.B.)                                           & [.,X5X5X0XyXrX7X7X7X0XrXhXhXpXpXpXgXkXkXpXOX_.",
"L A 6.h.4.x.B.v p h r.u.v.Z.4X#XB.C.) .                                         + I.%X:X8XrXyXaXpXyX0X7X:X7X7XyXrXiXsXhXhXsXrX8X",
"} Z 7 ^ g./ 0.2 s h r.u.v.+X4X=XN.W. .                                          + H.*X;X<X8X7XyXaXaXyXtX0X7X:X].'.{.[.|.0X8XpXdX",
"I Z B ) ) R x z v v u.u.v.C.=X@XN.W.)                                       X   X h.*X%X;X%X%X9XaXkXkXkXlXaXyXwX0X:X{.`._.D.I.'.",
"A V ) g.( ( x h z r.s.c.n.Y.#X@Xm.W.)                                           X h.$X[.{.[.$X3XwXtXfXkXlXfXaXjXjXaXaX9X:X{.P.K.",
"M _ x.z.( h 8 R v u.b.v.m.R.@X XN.U.)                                       X   .  .XXXX/./.$X2X5X8XtXpXfXrXwXhXhXpXfXqX,X<X:X}.",
"} {.N.d.R R ( ) l.v.V.V.B.W.&X@XR.E./                                              .oX/.~.Y.).*X>X>X9XeXrX<X9XrXrX9XiX8X5X<X<X;X",
"7XXXz.d.E  .z.J.B.C.+XW.W. X4X-X XQ.E                                       .     T .X/.~.!.^.*X*X*X2X,X,X%X-X5X3X,X3X>X2X3XqX<X",
"6XY.j.h.D.I.XXXX(. X X#X(.&X6X5X&X^.E                                             4 ~..X^.Y..X&X$X[.$X%X%X).).>X>X%X-X[.*X3XqX9X",
"1XI.H.P.].7X5X3X$X.X@X&X.X-XeXqX1X(.E                                             = [..XT.Y..X&X.X~..XXX.X X.XXXXXXXoX.X.XoX3X3X",
"#XoX}.OXtXjXdX5X%X.X&X&X&X2XiXuXeX.XB                                       .     @ I.XXT.T./..X.X~..XXX^.Q.!..X/.).XX/..X.X>X-X",
":X7X0XaXlXlXiX5X&X^..X1X*X5XiX9X3X.XB                                             + K.*X!.Y.^.XX X^.^..XY.J.Y..X^.^. XT.^..X%X*X",
"qXyXfXkXdXrX,XXX.X!.XX-X*X5XuXXXXX.XB                                     .   .   o H.1X^.!..XXX.X!.T.^.J.x. X.X!.!.Y.U.^..X%XXX",
"9XqXiXdXrXeX-X-X.X^.XX2X2X5XuXoX.XXXY                                       .     X j.XX X.XXXXX!.!.T.^.x.M..XXX X XU.L.U..X&X/.",
"pX9XiXsX-X5XXX-XXXQ.XX2X>X6XiX%XXX1XY                                             . h.XX.XXXXXXX^.^.^.Q.M.Y.OX1X.X.XJ.U.x.^.&X!.",
"eX-X2X2X^.&X.X&XXX!.XX2X-X9XiX*X.XXXb                                         X   . h..X XXXXXXX.XT.^.!.J.XXqX3XoX XJ.U.M.^.XX^.",
">X.X.X.XY.Q.^.-XXX^.XX2X3X9XiX2X.X X>                                     X       .  ..X.XoXXXoX.XY. X!.!.9XqX2XoX.XL.U.Q..X.X^.",
"XX^.!.^.B.Y.Q.XX$X!..X-X2XqXiX3X)..X4                                               T %XXX1X1X-XXX!.Y.!.$XeXqX3XXX^.L.U.Q..X$XU.",
".XQ.^.Q.N.Y.U. X.XQ.).*X2XqXsX6XXX.X4             X                                 b XXXX-X2X2X%X X^.^.2XrXrX5X$X!.L.U.!.XX.XL.",
".X^.^.^.U.U.U..X(.E.).*X3X6XiX5X/..X>                                       .       b .XXXXX,X2XXX^..XXX5XiXrX3X%X!.U.E.^.-X.XM.",
" X^./. XJ.z.U..X.X^..X*X2X5XiX2XQ.!.=                                         .     > ~..XXX3X5X*X.X.X>XqXiXrX3X*X!.E.Q.&X,X).m.",
".X!..X^.J.x.Y..X.X.X$X&X-X2XeX%X!.!.*                                               = !.^.&X6X5XXXXX).5XqXrXqX2X-X^.Q.^.,XXXL.x.",
".X^..X^.U.N.Q.XX$X.X.X*X,X,X5X$X.XQ.*                 X       X                     * ~.^.-X2X3X1XXXXX5XeXrXqX2X*X!.E./.-XXXU.J.",
".X.XXX/.U.Y.R.$X*X.X).*X5X5XqX-X.XY.*                 X                             $ ~.XX*X2X2X>X.X*XqXeXiXqX2X&XY.!./.*X2X!.J.",
"^./.XX^.U.N.L..X$X.X.X*X6X3XrX1X!.U.*     X                   X                     + K.$X-X3X,X-X.X3XeXyXiXqX,X&XY.Q.^.2X2XQ.J.",
")..X$X.XU.M.L.$XXXXX.X%X5X6XrX2X^.J.*               X                               X H.@XXX>X2X6XXX9XrXpXiXqX,X*XE.U..X3X2X!.J.",
".X.X*X*X!.B.E.-XXXXXXX%X5X5XeX2X~.J.$             X   X   X   X .                     h.$X)..X3X3XoXqXiXiXpXqX3X$X!.Y..X2X3X%XL.",
"XX.X$X-X^.Y.Y..XXX&XXX%X3X9XiX,X!.J.@               X   X   X           .             B %X)./.-X*X*XqXrXiXiXeX2X&X^.Q.^.2X2X1XU.",
"XXXX*X*XQ.N.Y..XXX&XXX$X5X5XeX&XY.J.+           X     X   X   X .     .               b ,X$X).,X1X2XeXiXpXiXqX2X-X.X!.^.-X*XXXU.",
".X.X2X1X^.U.U..XXX&XXX%X2X5XeXXXU.M.@               X     .   .       .   X           b ,X$X).,X2X3XuXaXhXiX5X2X$X^.Q.!.%X$X.XU."
};
