/* XPM */
static char *_0434e415725435ee51219a53c1d90a8Gy75UAUD3WdKjE2O[] = {
/* columns rows colors chars-per-pixel */
"64 64 251 2 ",
"   c #0C3B29",
".  c #184E3A",
"X  c #2B4939",
"o  c #305139",
"O  c #12623D",
"+  c #415B3F",
"@  c #436B3C",
"#  c #203F41",
"$  c #175947",
"%  c #065959",
"&  c #155352",
"*  c #285D47",
"=  c #365C58",
"-  c #2F4E4C",
";  c #126646",
":  c #07685B",
">  c #196559",
",  c #187353",
"<  c #296648",
"1  c #266854",
"2  c #376B58",
"3  c #277657",
"4  c #39755A",
"5  c #366A49",
"6  c #066765",
"7  c #186A66",
"8  c #07766C",
"9  c #1D7969",
"0  c #067875",
"q  c #167875",
"w  c #1E6D71",
"e  c #276968",
"r  c #386767",
"t  c #2A7966",
"y  c #397966",
"u  c #287977",
"i  c #367875",
"p  c #286E71",
"a  c #3E5F64",
"s  c #47564A",
"d  c #4C5954",
"f  c #545B56",
"g  c #545D4D",
"h  c #486647",
"j  c #55664C",
"k  c #4C7544",
"l  c #55754B",
"z  c #466757",
"x  c #576859",
"c  c #487655",
"v  c #587359",
"b  c #626A5D",
"n  c #647658",
"m  c #486967",
"M  c #5C6B63",
"N  c #487A65",
"B  c #5A7965",
"V  c #457979",
"C  c #597877",
"Z  c #656A64",
"A  c #627C64",
"S  c #677569",
"D  c #687872",
"F  c #757B75",
"G  c #75766C",
"H  c #817D7E",
"J  c #2C815E",
"K  c #088579",
"L  c #19877A",
"P  c #2A866B",
"I  c #38856A",
"U  c #298778",
"Y  c #388775",
"T  c #38957C",
"R  c #5B8757",
"E  c #47885D",
"W  c #648C5C",
"Q  c #47856A",
"!  c #58846A",
"~  c #548871",
"^  c #599477",
"/  c #479173",
"(  c #66836C",
")  c #698674",
"_  c #77857B",
"`  c #6B9471",
"'  c #73A977",
"]  c #81817E",
"[  c #2F7C89",
"{  c #177C86",
"}  c #567A82",
"|  c #1B8884",
" . c #17968C",
".. c #0C8B87",
"X. c #298986",
"o. c #388887",
"O. c #27938A",
"+. c #399785",
"@. c #289C94",
"#. c #359994",
"$. c #328994",
"%. c #38A299",
"&. c #2DA495",
"*. c #468A8B",
"=. c #438C96",
"-. c #489898",
";. c #53979A",
":. c #4D918A",
">. c #698785",
",. c #699499",
"<. c #77989C",
"1. c #6F8B8D",
"2. c #4AA492",
"3. c #79AE95",
"4. c #5A9CA4",
"5. c #7C9CA3",
"6. c #769BA4",
"7. c #6A99A5",
"8. c #4AA8A4",
"9. c #59A8A7",
"0. c #59B3AC",
"q. c #5CB8B5",
"w. c #68A6A8",
"e. c #7DA3A5",
"r. c #7DA3A9",
"t. c #76A7AA",
"y. c #78ABB2",
"u. c #66B5B3",
"i. c #79B5B7",
"p. c #6FAFAD",
"a. c #74C1BC",
"s. c #7BAEC1",
"d. c #76C5C5",
"f. c #7ED3D0",
"g. c #889797",
"h. c #959897",
"j. c #878E89",
"k. c #98A59D",
"l. c #819EA4",
"z. c #869DAA",
"x. c #83A2A5",
"c. c #84A4AB",
"v. c #8AA6AC",
"b. c #84AAAD",
"n. c #8CAAAD",
"m. c #8BAAA5",
"M. c #98AAAA",
"N. c #84ACB2",
"B. c #8BACB2",
"V. c #89ACB8",
"C. c #92ADB4",
"Z. c #9AADB3",
"A. c #94AEB9",
"S. c #84B3B5",
"D. c #8CB2B5",
"F. c #84B5BB",
"G. c #8CB4BB",
"H. c #8BBBBC",
"J. c #85B9BC",
"K. c #94B2B5",
"L. c #9BB2B6",
"P. c #94B3BB",
"I. c #9AB5BC",
"U. c #94BABC",
"Y. c #9CBABD",
"T. c #90B8B7",
"R. c #84B2AF",
"E. c #A4B6BD",
"W. c #A3BABE",
"Q. c #A9B8BB",
"!. c #AEB4B2",
"~. c #A79F9D",
"^. c #8CC2BF",
"/. c #B2C3BE",
"(. c #8DBCC3",
"). c #85BCC3",
"_. c #9EB7C0",
"`. c #96BCC2",
"'. c #9CBCC3",
"]. c #A3BCC4",
"[. c #AABDC3",
"{. c #A5BFC8",
"}. c #A1B5C4",
"|. c #B3BEC5",
" X c #B7BFD4",
".X c #86C5C7",
"XX c #9DC1C3",
"oX c #99C6C9",
"OX c #9AD7D9",
"+X c #90CDD2",
"@X c #A4C2C5",
"#X c #ABC1C6",
"$X c #A4C3CA",
"%X c #ABC4CB",
"&X c #A4CACB",
"*X c #ACC9CC",
"=X c #B2C5CC",
"-X c #B4C9CE",
";X c #BACACE",
":X c #B9C5C7",
">X c #AEC7D0",
",X c #ADCBD2",
"<X c #A3CCD2",
"1X c #B4CCD2",
"2X c #BBCDD3",
"3X c #B6CDD7",
"4X c #A8D5D8",
"5X c #B5D2D5",
"6X c #BCD1D6",
"7X c #B5D3DA",
"8X c #BDD4DA",
"9X c #B8DBDB",
"0X c #B4D1CB",
"qX c #BDD8E1",
"wX c #ABDCE1",
"eX c #BDE4E4",
"rX c #B8E0DF",
"tX c #C1C9C9",
"yX c #C4CCD6",
"uX c #C3D3D5",
"iX c #C3D5DB",
"pX c #C9D7DA",
"aX c #C4D9DE",
"sX c #CBDBDD",
"dX c #CAD6D5",
"fX c #D1DDDD",
"gX c #D2DADB",
"hX c #C9D1CD",
"jX c #C6DCE2",
"kX c #CBDDE2",
"lX c #C7DCE7",
"zX c #D2DEE2",
"xX c #D8DCE7",
"cX c #CCE1E5",
"vX c #CDE4EA",
"bX c #C4E2E4",
"nX c #D3E2E4",
"mX c #DAE5E5",
"MX c #D3E5E9",
"NX c #DAE5EB",
"BX c #D5E9ED",
"VX c #DBEAED",
"CX c #DEE9E5",
"ZX c #DBEBF2",
"AX c #DEF1F6",
"SX c #CDE9F0",
"DX c #E3ECEA",
"FX c #E6F2EE",
"GX c #E7F4F6",
"HX c #EDF2F8",
"JX c #E2DCE8",
/* pixels */
"+.+.T T T T P 9 ; t I y 2 2 2 1 8 K .. .O.X.=.4.7.y.<.G.'.5.l.N.s.=.[ | ......q [ [ r r N I 3 J P P P U T 2.+.U 2.+.T T Y Y Y / ",
"+.T P P P P P P 3 3 1 1 y V N 1 8 K  .@.| U =.w.t.N.6.G.'.5.5.r.7.[ { { 0 0 0 q p V V m 4 1 J 2.Y Y P P T 2.+.P T T Y Y I i i i ",
"2.P , , 3 P I I 3 1 1 Q 3.3.~ $ K ..@.@.q q =.p.t.G.6.P.`.6.6.6.y.=.$.| 0 0 | X.p ,.,.z 2 Q / / / Y t P T 2.:.P Y Y I y y y y y ",
"/ J ; ; , J I I 3 1 4 ^ 3.3.~ $ K  .&.O.8 7 =.i.y.G.r.G.`.6.6.t.s.4.$.| 0 0 O.X.i :.C m ! ^ Q 4 / Y y t I / T I I I I y y y N y ",
"/ 3 O O < 3 3 4 4 < * < 2 4 4 t 8  .@.| 6 7 -.).y.G.t.G.oX6.6.t.i.;.X.q 8 K | w p = d D ) z 5 ~ N Q Q y y I I I I Q Q y y N N N ",
"Q 3 < < < < < 2 * * < * . . * t 6 K | 8 6 w ;.).y.G.t.(.oXt.t.t.i.;.X.L 8 L L > r x.m.Z s h c ! 4 Q ~ N 4 4 Q Q Q ^ ~ N N ! ! N ",
"^ E 4 c 5 < 5 c o * 2 4 1 $ $ > : 8 8 6 % u 4.i.i.(.t.(.oXw.w.w.i.w.-.O.L L U 7 V aXmXF s A ( c c B ! B N N Q Q ~ ^ ^ N N ! ( B ",
"3.` W ! c 5 h ! z 5 * < < $ > t % 6 6 % % [ w.i.F.oXy.(.oX7.,.w.i.u.0.#.L L U 7 ,.C.!.!.h.S v _ v B B B ! ! ! N ^ ` ` B B ( ( v ",
"' ` ` R h h v h v X   . 1 > > 9 : 6 % % w ;.y.y.F.G.S.(.oXi.w.p..Xa.0.%.O.O.X.*.e.W.h.F h._ x ( x v B A ( ( ! ! ! ) ` ( B v B ( ",
"` R R R h h j s z o . $ $ % : 9 q q 8 6 u ;.p.y.N.F.S.(.oXi.w.p.^.i.0.%.L L U Y <XaXh.f Z Z b j._ ) S A A A A B B ( ` _ ( v x x ",
"W k l W l h j g s - * 1 > % 6 L | O.X.q [ 4.i.i.y.V.N.`.oXi.w.y..Xa.0.%.O.L u i 4XAXyXh.H Z d x S S S b v x x x x v A ( ) ( S S ",
"W @ l ` n j g j s = = e 7 : 8 | | O.O.X.o.w.)..Xy.V.G.`.oXF.t.J.OX.Xu.8.O.L u i 7.lXHXJXtXh.M s b Z G _ _ F A A x v x x A F F F ",
"W @ k W n j g f s - * > 7 8 0 K | @.O.X.-.i.+XoXy.G.G.oX<XG.y.oX4X.Xu.8.#.X.U [ V }.ZXHXxX;XM.g.b b Z F F S S S ( B x x x M M x ",
"R @ k W n j f s - - & & 6 0 K K @.@.O.X.-.i.+X(.N.(.(.oX<XU.D.<X4Xd.0.8.%.O.X.=.} z.yXxXxXiX0X/.j.G Z Z b x x D B M M B S S x f ",
"k @ k n n b Z d - - & % 6 0 ....&.@.O.X.8.d.+X(.V.(.P.`.$XU.G.4XwXs.0.0.8.#.#.;.7.z. XZXNXuX*XW.Q.~.j.] F Z D j.M M M S D S S Z ",
"k @ l n n G F x - - & % 6 K  . .%.#.X.X.9..X+X(.V.P.A.I.'.D.P.7XwX.Xu.u.0.8.-.w.i.5.}.xXzX8X5X-X!.h.j.] F x x D _ _ D S M M S S ",
"l l v x x G _ C * & 7 7 8 O.%.#.X.o.-.o.p.(.4XG.x.P.C.{.L.x.@X7X4XoXi.w.w.p.p.p.S.b.n.#XnXAXMXuXtX!.h._ F G M f f f M D S x f f ",
"n v j j b Z m = e > 7 q q #.8.-.o.o.;.o.p.(.<XV.c.I.Z.#XW.n.-X9X9XoXR.t.t.y.S.H.D.b.n.@XjXAXGXGXDXhXM.j.F F F _ F G Z Z Z x x S ",
"v n x j x s - r i e 9 L X.8.q.9.+.-.9.*.p.H.oXb.l.L.C.#X[.L.8XbXrX&XS.e.t.S.^.oXU.T.K.W.-XkXGXHXFXDXfXtX!.M.k.k.g._ Z f d f M D ",
"h n n g s - m b.V p q X.#.q.d.u.-.;.w.:.y.J.oXc.<.C.n.W.[.W.aXbX9X&XT.b.R.H.XXXX&X&X@XW.E.;XxXHXFXHXHXHXDXgXhXtX!.h._ Z f s s s ",
"j j s + s S m.eXV p u X.-.a.f.d.;.9.p.;.y.F.oXc.5.C.n.W.#X%XcXbX8X*XXXU.U.Y.U.U.,X5X2X%X[.|.yXmXDXCXmXmXDXFXFXFXfXhXQ.M.j.D f - ",
"n + o s M M.9X4Xi p u o.-.d.+Xd.9.w.i.;.y.F.oXb.c.Y.C.[.-X6XBXcX8X5X*X&X&X@XU.D.*X1X5X2X2XyXzXxXtXtXtXdXnXCXCXmXCXDXDXmXgX:XM.j.",
"n + x D D L.5X,.e 7 U #.8.d.OX+Xw.p.i.;.y.S.oXD.B.@XK.[.-X8XBXjXaX6X2X-X1X*X].K.@X#X%X2XpXxXxXxX|.:XhXdXdXdXdXdXfXmXDXFXGXGXnX:X",
"j h g.k.D g.U.r > 7 X.-.9.d.OXOXp.y.i.;.y.S.oXG.B.@XC.W.-X6XBXuXkXuX2X2X6X2X#XY.].Y.E.=XpXNXxXzXVXmXdX:X!.Q.sXFXnXmXnXfXnXmXsX:X",
"B v X ) 1.C <.& > p X.-.u..XOXOXw.i.i.,.,.N.oXU.c.B.I.v.jXjXMXsXkXyX2XuXaX2X#XW.#X[.=X2XyXyXpXxXzXfXsXuX;X:XQ.Z.:X:XuXnXmXsXuXuX",
"_ s X 1.D - r e e u o.-.9..XOX4Xt.F.S.,.,.y.H.D.b.D.Y.n.jXjXMXsXzXiXyXaXjX6X%X#X[.[.[.-X;X;XyXgXNXmXmXnXsXpXtX:XZ.h.g.h.Z.:XnXHX",
"B z z C m m V e i o.o.-.w.).oX<Xy.(.F.7.,.N.G.b.D.P.'.C.cXjXnXsXVXkXiXaXjX8X1X-XW.E.W.[.|.|.;XuXNXVXVXZXVXNXnXkXmXuX[.Z.z.g.g.g.",
"= z ) C C <.*.e i o.-.-.w.J.oXoXr.G.N.6.<.N.G.r.U.U.@XI.BXkXnXkXZXzXaXaXaX6X2X5X].I.W.[.[.[.|.yXkXkXmXVXVXMXMXVXVXVXMXsX=XM.g.1.",
"2 z >.<.1.m & e u o.-.9.p.).`.`.5.V.N.<.<.S.G.r.U.U.@XY.ZXkXzXzXZXzXaXaX8X2X1X5X@XY.Y.[.W.E.[.2XuXuXsXMXBXkXkXVXMXMXkXiX2X2X2X-X",
"- 1.m.<.C - & p [ -.9.u.i.(.'.'.z.V.c.,.<.S.H.r.U.P.@X].AXkXkXzXNXkXaXaX8X1X1X5X&X].Y.W.W.E.[.-X;X;XiXnXnXuXiXMXZXZXnX6X=X=X#XQ.",
"z 0XK.C a a :.*.-.9.u.u.i.(.oX>XB.A.c.,.,.N.G.t.U.D.'.].AXkXkXzXNXkXkXjX8X1X1X5X&XXXY.Y.I.L.W.=X-X=X6XkXaX=X;XjX=XuXiXuX6X6X-XQ.",
"Y.bX>.C C = ,.7.w.i.i.i.y.H.$X,XA.P.c.1.,.b.S.e.U.D.Y.].AXsXkXzXMXnXkXcXaX5X5X7X%X'.Y.I.K.C.I.$X=X#X2XjX8X[.[.8XuXaXuX-X-X6XuX2X",
"aXW.<.D >.<.B.U.H.S.H.oXH.XX4X7X'.B.G.,.,.b.e.D.T.@XK.8XGXkXzXnXnXsXsXaXuX6X6X8X[.W.Y.Y.L.C.Y.*X$X$X$X%X@X}.$X7X1X,X%X$X1XqXjX8X",
"2XL.<.1.<.C.@X*XY.T.Y.XXT.XX7X7XXXB.B.,.,.b.e.D.D.Y.C.8XAXkXnXmXfXsXsXsXiXuX6X6X[.[.}.}.L.C._.%X].].$X%X].`.].,X%X<X%X$X%X9XqX8X",
"#XZ.g.l.I.-X5X5X@XY.XX@XU.&X9X9X$XG.D.,.,.b.e.D.n.Y.m.5XVXsXnXVXsXsXsXsXaXuX6X2X%X[.{.}.I.C.I.$X'.`.].$X'.I.'.%X].%X%X].].,X7X7X",
"[.L.M.L.2XjXaX5X%XY.@X@XXX,XeXeX,X`.U.,.,.b.b.D.n.Y.C.5XVXsXnXVXdXsXzXsXaXiX6X-X=X%X[.[.I.C.P.{.I.I.'.].'.P.I.$XI.].$X'.I.$X,X7X",
"=X[.[.2XnXZXcX8X#XI.].%X@X5XvXbX9X$XXX5.,.b.r.D.D.@XI.8XVXsXzXVXdXsXnXsXiXaX8X=X1X=X$X{.I.C.P.].I.I.'.].I.C.P.].C.'.'.I.P.'.%X,X",
";X;XuXnXAXGXMXjX[.L.[.-X*X8XcX9X7X$X$Xr.<.D.b.D.D.@XY.aXAXsXfXmXdXnXnXiXuXsXuX-X1X=X$X{.I.C.P.].`.I.I.I.P.B.P.].C.I.I.C.P.'.%X%X",
"uXpXnXVXZXMXaX2XW.Z.[.-X-X6XaX1X%XU.`.r.e.H.b.U.c.Y.Y.aXGXsXfXmXpXmXnXuX2XsXaX-X2X=X$X{.I.C.P.{.`.P.P.C.N.c.C.'.P.P.P.B.P.].%X$X",
"kXcXVXVXzXyX|.E.[.L.[.2X-X2X2X[.Y.D.U.e.e.U.D.U.<.U.I.aXGXsXfXmXsXmXnX2X2XaXaX1X1X=X$X{.I.C.I.$XI.P.B.N.c.l.B.'.P.P.B.B.P.$X%X].",
"aX=XBXZXkXaX=X=XE.Z.Q.;X;XuXiX%X%X<XV.<.r.D.D.D.b.b.W.cXVXzXfXVXfXnXsXiXiXjXaX2X2X=X[.I._.].].{.I.B.P.C.<.5.I.$XI.I.C.v.B.'.].'.",
"cX2XZXBXuXuX=X=XE.Z.W.;X;XuXiX=X@X$XB.<.b.G.D.D.D.D.#XcXVXkXsXmXfXnXsXiXiXjXaX2X2X=X{.I._.].].].I.C.I.P.l.v.$X,XI.I.B.c.N.`.].'.",
"vX1XcXaX%X=X[.#XW.Z.W.-X-XuXpX=XY.'.N.5.D.U.D.U.U.Y.-XvXVXsXpXzXsXnXsXiXaXjXaX2X8X1X{.}._.].].].`.C.I.I.v.I.3X7X'.P.v.l.v.I.'.I.",
"bX@X5X*XK.Y.I.@XW.Z.W.-X-XuXaX1XP.U.b.r.U.U.D.U.T.XX5XBXBXkXsXnXsXfXkXpXaXjXaX2XuX2X{.}.}.].].{.I.C.P.P.A.%XqX8X].I.v.l.v.I.'.I.",
"7XT.&XY.v.K.I.@X].C.W.-X-XuXkX2XK.U.b.b.U.U.R.T.D.XX8XvXBXnXfXmXsXfXkXsXsXjXiX1XuX2X$X[.].{.$X$XI.B.C.P.I.7XbX7X$X`.N.x.B.'.].I.",
"<XD.XXU.b.U.Y.*X].K.W.-X-XiXkX2XI.I.b.N.U.H.b.D.n.^.8XvXMXnXnXmXsXsXkXsXsXkXiX-X8X1X$X{.{.$X%X>X'.C.C.C.I.qXvX1X$X`.B.c.P.].].P.",
"&Xb.XXU.b.T.T.@X].K.Y.*X-XaXcX8X'.`.N.N.U.D.e.D.b.XX8XvXcXzXzXmXpXsXkXsXkXkXuX-X8X1X$X{.{.%X,X,X$XP.A.C.'.bXSX>X].I.N.v.P.$X'.B.",
"XXe.U.D.x.D.n.U.@XK.'.*X1XaXcX8X&X`.B.N.U.B.e.D.v.@XaXcXkXsXfXzXpXsXkXsXjXkXuX-X2X-X$X{.$X>X1X1X%XI.P.K.].cXSX$X'.P.v.c.P.].I.c.",
"XXU.D.D.B.b.C.'.I.B.I.%X1XjXcX8X<XU.B.V.B.B.C.K.n.2XaXsXnXnXsXnXnXdXnXsXsXMX2XuXuX-X1X[.I.%X8X1X[.L.Z.[.iXvXjX3X[.I.v.x.I.%XY.x.",
"`.P.P.D.N.x.B.'.'.C.}.1X3XjXcX8X'.G.N.G.P.K.n.n.C.2XaXsXnXnXsXnXnXdXnXsXjXMX2XuXuX-X%X{.A.$X8X1X[.E.Z.[.iXvXjX2X@XI.n.m.Y.*XY.x.",
"P.P.U.P.c.5.B.].].P.].>X1XqXlX3XP.N.N.U.Y.K.v.x.C.2XsXsXnXzXsXnXnXdXnXsXjXMX2XuX8X=X$X}.C.$XqX3X[.E.L.#XaXvXjX2X#XY.C.K.@X*XY.5.",
"P.U.`.U.c.5.B.$X$XP.].>X>X8XjX,XB.b.N.U.Y.P.n.v.L.6XjXsXnXzXsXnXnXdXnXsXjXMX2XuX6X%X$XI.C.{.qX5X#XW.E.=XaXcXaX2X#XI.C.I.%X*XK.<.",
"I.`.XX`.N.5.C.%X{.P.}.%X%X3X8X%XU.B.b.D.I.K.C.C.I.8XjXsXnXzXsXmXnXdXnXsXjXMX6XiX2X%X$X}.A.%XqX3X%X[.[.-XjXcXaX2X#XK.n.Y.*X#XC.<.",
"`.`.'.`.B.c.P.%X{.P.}.%X%X3X8X%X'.D.b.B.K.K.C.C.I.uXjXaXnXzXsXmXnXdXnXsXjXMX2XiX6X=X%X{.I.%XqX3X%X[.#X2XjXcX9X2X#XK.m.Y.*X@XC.<.",
"`.`.U.I.B.c.P.].%XI.].1X>X8XjX,X'.D.b.B.K.B.n.n.W.aXjXaXnXzXsXmXnXdXnXsXjXMX2XiX8X-X1X%X}.>X8X1X%X#X=X6XjXcX9X2X%XK.v.Y.*X%XK.x.",
"'.U.P.P.B.b.C.'.>X'.$X3X3XqXlX1X`.B.c.V.K.n.x.x.W.aXjXaXzXzXsXmXnXdXnXsXjXMX2XuX8X1X3X1X{.,X8X%X%X%X-X8XjXkX8X2X*XK.v.Y.1X*XP.n.",
"`.U.`.`.N.<.c.$X].$XA.>XqX3XlX1XI.r.c.P.n.v.m.l.%X6XjXkXnXmXnXsXsXuXmXuXuXMXuXaX=X-X%X$X{.>X7X8X[.%X2XaXkXjX8X1X[.C.v.I.5X5XY.<.",
"`.`.XX$XB.5.B.%X].$XA.>XqX3XlX1XI.r.c.P.n.c.n.l.%XuXkXcXzXnXnXsXsXdXmXuXuXMXuXaX8X8X1X{.].{.1X8X#X=X2XkXcXkX8X2X%XI.n.Y.1X5XP.<.",
"'.`.$X&XI.x.C.,X].%XI.>X8X8XlX,XI.r.b.G.v.c.n.x.2XaXcXcXzXnXnXsXsXdXMXuXuXMXuXaXkXiX3X[._.}.%X3X=X-XuXjXvXcXaX6X%XI.C.Y.5X5XY.x.",
"'.'.%X<XI.c.P.,X].>XI.%X8X8XlX>XP.r.b.G.c.c.n.v.6XjXnXcXkXnXzXsXsXpXMXdXuXMXuXaXkXiX3X%X{._.].%X=X-XuXjXvXcX8X2XW.K.n.Y.5X8X@XB.",
"`.`.%X<XI.x.B.%X].,X_.%X3X8XlX%XP.r.b.D.c.x.C.n.8XjXMXcXkXnXzXsXcXsXNXiXuXMX8XaXiX2X3X3X>X].].%X=X-X6XkXcXjX8X-XW.K.n.Y.*X5X@XK.",
"`.`.%X<XI.r.N.$X].1X}.%X3X8XlX$XP.r.N.D.x.l.C.C.8XkXMXkXsXnXnXsXnXsXVXiXuXMX8XaX2X=X3X8X3X{.].%X=X-X6XkXcXjX6X-X#XY.K.Y.*X*XY.v.",
"'.XX<X,XI.r.v.].].1X].$X3XqXlX{.D.r.N.D.l.l.C.C.8XkXnXkXsXnXnXzXnXsXVXpXuXMX8XaX8X=X1X8X3X].].1X-X2XuXjXvXkX8X2X#XY.K.Y.@X%XI.c.",
"XX$X,X,X`.r.c.'.].3X].{.3XqXlX].D.r.N.D.l.l.C.K.8XjXcXkXsXnXmXnXmXsXVXpXuXMX8XaXiX-X>X8X1X}.].3X1X2XaXcXMXcX8X2X[.K.C.K.@X%XY.n."
};
