/* XPM */
static char *_cf914ce61d74cc4dec031ca26aaaac4ZeYAT282PRUbxXDh[] = {
/* columns rows colors chars-per-pixel */
"64 64 203 2 ",
"   c #010101",
".  c #05030C",
"X  c #09070F",
"o  c #060412",
"O  c #090614",
"+  c #0B0814",
"@  c #0A061B",
"#  c #0D091C",
"$  c #130E1D",
"%  c #0A0522",
"&  c #0D0824",
"*  c #0E092A",
"=  c #120D24",
"-  c #120C2D",
";  c #151123",
":  c #17112B",
">  c #1B162A",
",  c #0F0930",
"<  c #130E32",
"1  c #150E3A",
"2  c #171234",
"3  c #1A1432",
"4  c #17113A",
"5  c #1B143C",
"6  c #21163D",
"7  c #251D3B",
"8  c #150C43",
"9  c #180E49",
"0  c #1C1344",
"q  c #1C124B",
"w  c #1A0F51",
"e  c #1D1253",
"r  c #231A45",
"t  c #251C4C",
"y  c #291F4B",
"u  c #241A52",
"i  c #24185A",
"p  c #261B5B",
"a  c #282043",
"s  c #2C234F",
"d  c #2C2253",
"f  c #352B56",
"g  c #33255E",
"h  c #231764",
"j  c #251864",
"k  c #291B66",
"l  c #26186B",
"z  c #291B6E",
"x  c #271774",
"c  c #271972",
"v  c #2C1C73",
"b  c #2C1B7C",
"n  c #322665",
"m  c #3E3166",
"M  c #3E316B",
"N  c #322570",
"B  c #3A2B72",
"V  c #362779",
"C  c #372A78",
"Z  c #423665",
"A  c #40326F",
"S  c #48397E",
"D  c #2E1C84",
"F  c #2F1C8A",
"G  c #311E86",
"H  c #321E8C",
"J  c #331E94",
"K  c #342285",
"L  c #382786",
"P  c #3A2C83",
"I  c #34228C",
"U  c #3C2C8D",
"Y  c #352193",
"T  c #392496",
"R  c #3D2B97",
"E  c #362399",
"W  c #3C259C",
"Q  c #3D299D",
"!  c #3E25A1",
"~  c #3E2AA3",
"^  c #493883",
"/  c #47348D",
"(  c #503B8B",
")  c #402D95",
"_  c #40289F",
"`  c #453497",
"'  c #4B3996",
"]  c #49379F",
"[  c #4B3A9A",
"{  c #4127A4",
"}  c #432BA4",
"|  c #4429A8",
" . c #442CAB",
".. c #492EAC",
"X. c #4531A4",
"o. c #4934A5",
"O. c #4E3AA5",
"+. c #4530AC",
"@. c #4B32AD",
"#. c #4E3AAB",
"$. c #492EB0",
"%. c #4C34B3",
"&. c #4E39B4",
"*. c #4C35B8",
"=. c #5136B6",
"-. c #5239B6",
";. c #5136B9",
":. c #543BBC",
">. c #583DBD",
",. c #584788",
"<. c #5A4595",
"1. c #56439B",
"2. c #655592",
"3. c #5B44A7",
"4. c #5C46B3",
"5. c #5943BB",
"6. c #644BAC",
"7. c #6C59A2",
"8. c #644DB2",
"9. c #6851B5",
"0. c #6C52BD",
"q. c #553CC1",
"w. c #5A3EC3",
"e. c #5C42C4",
"r. c #5B45C4",
"t. c #5E48C3",
"y. c #5D43C9",
"u. c #5E46D0",
"i. c #634BC3",
"p. c #6146CB",
"a. c #634ACC",
"s. c #684BC8",
"d. c #6E53C2",
"f. c #6B54CD",
"g. c #765CC8",
"h. c #664CD1",
"j. c #6A4CD5",
"k. c #6D4CD9",
"l. c #704FDC",
"z. c #6750D5",
"x. c #6B52D4",
"c. c #6C52DB",
"v. c #7359D5",
"b. c #7A5CD7",
"n. c #7253DD",
"m. c #7359DE",
"M. c #7D61C5",
"N. c #7554E2",
"B. c #7857E6",
"V. c #755AE3",
"C. c #7A5BE5",
"Z. c #7755E9",
"A. c #7957EB",
"S. c #7C5BEB",
"D. c #7E5DF1",
"F. c #7E63E7",
"G. c #7F62F1",
"H. c #8268D5",
"J. c #8366DD",
"K. c #8D72DB",
"L. c #805FED",
"P. c #805FF2",
"I. c #8264E4",
"U. c #8369E1",
"Y. c #8464EC",
"T. c #8966EE",
"R. c #8369EB",
"E. c #886BEB",
"W. c #997DE6",
"Q. c #8463F4",
"!. c #8967F6",
"~. c #8569F5",
"^. c #8B6CF4",
"/. c #8564FA",
"(. c #8A66FD",
"). c #8769FB",
"_. c #8C6BFC",
"`. c #916DF5",
"'. c #9167FE",
"]. c #916EFD",
"[. c #8D73F6",
"{. c #8E71FC",
"}. c #9274F5",
"|. c #9C7CF5",
" X c #9473FD",
".X c #9876FD",
"XX c #957AFD",
"oX c #9B7CFD",
"OX c #9D7DFE",
"+X c #9D82E8",
"@X c #9D81FE",
"#X c #A485FE",
"$X c #A586FE",
"%X c #A987FC",
"&X c #A788FD",
"*X c #A788FE",
"=X c #A88AFE",
"-X c #AA8CFD",
";X c #AD8FFE",
":X c #B18EFE",
">X c #AD90FE",
",X c #B492FE",
"<X c #B898FF",
/* pixels */
"              .       .               .               X                   .                             .             .         ",
"                                                            .                                   .                               ",
".                                                                                                                   .         . ",
"                                                                                    .                                           ",
"              .     X                                                                                                           ",
"                                                X + + + X .             X                                                       ",
"    .                                 . s ^ 1.1.9.0.g.d.9.6.( g 6 = .                                                         . ",
"                                  . d 6.E._.)._._._.(.(.'.'.].^.I.v.4./ g > X                                                   ",
"                                3 3.E._.)././././.(.(.(.P.(.(.(._._._.].Q.b.3.n O                                               ",
"                            + A F._._.!.)./._._.)._.!.(.(.(.(.(.(._._._._. X X^.9.3                                 X           ",
".                       . d 9.^._._.)._. XoXOXOXOXOXOX.X].].(.(.(.(./.!._._.'.]..Xg.7                                           ",
"      .               > <.E._._.(.(. XoX#X=X=X-X-X-X=X=X#X.X].).(.(._.(.(.(./.!.!.].I.Z .                                   X   ",
"  .                 7 g. X_._.(./._.XX#X*X*X%X%X%X%X-X>X-X#X.X X]. X|.|..X`.!.!.(.(._.[.<.$                       .             ",
"                . A J.]._.(.(._._. XoX#X@X%X=X-X=X-X-X-X-X=X#XOX|.=X,X<X:X%XOX}._._._._..XM.f                                   ",
"              + <.`.'.'.'._._..XoX@X@X*X-X>X>X>X>X>X>X>X>X-X-X=X-X:X,X,X,X:X:X=XOX.X_.!.].OX|.Z                       .   . .   ",
"            ; 6. X].(.`.]. XoXOX@X@X%X%X-X>X>X>X>X>X>X>X>X>X>X,X:X:X-X%X%X-X-X=X=X#XXX}.E. XOXW.>                               ",
"          X 6..X_._._.]..XOXOX@X#X#X#X#X#X=X=X-X-X-X-X-X-X>X>X-X-X-X=X%X%X#X#X*X*X*X*X|.}.]..X=X2.                              ",
".         Z `.'._.]. X.X.XoXoXoX.X.XoXOX#XOX#X*X#X#X%X=X=X-X-X-X-X-X=X=X*X*X#X#X#X*X=X*XoX]. XOX+X7   .                         ",
"        ; b.'._._. X X X]. X]._.!._.[. X.X.XOXOX#X#X#X#X=X-X-X-X>X-X=X=X*X#X*X#X#X#X*X#XOX X].}.*X7..                           ",
"        A _.Q._._._./._.!.!.Q.Q.G.S.Q.Q.'.]..XOX.XOX#X#X*X-X-X-X-X-X#X%X%X*X#X*X#X#X#X#XOX X'. XOX+X7   .                   .   ",
"      + 0.(./._.(.Q.D.D.S.L.B.B.N.B.S.L.Q.!.].]..X XoX@X*X=X-X>X>X-X-X%X=X#X#X#X#X#X#X#XOX X].].|.#X,.                          ",
"      > I._.Q.Q.P.S.S.C.B.b.n.l.l.n.N.S.L.P.Q.!._._. XoX@X#X*X=X=X#X#X#X#X#X#X#X#X#X*XOXoX.X].]. XOXK.$                         ",
"      y !.(.Q.S.S.S.A.B.n.n.l.k.k.l.N.A.D.D.Q.Q./._.[. X@X@X@X@X@XOXOX@X@X@XOXOXOXOX#XOXoX.X X].].OXOX,.                        ",
"      r T.(.Q.Q.S.S.A.A.N.l.k.j.k.l.N.A.A.D.P.D.Q./. X|.@X@X@XXX.X X.X.X.X.XoXoXoXOXOXOXOXOX X]. X XOXK.>           .           ",
"      6 Y.(./.Q.P.S.S.S.m.n.l.k.k.l.N.Z.S.D.G.G./._. XXX@X@XXX[._._._.]. X_. X X X.XOXoXOXoX.X X`.]. XOXS                       ",
"      = v.].^.^._._. X XT.L.B.l.k.N.N.Z.S.G.G./.(.{.XX@X@X@X{.{._._._._.(._._._._.`.]..XoX.XoX X].]. XoXH.3                     ",
"      . 3. X[.@X|.T.U.}.oXoX`.Q.L.L.L.P.G.).).)._. XXXXX@X@XXX{._._._././.P.Q./.Q.Q.!.]. XoX.X.X]._._. X.X^                   X ",
"        d R.[.@XJ.-.@.f.x.f.C.Y.^.[. X X~.).{.{.{.{.XXXX@X@XXX{. X_._./.P.D.D.S.A.A.S.(.!.]. X.X X]._.!.OXb.-   .               ",
"        o 3.[.}.i.@... .} {  .w.n.n.N.N.z.V.G.{.XXXXXXXXXXXXXX{.).(.(.Q.D.D.A.A.N.l.N.A.S.Q.!.]. X]._.). X}.B                   ",
"          d E.^.p.:.@. ._ { @.J.h.:.w.p.h.h.F.S.Y. XXX@XXX{.{._./././.S.D.A.B.N.l.k.k.N.N.N.Y.!.]. X_./._..X8..                 ",
"          + 9.[.j.e.=.o.} _ | >.;.:.w.c.u. .;.e.k.Y.@X#XXXXX{.)./.Q.D.Q.D.A.B.N.l.j.j.k.k.N.B.Q.!._. X_./.].J.3                 ",
"            s U.V.p.e.-.@. . .| %.:.a.x.@.Q  .q.y.c.E.@X}.[.{.{.{.)._.!.!.Y.C.N.k.k.j.j.k.k.N.B.S.Q._.)./._.}.m           X     ",
"              S F.m.u.r.*.%.+.~ $.q.h.5.W W ..;.w.a.n.C.j.a.j.n.S.^.]. X.X.X_.Y.n.l.l.j.k.k.l.l.L.L.L.'.(.P. XM                 ",
"              X B f.F.u.q.:.%.~ $.e.m.t.W W @.=.q.y.x.c.j.e.w.p.a.j.k.N.b.Y.^. XQ.I.l.k.k.k.k.k.k.N.L.L././.).g                 ",
"                  2 1.z.z.y.:.@.*.y.c.x.{ } @.=.q.w.k.m.h.y.q.w.y.p.w.h.p.p.s.s.S.Y.L.N.k.k.l.l.l.l.N.L.Q./.R.s                 ",
"                    . e 1.f.f.a.r.u.c.m.=...*.;.w.w.a.h.y.:.:.:.:.:.>.w.p.e.;.| ..;.J.!.L.L.J.l.l.l.l.L.!.Q.R.y                 ",
"                        . r ' f.m.m.c.m.a.:.q.>.w.p.p.p.e.;.*.:.w.:.%.e.p.>.=.W W { | w.n.T.`.Y.L.l.A.P.P.(.I.7                 ",
"              .             . : d R a.z.m.z.p.e.w.a.p.>.*.:.*.-.r.-.%.w.>.;.@.} W { { { ..;.J. XP.A.P.P.(.(.f.&                 ",
"                                  O P t.c.c.u.y.s.a.5.=.~ *.%.:.e.=.$.:.>.;.@.W T W _ _ { | =.b.'.'.P.'.(.!./                   ",
".                                   5 R y.c.u.>.r.i.r.e.r.:.*.*.>.*...;.>.=...W T _ { } _ } ..p.`..X'.P.!.i.<                   ",
"              .   .                 + v +.u.h.5.*.r.&.5.r.r.r.:.w.=.;.:.>.;...{ ! { { {  . .=.s.!._.(.Q.v.u                     ",
"                                    . e K &.y.y.r.r.+.~ ~ 5.a.u.p.e.:.:.w.-.;.......%.=.>.w.n.Y.~.Q.Q.a.p                       ",
"                                      4 c Q *.r.r.:.:.~ Y ~ 5.u.a.p.w.e.p.e.e.w.p.s.p.x.S.!._.Y.m.f.] q .                       ",
"                                      < e I ~ *.r.:.:.#.I Y ~ *.:.p.p.p.p.p.h.s.m.n.>.f.I.d.O.' N 0 O                           ",
"                                      * e c E %.:.*.&.X.K D Y ! { =.>.=.=.>.>.>.#.k @ - 6 # . .                                 ",
"                                      < e l I ~ %.&.*.~ D D D Y J _ @.{ } @.%..._ p .                                           ",
"                                      2 0 h I ~  .&.*.W H D D K H J o.} _ { ..| _ K 4                                           ",
"  X                                   - 8 p D E ~ +.%.| Q D x b G H J ] T W { { W K v #                                         ",
"                                      * e z I E E Q Q ~ %.Q D x b D D T } W W } _ W I j .                                       ",
"                        .             * h b Y E Y I z l +.+.I x b b D F Q  .Y W { { Q I 1                                       ",
"        X                             - l G Y Y I D 0 * ~ %.X.l z x b F H _  . .|  . .X.p                                       ",
"                X                     & l F J E R G * . h ~ %.R h j v b G J !  ...%.%.:.N               .                 .     ",
"                                      @ h D J Y Q I @   & D ~ ;.L l b D D I J H e n o.p.[ *         # y d                       ",
"          X                             w b J J Y Q d .   * F ~ @.} Q J J Y Y K <   = B 4.#.L 0 O 5 O.5.2                       ",
"                                        * l F I Y J I :     @ j E ~ @.%.*.*.+.R z O     0 #.r.:.] #.t.n                         ",
"X                                       o e b K R Q ~ e       . 9 b R  .q.q.w.q.} j .     * v K v p 1 .                 .       ",
"                                          @ q c I Q ~ U #         * h Y ~ %.:.y.y.-.V 0 < # @ @ . o                             ",
".                                           o 8 h K ~ o.N .         O j b K L U ) X.-.-.&.o.R P P C -                           ",
"                                                * 9 l D X.C &         . O @ O o @ 8 c ~ :.5.&.] P 0                             ",
"                                                  . * e c U ` t .                   o < q 5 < * o                               ",
"                                                      . & 9 v U n +                                                             ",
"                                                          . % 1 p 2                                                             ",
"                                                                                                                                ",
"                                                                                                                                "
};
