/* XPM */
static char *b2f946111c2d48c0ee217fb6e253a060r8JAahmPNKOo2y5T[] = {
/* columns rows colors chars-per-pixel */
"64 64 256 2 ",
"   c #170019",
".  c #0D0023",
"X  c #190228",
"o  c #180137",
"O  c #0D0035",
"+  c #25092C",
"@  c #270737",
"#  c #2C1334",
"$  c #321638",
"%  c #330936",
"&  c #3A223E",
"*  c #190945",
"=  c #290945",
"-  c #2D1448",
";  c #361647",
":  c #350C56",
">  c #261855",
",  c #3A1856",
"<  c #2D094D",
"1  c #3C2448",
"2  c #3A2558",
"3  c #2C265D",
"4  c #3C1764",
"5  c #36136C",
"6  c #3A2666",
"7  c #3D3376",
"8  c #39316D",
"9  c #431D58",
"0  c #411451",
"q  c #46294B",
"w  c #462656",
"e  c #4B3355",
"r  c #54335B",
"t  c #431C66",
"y  c #4C1D6D",
"u  c #492768",
"i  c #542A69",
"p  c #4E3868",
"a  c #583669",
"s  c #4A2778",
"d  c #542B72",
"f  c #532C7D",
"g  c #562A78",
"h  c #493775",
"j  c #583777",
"k  c #633C7C",
"l  c #623978",
"z  c #623F69",
"x  c #5A4577",
"c  c #57456D",
"v  c #654679",
"b  c #68567A",
"n  c #6C4C74",
"m  c #74637C",
"M  c #5D445E",
"N  c #4C2A83",
"B  c #542D83",
"V  c #4A3D82",
"C  c #4A3988",
"Z  c #5B3B8C",
"A  c #583686",
"S  c #5C3592",
"D  c #5C3B93",
"F  c #4E3593",
"G  c #643C8B",
"H  c #643986",
"J  c #643D94",
"K  c #643D9B",
"L  c #6B3F9A",
"P  c #663A93",
"I  c #713F94",
"U  c #693CA2",
"Y  c #4C4289",
"T  c #594688",
"R  c #5C4D93",
"E  c #5D4C9C",
"W  c #584697",
"Q  c #5B5392",
"!  c #654383",
"~  c #6C458C",
"^  c #6C4A8B",
"/  c #674788",
"(  c #724A89",
")  c #695589",
"_  c #755589",
"`  c #634394",
"'  c #6B4394",
"]  c #6B4B94",
"[  c #65459A",
"{  c #6B449B",
"}  c #6B4A9C",
"|  c #634B96",
" . c #734C93",
".. c #734C9C",
"X. c #764898",
"o. c #695596",
"O. c #735293",
"+. c #74539C",
"@. c #7B549C",
"#. c #7C5A9C",
"$. c #765996",
"%. c #786588",
"&. c #7A6798",
"*. c #6E6083",
"=. c #5C4AA2",
"-. c #5E52A5",
";. c #6B44A2",
":. c #6C4DA4",
">. c #6D4BAB",
",. c #6749A6",
"<. c #7345A3",
"1. c #734CA2",
"2. c #794BA2",
"3. c #734CAC",
"4. c #774EAE",
"5. c #6D52A5",
"6. c #6C53AA",
"7. c #6756A7",
"8. c #7353A4",
"9. c #7A54A4",
"0. c #7B5BA4",
"q. c #7454AB",
"w. c #7B55AB",
"e. c #745AAB",
"r. c #7B5AAC",
"t. c #735CA3",
"y. c #684DB6",
"u. c #744DB3",
"i. c #6B5BB2",
"p. c #6B58B5",
"a. c #7653B2",
"s. c #7C55B3",
"d. c #745CB4",
"f. c #7C5CB3",
"g. c #745DBA",
"h. c #7C5BBB",
"j. c #7554BB",
"k. c #7B64AB",
"l. c #7865A9",
"z. c #7B63B5",
"x. c #7462BB",
"c. c #7C64BB",
"v. c #7B6AB6",
"b. c #7368B2",
"n. c #795BC3",
"m. c #725AD0",
"M. c #7C65C3",
"N. c #7C6AC4",
"B. c #7766C5",
"V. c #7D63D6",
"C. c #845A9B",
"Z. c #84679A",
"A. c #867498",
"S. c #897691",
"D. c #825CA3",
"F. c #835CAC",
"G. c #8559A9",
"H. c #835CB3",
"J. c #895DB5",
"K. c #835DBB",
"L. c #8659B8",
"P. c #905FBA",
"I. c #8363A5",
"U. c #8463AC",
"Y. c #8B64AC",
"T. c #8C6BAD",
"R. c #866AA7",
"E. c #8874A8",
"W. c #8363B5",
"Q. c #8A63B4",
"!. c #846BB4",
"~. c #8C6CB5",
"^. c #8464BB",
"/. c #8B64BB",
"(. c #856ABD",
"). c #8B6BBD",
"_. c #926CBC",
"`. c #9368B7",
"'. c #8573BC",
"]. c #8C73BC",
"[. c #8977B6",
"{. c #9372BD",
"}. c #9678B9",
"|. c #946FAA",
" X c #A274BC",
".X c #815EC1",
"XX c #8564C2",
"oX c #8B64C3",
"OX c #846CC4",
"+X c #8B6CC3",
"@X c #856DCA",
"#X c #8D6BCB",
"$X c #8463CA",
"%X c #926CC3",
"&X c #926DCB",
"*X c #9669C4",
"=X c #8671C4",
"-X c #8B73C4",
";X c #8672CB",
":X c #8B74CC",
">X c #8D7BC8",
",X c #9373C5",
"<X c #9A74C4",
"1X c #947CC3",
"2X c #9B7AC4",
"3X c #9474CB",
"4X c #9A75CB",
"5X c #947BCC",
"6X c #9B7BCC",
"7X c #886BD2",
"8X c #8B77D3",
"9X c #9473D2",
"0X c #9B75D4",
"qX c #937CD2",
"wX c #9C7BD3",
"eX c #957BDA",
"rX c #A27BCC",
"tX c #A37AC9",
"yX c #A37CD3",
"uX c #A17BD9",
"iX c #AB7EE3",
"pX c #9887AA",
"aX c #9786B8",
"sX c #9488BC",
"dX c #A798B8",
"fX c #AA8DBB",
"gX c #93879F",
"hX c #9482CB",
"jX c #9B86C7",
"kX c #9C83D4",
"lX c #9986D5",
"zX c #9D95D1",
"xX c #A686C9",
"cX c #A896C7",
"vX c #A384D4",
"bX c #A384DA",
"nX c #AB84DB",
"mX c #A589DC",
"MX c #AA8BDC",
"NX c #AA87D4",
"BX c #B48CD9",
"VX c #AA94D9",
"CX c #B497DA",
"ZX c #B38EC9",
"AX c #B5A4C9",
"SX c #B8A8D0",
"DX c #AC8BE2",
"FX c #A885E3",
"GX c #B28CE4",
"HX c #AA91E3",
"JX c #B694E6",
"KX c #B997F2",
"LX c #B6A2EB",
"PX c #9D84E2",
"IX c #C39EEB",
"UX c #C8AAE4",
/* pixels */
"p.x.B.B.B.B.B.B.i.v.-Xv.+.$.l.!.6.8XW g.x.=.:X6.E d.z.d.(.qX=Xo._ A.A.c *.$.[.h v.'.8X8XB.y.p.;Xi.g.x.x.x.x.c.N.:XOXg.6.i.x.x.i.",
"B.B.B.p.p.B.g.7.c.v.(.'.l.o.o.l.} OXd.:XOX,.v.7.W W 5.=X=Xd.6.k.) A.%.b &.E.jXo.b.v.8XqXN.g.B.8Xx.c.c.x.d.g.c.N.N.OXN.c.c.N.N.x.",
"B.N.x.-.p.B.g.=.OXd.k.'.l.T x $.| t.z.-Xz.R E 7.Z W e.=Xc.| E t.) Z.) &.E.sXjX!.l.v.8XeX8XN.;XeX@X@XN.x.d.g.c.OXN.;X;XM.c.OX;X@X",
"i.B.p.=.-.N.N.7.N.e.t.t.o.x x ) o.T l.l.o.R T v.T z.=Xe.5.7.5.W O.&.x [.E.jXjX].7.z.:XqX8X;X8XeX;X;XOXM.z.g.x.c.:X:XOXg.g.OX:X;X",
"-.x.x.-.-.B.N.x.i.z.t.T T ) ) ) l.$.&.&.o.o.| k.o.v.!.e.6.z.d.| l.T.) }.[.1X1X'.6.z.=X8X:X;X;X;X@XOXOXOXOXc.d.d.OXOXc.z.c.OXOXd.",
"i.x.x.i.7.i.g.x.7.v.k.T x $.&.%.&.A.&.%.) ) ) o.l.| o.!.>X(.z.(.!.1XU.1X].].5X=Xe.z.OX=X;X8X:XOXOXOXOXOXOXOXd.6.d.c.;X;X;XOXz.,.",
"x.i.i.i.i.7.7.7.W 7.l.o.T ) &.&.*.pX%.*.b c E.&.) T | '.lX-X(.=Xz.4X,X).+Xz.kX=Xe.z.c.c.=XqX8X=XOX^.c.^.XX(.z.d.5.XXwXqXOX^.^.c.",
"v.-.E i.x.7.=.7.C R o.$.) x ) &.m dXm b c c cXsXh o.l.v.-XlX>Xe.q.,X6Xe.(.q.bX=Xe.z.c.v.=XkXlX-XXXc.f.z.c.^.c.z.d.3XbX3Xd.d.-XFX",
"E W E 7.i.7.E W R T o.o.x x ) b %.S.gXdXAXdXaXSXcX!.v.t.(.lXOXOXq.r.3XwX+X^.(.c.q.6.6.v.mXkXc.HXqX5.wX5X-X} +Xc.(.HXkX5X(.:.z.-X",
"i.E Y E b.v.7.C | T o.$.x c ) %.S.pXdXAXSXdXaXcXVX[.'.k.(.qXd.d.oXH.+X+Xq.:.^.,X5XqXOXc.lXlX(.5X5X^.bXbX+Xe.:X(.+XmX+X(.^.q.+XwX",
"b.E Y W 7.b.E V V 8 h ) c p ) A.pXAXSXSXSXaXE.jXVX].>Xc.OX:Xp.p.3Xf.W.).} D r.,X,XlX^.e.=X5X=X(.+X4XmXmXz.(.-X).-XmX+X).,Xz.-X,X",
"Q R Y Y Y W T V 7 > 2 x x b A.pXpXAXSXAXcXaXE.}.lX].5XOXOX8Xd.d.%X9.r.).9.` 9.W.W.(.e.z.(.^.=X(.z.bXbXbX5.+XW.W.+XHXkXmXmX(.(.z.",
"Y Y 7 7 V R R Y V 3 6 ) &.E.dXAXaXcXsXaXjXsX[.].kX=XqX@X@X8Xg.h.{.O.#.Q.0.] 9.r.~.W.e.bX5X5.=X5Xf.DXvX4X5.+Xf.W.^.GXMXHXMXW.W.W.",
"V 7 8 8 W b.l.R R h T &.E.dXAXdX[.sX[.l.].1X'.-XqX=XeX@X@X7Xj.c.1X#.O.O./ ] I.U.U.8.| HXmXe.bXmXW.MXwX).W.,X^.,Xr.vX4X6X4Xf.).,X",
"7 V Y h Y 7.l.t.T T &.E.E.pXdXpXE.1X[.k.].-X(.=X=Xc.8XM.M.7Xn.OX~.I.C.! u A k.U.0.| C kXkX^.LXbX^.6X,Xr.4X,X,XvX8.,X/.,X4XW.,X,X",
"> Q l.Q 8 7 o.v.V o.[.[.E.aXcXaXl.hX5X(.=X=X(.;Xg.p.@Xn.n.7XM.9Xr.T.T./ 6 d $.0.{.U.Z ,X5X=XIX(.^.+X).} bX,XwXGX1.%X^.6XMX,X,XW.",
"8 8 8 zXb.C E i.=.,.v.5X>X5XhX'.-X-X,X-X^.d.d.XXg.#X7Xn.y.j.n.n.6X{.].{.{.Z 4X!.kX,X).e.MXkXmXbX0X&XoXXX&X0XuX0XDXwX+X%X3X%XH.q.",
"8 > 3 hX7.o.8X;XM.x.;XeX8XqXqXOX+X+X3X3XXXd.c.#XXX9XeX$Xj.j.n.j.3X).-XkXbX(.6X).bX4X+X8.kX,XkXuX#X&X9X0XuX0X#XL.bXwX3X4XwX4X).H.",
"c * 3 zXv.v.;Xi.;XB.;X8X:X:XqXOXf.^.+X+Xh.a.h.#X>.n.#X$Xn.$X7X7X3XW.(.kXbXHX^.f.bX6X,X5.,XW.,XwX^.#X0XFXDX0XoXf.%X%X%X,X,X).W.w.",
"Q 3 > sXlX=XE i.N.i.c.;XOX:XqXc.^.c.c.(.^.h.h.XXS ,.j.n.$X$X7X9X3XW.W.).(.JX[ :.wX6X4Xe.,Xf.+X3XK.^.&XuXbX0X4X4X/.%X%X).W.F.9.} ",
"l.T * Y hXv.C HXx.6.d.OX;XqX:Xd.wX+X(.+X3X#XXXXX>.a..X$Xn.j.j.s.4X,XW.q.r.MX[ r.,X3X6Xf.6XW.).,Xq.r./.wXwX3X3XrX,X4X,XQ.F.r.+.` ",
"[.v.7 R hX'.6 hXOXi.x.;X:XqX+X:.wX+X^.+X&X+XK.h.h.h..X$Xn.u.>.3.3XbXW.} ).DX).6X).-X4XW.wXW.).).{ 1./.6X4XW.Q._.<X2X~.0.+.0.+./ ",
"l.[.hX>X'.lXC E 5Xz.d.OX+X3X+X:.oXK.K.^.K.a.a.s.>.>.3.h.K.a.a.h.).DXW.[ bXDXMX6X+X).,Xr.4XH.W.^.8.8.W.,X).9.F.<X<X{.0.' ] U.U.O.",
"l.'.LXhXE LXhX| qXd.e.z.(.,X+X5.h.K.XXXXs.:.q.^.,.;.,.a.a.>.>.q.f.MXr.J KXbXGX/.,X+X).:.,Xr.H.H.Q.F.H.Q.r.9.).BX2X{.0.] +.}.2X~.",
"b.hX>XhX-Xv.hX-XHX7.N :.bX5Xq.f.q.XXK.a.h.a.3.s.K.S h.0XoXS S uX/.,X8.H.yX6XyX%Xf.q.4X4X/.w.} +X8.W./.r.9.Q.2XxX_.U.F.] ~ 2XCXU.",
"v.hX>XzXzX5X5Xk.(.z.C (.JX(.f.K oX&XK.a.K.s.3.q.s.q.bXDX%Xq.1.DXyX,X[ r.,XW.+X6X+XH.wXvX6X).} H.3XyXwX_.Q.~.,X,XQ.+.F.U.0.~.2XI.",
"=XhX=XlXHXlXhXt.t.6X| 6XJXf.+XS &X&XK.L.oXH.{ { S 1.yX%X{ A f 1.nX%X{ /.rXw./.nX).w.4XyXnX4X1.1.uXbXuX3X%X)./.F.Q.9._.NX2X~._.~.",
"8XhXv.=XlXhXkXk.k.kX!.-XwX^.+Xq.XX&XXXXXoXw.S J { 1.%XH.{ G s A Q.Q...%XyXH.Q.4Xw.} /.<XrX4X1.1.3X3X3X3X3X%X/.r.W.Q.6XBXvX{.<XvX",
";XeXc.=X5X5XmX].!.!.6Xr.W.4Xq.+XL.XXK.s.s.K S 3.L.J 1.1.w.9.f B ` w.{ w._.w.F.w.9.1.%X<X%X%X9.H.oXoX&X0X0X4X+X^.^.,X6X<X,X,XrXGX",
"N.eX;XqXlXlXVX1XU.+.xX8.H.uXK oXK.XXs.3.;.S J /.4X{ { ' 9...t 4 { J.{ ..J.w.F.1.L.Q.nXyX<X<XH./.K.K.#X0X0X+XK.H.3XuX,X/.,X4XuXJX",
":XeXOX5XlXkXVX1X~.0.].r./.3X{ /.L.K.L.L.L.L L L.yX4XrXF.G.F.f 4 2.F.P J.4XJ.J.w.J./.nXyX4XrXQ.%Xs.K.#X0X&XK.h.K.nXwX^.).bX4X%XJX",
"PXkXh.z.-X5XVX6XvX1Xr.r.+X^.h.+X4.H.XX0XuXH.P { <.*XBXF.1.`.' s P G B _.GXQ.9.9.9.w.rX4X4XyXJ./.L.oX0XbX0XoXXX&XnX)...).GX/.1.bX",
"eX9X9XXX#Xc.q.KX3Xf.f.q.h.+Xh.h.f.5.r.%X/.L A L J.L J.rXJ.w.L.1.~ G A 0.0.{.| ~.} W.%X,X%X%X*X/.G.r.nXKXoXs.0XnXnXIXj j {.9.H.0X",
"XXXX+Xd.XXXXs.KX#X>.,.s.3XeXXXf.e.e.8.(.4X1.B L *X2.2.<.P 1./.1.G ^  .0.O.U.T ~.8.8.W.4XwX/.J./. .Y.yXyXoX0XFXyXQ.tXt d 2XF./.9X",
"h.h.oXa.K.#Xh.FXFXs.K h.wX0XXXq.(.-Xr.W.nXF.f I *X/.J.2.P 1.9.B j / O.#.+.~.l.VX].8.8.%X4XQ.H._.~ }.tXH.oXGXFX%X`.}., u {.Q./.XX",
"d.h.oXq.a.+Xh.+XKXXXD ^.uX9X&X(.,XmXz.r.yX2.t P P.P.J.w.{ { { A j k  .O.I.jX].VXVX].r.f./.Q.L./.@.xX<X1.oXFX4X/._.T.= , D.F.*XK.",
"a.>.^.q.:.^.d.K.&Xh.[ 3XDX0XDXwX^.lXz.:._.P 4 P J.<.P P H B J `.H k O.^ }.xX+.` VXmX,XH.H.%XJ.1.G.tX`.w.&X&XK.<X.. .o , 9.Q.0XK.",
"h.:.+X(.q.+X+X9Xa.+Xq.FXKXeXDX+Xq.-XW.r.%X..f 2.G.2.{ G.w.B B F.H l O./ xXCX$.s 1XMXMX,X).4X/.P `.Y.F.J.oXL.L.yX' @.u ! `.`.yXa.",
"+X:.3X3Xf.^.&XbXf.wXf.wXFX3XmXq.:.z.W.).4XJ.I { X.G.G.`.tX..g G ! l ( i }.CXjX!.U.6XMX6X%X%X/.F.2XI.F.Q.s.a./.%X9.`.^ I.2X_.yX4.",
"3X;.+X3X:.:.h.9Xf.wX:.^.3X3XKXf.[ ,.e.).4XJ.G g G X.G ' `.Q.'  . .v k o ! }.CXLXU.].2X<X/.H.*XnXxXY.Q.Q.3.s.oX9.' Y./ D.`.Q.nXL.",
"wX^.r.r.q.[ :.f.^.:.8.f.q.f.3XkX(.c.q.8./.4X2.4 y X.G G j H D.t , k Z.u u R.T.xXCX{.NXW.W.%XF.2X`.U.Q.H.>.u.K.w..., t O.F.`.4XK.",
"f.r.r.f.H.r.r.r.q.} :.q.:.f.3XbX-XOXf.8.r./.9.H ' X.f ~  ./ H o ; j }.! u #.T.T.CX}.jX{.NXIXrXtXD.#.F.L.4.s.H.1..., u #.Y._.4XL.",
"W.f.q.8.8.q.:.` } :.8.} [ q.+XwX-X(.f.q.w.J.<XtX_.@.g l H k ^ u = , }.|.a O.R.T / t.6X2X2XJXNXBXT.#.G.H.3.4.s... ., i D.Q._.&Xs.",
"6X,Xr.D D 8.q.} [ q.8.` ` 8.f.+X+Xz.e.q.9.w.`.tX@.H g k i i I.xX, X ( xX_ O.&.6 O u +.~.U.NXtXtXxXT.F.w.;.;.s.9...t d D.Q.`.*Xs.",
"bXwXW.[ } ^.,X+XD 8.} Z :.q.q.+XXXd.5.q.9...X.X.t : g ^ i i $.ZX$.@ w }.R.$.$.6 O > : +.Q.JX<X9.xXY.F.H.;.L 4.9.+.t d D.U.Q.*Xs.",
"vXwX,Xf.r.f.W.z.B ` A Z W.W.r.5Xe.:.:.q.Q.Q.9.G H : d j i i k R.ZXv , _ |.$.$.j o 6 < 0.0.tXQ.@.D. .J.%Xa.;.1.1...t j I.U.J./.4.",
"6X4X,X).8.` Z [ B Z s ` 6X).8.kX:.:.:.1.Q.4XQ.' G.d l i , 9 9 l fXfXa v }.R.O.j * h , {.] 9.9.`.^ ~ Q.4Xs.K ;.9.~ t j T.Q.F.H.;.",
":X+X+X).q.Z ` 9.A A u ] MX).:.wXq.f.:.` 1.Q.@.d G i O.k , = X = ( UX_ v xX}.) h 6 h = ~.9.Q.Q.<X@.@._.rX4.P 1.J.H 4 A _._.J.w.S ",
"V.7XM.a.>.D ' `.BX .: t 9.q.:.^.h.1.S ] t @.@.l j 9 u l i @ < a n |.Z.Z.xX2X/ h j 2 = $.Y.G.2.*X<X2.X.@.Y.G.H G.<.K U iXoXK oXw.",
"V.V.n.y.,.S H @. X`.i < ' f.:.K.H.1.{ ' u ~ O.i w 9 w i a a l ( a _ C.@.~.].t.T ) - = &.O.Y.J.<.J.g H ~ C.C.G X.{ K u.uXoX4.&X%X",
"m.m.n.j.q.[ G ~ D.BX@.< B f.q.h.s.{ 9.G u d / u ; ; - ; w j a w 9 a ( @.0.!.].t.j O = #./ tXyX{ `.y i i a _ ( G G A L.oXw.F.F.`.",
"y.y.M.7X+XH.@.G O.xXtXB y { K.a.w.J F.A u , ! i - @ @ ; r a ; X ; , ! @.+.!.1Xt., @ 2 _ ^ xX_.9.xXd i 0 % a _ ( d f *XL.1.F.] I.",
"y.y.#XFX3X).D.f  .9.BX<X5 N oX>.f.{ ~.! u , ( v ; + + e n a ; + @ @ u ] } W.).| = p v n ( Y.u ~ |.i r %   q m _ 9 f <XQ.@.#.j #.",
"p.>.:XbX^.r...t G f yXJXB N .X>.f.9.{.@.u , ( _ ; + + q r q @ @ ; = : f [ r.e.T O c ) v _ #.o d l 0 w +   q n _ l @.<XF.~ u , v ",
"a.,.XX+X[ [ ] 4 f f H.yXs.K >.3.1.9.{.~., , v _ $ # + + # $ 1 q _ ! u s [ q.+.+.O ; c v _ |.= u j i r @ + r z n #.2XQ.0.! < w &.",
"q.W f.f.N Z } t y J J s.0Xj.S u.J 9.~.}., , u v + $ #   X e m A.CXxX] f :.8.8.~.= X a _ $.aX, < C.O.l @ $ z z ( #.rX9.r.1.6 I.UX",
":.5.5.:.5.:.` B f f s { oXL.U S %Xr.r.NXd , a c # + $ +   M dXSXCX}.W.r.:.J 8.2Xi - - a E.xXI.4 @.@.i @ ; a k ^ `.8.3.h.^.,XNXxX",
"f.f.r.d.(.,X).r.Z N s S <.<.;.<.0X).W.MXu - p a _ 1 # # X & m A.xXxX{.W.1.1.9.D.! ; @ 1 ) }.~.T Y. .9 : 9 @ < O.Q.q.h.&X9X3X,X~.",
"h.r.>.q.^.5X5X+X5.D D K P P <.<.oXf.W.vXu , ) %.dXq X 1 & $ r n &.R.U.+.[ 1...~ $.i ; ; j T.}.0.' G.d @ , 9 u @.r.h.$X9X0X+XW.k.",
"a.4.:.[ :.c.XX^.-Xe.r.r.L { <.P >.3.h.vXs j }.fXcX1 X q q $ 1 e 2 p A ` ` P ' ~ O.k a a v l.].!.A G.d o 9 a j #.w.f..XXX+Xz.0.!.",
"4.s.a.>.,.a.d.z.kX(.q.[ P ' I H 4.h.XXmXZ ] xXaXE.; # e 1 + + + . o u 0.U.` H  .k v _ ( v +.].-X@.H < % i w w #.] e.q.q.(.r.+.R.",
"3.s.j.3.>.>.p.6.:X(.A 4 g H H ' 3.j.XXDX} !.VX}.a @ 1 c e # # X . . u }.BXF.H G d j v v i | ,XvX^ a ; $ e c b Z./ ] C | 1X].) O.",
">.3.u.>.u.>.W C d.-XB < s g y X.>.u.j.DXf.6XCXl.- . 2 A.b q 1 1 ; @ w T.CXtXX.l d i a i u ` -XkXj a r q q S.AXpXR.^ > u jXcX) v ",
"j.u.>.>.j.p.F 5 :.kX[ : A d : X.a.n.n.GX^.kXxX/ o . 1 pXA.q ; 1 p ; - ! xXBXY.l j i i u u | OX).Z.q r n M m dXAXcXO.O * jXSX%.x "
};
