/* XPM */
static char *eb7f0b98932c4b4daf612f2533fb7dfazP9NNUBIkUPmG10m[] = {
/* columns rows colors chars-per-pixel */
"64 64 256 2 ",
"   c #190800",
".  c #1E150A",
"X  c #2A1706",
"o  c #351C07",
"O  c #321D11",
"+  c #231409",
"@  c #37220A",
"#  c #342212",
"$  c #392618",
"%  c #2D251B",
"&  c #362C27",
"*  c #323131",
"=  c #45290B",
"-  c #442B18",
";  c #4C341C",
":  c #49331A",
">  c #55391B",
",  c #4F310F",
"<  c #472D23",
"1  c #4B3525",
"2  c #4D3C2B",
"3  c #473627",
"4  c #533B25",
"5  c #543D2B",
"6  c #593B27",
"7  c #473B32",
"8  c #553D31",
"9  c #411E08",
"0  c #5C432B",
"q  c #594329",
"w  c #554333",
"e  c #5B4534",
"r  c #5D4935",
"t  c #5B4A3B",
"y  c #4F4437",
"u  c #66492A",
"i  c #634D3B",
"p  c #674B35",
"a  c #65503C",
"s  c #6C523C",
"d  c #6C5536",
"f  c #745B3C",
"g  c #7A5C3B",
"h  c #755637",
"j  c #74502D",
"k  c #78613D",
"l  c #67431E",
"z  c #554C45",
"x  c #55524C",
"c  c #654E43",
"v  c #645444",
"b  c #6C5443",
"n  c #6D5944",
"m  c #69594B",
"M  c #745A44",
"N  c #7A5D43",
"B  c #735A48",
"V  c #745D52",
"C  c #675B53",
"Z  c #7B6244",
"A  c #7C644D",
"S  c #77634A",
"D  c #7B6454",
"F  c #7A6858",
"G  c #6C6257",
"H  c #7A6C64",
"J  c #797167",
"K  c #74716D",
"L  c #805E3B",
"P  c #85633B",
"I  c #906B3E",
"U  c #846445",
"Y  c #856A4B",
"T  c #8A6D4C",
"R  c #876747",
"E  c #926D49",
"W  c #8B714B",
"Q  c #96764C",
"!  c #846B54",
"~  c #8B6D54",
"^  c #836C5C",
"/  c #876956",
"(  c #936C53",
")  c #8D7354",
"_  c #8C735C",
"`  c #88745B",
"'  c #937555",
"]  c #93745A",
"[  c #947A5B",
"{  c #9B7C5C",
"}  c #997855",
"|  c #A27D5A",
" . c #A07C4C",
".. c #846E61",
"X. c #8B7464",
"o. c #8A7767",
"O. c #937C64",
"+. c #9B7C62",
"@. c #927B6A",
"#. c #967965",
"$. c #897A74",
"%. c #967E72",
"&. c #A37E65",
"*. c #9B825C",
"=. c #A3845D",
"-. c #A8865B",
";. c #9C8364",
":. c #9C846B",
">. c #988468",
",. c #958474",
"<. c #9B8472",
"1. c #9B8979",
"2. c #8B837A",
"3. c #A38464",
"4. c #A58A64",
"5. c #AB8B64",
"6. c #A4856B",
"7. c #A48B6C",
"8. c #AB8C6C",
"9. c #AA8666",
"0. c #B18B69",
"q. c #AE926C",
"w. c #AB9167",
"e. c #B3936D",
"r. c #B6986B",
"t. c #A48C73",
"y. c #AA8D74",
"u. c #A48C7A",
"i. c #B48D73",
"p. c #AD9274",
"a. c #AC937B",
"s. c #A99579",
"d. c #B39474",
"f. c #B49A74",
"g. c #BB9B74",
"h. c #B3947C",
"j. c #B59B7B",
"k. c #BB9C7C",
"l. c #BB9572",
"z. c #BDA27B",
"x. c #BBA378",
"c. c #C29E7A",
"v. c #C3A27C",
"b. c #C6A77B",
"n. c #928E8B",
"m. c #A68E82",
"M. c #AA9483",
"N. c #AB9988",
"B. c #B49C84",
"V. c #BC9D83",
"C. c #B39D8B",
"Z. c #B89A86",
"A. c #B69D92",
"S. c #AB9894",
"D. c #BDA284",
"F. c #BBA28C",
"G. c #B8A488",
"H. c #BCA493",
"J. c #BDAA94",
"K. c #BDAC9B",
"L. c #B6A697",
"P. c #AFA496",
"I. c #BAB3AD",
"U. c #9FA19C",
"Y. c #C39E88",
"T. c #C3A483",
"R. c #C5AA83",
"E. c #CAAB85",
"W. c #C4A58B",
"Q. c #C4AA8B",
"!. c #CBAC8C",
"~. c #C9A687",
"^. c #D1AD88",
"/. c #CDB28C",
"(. c #C9B189",
"). c #D2B38C",
"_. c #D6B68A",
"`. c #C4AC94",
"'. c #CAAC93",
"]. c #C3AC9B",
"[. c #C9AA97",
"{. c #D2AD94",
"}. c #CCB393",
"|. c #C6B29A",
" X c #CBB39C",
".X c #CAB596",
"XX c #D3B594",
"oX c #D5B995",
"OX c #DBBB95",
"+X c #D4B59C",
"@X c #D4BA9B",
"#X c #DBBD9C",
"$X c #D9B697",
"%X c #E1BD9D",
"&X c #C5B2A2",
"*X c #CBB4A2",
"=X c #CBB9A9",
"-X c #D3BCA4",
";X c #DBBDA2",
":X c #D5BAA7",
">X c #CCB6AC",
",X c #E2BFAA",
"<X c #DCC29C",
"1X c #D9C199",
"2X c #E3C49D",
"3X c #E6C79C",
"4X c #DDC2A3",
"5X c #DCC3AC",
"6X c #D7C4A9",
"7X c #DBC6B4",
"8X c #DDCAB3",
"9X c #D8C7B8",
"0X c #D2C6B6",
"qX c #E3C4A4",
"wX c #E5CAA4",
"eX c #E3C4AB",
"rX c #E5CAAB",
"tX c #EBCDAC",
"yX c #EBC9A5",
"uX c #EDD3AC",
"iX c #F4D4AC",
"pX c #E4CCB4",
"aX c #ECCDB3",
"sX c #E7CBBA",
"dX c #ECD3B3",
"fX c #EBD3BC",
"gX c #E8D4B8",
"hX c #F2D4B3",
"jX c #F4DBBB",
"kX c #FBDDBD",
"lX c #F7D6B8",
"zX c #F0CCAC",
"xX c #FEE2BC",
"cX c #D2CFC9",
"vX c #E8D6C5",
"bX c #FBDDC3",
"nX c #F4DBC7",
"mX c #EAD5CA",
"MX c #FEE4C4",
"NX c #FDE5CC",
"BX c #FFEBCC",
"VX c #F7E5C7",
"CX c #FFF4CD",
"ZX c #FEECD3",
"AX c #FEEDDB",
"SX c #F7E5D4",
"DX c #FFF4D4",
"FX c #FFF2DA",
"GX c #FFFADC",
"HX c #FFFAD6",
"JX c #E8E1D4",
"KX c #FFFAE4",
"LX c #FFFBEC",
"PX c #FFF4E4",
"IX c #F8F3EA",
"UX c #DCE1DB",
/* pixels */
"$.& O   & d d @ d N.a & r $ G &Xm.u.i ! B +XVXA.C.C.[.sX7XnX:XfX[.k.D.d.-.b.1X3Xx.w.-.w.(.3X4X@XzXr.r.xX1XuXb.*.F uXGXSX8X8XvXJX",
"].$.$ O a 4 S : a s.S q & $ ..mXsXt.4 X.@.`.pX XaX-XJ.`.F.pXF.`.y.:.V.k.5.R.1Xr.r.r.(.3XuXwX'.k.b.x.1XiXw.r.x.*.d J.CXVX0XK.L.6X",
">XA.O - J : f u f >.F t $ X $.nXnX.Xd > > u.pX@XNXfX.Xa.) G.t.G.V.+.4.3.P w.1Xr.b._.wXxXxX1X(.W.w.w._.b.w.r._.r.w.1XgX6XN.` >.P.",
"].m.$ o >.r q A s.>.*.o.i O V mX6X6X;.$ X T '.J.rXjX5X7.p >.p.6XfXy.~ } k Q _.b.x._.uXiXwXJ.R.@X . .r.-.w.r.1Xr.1XuX6XJ.s.*.>.G.",
"&Xm.r o j.` q (.gX7.1.|.a.p b >X1X|.G.>.*.;.7.D..XrX6Xp.d 7.G.xXxXp.*./.x.*.r.w.I r.wXxXrX/.R.).P  .b. . .I r.-.XX!.W.XX6X.XJ.6X",
",Xm.A o G.j.q gXjXf.s.@X*X/ p G.1X1X<Xq..X4X(.f.@X@X(.f.' (.Q.rXMXQ.*.4X3X-.r.-.W x.wXuX<X4XyXuX-. .r.r._.r.r.-.).z.8.g.<XuXtXMX",
":X`._ > Q.f.f 6XwXJ.G.z.'.[ 4 7.D.<XwXP (.CXuXz.oX(.z.z.4./.x.1XuXrX*.b.uXf.x.r.-.oXwX).!.rXxXlXb. .I _.xXiXr.r.OX~.9.{ k.$XuXBX",
"Y.-X[ f rXs.Z x.1XwX1X7.j.;.q 4.4.q.1X*.2XuX1X2XE.(././.4.x.r.<X!.uX*.x.uX(.x.w.E E.wX/.(.zXuX(.-.I P 3XiX_. .r.l.g.5.9.T.$XwXlX",
"R.}.h f k.[ +.aX1X.XR.j.p.7.Z , *.q.w._.1X_.3X<Xv.(.w._.3XuXf.b.OXf.5.<XDX<X=.q.k )./.f.1XE.Q W P Q c.OX^.5.| -.-.} 0.0.^.MXlXc.",
"hXw.k }.jXy.&.[.uXJ.p.d.R.}.*., I 4.r.(.3X3X3Xb.x.x.w.r.w.-.} g.b.f.e./.jXyXf.' u h [ z.b.x.w.*.-.r.b.yX_.=.} c.5.R E i.%XlX$X0.",
"b.x.!.rXk.6.mXAXVX'.j.W.<XlX_.k P E Q E.1XE.OX2XE.v.).l.Q k l.3Xb.b.R.(.wXBXqX) 8., U OXx.r.1X1XwXb.D.rXyXf.[ { } h P {.ZXZXyX~.",
"/.XXd.} / V.AXnXfX+XeXaX4XdXuXr.' 0.5.0.5.w.2XzXyX_.iX/.-.E 2XMX(.x.b.E.<XHXMX6.;XN 4.uXb.x.1X/.(.D.Q.tXkX}.[ g R ( &.zXFXlX{.i.",
"XX<X8.~ #.( Z.[.:X:XnXNXtX<X~.{ P %XyXd.' 9.$XT.yX).zXT.9.} %XyX(.-.-.x.oXxXkXV.D.6.D.qX_.f.w.*.p s.nXBXpX`.>.N T.bXlXbXNX$XW.i.",
"*.wX'.3.( / m.>X[.:XaXbXBXeX=.h u | ~.zX{.} 0.c.~.c.T.| 9.c.%X!.b.*.Q r.<XrXeX;Xp.'.T.y.e.e.r.z.Z |.HXSXpX X>.4 J.PXNXaXaX+XaXaX",
"d.T.j.i.i.[.sXY.[.sX,XsXFXdX4.[ ( U +.MXMX9.9.{.{.#Xi.' i.lXhX).(.-.Q x.tX4X+XeXh.'.W.*.W -._.uX6XvXnXvXnXpXu.1 N pXZ.B.[.W.nXlX",
"W.] XXGXY.c m.Z.[.sX+X'.bXeXk.#XXX%X{.,XhXeX$X8.bXGXY.+.k.AXtX~.b.w.*.x.dX<XF.4X~ t.}.k.W =./.oXgXVXnXgXvXgX|.6.! pXM.Y.sX[.,X,X",
"kXj.[ aXBX+.+X}.T.#.eXrX'.kXMXMXk.ZXtXrXhX8.+.3.zXBXaX~.rXhX{.k.~.E q.MXMX1X(.J.Q.A &.'.nX&.u | 8XlXoX#XqX+X#X;X@X}.!.>.>.G.p.p.",
"4Xf.] hXMXQ.!.j.{ ) 4XdX!.#X4X;Xd.hXqXoXoX&.R [ rXkXtX@XqXtXoXT.~.R g ;.f.G.G.s.j.F.fX,XmX:X&.( w.OX_.E.v.d.!.oXtXXX}.;.Z Z N >.",
"eX!.4.4X$XoX{ Y 9.) ~.#XQ.XX@XXXqXMXBXrX4XT.{ T.hXrXrXqX#X#XXXf.r.| 8.z.q.4.j.G.s.gXPXfXY.,XY.( d.3XXXb.~.E.tXuX@X4.:.t.j.>.u 4 ",
").~.g.~.#XxX/.!.v.W ' l.T.OX%XOXdXhXBXXXD.p.T D.jX#X4XqXW.T.Q.7.9.&.R.uX1X>.z.VX.XgXSXaX&.,X{.i.yXlXc.0.OXMXHXkXT.) ;.'.VXdXZ o ",
"-.0.c.-.XX2X$XOX| h j 5.~.b.^.^.@X!.<Xp.' ' Z k.dX/.XXXXk.k.c.+.} ( E 5.j.x.6XGXBXgX5X!.] ,X,X,XyXyX-.| #XBXFXwXd.7.}.rXBXVX] : ",
" .r.c. .^.-.r.v.P P I b._.e.l.c./.T.~.d.' ' y.wX;XXX!.!.W.Q.k.[ L i.p.g U D.pXBXBXjX X! N ,XmX,XY.).9.e.yXxXkXoXU ' Q.6XBXMX' @ ",
"| ~.0.c.3Xv.%XMXc.-.I c.OX0.r.c.k.d.7.8.T R !.lX#XrX#X!.#X#Xd.U g wXyX' T R.aXjXMXdXW.q s Z.[.V.0.c.=.c.iXhXtX~.u k j.6XxXpX) : ",
"c.zXE b.^.5._.CXCXb.l E b.0.c.v.j.k.;.8.~ U <XMX4XMXtXoXdXrX3.d 7.qXR.T 8.qXjXNXNXyXV.6 / ( ~ #.9.=.L -.wXtX#Xg.U [ 1XpX.X7.) t.",
"_.iXE j I } _.kXiX3X^.j > -.b.yXhXoXk.T.R R [ T.j.lXrX+Xp.[ q.T d.v.f.4.D.<XtXkX,XeXU h &.Z.:Xg P j 0.yXiXyXv.k.*.}..XD.D.7.` 7.",
"^._.5.P u r.CXOXyXOX_.R h 5.e.E.yX}.6.7.[ XX4X<Xj.g.3.p.T.}.#X!.dX4XD./.jXkX@XW.;XY.p #.aXAXPXk.> u E.iXOXT.j.oXkXCX4Xt.:.;.[ p.",
"oXXX0.g , ' tXR.oXR._.V.z.~.f.f.d.j.' T T dXMX4XoX;.' 4.!.qX}.XXHXMXtXwXtX;X!.'.bX,X&.+XAXbXvX#.= l l.).d.0.T.xXHXGXdX7.) Y [ t.",
"@X4X+.u d u d t.W.h.D.qXjXaXk.;.3.f.;.' U qXlX#XXX3.p.8.Q.XX*.;.hXCXxX4X%X$X~.{.{.,X+XaXnX:X{.t.> , =.c.0.d.d.XX}.rX}.) r Z s.-X",
" XV.k q S A a [ j.>.:.8XHXbXJ.[ ;X#Xd.8.{ qXjXrXy.T 6.;.W.rX4.U f.6XwX<XaXtXY.| Y.%X,X{.Z.a..X.XL j l._.c.0.W T *.) f ; > *.8XGX",
"6XS ; o ; G.6XG.s.:.>.8XGXFXfX.XGXqX;.[ [ 4XtX#X8.T R 3.rXHX@X] A x.D.j.T.T.0.] ~.{.Y./ s ! a.G.| Q v.v.8.8.8.f.[ > = q ) @XBXDX",
"J.S S r r K.VXgX6X=XN.8XZXVXZXvXDX4X{ T U !.XXk.j.{ Y D.BXCXqX;.*.*.;.*.+.E ( i.( j 6 = - p ` G.d.} l.l.e.OXhXCXz.f d p.@XpXgX@X",
"o.s.0X6X6XJ.,.HXLXKXpXgX8X].8X:XaXtXD.6.Z T.W.d.} ] T qXBX4X!.+.j.*.Z y.{.y.( &.j = 9 @ o o 1 [ 8.Q e./.zXDXDXCXkXd.p.4X-X.X*X|.",
"K.6X8XZXVX`.t.C.,X,XaXmX+X[.:X:XeXZXNXV.] k.'.&.i./ h {.bX;X'.h.s.1.t.-XGXBXa.s : q ;.Y =   o :.xXj.7.x.#XxXlXyX^.%X{.Z.A.A.M.m.",
"SXFXgX`.J.B.X.D A.Y.Y.[.[.{.;X,XeXhXaX[.y.V.~.y._ R N W.aX+X!.y..XJ.G..XFXKX XA r A `.S   6 C.VXFX8X>.7.XXXX3Xv.c.&.( ] #.,.$.H ",
"ZXKX8X1.N.-Xa.s 8 / Z.+X[.Y.[.aX;XZ.i.Y.+X,X'.] ~ ] +.W.;X!.h.] j.>.,.8XZX8X XpX(.: q n / 6XPXBXKXCXn A k.g.OX0.0.U R _ M w 1 O ",
"gXvXH.F F.AXfX+.6 s / &.Z.Z.;XBXi.+.y.'.lXbX#X#.( h.h.W.W.Z.y.N >.a >.fXNX|.*XNXJ @ q >.|.pXnXfX0XxXF d ) ' !.tX| u h ! 6 5 F o.",
"=X]...m A.AXSX Xb 4 = R eXtXT.V.~ #.V.:XpXNXbX'.R h.i.h.h.h.y.s n r A s. X Xs.a X F 7.1.K.K.L.0XN.6XH.B 0 u +.GX2Xh > q 1 ! 8XGX",
"o.H c ^ ,XAXmX:X/ 6 o N 4X}.[ ] +.~ ( y.eXPXAXW.V y.&.6.y.y.#.6 4 @ n G.N.` q X w :.F *.6XG.s.1X9X&XC.D s p N @XrXg @ : Z G.nXZX",
"< < 8 ..>XnXsX-X+X:.; = k d Z .X#.M B h.fXPXnXM.p _ ..+.h.Z.6.8 r X J DXK.q $ i t F S t.G.S 1.gXSXC.V o.u./ N M Z = X f G.gXjXgX",
"< < o < X.].:X5X:Xa.p u ' d > *.h N M.nXnX,X;X:X9 p b #.[.:X[.! q @ >.vXN.q $ # q n m F J >.K.N.=X1.i C.A.b / p u p d >.@X6X1X1X",
"< X / >X>XA.,XsX:XQ.:.f q u f f p 1 H.PXvX XF.N 1 o 6 s t.bXfX<.$ + w L.G # y & X S 1.>.y y F r O $ 2 t m S n r o.A S >.J.1XG.G.",
"o < ..,XSX,XA.[.B.F.F.;.f q q p - s  XpXA.aXvX! 0 5 b - 1 `.sX Xw S m >.>.S S q a L.JX0Xr X 4 @ O < - # # 2 S J n F >.t.7.7.s.1X",
"6 c p &.:XZ.X.Y.u.-XsX X` q : ; o 4 M.7X*X7X7X#.u.M.M.i 8 M.C.X.&XZXK.o.o.J y . ,.vXKXFXo.% % . o X O 5 @.K.0XK.v S o.t.>.A *.>.",
"( / 6 p N c B u.#.`.7XH.^ p i m i i %.:X*X X*XA.`.7XvX<.i B i w PXLXJX,.n r y @ M.8XJXJXP.v q @ X o 5 %.vXLXKXJXN.G G N.J.>.q : ",
"U L &.&.b 6 p p s ] %...V ..A.>X&X&XL.M.m.`.&XJ.H.vXAXC.5 - V 9XAXvXSX0XF C 1.P.N.I.I.6XP.J S y 6 N :.G.K.0XcXJX0XH m K.JXs.q @ ",
"g U ~.$X( u 6 o c V / V ..m.cXPXPXnX>X&X:XP.,.M.1.F.].@.t e <.KXFXI.IXvXm & F N.1.K.N.1.o.v x n Z ;.B.J.J.K.K.P.J * 7 N.8XN.S d ",
"r.l.c.| L u > 9 B / ..V V $.S.&X>XH.C.8XPX`.D o.c i a 8 n F ! K.vXK.0X1.& .   % m ,.G v v y v m k W >.s.J.P.2.x + . & m ....^ D ",
"lXhX&.l p p = 9 6 B ..V c c C V v 1.%.1.mXmX1.D 1 i v 5 ! :.` B.=X6X6XF f v # & % r # X y a n d w Z ` F r & % . % 7 3 & < i i 5 ",
"kXtX%XV.>   6 eX,X+.1 s / 6 < 5 y v y y ,.0X1.< w i 4 M h g #XlX1XJ.G.G.@X6X` o : @ X : *.k *.k y y y x 7 + . & &   w O < 2 4 5 ",
"kXtX$XT.' u +.ZXAXnXZ.[.y.6 - 6 a J G y & y w v w b N g u L c.b.w.x.x.x.6XfXs.$ @ @ @ : S d 4.>.y % & z z & % $ X O 3 3 # 1 2 5 ",
"!.W.h.j.V.#.y.bXbXmX;X[.#.6 / Z.C.J 3 $ q y w V 8 B h.#.U =.e.5.f.wXuX.X6XVX|.b q y r k 4.w.<X6X,.* % y C m m C 7 F X.m.8 4 ; : ",
"j.B.6.a.`.y.t.7X:X,X X[.&.X.mXIXDXs.$ 3 >.1.X.S b / [.V.4.k.*.*.x.CXGX1XJ.jXnX].>.*.>.1.1XgXHXGXGXJ % 7 G 2.L.K.1.0X8XPXM.0 8 4 ",
"/ [ O.t.a._ _ `.*X[.[.>Xm.S.nXSXGXrX:.T #.%.../ N p y.y.] 9.T } 7.uXgXj.B.nXKXnX1.1.N.J.@XnXMXGXLX$.3 v $.&XAXPX9X7XnXKXeX4 s b ",
"$ q <.6X|._ ^ u.:XA.%.%.X.m.nXmXkXBXrXp.#.( / ] 6 - s ~ R ] ;.f.>.1.>.S %.:XpXH.J >.N.1X`.>X`.fX=Xn t J 1.=XLXAXnXH.*X:XH.- u s ",
"$ : j.DX-X<.N.-XnX&Xm.%...A.IXnXyXtX{.c.k.6./ s > M ] M.y.8.}.}.s.` y q c X.@.X.F m ,.0X:X7Xu. X@.w m o.F C.nXsXsX,.<.t.#.b p b ",
"q o S G.S i `.AXmX].m.%.V m.mXY.XX^.l.Y.$Xh.p 9 / :XbXAXeX`.aXG.J.F w # O < m %...w S :XmXAXu.M.@.i D D 2 ^ 7X*XC.^ ^ :.X.H.^ ..",
"- ; p / / c %.SX[.A.Z...c 9 %.[.j.1Xv.6.W.W.R 1 SXFXAXNXNXrX X1X=X].b < 1 < c 1.1.D w %.AXmXm.A.7X^ p # 8 A.&X%.V F v ^ F J.].:X",
"0 p N / U e ( aXmXW.%.B b 8 m.Z.x.4XR.) +.y.! 0 AXKXPXVXfX6X6XgXSXmX%.c 8 - i ..O.S : b A.m.$.A.*XC.%.$ e cXSXm.2 - 8 F S.K.:XcX",
"' ] ] ] B 6 ( ,XeXu.U / ( / Y.A.j.6X.XS a B b r vXAXAXfX6XJ..XvXKXLXM.8 o X s #.<.F - $ e 8 c A.K.,X>Xc i ,XSXS.z + $ w n.$.=XJX",
"8.8.( U L u | ,X] > 9 B _ b _ #.J.8X6X,.w $ 3 w &XsX7X|.G.>.;.G.mXmX%.1 + X B :.<.O.M r 8 O - V >XmXSXm.C 2.S.>X1.z & % C G n.P.",
"3.} L j j j ( {.L 9 9 | ( 6 h ( 0XvXJX0XG + $ z >X>XS.>.` S d Z F @.D v - ; O.s.7.t.1.>.V < X O K.cXLX&XK K 2.cXI.n.* * x n.2.x ",
"| E j j I I ( | i.( j {.&.U ( m.0XUXLXIXK % 7 H >XS.D e d S Z ! i v c n q d (.pX<XJ.s.` i 5 < 8 H =XJXS.K K n.I.UXI.* * x cXn.* ",
"c. .j L | 0.|  .i.0.( ^.i.0.&.Y.I.cXLXcXG * x $.m...3 $ a ) [ 8.%.V r s q d 8XHXDX4Xs.N 4 5 B H z n.m.G K n.K n.UXcXK * * n.n.x ",
"b.-.l l 0.c.l.0.0.c.0.{.c.,X,XY.n.I.UXU.* * K n.$.C $ # p ` ) +.A...m S q d 4XGXCX6XG.+.b c V V m G C z n.U.K K U.I.I.x * * x * "
};
