/* XPM */
static char *d7b30ad7e3dd49bedb572ee10e69da43b3NGXsGFuqiHJqCX[] = {
/* columns rows colors chars-per-pixel */
"64 64 256 2 ",
"   c #1E0600",
".  c #250102",
"X  c #2C0003",
"o  c #2C030B",
"O  c #29070B",
"+  c #340103",
"@  c #3B0004",
"#  c #35020B",
"$  c #3C020B",
"%  c #33080E",
"&  c #3B090B",
"*  c #2D0313",
"=  c #330313",
"-  c #3C0413",
";  c #340B12",
":  c #3C0B14",
">  c #3D0C18",
",  c #360319",
"<  c #3C1319",
"1  c #2B170E",
"2  c #3D1423",
"3  c #430103",
"4  c #4B0104",
"5  c #43030C",
"6  c #4B020C",
"7  c #440A0D",
"8  c #4C090D",
"9  c #450A06",
"0  c #520005",
"q  c #5A0006",
"w  c #53020C",
"e  c #5B010C",
"r  c #53090D",
"t  c #580A0C",
"y  c #53120C",
"u  c #440313",
"i  c #4C0414",
"p  c #450A13",
"a  c #4B0A14",
"s  c #45011B",
"d  c #4C031B",
"f  c #440C1A",
"g  c #4C0C1A",
"h  c #530313",
"j  c #5C0314",
"k  c #530A14",
"l  c #5B0B15",
"z  c #54031B",
"x  c #5C031B",
"c  c #530B1A",
"v  c #5B0C1B",
"b  c #4D121B",
"n  c #471418",
"m  c #5A1316",
"M  c #53121D",
"N  c #5B121C",
"B  c #551316",
"V  c #46110E",
"C  c #63000C",
"Z  c #67060D",
"A  c #630214",
"S  c #6B0115",
"D  c #640A15",
"F  c #680C15",
"G  c #64031B",
"H  c #6B021B",
"J  c #630B1B",
"K  c #6A0A1D",
"L  c #73021C",
"P  c #7B031D",
"I  c #740B1C",
"U  c #760519",
"Y  c #63131C",
"T  c #6A121D",
"R  c #661719",
"E  c #76151D",
"W  c #73221E",
"Q  c #480623",
"!  c #540223",
"~  c #5C0223",
"^  c #5D0B23",
"/  c #5C0C2B",
"(  c #550728",
")  c #491726",
"_  c #551321",
"`  c #5B1322",
"'  c #5A1926",
"]  c #5C132D",
"[  c #5C1C2A",
"{  c #551928",
"}  c #5E0D34",
"|  c #640222",
" . c #6C0223",
".. c #640D22",
"X. c #6C0C22",
"o. c #6C0D2A",
"O. c #66072C",
"+. c #730323",
"@. c #7B0423",
"#. c #730B23",
"$. c #7B0B24",
"%. c #74032B",
"&. c #7B022B",
"*. c #740C2B",
"=. c #7B0B2C",
"-. c #631323",
";. c #6C1223",
":. c #641B24",
">. c #63132B",
",. c #631B2C",
"<. c #6E1A29",
"1. c #6E112C",
"2. c #731325",
"3. c #7C1424",
"4. c #73142C",
"5. c #7B132C",
"6. c #741B2B",
"7. c #791C2D",
"8. c #771B22",
"9. c #650134",
"0. c #620B33",
"q. c #6B0935",
"w. c #780837",
"e. c #681736",
"r. c #7C1334",
"t. c #751B34",
"y. c #7C1B34",
"u. c #73113D",
"i. c #7C1C3B",
"p. c #761538",
"a. c #532B30",
"s. c #6B2329",
"d. c #7D2425",
"f. c #792429",
"g. c #692538",
"h. c #782537",
"j. c #753335",
"k. c #7B1B43",
"l. c #791845",
"z. c #761346",
"x. c #7B2748",
"c. c #773446",
"v. c #6E2141",
"b. c #83021C",
"n. c #88051A",
"m. c #840423",
"M. c #8C0323",
"N. c #830A24",
"B. c #8B0B24",
"V. c #82042A",
"C. c #8E012B",
"Z. c #840C2B",
"A. c #8B0C2C",
"S. c #910124",
"D. c #940C2C",
"F. c #9B0C2D",
"G. c #95062A",
"H. c #841224",
"J. c #84132C",
"K. c #8B132C",
"L. c #8C1B2C",
"P. c #881729",
"I. c #94162B",
"U. c #850333",
"Y. c #890234",
"T. c #830D33",
"R. c #840A39",
"E. c #8A093B",
"W. c #940C33",
"Q. c #9C0D31",
"!. c #970737",
"~. c #841432",
"^. c #8C1434",
"/. c #851C33",
"(. c #8C1C34",
"). c #84133C",
"_. c #851C3A",
"`. c #8C183B",
"'. c #941433",
"]. c #9C1533",
"[. c #921B34",
"{. c #941D39",
"}. c #9A1739",
"|. c #A30738",
" X c #A21537",
".X c #A31A3C",
"XX c #A5183A",
"oX c #A50F2F",
"OX c #82262C",
"+X c #822333",
"@X c #8A223A",
"#X c #862638",
"$X c #9B233C",
"%X c #942439",
"&X c #853739",
"*X c #94353D",
"=X c #A4273E",
"-X c #95413F",
";X c #8A0845",
":X c #930D43",
">X c #9B0C46",
",X c #831342",
"<X c #8C1543",
"1X c #8A1B43",
"2X c #841D4A",
"3X c #881C49",
"4X c #941444",
"5X c #941A45",
"6X c #94124A",
"7X c #9B1C4B",
"8X c #9A1947",
"9X c #9C1D53",
"0X c #9B1756",
"qX c #8D1F50",
"wX c #A60D47",
"eX c #A71749",
"rX c #AC1A59",
"tX c #A61955",
"yX c #B61C59",
"uX c #B20E51",
"iX c #872648",
"pX c #982846",
"aX c #993749",
"sX c #892A55",
"dX c #9C2354",
"fX c #972759",
"gX c #8B3359",
"hX c #95335A",
"jX c #8C3049",
"kX c #A82649",
"lX c #A72659",
"zX c #B5255C",
"xX c #A83659",
"cX c #BB305A",
"vX c #A81B61",
"bX c #B51B66",
"nX c #993562",
"mX c #973363",
"MX c #AA2863",
"NX c #B62966",
"BX c #A73365",
"VX c #BB3366",
"CX c #BA3575",
"ZX c #BB2877",
"AX c #C51549",
"SX c #C32669",
"DX c #C3336B",
"FX c #C52878",
"GX c #CD3474",
"HX c #C62956",
"JX c #9C5554",
"KX c #8F454E",
"LX c #A25555",
"PX c #AD5E67",
"IX c #C1756F",
"UX c #D48581",
/* pixels */
"*.X.H  .#.#.G e 0 0 h l Y m k z 9.z.l.sXsXiXiX@XL.]. X].D.m.L S h w w h k a 6 @ 5 5 6 6 i j v ..q C A L @.L P P W.8X8XV.L &.E.5X",
"iXy.4.#.2.2...G e w 0 6 0 k m -.} 9.9.9.e.t.r.L K.D.]. X'.V.L G J v v c c c a 6 5 6 6 h l j J G H S S $.J.A.&.P @.V.V.V.V.A.5X5X",
"1.o...X...4.7.+X6.;.J e 0 0 w x q.9.! ! ( ..G q n.n.]. X].A.+.G x i 5 5 a a g a k i w h G K G A 5.$.#.$.~./.Z.+.S +.@.V.A.8X}.W.",
"5 6 i h x ..6.h.t.7.7.8.K D e h 2Xz.q.! ! ! x j S b.I. XXX'.V.S 6 $ @ @ 7 a M ` ` h 6 j G $.$.L (./.5.L X.#.#.X.+.+.&.V.E.!.!.C.",
"@ 5 i i h h v J J K ;.3.3.3.3.5.sXsXk.0.z z x G S U S.]..XXXD.#.k p $ $ p M ' [ -.c 0 e H =.K.L.%X%X+XS 0 w G J X.X.@.V.M.M.S.G.",
"$ $ u g M ` ` -.T K K I I H.H.~.2XsXx.0.i i x X.L b.M.Q.XX.X'.5.:.M 7 5 $ 7 a k N j 0 w S $.~.(.[.pX%XH 4 3 c v x G  .@.V.n.G.|.",
"# o # - M ' :.-.<.;.2.I P P b.@.r.i.p./ z ^ -.#.J.B.C.F. X XD.N.t.:.k 6 5 5 6 6 h 6 w 0 j K #.5.n.%X/.D 3 5 i a v z G V.|.|.|.AX",
"f - X + & f a 6 l ..7.(.%XI.B.b.=.p.e...] g.t.t.{.'.D.G.Q. XG.m.(.7.X.G j v l c 5 5 i i h j v K D H.3.j 4 6 7 @ s.v H '.eXAXAXAX",
"> : > : p & $ 5 @ 4 q H P B.n.m.(.G h h.x.,.v 1.pXkX.X XF.G.F.].}.A.@.S A G l h 3 5 i g V a a k C I 8.7.R B 7 $ p v 4.{.kXHXHXAX",
"- ; : > : : 5 5 3 4 e H n.P.B.M.U 0 4 J <.>...t./.`.'.F.S.n.n.M.].D.m.P L S j h i a a n n n n V A I E T B 8 5 5 i v ;.Z.'.|.|.G.",
"# # $ $ & - & 5 6 6 0 S N.K.I.M.U C 0 q c z v | *.Z.A.B.G.M.n.B. X XQ.D.Z.L A 6 k 5 @ & : < ; 5 t C q 4 3 3 3 9 5 l G L b.S.S.n.",
"u 5 $ # + $ $ $ a 6 4 A 3.L.P.n.B.H.F t 6 z z h X.%.V.K.]..X].I. X X.X{.{.5.X.h c 5 + X & : & $ 0 q q 4 3 3 6 6 6 j D S P n.S.n.",
">.` a $ @ # $ 7 6 5 4 h K 3.H.n.I.I.H.Z h v >.| G S L V.}.=X=X$XD.'.}.$XpX+X2.J Y k 3 $ 6 b a 6 w e 0 t e l l l e J K S L $.B.N.",
"h.e.` c p 7 7 p & 3 5 w A I I 3.I.].I.H.A l z x x j A P I.}.%XL.L $.5.(.#Xh.<...v h 5 6 6 k k w t 0 q 0 t t C t D K K G S L $.+.",
"O.....` M g p 7 $ 5 6 0 e F E K.oX=X$XOX;.h z ^ 4. .S L K.L.P.I e j G ..;.-.J l 6 0 6 6 e e A j l t 0 0 e e q q A K K q e A H K ",
"5 i z ` ' b p 5 $ 5 a 0 e C I P.n.n.I.%X/.#.4.@XpX`.@.@.^.{.H.K 0 6 6 w k k 6 6 h j A A A S L L OX8.D C D D D A A J G 0 0 j K ..",
"g p Q { { b + . @ 3 w D 8.L.L.L.Z n.L.L.B.n.B.I.kXXXD.b.&./._.y.h w h J v h 4 6 J 0 e j H L N.}.kXeX].L j j h i c ^ c i h  .X.G ",
"g.g.[ { n f p p 5 6 Y 6.+X3.U C C Z H.H.B.B.G.oX=X.XQ.Z.Z.`.+Xt...v v ` N h 6 w J j e A L $.{.kXXXeX}.m.H G ^ g f g d i h .. .| ",
"x.x.h.] d u i c u h ` <.6.T e 0 q q Z U P.].oXI.XX.X}.A.5.r.6...-.N v N v c k v x h j C S L (.kXXXkXeXA.+...x h 6 i i i c ....G ",
"l.k.k.p...! z d g i i i z v j j 0 4 q C H.].].F.'.}.{.L.2.;.x 6 h 6 6 k c k c ` h l j A A A =.%X].eX{.^.@.X.x i 5 5 6 h v ..^ v ",
",X3X1X2X2Xk.e.e.v.( Q s u i i z h 6 4 A $.(.I.A.[.$XpX/.;.l 6 @ 3 @ 5 a M g k c c v ..;.K S #.^.Z.'.{.^.Z.5.$.K 6 4 4 h v ^ N ` ",
"6X;X,X;Xl.2XiXsXx.x.e.} / ! s - z i h j L =.Z.Z.{.pXpXOXJ 6 @ @ 5 5 5 c a a 8 8 6 6 l J G G S $.S $.~.J.~.{.@X@XS j 6 i z a c ' ",
"z.;Xz.%.9.q.l.sXgXx.sXx.x.v.} / d ! ! ~ x H &.~.J.@X@X<.r 3 @ + 7 5 5 p g 5 7 g 5 5 5 w e 0 q A C S @.P N.(.$XpX/.X.j w 6 5 7 b ",
"q.z.l.u.9.( z.x.gXsXgXsXgXmXhXgXd ! O.~ x G &._.+.5.7.v @ + + + & @ + $ $ & p M N i 6 w h 0 0 e e S S H L N.^.(.pX5.j 6 3 + $ p ",
"] e.e.( ! } u.u.2Xl.w.w.l.qXfXfXmXv.Q i x | R.pXpX_.1.h 5 + + + X + $ & 7 p n M a a 6 0 w w j e q C S L L P (.kXaX%X;.w 3 @ + # ",
", Q ] ( ! ( / O.u.u.,XqXdXfX9X3XsXx.x.u.| j  .).pXk.4.>.M f & # @ $ $ u p p n b u 6 h c j A A A S H L L L L $.H.@X5.A 6 3 @ @ + ",
"X - ) > u d z | |  .w.).<X<XR.w.sXgXnXhXl.%. .&.1X).o.~ d f : = p p $ & 7 p V g 5 i c v ....K K J.K.L.K.H.I L S E K w 6 3 3 @ @ ",
"% ; $ - u d x x x G G G  .%.%.%.hXjXfXhXxXlX4XT.lX1XO.h $ # , , f 7 @ @ 5 5 p 7 a k v J ;.2.5.~.$X=X$X$X%XJ.K A A w w w w 6 4 3 ",
"& + + y s.s.-.j G G j j x G o.t.iX2X1XpXlXlXlXlXlXfXqX0.u = , Q $ @ @ + $ $ 5 5 ` N v j J 5./.%X}.].I.P.3.I D t r r r l l l l w ",
"+ @ y f.KX&XR q 0 j l v v v v -.| r.<XR.U.:XlXzXlXlXfX2X0.s , * + @ 5 5 $ 3 u a ` N h j D K ~.%XI.F.B.n.U D l w 6 8 k m Y ;.D A ",
"4 t W -X-Xd.F q 4 4 r r a 7 7 a j %.T.V.+.U.>XtX7X9XdXsXl.} Q , $ 5 c B a 5 a B v h h w e A #.Z.F.oX].B.I j q 8 8 7 a m Y K D D ",
"W d.OX-Xd.R q t 4 0 6 6 5 $ p b j G H H &.'.}.U.VXlXdXfXmXsXz.( u x ,.,.v i h >.h h 0 0 0 h l J J.].@XP.F 4 3 @ 9 7 8 a m J A C ",
"OXT t D T K j 0 w j x h j ^ ` ^ l j J G G A H #.T.T.;X6X0XMXZXMX,X1.1.i.x.t.r.y.H A G -.B + O n n B k N m t 8 9 9 V n y a i j x ",
"w 6 0 l ;.J G h 6 h j h z x x h 6 w w t t j J K #.=.R.:XrXbXbXbX9Xu.%.q.i.i.r.r.+.G G -.n .   1 < n p 8 6 4 4 9 @ 9 V g i h ~ | ",
"T f.&X&Xj.6.N w 3 6 h h x v z 6 0 h t k t j G K +.=.R.6XtXbXbXbXMXi.~ ~ e.t.p.t.G j w l 7 .   1 o # & 5 4 3 3 3 @ 9 8 7 h z ~  .",
"j.JXPXJXjXs.m r @ r Y -.` ^ v h h l D l l j D K X.%.&.;X>XvXbXvXBX2X~ d ! 0.g.h.x h 6 5 @ X . O . + 5 c l q 4 3 9 9 9 6 h h G G ",
"k &XJXKXs.' y y 6 :.j.s.B c h k v Y J m l j j A H H +.&.E.>XrXvXMX3XO.u - d g.c.g.{ 5 @ @ + X X X $ u h J D D t q 6 6 6 w j G S ",
"4 j.JX&XR R :.y m s.j.:.k 3 5 4 k l l l w 0 q k #.X.&.&.:XtXbXbXlXqXq.s o , { a.c.g.v i 6 4 @ + - - $ 3 6 e G J v j 0 h j H +.+.",
"W LXIXJXW :.R t R :.Y t 6 r w 6 h k l k r w j l ;.*.r.<X7XlXNXMXBXfXq., * * 2 2 g.[ _ c v N i @ f f i h j A S S K D j l K 5.A.A.",
"&XIXUXJXd.R t 3 R t 4 4 w R Y h r h l l l l J J A G =.^.5XtX0X0XCXMXu.Q * * * * ) f i ^ 6.6.J 4 ` e.h.iX`.~.$.H X.G G K 5.(.{.%X",
"OXd.OXOXOXR Z Z R E 8.F e t D D w h c l l l m T T ..G G T.lXtXR.<X6Xl.e., o * , = = $ ..aXaXX.6 ^ u t.o.~.pX).xX%X*.H G e S L.[.",
"OXW W H.W E W OXOXOX8.F A F K D h c l c k t t l D ;.#.H =.8X7X:XtXdX3X} , . = 2 g.e.>.y.aX@XS j i i |  .&.4X}.kXpXr.X.j 4 C I U ",
"R Z R E d.d.OXOXaX#XT A G ;.J w w h c r r 6 8 t 0 ;.4.H  .T.`.4XrXMX0Xz.! , , Q x.x.+XfXxX~.j A h O.O.<X7X8XkX6XT.=.o.j 4 t 3.I ",
"Z t R OX#Xd.d.OX+X6.D h D K A 4 6 w h k 8 t l m 0 J X.G A  .&.E.>XtXtX2X9.! u i ^ | =.pXxXJ.A  .x iX_.VXVXtXNXU.%.=.t.G 4 D E F ",
"t t R s.s.:.Y Y w h l h h c c 6 6 h h r r k m R t l J j A  .&.&.;XwXtX6Xu.~ ~ ~  .H L A.lX^.H r.| sXE.lXNXtXcXY.&.*.t.-.4 0 t 3 ",
"B 8 8 k 8 8 a B + 5 c g a d d c c c k k 6 8 r m m l A D X.*.=.T.rXbXbX6X;Xw.,X5X9X8XC.V.^.~.&._.r.iX).E.tXzXDXzX%.x j z 3 3 4 @ ",
"b & + + + + $ p X - g ) p f f g c c h i 6 4 8 y t w j G #.5.`.5XNXSXbX0XE.;X6XzXzXDXkXY.V.@.+.y._.).4XU.wXDXZXVXR.h 5 k r 9 y y ",
"+ X X + # X X X # < < ; - > f f 5 6 5 3 9 8 m m @ 4 w v X.4.@XpXwXtXtX>XU.&.Y.>XwXDXcX}.V.+.S  .r.%.7XY.>XGXrXrXNXw.~ o.-.t m W ",
"5 + + X # O .   ; ; ; ; ; ; < f @ $ 3 5 $ 9 7 5 $ @ @ 4 c ;.t.#X5XpX7X!.!.C.S.!.zXcXkXT.S C I J.+.+.A.!.wXwXrXSXbX;X9.z.z.^.3.2.",
"u $ + # X o O . O O O % % ; = & & $ $ $ @ $ $ & 9 @ 5 6 v -.;.<.+X_.{.}.|.!.|.!.eX8XT.L H S U I @.@.A.}. XXXyXGXZXuX;X;X;XE.J.H.",
"g u $ # # O O X O O O % % & # # 5 5 5 @ $ + + + 5 7 a k N N v j | +.V.!.wXwXwX|.eX^.+.A H L L S Z.=.T.'. XwXSXGXFXFXbX0X6X5X%X%X",
"_ _ f p - # o . O O ; ; : ; # $ 5 5 5 $ @ $ $ @ p 7 g k v m j h j A L !.uXyXyXuXzX<X+.G G K K I ).~.A.A.W.|.uXFXbXFXZXvX<XpXpX*X",
"' ' ' _ f - X . o # % : > - $ $ 3 5 5 5 5 5 & 5 p p p i g k l x | +.Y.eXSXSXSXzXMX1X%.^ x x X.+X_.~.Z.A.C.G.wXSXuXZXZX0Xw.w./.y.",
"' >.,.' g $ + X + # & = & $ $ $ 5 5 6 5 7 u p p n a 5 5 a k c ..=.w.:XtXyXyXyXtX6Xw.| z h i ..iX/.r.=.Z.M.C.|.yXbXZXCXvXw. .K T ",
"^ _ ` g 5 $ # # $ # $ $ $ $ - $ i i i i a f f p g p 7 5 i g c x  .&.E.wXuXrXrXrXz.~ ! d i u ~ h.4.=.$.m.m.M.|.yXZXZXZXMXz.| h v ",
"c c i 5 @ + $ i u p u u u p f d c c k a a u p p p p p p a k k z | &.:XtXrXNXNXZXw.~ d ! ! u i ..q.#.$.Z.M.M.|.zXbXvX0X0Xw.h 9 6 ",
"d i 5 5 u i d i $ d { [ [ b f a g i i u p f p - $ f g a i i c z  .R.4X8XbXVXZXdX9.q.} Q u d z x j x L N.n.b.S.|.SX>X6XmXqX0.i 5 ",
"i u u i c c a 6 c M [ [ { p - $ g d p u p f f p $ f g s i c z ~ %.w.;X7XNXNXMXmXq.z.e.Q u d c ~ i j G I b.b.M.G.wX;X0XBXz.Q b [ ",
"M g c _ _ c i $ c _ ' ' b > # # g f s - s f f f - g _ i d z x j q.%.R.9XMXlXMXBX} 0.] s u 5 i h i h G +.b.b.S.F.wX>XdXmX} # & b ",
"' [ ' ' M d i @ i i g f f p p : f p > : p f f f s g z i d j x x | %.).6X9XlXdXsX( ( ( u $ 5 6 w z x G $.B.n.S.G.rX6X9XmXe.u % % ",
"{ { M b a d c c i u 5 - : : : n > > - : > f f f u d d i h | | G | i.1X%.&.<Xw.| ! ] ] Q 5 h l j ~ z G #.H.n.n.n.eX4XfXmXv.{ ) ) ",
"f f : p u c [ g._ g $ # # # o ; ; ; # = ; > > > - i i i x o.r.o.1.#Xi.G j | | i ] e.[ _ i h j j ^ ! G I n.n.n.n.!.>XBXgX( o < a.",
"& - & $ u g ,.g.] c $ + X o O o % * * o = > > , s d z z .._.1X_.jXt.| j j w | p.v.x.g.,.v l C l ^ ~ G #.n.n.n.S.eX8XfXl.*   1 a.",
"# & - - $ f ' s.[ g + X . X O o * * . * = ; > - f d z x *.iXfX5XJX..w G G h q.PXc.KXKXg.:.Y D D e.^ ..3.L.I.F.F.cX4Xw.} Q a.a.a."
};
