/* XPM */
static char *_3610908d5144c6c8f4857e701ea84e7RQcZu6gOjspuLfrS[] = {
/* columns rows colors chars-per-pixel */
"64 64 202 2 ",
"   c #000000",
".  c #000000",
"X  c #000000",
"o  c #060412",
"O  c #090614",
"+  c #000000",
"@  c #0A061B",
"#  c #0D091C",
"$  c #130E1D",
"%  c #0A0522",
"&  c #0D0824",
"*  c #0E092A",
"=  c #120D24",
"-  c #120C2D",
";  c #151123",
":  c #17112B",
">  c #1B162A",
",  c #0F0930",
"<  c #130E32",
"1  c #150E3A",
"2  c #171234",
"3  c #1A1432",
"4  c #17113A",
"5  c #1B143C",
"6  c #21163D",
"7  c #251D3B",
"8  c #150C43",
"9  c #180E49",
"0  c #1C1344",
"q  c #1C124B",
"w  c #1A0F51",
"e  c #1D1253",
"r  c #231A45",
"t  c #251C4C",
"y  c #291F4B",
"u  c #241A52",
"i  c #24185A",
"p  c #261B5B",
"a  c #282043",
"s  c #2C234F",
"d  c #2C2253",
"f  c #352B56",
"g  c #33255E",
"h  c #231764",
"j  c #251864",
"k  c #291B66",
"l  c #26186B",
"z  c #291B6E",
"x  c #271774",
"c  c #271972",
"v  c #2C1C73",
"b  c #2C1B7C",
"n  c #2E2163",
"m  c #322665",
"M  c #3E3166",
"N  c #2F207F",
"B  c #322570",
"V  c #3A2B72",
"C  c #372A78",
"Z  c #423665",
"A  c #40326F",
"S  c #2E1C84",
"D  c #2F1C8A",
"F  c #311E86",
"G  c #321E8C",
"H  c #331E94",
"J  c #342285",
"K  c #382786",
"L  c #3A2C83",
"P  c #34228C",
"I  c #3C2C8D",
"U  c #352193",
"Y  c #392496",
"T  c #3D2B97",
"R  c #362399",
"E  c #3C259C",
"W  c #3D299D",
"Q  c #3E25A1",
"!  c #3E2AA3",
"~  c #493883",
"^  c #47348D",
"/  c #503B8B",
"(  c #40289F",
")  c #453497",
"_  c #49379F",
"`  c #4B3A9A",
"'  c #4127A4",
"]  c #432BA4",
"[  c #4429A8",
"{  c #442CAB",
"}  c #492EAC",
"|  c #4531A4",
" . c #4934A5",
".. c #4E3AA5",
"X. c #4530AC",
"o. c #4B32AD",
"O. c #4E3AAB",
"+. c #492EB0",
"@. c #4C34B3",
"#. c #4E39B4",
"$. c #4C35B8",
"%. c #5136B6",
"&. c #5239B6",
"*. c #5136B9",
"=. c #543BBC",
"-. c #583DBD",
";. c #584788",
":. c #5A4595",
">. c #56439B",
",. c #655592",
"<. c #5B44A7",
"1. c #5C46B3",
"2. c #5943BB",
"3. c #644BAC",
"4. c #6C59A2",
"5. c #644DB2",
"6. c #6851B5",
"7. c #6C52BD",
"8. c #553CC1",
"9. c #5A3EC3",
"0. c #5C42C4",
"q. c #5B45C4",
"w. c #5E48C3",
"e. c #5D43C9",
"r. c #5E46D0",
"t. c #634BC3",
"y. c #6146CB",
"u. c #634ACC",
"i. c #684BC8",
"p. c #6E53C2",
"a. c #6B54CD",
"s. c #765CC8",
"d. c #664CD1",
"f. c #6A4CD5",
"g. c #6D4CD9",
"h. c #704FDC",
"j. c #6750D5",
"k. c #6B52D4",
"l. c #6C52DB",
"z. c #7359D5",
"x. c #7A5CD7",
"c. c #7253DD",
"v. c #7359DE",
"b. c #7D61C5",
"n. c #7A60DA",
"m. c #7554E2",
"M. c #7857E6",
"N. c #755AE3",
"B. c #7A5BE5",
"V. c #7755E9",
"C. c #7957EB",
"Z. c #7C5BEB",
"A. c #7E5DF1",
"S. c #7E63E7",
"D. c #7F62F1",
"F. c #8268D5",
"G. c #8366DD",
"H. c #8D72DB",
"J. c #805FED",
"K. c #805FF2",
"L. c #8264E4",
"P. c #8369E1",
"I. c #8464EC",
"U. c #8966EE",
"Y. c #8369EB",
"T. c #886BEB",
"R. c #997DE6",
"E. c #8463F4",
"W. c #8967F6",
"Q. c #8569F5",
"!. c #8B6CF4",
"~. c #8564FA",
"^. c #8A66FD",
"/. c #8769FB",
"(. c #8C6BFC",
"). c #916DF5",
"_. c #9167FE",
"`. c #916EFD",
"'. c #8D73F6",
"]. c #8E71FC",
"[. c #9274F5",
"{. c #9C7CF5",
"}. c #9473FD",
"|. c #9876FD",
" X c #957AFD",
".X c #9B7CFD",
"XX c #9D7DFE",
"oX c #9D82E8",
"OX c #9D81FE",
"+X c #A485FE",
"@X c #A586FE",
"#X c #A987FC",
"$X c #A788FD",
"%X c #A788FE",
"&X c #A88AFE",
"*X c #AA8CFD",
"=X c #AD8FFE",
"-X c #B18EFE",
";X c #AD90FE",
":X c #AE91FF",
">X c #B492FE",
",X c #B898FF",
/* pixels */
"                            .                     .           .                                                   .           . ",
"                    .                                                   .                       .   .     .                     ",
"                .                                                               .             .                                 ",
"      .     .             .             .         .                           .                 .                   .       .   ",
"                                                                                                                                ",
".                                                                   . X + + X X                                         .   .   ",
"                                                          o = 5 g / 3.7.p.p.7.6.>.>.~ y X                     .         .       ",
"                                                  X : g ^ 5.z.L.!.`._._.(.(.(.(.(.!.(.T.3.d .                                   ",
"      .                                       + m <.z.W.`.`.(.^.(.^.^.^.~.~.~.~.~.~.~./.(.!.<.3                   .         .   ",
"                                            6 6.).}.}.(.(.^.^.^.^.^.~.^.(.(.(.(./.(./.~./.(.`.n.A X                             ",
"                                          7 s.}.`.`.(.^.~.~.^.^.^.^._.}. X{.{.OXXXXX X}.(.^.^.(.!.6.s X                 .       ",
"            .                           Z P.`.~.E.^.^.^.^.(.(._.(._.|.+X%X&X;X*X&X*X@X@XXX(.(./.^.(.T.>.:                       ",
"      .                             $ :.!.(.(.E.W.W.).|.{.XX|.).`.|.@X*X=X*X#X#X%X%X%X%X@X|.^.(.^.(.(.`.s.r                     ",
"                                  f F.[.`.^.(.(.[.XX#X-X,X>X#X{..X+X&X&X*X*X*X*X&X@X@X@X+XXX|.(.(.^.^._.`.G.Z .             .   ",
"                                Z R.XX(.^.(.|.OX%X-X>X>X>X>X-X*X&X*X=X;X=X;X>X;X;X=X*X*X%XOXOX X}.!.(._._.`.[.:.$               ",
".                             > R.OX}.!.[.{.+X%X&X&X#X#X#X*X*X-X=X=X;X;X;X;X;X;X=X;X=X*X%X@X+XOXXX.X|.`.`.!.(. X3.;   .         ",
"      .                       ,.&X|.`.}.{.#X&X&X@X@X+X$X$X#X*X=X*X;X*X;X*X*X&X&X&X&X&X&X+X+XXX+X+XXX.X|.`.(.(.`.`.3.X           ",
"                            7 oX.X}.`.XX#X#X@X@X+X+X$X$X&X&X*X*X*X*X*X#X#X#X&X&X&X@X+XXXXX.X.X|.|..X.X|.}.}.`.(._.).M           ",
"    .               .     . 4.&X[.`.}.XX@X@X@X@X@X@X@X%X$X#X*X=X;X*X*X%X%X@X@XXXXXXX.X|.}.(.(.(.(.}.}.`.}.}.}.(.(._.n.;         ",
"                          7 R.XX[.`.}.XXXX@X@X@X@X@X@X%X$X$X*X=X;X*X&X@X+X+X.X.X|.}.`.!.E.E.J.J.E.E.!.E././.(.(.(.K.!.A         ",
"  .                       ;.@X|.`.`.}.XX@X@X@X@X@X@X@X@X%X%X&X*X*X*X*X%X+X[.|.}.}.`.W.K.J.M.M.m.m.M.Z.Z.J.K.E.~.^.~.^.7.+       ",
"      .                 ; H.XX[.`.`.|..XXX@XXX+X+X+X@X+X@X@X%X%X%X%X+X@XXX}.(.(.~.W.K.K.Z.M.c.h.c.m.c.M.B.Z.Z.A.E.W.^.L.3       ",
"                        ;.@X.X`.`.}.|..X+X+XXXXXXXXXOXXXOXXXXXOX+XOXOXOX}.}.^./.K.K.K.J.V.M.h.g.g.h.c.m.B.M.A.A.Z.E.(.U.y       ",
".                     ; H.XX[.}.`.}..X.X{.XX.X.X|..X X X|.|.|.|.}.OXOX{.}.}.~.~.K.K.K.C.V.V.g.f.f.g.h.m.M.M.Z.A.A./._.U.r       ",
"      .               ;.XX|.`.(.}.|..X.XXX.X|.[.}.}.`.}.`.(.(.`.[. XOX X X]././.D.D.D.C.V.m.c.g.g.h.c.m.Z.Z.Z.K.E.E.(.I.6       ",
"                    > F..X}.`.`.|.|..X.X|.`.(.(.(.^.(.^.(.(.(.(.'. XOXOXOX]. X/./.D.D.A.V.V.c.g.h.c.J.!.[.}.!.`.!.!.`.z.=       ",
"                    ~ OX(.(.(.`.|.|.|.|.`.W.E.K.~.K.K.~.~.(.(.(.}. XOXOXOX X].]././.~.D.A.D.Z.I.U.)..X{.[.P.L.XXXX].}.<..       ",
".       .         * b. X(.(.`.}.|.|.`.W.W.J.C.C.J.K.K.K./.(.(.(.}. XOXOX X X].].]./././.].}.}.!.L.J.k.k.i.%.&.G.OX].Y.p         ",
"                  V [.`.^.(.(.|.(.^.E.Z.Z.m.h.m.V.Z.A.A.A.~.^.(.].}. X X X X X].].E.N.l.m.c.c.c.9.} ' ' } } o.t.[.[.<.+         ",
"      .         o 5.|.^./.(.}.`.!.I.C.g.m.g.g.h.m.M.C.A.K.K.~./.].]. X X XOX}.Y.S.B.d.d.e.0.=.d.L.} ' ( ] @.=.y.'.T.d           ",
"                3 G.}.^.^.}.(.!.Z.M.m.g.g.f.f.h.m.M.V.Z.K.D.~././.].]. X+XOXY.g.0.$.{ t.l.q.=.*.-.[ ' ] X.&.q.j.'.6.+           ",
"        .       m T.^.^.^.!.E.Z.M.m.m.g.f.f.g.g.m.J.I.E.^.(.(.(.].].'.[.OX!.g.e.=.+.Q X.k.u.=.@.[ [ | o.#.q.e.n.S.a             ",
"                A (.K.^.(.K.J.M.h.h.h.g.f.f.h.c.U.).}.|.}.).!.J.l.k.d.f.B.c.y.9.*.} E E 2.f.8.X.! ! $.$.q.e.l.S.V .             ",
"                f (.K.^.K.J.m.h.g.g.g.g.g.h.B.!.}.!.U.B.c.h.f.y.e.9.e.d.l.l.e.8.*.} E E e.l.q.X.X.@.$.8.r.S.n.V X               ",
"                d Q.K.^.J.m.m.h.h.h.g.g.c.J.U.J.u.i.y.y.i.y.y.e.0.8.e.f.c.h.e.-.%.o.' ] k.l.e.#.X.2.e.j.k.` 2                   ",
"                y Y.^.K.K.m.h.h.c.c.J.U.!.x.-.+.[ *.9.y.9.=.*.=.8.=.=.9.d.y.9.8.*.@.o.&.v.l.r.e.r.j.j.>.u X                     ",
"                > L././.K.C.h.B.!.W.U.z.9.} ' ' ' %.-.0.0.@.*.2.*.%.=.9.i.y.0.-.-.8.-.u.l.l.v.n.a.>.0 X             .           ",
"                $ a./.E.K.K.C.W.|.G.-.} ' Q ' H E o.=.-.-.$.=.0.*.@.&.$.-.y.u.y.q.e.d.v.j.u.) y =                               ",
"                  ^ Q./.K.^.(.`.G.%.[ ' ( ( ( H E o.%.-.=.+.%.e.=.@.#.@.#.0.i.u.e.r.l.l.w.L o                                   ",
"    .             < i.E.^.^.}.).9.} ' ( ' ' ( H E o.$.-.*.} $.9.*.$.=.8.2.2.y.q.q.r.l.w.! 4                                     ",
"                    u a.W.^.!.!.f.%.[  .' ' ' ( ' } %.-.=.*.*.9.=.0.e.w.$.2.q.$.q.r.r.! v O                     .     .       . ",
"                      k y.E.Q.E.J.g.-.-.%.o.} } } %.=.9.=.=.9.u.u.u.2.| ! X.q.2.q.q.#.P e .                   .                 ",
"                      . q _ a.N.J._.W.J.g.u.y.y.y.0.0.e.9.9.u.i.r.8.W U ! 2.8.q.q.=.W c 1 .           .           .             ",
"                          + 0 B / <.i.J.a.1.c.c.d.i.y.y.y.y.y.*.$.! U G X.=.$.2.8.! P e -                                   .   ",
"                                . . # 5 - & n O.=.-.-.%.%.&.%.' ! U S F | #.=.=.X.R c e ,                                 .     ",
"                                            p ( } @.o.] ] o.W Y U S S S ' #.#.@.! P j 9 <                                       ",
"                                          1 G ( ' } ' E ] ] U G J S b G E $.#.X.! P j 0 <                                       ",
"                                        # B G ( ' ' E E _ Y G F b x D E { @.X.! R F j 0 *                                 .     ",
"                                      . h P E Q Q E R ] R S J b c S W X.! R W R R F z e *                                       ",
"                                      1 P W [ Q E E | W D S b x b U X.X.z B P P R U N h *               .               X       ",
"                                      p  .[ { [ { ] ' G D b c c l | $.W * q S P U U D l -                               X       ",
"  .                   O               B =.@.@.+.{ E H G b v h i T X.! j   * P T R H D l &                     .                 ",
"      .               d d #         - ` u...n e G H P S S b c K #.! F &   + P W H H S h @                                       ",
"                      2 2...5 + q K O.1.V =   1 J Y R G H E ] o.! F ,   . p W R H H b q                             X           ",
"                        m t.o._ =.0. .0     O l T X.$.$.#.@.! R j @     - I R P P D l *                                         ",
"                        . 1 p v K v -     X p | 8.9.8.8.{ Y b 9 o       e R ! R P b e o                                     X   ",
"                            o o @ @ % < 0 C &.e.e.=.@.! U h &         # I ! ! P c q O                                           ",
"                          = C L K T | #.#.#. .T I K J b j @         . B ..W N l 8 o                                     X       ",
"                            0 L _ <.=.=.! c 8 % o O @ o .         ; C ! F l q &                                                 ",
"                              X * < 5 q < o                   . t ^ T c w * .                                                   ",
"                                                            + m I z 9 & .                                                       ",
"                                                            2 p 8 % .                                                           ",
"                                                                                                                                ",
"                                                                                                                                "
};
