/* XPM */
static char *_f1f6b443421417d8df843f4894778d0Y3pvk4uQrrJ8kYyB[] = {
/* columns rows colors chars-per-pixel */
"64 64 256 2 ",
"   c #010401",
".  c #0A0603",
"X  c #010B03",
"o  c #0A0A05",
"O  c #030C0A",
"+  c #0B0D0A",
"@  c #050308",
"#  c #140C0A",
"$  c #011304",
"%  c #001C05",
"&  c #03130A",
"*  c #0B140C",
"=  c #021B0C",
"-  c #0C1A0D",
";  c #0A1207",
":  c #12130D",
">  c #151809",
",  c #031C12",
"<  c #0B1C13",
"1  c #061715",
"2  c #121B14",
"3  c #171714",
"4  c #160918",
"5  c #2D1C11",
"6  c #01230C",
"7  c #002B0E",
"8  c #06240A",
"9  c #022413",
"0  c #0B2315",
"q  c #012B14",
"w  c #02241A",
"e  c #0C251A",
"r  c #032C1B",
"t  c #0C2B1C",
"y  c #0D2916",
"u  c #132C1C",
"i  c #172519",
"p  c #003314",
"a  c #02331C",
"s  c #0C331C",
"d  c #023A1D",
"f  c #063717",
"g  c #0E3214",
"h  c #282517",
"j  c #382916",
"k  c #28331A",
"l  c #111D24",
"z  c #0C2D22",
"x  c #022923",
"c  c #182B23",
"v  c #023423",
"b  c #0C3423",
"n  c #033C24",
"m  c #0B3B25",
"M  c #023C2B",
"N  c #0C3D2A",
"B  c #08352A",
"V  c #123223",
"C  c #133C2C",
"Z  c #1A3B2C",
"A  c #173627",
"S  c #063A34",
"D  c #193D31",
"F  c #272926",
"G  c #24362D",
"H  c #263934",
"J  c #353629",
"K  c #442314",
"L  c #483726",
"P  c #00451B",
"I  c #024324",
"U  c #014B25",
"Y  c #03442B",
"T  c #0B442B",
"R  c #024C2B",
"E  c #0A4729",
"W  c #13422C",
"Q  c #17472C",
"!  c #01532D",
"~  c #045729",
"^  c #0B4333",
"/  c #024C34",
"(  c #0C4B33",
")  c #034C3A",
"_  c #084838",
"`  c #134C32",
"'  c #144B3A",
"]  c #184636",
"[  c #025433",
"{  c #0C5435",
"}  c #025B34",
"|  c #01543B",
" . c #035B3C",
".. c #0C5C3B",
"X. c #0B5738",
"o. c #135433",
"O. c #13543A",
"+. c #135C3C",
"@. c #1A5739",
"#. c #27442E",
"$. c #254638",
"%. c #26553B",
"&. c #374930",
"*. c #016333",
"=. c #02633B",
"-. c #0B633C",
";. c #036A3C",
":. c #0B693A",
">. c #13623C",
",. c #16643A",
"<. c #086A35",
"1. c #4D4F39",
"2. c #174B45",
"3. c #075947",
"4. c #165946",
"5. c #165B54",
"6. c #0C544D",
"7. c #254644",
"8. c #255A45",
"9. c #2F534A",
"0. c #016444",
"q. c #0C6B43",
"w. c #016349",
"e. c #036A4C",
"r. c #0A6947",
"t. c #146444",
"y. c #146B44",
"u. c #146C4A",
"i. c #196648",
"p. c #087648",
"a. c #187649",
"s. c #066955",
"d. c #1C6B55",
"f. c #176855",
"g. c #017354",
"h. c #017A5B",
"j. c #097758",
"k. c #137B5C",
"l. c #177856",
"z. c #266A49",
"x. c #25744C",
"c. c #266958",
"v. c #257657",
"b. c #377053",
"n. c #037D61",
"m. c #097763",
"M. c #1C7B64",
"N. c #167866",
"B. c #0F766C",
"V. c #267967",
"C. c #397666",
"Z. c #29756F",
"A. c #4D5A44",
"S. c #4A6E53",
"D. c #6F7152",
"F. c #5F6B59",
"G. c #04824D",
"H. c #17834D",
"J. c #00845C",
"K. c #068757",
"L. c #188658",
"P. c #0E935C",
"I. c #26875D",
"U. c #35845D",
"Y. c #028365",
"T. c #0C8464",
"R. c #018B64",
"E. c #038B6B",
"W. c #0B8B6B",
"Q. c #088769",
"!. c #138365",
"~. c #17876A",
"^. c #079669",
"/. c #189569",
"(. c #038C72",
"). c #0C8973",
"_. c #148B73",
"`. c #198874",
"'. c #0C9474",
"]. c #029B74",
"[. c #089879",
"{. c #14937B",
"}. c #169677",
"|. c #278767",
" X c #249365",
".X c #298978",
"XX c #348A79",
"oX c #25947A",
"OX c #3A9779",
"+X c #368E69",
"@X c #07A27A",
"#X c #18A579",
"$X c #15A66C",
"%X c #2EA37A",
"&X c #459576",
"*X c #518F73",
"=X c #56A37C",
"-X c #7F8C70",
";X c #8A8B66",
":X c #069C85",
">X c #179B85",
",X c #159B96",
"<X c #0E9591",
"1X c #269884",
"2X c #379987",
"3X c #32978E",
"4X c #08A687",
"5X c #13A583",
"6X c #17A889",
"7X c #19B48D",
"8X c #09AA96",
"9X c #16A897",
"0X c #05B598",
"qX c #15B899",
"wX c #09B187",
"eX c #25A787",
"rX c #37A78B",
"tX c #26AA94",
"yX c #28B999",
"uX c #36B192",
"iX c #06BAA2",
"pX c #18BAA7",
"aX c #07AFA0",
"sX c #27BAA8",
"dX c #34B6AA",
"fX c #489B88",
"gX c #47A685",
"hX c #58A986",
"jX c #4BB48B",
"kX c #47A897",
"lX c #48B79A",
"zX c #57B493",
"xX c #69AE90",
"cX c #51B5A8",
"vX c #70B9AB",
"bX c #0BC39D",
"nX c #04C7A8",
"mX c #02D5B8",
"MX c #0DCBB1",
"NX c #27C9B4",
"BX c #3BC6BB",
"VX c #31CDB1",
"CX c #25C59F",
"ZX c #55C8AE",
"AX c #6DC8B2",
"SX c #59C49B",
"DX c #10DCC7",
"FX c #38E3CF",
"GX c #30D3C0",
"HX c #4EDBC7",
"JX c #B1B59B",
"KX c #8CBAA8",
"LX c #93B2A3",
"PX c #95A991",
"IX c #87C9BF",
"UX c #ADCFC1",
/* pixels */
"D.;X;XD.-XJXJXD.F.1.J 4 . j A.1.D.D.1.b.=XAXSXSXSXSXjXuX%XrXjXgXxXhXhXxXfXl.V.rXfXgXcXvXcXkX.X.X{.).`.2XfX1X3XuXZXHXlX Xx.b.A.1.",
";XD.1.1.-XJXJXPXF.F F 4 L F.D.1.1.F.1.S.=XSXjXjXjX%X=X%X=X=XgX&X&X+X&XzXzXOX2XzXSXcXlXlXkXkXcXcXuXrXrXkXkX3XfXcXHXcXrXk.-.@.#.J ",
"PXS.#.S.xXLXKXIXxXC.C.*XLXUXLXF.&.A.U.*X=XSXhXjX&XU.&X&X*X*X*XU.l.p.|.kXSXlXlXlXuXrXrX3X2X3X2XkXlXrXkXkXfX3XdXcXcXtX^.g.[ I Q 8.",
"KX*XS.=XvXIXAXAXvXcXvXIXIXIXvXC.#.S.=X=XxX=X=X&X*X*X*XU.S.S.b.U.e.j./.uXlXuXuXuX{._.`.oXoX`..X.XoXOXXXXXXXZ.3XuXtX>X[.Q.0.I / b.",
"AXvXcXcXcXHXHXBXBXdXBXBXkXdX3XZ.I.=XzXhX=XU.x.z.S.1.1.1.A.%.S.U.L./.eXyXyXeX#X#X>X{.W.).`.B.B.1Xf.d.M.V.Z.M.oX>XyXCXVXVXQ.[ ) N.",
"kXZXcXdXtXBXFXFXFXMXpXNXdXBXdX.X X=X=X+XU.b.%.&.&.k k 1.1.&.&.z.}.7XCXyX7X6X[.'.(.(.Q.`.B.B.B.5.3.2.O.6.f.M.`.{.yXVXHXHXsXQ.m.1X",
"1XdXdXsXaXMXDXDXDXMXiXiXpXsXdX,XoX&XU.z.,.%.1.1.K K L L &.k Q ,.%XyXyX6X5X5X[.E.s.s.m.B.B.5.6.S O.^ M M 5.N.{.'.wXqXNXFXVXyXtXsX",
"B.,XVXNXDXiXpXDXDXmXDXDXaXaXsXdXuX&XI.o.o.&.J 1.L K j j k P ,.U.uX7X6X].].>X'.n.B.m.s.6.s.5.5.Z.9.$.B M 6..XoX6X6XqXCXNXNXNXsXpX",
"n.,XsXpXiXnXnX0XaXmXmXbXbXbXqX7XkXV.O.v p i j j K K j h 8 P H.%X#X}.[.'.E.Q.n.m.m.s.5.6.6.2.7.9.7.#.C ^ i.~.}.eX6X5X4XpXVXFXVXpX",
"(.4XpX0XiXnXnX0XiXnXmXnXbX0X7X}.2Xc.^ r y h 5 5 K j j h P <. XuX'.}.{.'._.T.B.k.s.5.5.2.2.7.7.7.7.H D O.t.l.!.R.@X5X4X9XpXpXaX4X",
":X6X7XwX0XnXnX0X0X0XnXbXqX7X4X'..Xc.] v u h 5 5 5 K k g E H.#XeXQ.~._._.`.N.m.f.6.4.2.] H H H H J J Z ' t.j.L.J.#X6XeX5X:X:X:X:X",
":XwX8X4X0XbXiX0X4X0XqXqX7X7X7X#XXXc.' b y i h 5 5 j k f {  X#X@XW.~.~.~.M.N.l.d.4.2.] D H G F F h l t T :.l.P./.}.%X%X'.>X>X4X8X",
"].4X0X8X8X8XaXaX4X9X9X6X5X7X6X#X.XV.4.M y y > h 5 h g I f.eX5X(.{.~.!.k.l.f.f.d.4.` N z u h h h 4 * w T :.I. X$XL./.!.j.n._.>X6X",
"(.4X0XaX8XaX,X9X,X9X9X,X4X[.}.}..XV.5.{ T g g > ; > y T M.tXwX].`.!.N.p.e.s.d.d.4.T s 9 e i i 3 : 1 r E p.L./. Xa.l.u.0.w.m.{.1X",
"8X8X0XaX,X<X,X,X<X,X,X1X:X:X].E.~.M.M.v.%.Q s - - ; w 4..X3X8X(.h.j.g.g.r.r.u.i.O.E s y y i > > + < b O.a.L.H.G.p.a.u.[ / w.~.1X",
"iXaX8X8XaXaX<X<XB.<X<X>X{.{.).n.W.~..X+XV.z.W t y , v 5.1XeX:X^.e.w.w.0.e.u.u.i.{ T a a y y - ; o - V 8.x.L.a.:.! ,.@.Y r Y l.2X",
"4X8X8X4X:X8XqX5X:X>X1X{.`.M.f.w.R.E.W.`.XXC.2.x 1 x 6..X3X<X^.J.=.w.w. .| 3.3.+.O._ S z z e = + : > A %.x.x.@.Y ] Q H D B M 3.Z.",
">X:X6X>X4X4X4X:XE.[.>XW.B.M.N.s.R.R.E.~..XC.5.S l S 6..XeX[.R.J.e.t.0.|  .t.t.3._ ^ C B V c 1 O . > u Q @.%.8.%.#.c l G c x ^ 4.",
").B.).<X>X:X[.[.Y.'.{.Q.m.N.N.j.J.J.h.k.Z.Z.c.2.S S f..XoXW.J.G.f.t.3.( 4.i.4.^ ^ S B D D c z O X > u A I E @.8.Z c c c D x v M ",
"B.B.m.).1X).(.(.Y.{.}.Q.h.m.!.!.h.J.h.m.Z.Z.Z.6.S 6.Z..X}.W.J.h.i.4.' ^ ' ' ' ^ C ] D D D c 3 1 - y k s s a m Z e 2 3 G c x w r ",
"Z.B.s.B.oX{.).{.n.'.}.Y.g.h.T.T.K.!.~.`.1X.XZ.6.s.N.Z..X|.W.h.j.4.7.$.] ] C C ] C ] H D c e e c - i u A Q s r 6 O 3 F F c 1 1 , ",
"Z.B.6.m.`._.).Q.h.^.'.h.g.g.h.g.h.K.~.~.`.`.B.6.~..X1X1X`.!.k.u.] H $.$.D C D ] C ] ] D c x c c - % 0 V Q #.u * < 3 F F F 2 < x ",
"B.B.m.m.{.>X).n.h.Q.Q.h.g.h.h.g.g.K.T.W.W.E.m.3.>X>XoX_.~.~.j.3.] A V D D C ] ] N m B C D C C V - $ & 0 G G c i F F F 5 F 3 3 2 ",
">X>X).).1XuX6XY.h.Y.Q.h.j.!.N.g.L.~./.'.'.(.E.n.6X6X}./.!.!.l.X.D e 9 z W N N T n a r n @.@.T t 9 - X & 2 h F F F h # . # : + @ ",
"6XE.g.Y.[.6X[.E.h.g.e.0.s.k.V.M.~.W.W.^.].].@X@XCX#X].^.T.j.s.d.C 0 9 r v n T { X.t.+.X...t.i.O.9 , * o # 3 5 3 4 5 # # > 3 # # ",
"4X].J.R.].@X].R.h.g.g.0.s.l.v.l.j.K.^.^.^.].@X@XbX@XR.R.L.j.-./ v q 6 q 7 7 d X.d.a.a.u.l.|.I.v.8.z & 2 3 . . : # # + * : 3 3 > ",
"wXwX@X^.].@XE.e.g.g.e.3.3.c.c.t.L.~.#X#X@X@X@XCX7X5X^.T.N.r./ d q q q 7 7 p ! q.q.q.;.p.l. XI.l.b.' w < +   . + + & = $ X X . X ",
"wXqX7X].^.'.Y. .0.3.3.[ _ O.4.3.L./././.'.$X@X5X6X}./.!.u.| n f 7 q d I R ..x.|.p.q.;.e.p.L.G.u.| c.' $ . 1 <   X $ % % % % % 6 ",
"[.tXeX}._.~.k.3.| | / M M ^ 2.O.l.j.j.K.T.W.W.Q._.oX|.f./ v v m q d E @.z.U.+X XI.L.H.G.L.L.L.p.=.M.c.v $ 9 , X % 7 P P U } ,.b.",
"j.~.`.V.M.V.d.3./ _ ^ M v M ' O.i.q.=.e.k.!.N.j.s.d.c._ x 9 s A s T Q @.x.b.U.a.I.l.a.L.a.p.p.p.T.K.k.f.Y = % p U *.;.G.L. X X+X",
") 3.6.5.c.5.2._ M ^ ^ M v M M n X.[ [ 3.r.f.s.5./ 2.' B w e c A p N ` ` o.,.>.} :.:.;.q.;.*.} ;.^.J.h.L.d./ / t.L.P.P.$X$XP.P.H.",
"S B S ' 2.^ M v x M S M v v r 9 Y Y Y Y M M M M M S B x z Z H G 8 m Q m d I ( R ..-.y.y.q.} :.j.G.G.p.j.|.OX+X XL.P.P.P.$XK.G.<.",
"z , 9 ] ] M O.c.n Y S _ 2.^ B r a r r C D C z t z z b z b V A Z = r V v w v m v n o.O.{ +.a.x.a.p.P.L.*.*.l. XL.L.L.L.j.p.=.! R ",
"c c V ] 8.z.4.3.f.4.) M r , x x 9 = = 9 , = < u c u t y t r q 9 , z B x z V A b q m ` ` @.@.,.-.a.L.H.;.*.:.;.=.u.a.u.y.+.{ R Y ",
"i c A b ' 8.4.Y u.f.c.d.2.v 1 1 w 9 t t 9 & , c e 0 0 t z V t r , w , 1 9 e w = 9 q p d I E o.~ v.x.a.:.:.~ U U X.{ { ( E n v a ",
"3 c e x S ) | / | s..XC.Z.6.S x v v m ] A t = = $ & < u z V V z , , & & , , , $ V y = $ 6 d Q +.z.o.~ +.+.E I I T m m s r 9 , = ",
"c l D 7.4._ | s.w.s.k.s.6.6.2.5.' N m W C t = X X = 0 e , & = , x , 1 1 1 < 1 = c 0 $ $ % p W %.o.f f E Q g g V q 0 0 , , & X X ",
"l x 7.C.V.w.w.T.W.Q.m.s.6.6.6.5.c.o.n n N b 9 = $ & < < < - < e < 1 O & 1 ; * < - $ $ 6 u u s s f 7 7 g s 8 % 0 $ $ X o + + + * ",
"1 x D f.N.s.h.Q.{.[.).).B.B.B.f.v.i.R T T b t b 0 * ; 1 i c i < 1 O O O X   X : o X X - u y 8 6 7 7 g g y % $ X X   @ . . # : : ",
"x S S _ 3.n.'.[.:X].(.(.).`.Z..Xi.3.{ O.` m a t G 0 X X 3 3 O   1 O O * O @ + 3 o     $ i 8 8 6 8 p A W g 0 ; X o o # . . @ # # ",
"1 x 3.w.!.{.5X[.:X4X].(.(.{.>X`.r.3.t.O.@.a X #.A &     * 2 +   @ X O O + + 3 3   X * o $ % % $ 7 7 P W 8 % % X     .   . o * 3 ",
"M 3.s.N.`.eX6X5X].].(.E.Y.(.).n. .! 3.X.@.( a 9.= = ; * 2 3 * +   O @ O + + # :   * 2 = $ = 6 q f g P Q q 6 = $ X X X .   X * * ",
"g.L.~.~.!.~./.Q.Q.Q.n.g.g.n.n.n. .I ..X.T 8.] %.X X * * o X o *   @ @ @ X + + * X i u 0 % 6 g E P U o.o.d 7 6 X X X X X X X & 1 ",
"`.oXoXL.j.s.j.s.3.e.w.3.3.e.n._.w.U -.R a @.] q X & < - X     X         @   O ; - u u q 6 p Q ` ,.-.z.,.d 7 % X X X & & O & & & ",
"/./.!.s.3.3.c.d._ ) 3.Y n 3.n.oXj.[ t.R p ( m $ u c u 2 $   X X   @   @     X X e y q q d ` o.{ ,.-.,.,.d 7 6 X X $ & ; & $ & & ",
"!.L.p.[ R T N z z S B x v | m.|.u. .t.R n ` B 9 Z G c < X                   X X 0 t q d E +.,.{ <.} ,.o.p 6 6 X $ * : < ; & & & ",
"0.;.} Y B z 1   2 1 , x _ f.l.l.u...>.Y ( ' a Q t V u < X X     @   @     @ X $ 9 r m E o.y.y.:.,.*.,.~ 7 6 % $ * * : : * & & & ",
"P P I T ] $.c O O O & w 5.+X|.s...0...Y o.` r %.9 V Z c = X X ; @ @ @ @ @ X X $ = a E { -.,.y.,.I.z.z.O.7 % & X ; : 2 2 & & O & ",
"v a r t t V A Z C N ( i.d.q.g.l.>.! { X.R Y E I 6 q q 9 = X X X 4 4 4 4 1 , , % R ! <.<.,.<.<.,.y.4.o.T a 9 & X * * < < < = = = ",
"0 e e e u V m C B I { i.u.0.*.;.0.! X.X.R U ! I n ` %.Q 6 X X * 4 4 4 4 O O 9 a [ ~ *.<.<.<.H.,.,.O.Y a 9 = X X & & < < 0 = = $ ",
"= , < e z V V m a Y O.t.r.} ! [ } ! [ [ U U ( Y ` %.%.G 0 X X o 4 F l 1 O , n X.-.*.<.~ <.<.<.<.+.` n q = $     X * - 0 0 = $ $ ",
"; * < y e y e w q n { +. .} ! } } } } X.! } +.R o.W b y y - X   O l x w 9 r [ d.u.;.<.~ ~ ~ ~ ~ +.` v 9 = $ X X X o * 2 < = $ X ",
"; & < 3 0 < = = 6 q N R /  ...-.=.=.q.q.} y.x.+.T E V s 0 = * - & , q a P ! q.a.a.p.<.*.~ <.~ <.@.W r = $ $ X X . X * * & & X X ",
"+ * < * 1 ; $ $ $ 9 r d E +.t.t.[ } -.*.[ t.a...d ( @.T 6 X 6 Z v M Y  .a.H.l.H.L.H.:.a.a.a.<.,.W b 9 % X X .   . o o + * X X X ",
"X o + + o $ X X X = 9 r T 4...[ Y R } ! ! -.a.} U -.i.{ d a E z.d.u.a.L.I. X XH.I.H.H.H.H.x.<.~ a 9 & X X       X o . X X X X X ",
". . . X o o X X X & 6 r T O.{ d R [ >.X.[ a.l.;.H.p.;.;.q.H.L.l.L.L.L.L.L.P.H.H.H.H.H.H.,.,.P 7 t 0 $ X   X X . . . . .       X ",
"          .   X = & 6 m W T ` O.n T O.O.! } q.=.G.p.G.G.$X$XP.K.p.H.I.L.L.G.<.<.:.~ ~ <.,.P 7 P = & X         . . o . .       X ",
"    . .         X = w t m C ` ` W a o.z.{ } q.p.G.G.G.$X#X$X^.P.p.p.p.;.<.;.;.<.a.~ P U P f 7 7 % X X         . o . . X X .     ",
"                X , y 9 r m W T Z q N z.O.! q. XG.G.K.$X$X$X^.K.p.:.} U U ~ :.y.+.U p 7 f p 7 6 X X         . o o X . . . X     ",
"                  < z , 6 C ` N Q q s E I ! u.I.G.<.<.G.K.P.G.G.=.~ P p d U ~ %.I f 7 % 8 f g 6 X           X X . @ X           ",
".                 0 u 6 9 m ] b ] A s q 7 { z.-.U U ~ p.p.q.;.-.Y d a p a m m m q r = $ = b t $           X X X X   X     X     ",
"                X , 0 0 r N m a C Q W p 7 ` t.I p P { x.z.,.R T p q 9 9 t t 0 0 , < , X & 1 &             X   X X X   X         ",
"                o & = w b m a q a d ` T p a d 7 7 a Q %.%.G u u e 0 & & & - & X & & & O X X @                 X   X             ",
"X               $ X X w m m r 6 % 7 Q %.p 6 6 6 q s s Z u < - i i < X     O X X @ @ O @       O         X         X X X         "
};
