/* XPM */
static char *a21e7fff13b4473cfa9d338c66701246wJ3h6JV45KriOoTe[] = {
/* columns rows colors chars-per-pixel */
"64 64 256 2 ",
"   c #0B0405",
".  c #160909",
"X  c #1A130A",
"o  c #170B16",
"O  c #1C1417",
"+  c #07041A",
"@  c #240904",
"#  c #27150A",
"$  c #261918",
"%  c #341A17",
"&  c #351008",
"*  c #2A2219",
"=  c #35271B",
"-  c #312F09",
";  c #080926",
":  c #191627",
">  c #1B1935",
",  c #100831",
"<  c #261927",
"1  c #30162E",
"2  c #2A2526",
"3  c #362A28",
"4  c #393229",
"5  c #292638",
"6  c #392A37",
"7  c #3B3637",
"8  c #2D3236",
"9  c #4F160F",
"0  c #502E0E",
"q  c #732915",
"w  c #4E162C",
"e  c #453729",
"r  c #463A37",
"t  c #512E2F",
"y  c #703030",
"u  c #671619",
"i  c #3C413A",
"p  c #3F4309",
"a  c #514808",
"s  c #685011",
"d  c #746C16",
"f  c #4A4338",
"g  c #56483B",
"h  c #534C2D",
"j  c #6E4B33",
"k  c #716827",
"l  c #11114C",
"z  c #373847",
"x  c #312D4D",
"c  c #0D0B6C",
"v  c #30326B",
"b  c #252058",
"n  c #4A3844",
"m  c #573947",
"M  c #4D3050",
"N  c #6E344B",
"B  c #4F3A69",
"V  c #6E3A69",
"C  c #3B434C",
"Z  c #4B4645",
"A  c #554748",
"S  c #494857",
"D  c #5B4656",
"F  c #5A5758",
"G  c #52534F",
"H  c #775748",
"J  c #685757",
"K  c #785957",
"L  c #6D4A4C",
"P  c #6D6359",
"I  c #595777",
"U  c #514D6E",
"Y  c #675766",
"T  c #775768",
"R  c #775A76",
"E  c #6D4C6F",
"W  c #686669",
"Q  c #78656A",
"!  c #696776",
"~  c #7B767A",
"^  c #756876",
"/  c #5B6669",
"(  c #8B3130",
")  c #8E351A",
"_  c #974538",
"`  c #915033",
"'  c #A8542F",
"]  c #8D6F2C",
"[  c #9A611C",
"{  c #C76B35",
"}  c #923848",
"|  c #A53A46",
" . c #874948",
".. c #985A56",
"X. c #8E524F",
"o. c #A95856",
"O. c #AB504F",
"+. c #906B55",
"@. c #B36B51",
"#. c #8E516F",
"$. c #AF576B",
"%. c #986666",
"&. c #887777",
"*. c #8F6D6F",
"=. c #A86669",
"-. c #B66767",
";. c #B97868",
":. c #A97778",
">. c #B97778",
",. c #AA716E",
"<. c #C9784F",
"1. c #C55663",
"2. c #C67A79",
"3. c #C86E6C",
"4. c #C2545B",
"5. c #7C857A",
"6. c #7B8A39",
"7. c #AD8F38",
"8. c #9A8E26",
"9. c #B2964D",
"0. c #968377",
"q. c #B08575",
"w. c #A3964F",
"e. c #D28857",
"r. c #C78877",
"t. c #D28B71",
"y. c #E69875",
"u. c #E2A95A",
"i. c #F1D159",
"p. c #C3B526",
"a. c #192C8A",
"s. c #262F94",
"d. c #2937B3",
"f. c #102DB4",
"g. c #3244A1",
"h. c #505189",
"j. c #635986",
"k. c #6E5990",
"l. c #726C8E",
"z. c #5350AF",
"x. c #7253B1",
"c. c #736DB0",
"v. c #5763B5",
"b. c #0118DA",
"n. c #081AC6",
"m. c #112FD4",
"M. c #2A37D1",
"N. c #031DE6",
"B. c #0326E9",
"V. c #0736E8",
"C. c #022CF4",
"Z. c #0329F6",
"A. c #0334FB",
"S. c #0538F7",
"D. c #1333E9",
"F. c #283BF2",
"G. c #1C4CD6",
"H. c #354CCC",
"J. c #1457EA",
"K. c #0744F5",
"L. c #175AF4",
"P. c #0D52EC",
"I. c #2653EE",
"U. c #1966F6",
"Y. c #166AF2",
"T. c #2D6EF8",
"R. c #4B54D3",
"E. c #746FCE",
"W. c #5559ED",
"Q. c #7273F2",
"!. c #5D62DF",
"~. c #583CAB",
"^. c #985A89",
"/. c #AE5A8B",
"(. c #877688",
"). c #917290",
"_. c #B97895",
"`. c #B06E8C",
"'. c #8E5AAF",
"]. c #8F6FAF",
"[. c #AC71A9",
"{. c #CB7890",
"}. c #C372A8",
"|. c #9075CC",
" X c #957AE5",
".X c #CB7BCB",
"XX c #7B8397",
"oX c #7A8AE9",
"OX c #2B81FF",
"+X c #8F8892",
"@X c #B88788",
"#X c #A69697",
"$X c #B69998",
"%X c #B08C8F",
"&X c #B1A39C",
"*X c #948EAB",
"=X c #A599A9",
"-X c #B391B0",
";X c #B8A9A7",
":X c #B6AAB5",
">X c #AFABB3",
",X c #D79A89",
"<X c #C99897",
"1X c #CF8D90",
"2X c #E59693",
"3X c #CAA497",
"4X c #D5A896",
"5X c #F2AA93",
"6X c #D88CAB",
"7X c #D696B7",
"8X c #CC92B0",
"9X c #E79AB2",
"0X c #C6AAA5",
"qX c #D6A8A9",
"wX c #C6B8B8",
"eX c #D3B0B4",
"rX c #E4A6A8",
"tX c #E8B8B8",
"yX c #F1B1B3",
"uX c #D9C3BD",
"iX c #F2C4B6",
"pX c #938FCF",
"aX c #B78FCB",
"sX c #BCB9C8",
"dX c #B4AAC7",
"fX c #8B8BF8",
"gX c #B393F5",
"hX c #B0A8FD",
"jX c #D798C7",
"kX c #CF92CE",
"lX c #E69BCD",
"zX c #D6A9C5",
"xX c #D9B7D3",
"cX c #CFAECB",
"vX c #E5B8C9",
"bX c #E5B9D7",
"nX c #FBB7D7",
"mX c #F0ABCB",
"MX c #CC98EE",
"NX c #D8BAFD",
"BX c #D2ABF6",
"VX c #F9B9E7",
"CX c #E8AEEC",
"ZX c #CAC4C6",
"AX c #D7C7C8",
"SX c #DAD3D7",
"DX c #D3CAD2",
"FX c #FAC9C7",
"GX c #E8C6DA",
"HX c #E6D8D7",
"JX c #F2CED1",
"KX c #D8CAF7",
"LX c #F7CBE6",
"PX c #F2D0F3",
"IX c #F6E6ED",
"UX c #F3E3DD",
/* pixels */
"N.b.b.N.N.b.b.b.b.N.N.Z.N.Z.Z.Z.C.S.Z.Z.A.Z.b.m.x.gXM.D.C.C.A.Z.Z.B.N.b.N.b.B.B.B.Z.K.L.U.T.T.U.U.U.U.T.L.P.L.J.J.Y.J.J.J.T.T.I.",
"b.N.N.N.N.N.N.N.N.N.Z.Z.Z.Z.Z.Z.F.D.V.B.B.m.D.Q.BXNXQ.m.S.A.A.Z.Z.Z.B.B.C.C.C.Z.B.C.S.K.L.L.L.U.L.U.Y.T.J.P.J.L.U.Y.P.L.I.T.V.m.",
"b.b.N.N.Z.N.N.N.N.N.Z.N.B.Z.b.M.gXfXm.M.fXoXF.M.MXPXKXR.m.A.A.A.A.A.A.A.A.A.C.S.C.C.Z.V.L.L.P.L.U.Y.Y.T.J.U.U.U.L.P.P.I.I.J.D.m.",
"M.W.F.b.N.N.Z.N.N.Z.Z.N.Z.D.n.W.NXNX XM.NXIXfXd.x.MXNXKXR.D.S.A.A.A.A.A.A.A.A.A.A.C.C.S.K.P.L.P.Y.Y.Y.Y.Y.J.Y.L.J.J.J.J.U.K.b.m.",
"'.NXW.b.b.N.N.Z.B.Z.Z.Z.Z.B.n.!.BXBXBXMXx.NXNXBX~.'..XCXCXR.V.K.A.K.S.A.A.A.A.Z.A.C.Z.V.K.P.L.P.Y.Y.Y.Y.Y.U.U.P.P.L.J.L.L.D.n.b.",
"aXMXgXd.Q.M.b.N.D.W.F.B.B.D.n.!.BXPXCXMX'.].CXPXMXMX.X}.CX XM.V.K.S.A.A.C.A.C.Z.C.C.Z.C.K.U.K.L.Y.OXP.L.P.U.U.L.J.L.L.L.V.B.b.D.",
"CXkXMXc. XW.M.m.d.fXQ.W.W.n.n. XPXVXCXCXMXlXVXlX'..X}./..XMX XM.V.A.S.S.A.A.A.Z.Z.C.C.B.A.S.P.Y.Y.Y.Y.P.P.K.U.J.P.L.U.L.V.B.B.D.",
"jX8XkXBXBXE. XW. X XgXNXgXM.M. XPXVX.XlXVXnXnX9XCX.X.X}.}.lXPXfXD.K.K.S.S.C.m.m.M.G.m.V.C.K.P.P.Y.Y.Y.J.J.G.J.J.G.I.T.J.B.B.B.D.",
"bX/.kXlXMXkXgXgX!.MXBXMXW.Q.CX X'.PXCXnXmXnX9XnXVXkXlX/./.VXLXgXm.S.K.V.V.m.H.oXNXhXR.m.V.S.P.Y.Y.Y.G.W.E.x.M.R.c.|.!.G.Z.C.B.D.",
"kX7X7XlX8XbXkXMXx.gXCX X'. XMXCX.X.XCXlX{.yX{.9X6XnXCX}.}.9X6XaXR.G.m.m.V.R.hXPXLXxXKXfXG.K.P.J.OXR.!.x.'.|.'.'.].V ~.d.M.D.D.D.",
"6X9X{.9X9XmXCXaX'. XBXMXBX XgXMXMX[.lXnX/.{.{.{.{.nXnXlXmX6X{.jXBXpXv.z.z.NXjX3.>.2XqXPXoXG.T.H.oX].[.}.#./.}.$.} N '.x.~.R.M.M.",
"_.9X{.`.lX_.kXaXBXgXkXkXMX'.~.'.[./.}.lXmX{.{.2X6XmXLX7X}.nX1X}.CXdXh.XXcX-XyX9X1.O.-.mXE.v.oXfX[.#.| 1.{.| 1.1.( y $./.'.|.E.~.",
"/._.lX6X}.$.8XCXxXBXkXaX[.BXE.x.MX/.#.}.nXLX2X9X{.yXnXlX{.9XnXnX-XB > ^.8X1Xy.y.3.( $.$.zXaXx.k.-X/.1.( | } | $.( } } /.$.} kX'.",
"[.*.6X`.{.6XlX8X8XCXjXlXlX.Xv.pX-X[.$./.6XmX6X{.{.yXmXnX9X{.7XqX#.6 > xX2X2X2.O.-.y 3.3.8X#.N #./.1.O.( 9 } $.$.$.3.1.( u w $./.",
"[.E #./.1X_.mXlXkXxXjX7XcX[.U x R )._.^.N >.6X`.$.6X9X6XmXnX_.E l.l.j.dX-XmX-.( {.`.-.=.N w $.} | ( | 3.} u O.1.| ( O.q w & w /.",
"].E -X8XlX1X_.7XCXlXjX7XcXkXE b I D w w w /.}.{.{.6X{.yX6X:.M M c.pXpX).#.%X{.rX2X1X2X{.L y $.| ( ( ( O.@.q y o.O.( t. .} N y } ",
").M ).8X_.#.6XlX6XmX`.E k.aX*Xj.C x , & #.[./.7X#.6X{.nX`.1 R *XpXXX*XU M *.:.%.y  .1.3.1.{.1.1.( u u { i.u._ 9 ) u.e.] X.w y {.",
"Y E #.E N #.7XlXlXVX8XV k.k.j.> l.l.^.M [.jXkX`.w N _.1XL E ! *Xl.j.].I Y T r 1 $ u | O.1.| 1.4.} ( [ i.i.p.@.y ] ] 8.[ 0 9 N $.",
"1 R R M M [._.6X}.7X8X^.j.c.S j.U x ).[.%X#.T 1 w t M t M E W F l.C 8 S 1 o   o 6 6 9 } 1.( ( ) _ ` [ u.p.p.s @.` 0 s 8.] +.` y ",
"K m *.^.B V V ^.[.^.V kXx.E.c./ 5 (.).E m N 1 @ n o . < 6 3 3 S C : : ; x B x 5 , 1 w $.| 4.1._ ' 9.8.[ p.p.7.0 u 0 0 ] 8.k 0 y ",
"%Xn T (.V M M ^.R V #.|.v.c h.C 8 U n < r n 3 < Z 2 o O z z 8 z 8 : 8 > v U B U : 3 X.1.O.| | ` [ 8.8.8.p d w.a 9 0 y k 0 7.9.] ",
";Xt m t R x V k.w 1 b x.!.a.c U < O x / Y 6 $ $ f G < o : 5 > 5 ; 5 8 > I b x I U D $.| O.} $.@.w.d 6.p p p d d s y 0 0 d 8.@.] ",
"L t = < B k.k.w $ > c s.!.!.a.l > + x pX+X+Xn 3 * 2 2 8 > l a.a.l C / x > , > x S J E y u =.H 0 a k 6.p - w.p.p.7.s 9 0 a a - s ",
"r 6 < > V E M , $ l a.d.G.d.v l + + l XX*X*XY 7 : 7 S > c v g.G.v > x C + : : > 2 < w N K A % 4 =   - h p a 6.d 8.] ] +.] ] a 0 ",
"b l c l x 1 o < : l f.m.G.g.U b : : ; U *X=X+XU U z U x v v.g.a.v v C C x ; > : o o   1 J 6 J = 8 p - - # - a 8.[ # h w.w.w.s a ",
"s.s.g.b : 2 m n : U g.f.a.v h.C 2 z x *X(.+X-XsXl.> I B XXoXv l v v C i > x / 5 < 5 : E ^ G G W P g p h p a a w.8.a 0.+.k ] s ] ",
"G.G.a.b n r A 2 : I h.h.I U C C 2 5 S S M Y Y dX>Xj.I l.dXx ; ; ; ; : > 8 l.j.I x > > Y Y w 8 A G g   X 4 4 h a a k +.h - k s k ",
"f.G.v l z 3 4 + G XXj./ l.! *Xl.S O 5 B Y M E =X*X>XXXdX8 : C C 8 + > C v U j.j.5 U 5 5 r O < Z 4 G f X * 4 h e - h h 0 0 k 0 k ",
"; > : 5 2 A P O / XXW 8 S ~ C W / S l.*XW ! *X+XU sX>X5 8 / / / XXl.U j.I h.I I x l.l.x M 2 3 O Z Y 3 L ).%X$Xq.+.H g H ,.9.j h ",
": O 3 7 4 f Z Z 7 C W / 8 G 7 Z +X=X*XsXDX=X=Xl.XX>X=XU / / 8 / 5.XXl.I l.XXl.j.U c.U B M Q J J W m R eXeXeXqX_.*.*.@XtXtX4X4Xq.",
": 2 i i O 4 i 7 4 2 2 3 f Z 4 8 *XXXXXZX*X:XDX=Xl.XX*XDX/ C / 5./ XX*X].B j.c.j.B v.v B :XIXJXLXLXzXvXvXzXvXtX<X:.`.<XtX1X,.r.,X",
"O * C 4 2 7 F F f = 4 4 2 X X Z ! XX&X/ l.(.=X=XXXXX/ XXXXXXXX/ XXXXl.*Xj.I I v U j.U =XLXtXJXJXLXJXeXqX<XqX:.%.,.:.<XrXr.O. .=.",
"$ O 4 G G 8 G J p i G 5./ 8 O G P ~ W (.=Xn 3 D Y l.XXS / / G G / W +X*X].h.h.B h.l.l.GXeX-XeXFXUXtX<X:.%...%.1X>.=.@XrX-.O.( ,.",
"3 O . 2 F P f 4 4 h i F 5.F X 7 Z O 3 Q Q Q % . 7 8 C G / G i i G ~ l.(.j.U k.v h.j.dXbX%X:.:.qXFXtXqXq.:.>.+.,.X...,X2.o.y 1XyX",
"* $ O O 3 f 3 4 = f f i F F +X/ 7 G 3 r A m $ 3 4 A   2 Z G i i 2 D D E l.k.s.h.h.c.xXJXtX<X`.@X3XtXFXiXiXeX:.#.L =.;.O.y ..yXtX",
"O 3 O   . O f r J &.4 4 5.+X+X0.q.P # e 3 A % = . K P   8 XXG i 7 r *.M k.c.x.c.z.j.[.%.,.:.q.@X$X4X<XtXtXqXAX7X_.%...y X.yX2X1X",
"O O < W 5 O < l.AXLX+X* J &.r +X0X+.H K e +.% e 9 Q 0X% * 7 f f 3 7 n x v v.c.c.h.l.).#.K X.%.q.qXtX3X@X@XqX<X%X`.,. . .2XyXt.o.",
": : *XIX^ o o cXGXAX=XM Y Y J $X4Xt.q.0.$Xq.t eXj +.@XH # A #XG r Z < + ; h.c.E.z.c.).%X_.3XtXtXiXqX3X1Xq.1XqX@X_.`.X.>.rX2X3.' ",
"; (.PXcX:XD =XPXGXxX|.c b b q.q.;.' @.+.4X<Xy qX0 j r.H e +.%XQ f J 8 ; ; b c.c.oXl.(.zXAXJXLXJXeX<X@X1XtX<X@X`.@X=...-.2.3.4.' ",
": >XIXcXxXGXxXGXvXkXs.c c , T 2.<.' t.,X,X,X+.r.q.4Xr.& t +.3X0.0.G i ; ; l c.pXv.B x ).zXFXtXtXtX0XtXqXtXFX<X@X_.>.o.O.4.' ) ) ",
"=XPXxXLXxXGXLX8XjXBXz.c c c M >.' { y.iXr.iXt.t.y.{ 4Xy t 3Xq.@.+X4 4 2 o , B k.+ ; , k.-XtX2X;.iXUXUXtXFXJXtX4X1X%.=.o.( q q q ",
"PXxXzXbXcXGXLXcXeXkXv c c c , u ' { u.5X5XFX,X<.<.[ r.q.:.,Xq.X.q.J G 4 W 7 (.U o : U (.).6XO...,XFXFXFXvX1XyXFXrX_.>.-._ ) q q ",
"GXvXLXbXGXvXGXxXwXk.b c c l E =.{ { { <.y.yXe.<.<.' <.2X%.rX;.+.w.P &XQ 0.J +XY P ! pX*X%X=._ ` -.2XrXrX1Xo.1XyXyXqX<X{.O._ O. .",
"-XbXLXLXGXbXLXxXkXkXc.c l l M 1X{ ) [ { @.,Xy.y.{ ' t.2X<XtX1X,X+.q.q.3Xj H g f G ^ R ).`.O.y ) _ t.1X>.r.3.2.,XrXFXFXyX-.O.O.-.",
"xXbXxXGXLXbXzXbXxXkXBX].l , % @.<.u.<.) @.y.e.e.e.<.<.2XiXrX,Xq.q.,XtX+.+.&X0.f Y l.< 1 #._ u q _ 2.2.O.r.2.t.1XrXFXrXyX2X-.$.-.",
"cXcX-X7XmXbXbXLXPXKXKXk.l I _.<.e.y.@.@.5X{ { { { e.<.<.rXyX5X@.e.3.,X4X%X;XSX#X+X+XJ e K  .q ( -.1X3.' -.;.3.3.rXyXrXrX{.;.-.o.",
"xXaX8XcXzXbXLXLXPXaX|.c.l , m X.' ) ' r.e.<.{ { { ' @.-.yXiX@.' <.t.;.q.;XD (.sXDX:X:XQ L X.j o.1X-.O.q ` ( O.-.3.rXnX2.o.1.2.>.",
"-XbX7X-X8XzXGXzXkXE b l , ; . @ 0 e.,Xe.' e.[ <.e.' @.5XiX,Xe.' ' =.q.qX0XJ l.cX>XGXcX#XH t ..2.r...` q q ) _ ' -.3.r.$.o.O.2.`.",
"R IXPX^.L 7XzX7XcXaXU , l : K y t.t.r.t.t.[ ) 5Xe.@.@.5XFXyX<.' r.' 9.4XuX>XDX>X+X#XwXuXuXq.%.%.j H y 9 9 j ( O.@.o.O. .O.O.>.$.",
"D cXGX8X-X8X%X#.#X].B x > < L 3Xr.) r.4Xt.9 +.@.q { ;.2XyXt.y.e.5XyXr.q.AXuX>X>X(.~ eX&X&X0X@Xq.9 9 j @ & y X.o...@.X.j -.=...L ",
"(.zXxXbX7X%X#.w E l.aXk.; O t :.h 0 y.@.` 9 j 9 0 O.;.5X@.{ 5X5Xy.9.q.K 0.>X>XwXwXQ uXwX&.0.&Xq.H % j & @ & L X. .j w t X.L t % ",
"cXGXbXqX$X`.A 1 #.-X*X1 1 r J J e *.r.t.0 # & # 9.` ..2X` e.e.@.;.@.H 0.7 ~ SXSXHX&.H JX&.t 3Xq.q.` j & .   @ & % . X @ @ @   O ",
":XzX-X@X{.*.#.T ).-X).n n Z Z r Q 3X@.+.& * @ = L @ H >.q r.;.0 +.q.&X&XsX+XZXDXHXAX+.$X%Xe @X` +.q.H # .     . # # 3 # $ . . 4 ",
"6 ).#.:.`.#.N M n M S i A P e r K j e & = 4 # # # 9 X.H q q.0 % t +.&.=XKXSXwXuXwXSX&X%X$X+.3Xq.s @.j @ X X X $ $ o # 2 < . . 3 ",
"6 (.`.%.%.m 1 t m A G / 0.~ Z * X e = g P e = - * 4 = . H j . g 0.+X+X>X>XSXZXwXuXuXuXuX4X&X4Xq.t +.= # = 4 * # % $ o $ $ o o $ ",
").[.#.y y y K T r r #XsX#X5.7 * G 7 4 4 f * i 4 = 4 X f G = # P &X&X>X&X#X=XZXuX&XuXeXuXuX3XuXH H P e . = $ * = $ . X . . X . 2 ",
"-X*.N t y N #X(.n r ~ SXsX/ r 8 i i * X - X * X 4 h 4 f k G p i P 5.#X:XHXDX:XuX0.%X0XuXiX4X&X*.r J . . X . . $ o o $ o   + . O ",
"-X).=. . . .%XGX=X&.! >X=XF +Xz 2 O X i O * X * a G f h G i f i - f r &.SXHXHXAXwX$X&XiX4XuXq.$X$X*.* O   . * @ . o o o .     O ",
").vX<X%.=.L *.=X=X=X^ (.sXsX:X>X/ 8 O X 2 4 i 4 = f f g h = i h f P g +XSXwXAXHXAXuX0X4X4X4Xq.q.%.*.A J r $ $ o o o o $ 6 4 $ 4 ",
"cXvX`.N t y *.Q J W Y ! DXsXsXsX>XsX5.i 8 - * 4 f * # 4 g = * - = g F ;XAXHX0X%XuXHXiX+.w.4Xq.0.L *.K Y T D o . o o o o t D m n ",
";X$X#.t # w W Y A F F +XZXcXZXSXsX>XSXsXwX5.G p 7 X   * P #X&X0.#X&XwXZX:XAX0X%X0X0X4XiXiX<X3X,.& K m M T T n $ o o . < D Y D Q ",
"#X-X*.A r % 3 m A 7 #XDXsXSXDXIXSXwXsXZXZX>XZX&XuX5.~ :XuXHXSXSXSXuXwX>X0X;X0.$Xq.0.0.+.%X+.+.L K ).+X`.R E T D n m J ^ Y ^ &.T ",
"&.&.J g t t $ 3 4 W sXSXZXDXZX>X>XZXSXSXZXSX&XwXAXHXUXUXUXUXSXSXZXUXUXHXuXHXuXuX;X0X&X*.%X0.K K :XxXcX-X#.).).*.R &.J D E T ).-X",
"A A *.L 3 L r Y #XAXSXSXDXsXZXcX5.wXUXZXZXSXwXSX;X:XuX;X0.uXSXSXIXUXSXHXUXAX;XUXuXiX&X0XiXUXJXGXDXDX-XPX*X=X).).).cX-X^.(.).^.%X"
};
